<?xml version="1.0" encoding="utf-8"?>
<!-- Generator: Adobe Illustrator 28.0.0, SVG Export Plug-In . SVG Version: 6.00 Build 0)  -->
<svg version="1.1" id="Layer_1" xmlns="http://www.w3.org/2000/svg" xmlns:xlink="http://www.w3.org/1999/xlink" x="0px" y="0px"
	 viewBox="0 0 256 264" style="enable-background:new 0 0 256 264;" xml:space="preserve">
<style type="text/css">
	.st0{fill-rule:evenodd;clip-rule:evenodd;fill:#F5F5F5;}
	.st1{fill-rule:evenodd;clip-rule:evenodd;fill:#FF5D01;}
	.st2{fill-rule:evenodd;clip-rule:evenodd;fill:url(#SVGID_1_);}
</style>
<path class="st0" d="M156.4,40.4c1.6,2,2.4,4.6,4,9.9l35.1,115.3c-13-6.7-27.1-11.6-42-14.2l-22.9-77.2c-0.4-1.3-1.5-2.1-2.9-2.1
	c-1.3,0-2.5,0.9-2.9,2.1l-22.6,77.2c-14.9,2.6-29.1,7.5-42.2,14.2L95.5,50.2c1.6-5.3,2.4-7.9,4-9.9c1.4-1.7,3.2-3.1,5.3-3.9
	c2.3-0.9,5.1-0.9,10.6-0.9h25.2c5.5,0,8.3,0,10.6,0.9C153.2,37.3,155,38.7,156.4,40.4z"/>
<path class="st1" d="M160.6,171.1c-5.8,4.9-17.3,8.3-30.6,8.3c-16.3,0-30-5.1-33.6-11.9c-1.3,3.9-1.6,8.4-1.6,11.3
	c0,0-0.9,14.1,8.9,23.9c0-5.1,4.1-9.2,9.2-9.2c8.7,0,8.7,7.6,8.7,13.8c0,0.2,0,0.4,0,0.5c0,9.4,5.7,17.4,13.8,20.8
	c-1.2-2.5-1.9-5.3-1.9-8.3c0-8.9,5.2-12.2,11.3-16.1c4.8-3.1,10.2-6.5,13.9-13.3c1.9-3.6,3-7.7,3-12
	C161.8,176.1,161.3,173.5,160.6,171.1z"/>
<linearGradient id="SVGID_1_" gradientUnits="userSpaceOnUse" x1="-286.7189" y1="2.1376" x2="-287.2296" y2="3.1097" gradientTransform="matrix(67.0872 0 0 60.9892 19392.1367 -2.0679)">
	<stop  offset="0" style="stop-color:#FF1639"/>
	<stop  offset="1" style="stop-color:#FF1639;stop-opacity:0"/>
</linearGradient>
<path class="st2" d="M160.6,171.1c-5.8,4.9-17.3,8.3-30.6,8.3c-16.3,0-30-5.1-33.6-11.9c-1.3,3.9-1.6,8.4-1.6,11.3
	c0,0-0.9,14.1,8.9,23.9c0-5.1,4.1-9.2,9.2-9.2c8.7,0,8.7,7.6,8.7,13.8c0,0.2,0,0.4,0,0.5c0,9.4,5.7,17.4,13.8,20.8
	c-1.2-2.5-1.9-5.3-1.9-8.3c0-8.9,5.2-12.2,11.3-16.1c4.8-3.1,10.2-6.5,13.9-13.3c1.9-3.6,3-7.7,3-12
	C161.8,176.1,161.3,173.5,160.6,171.1z"/>
</svg>
