<?xml version="1.0" encoding="UTF-8"?>
<svg id="Layer_1" data-name="Layer 1" xmlns="http://www.w3.org/2000/svg" viewBox="0 0 1920 1080">
  <defs>
    <style>
      .cls-1 {
        fill: none;
        stroke: #000;
        stroke-miterlimit: 10;
        stroke-width: 2px;
      }
    </style>
  </defs>
  <g>
    <path class="cls-1" d="m2503.68-158.1c9.79,24.21,18.25,49.87,17.03,76.54-2.55,40.29-29.92,66.41-61.22,88.52-7.82,5.53-15.89,10.8-23.88,15.99-23.53,19.96-75.07,35.04-63.75,73.86,4.09,8.44,11.72,11.82,20.35,13.18s18.27.69,26.41,1.07c28.46,1.45,57.17-2.51,85.4.73,8.05,1.05,15.57,6.13,17.93,14.16,3.53,9.57,2.48,19.21-.47,28.71-2.95,9.5-7.82,18.87-11.73,27.91-33.38,74.3-69.46,141.42-95.77,220.74-12.19,37.51-6.07,81.06,26.84,104.02,11.16,8.51,24.07,15.89,35.07,24.72s20.12,19.12,23.7,33.46c6.23,25.37-13.75,45.95-29.86,64.76-41.43,48.49-83.43,95.98-107.33,151.37-2.39,5.54-4.78,11.17-8.17,16.84-13.66,22.48-37.41,32.95-55.91,52.11-10.29,11.44-16.28,26.64-7.82,41.34,13.72,23.38,34.87,38.94,43.33,63.63,1.86,6,3.22,11.96,4.48,17.94,1.26,5.98,2.47,11.99,3.6,18.02,11.36,60.31,15.42,122.8-9.57,180.54-20.53,10.95-41.22,21.32-60.91,33.63-22.98,13.27-41.48,32.43-61.44,50.6-20.07,18.95-47.19.21-61.64-17.67-27.21-36.34-25.17-82.44-34.07-124.37-5.45-25.5-26.04-51.38-52.9-47.7-6.91.85-13.74,1.87-20.51,3.02s-13.54,2.4-20.63,3.3c-32.44.03-54.91-23.7-80.46-42.24-8.81-5.95-21.28-8.38-28.91,1.01-22.5,31.43-26.84,82.82-71.12,91.67-4.17,1.27-8.3,2.44-12.39,3.41-12.27,2.89-24.2,3.92-35.23-.32-69.93-27.55-111.79-98.58-124.63-171.41-2.92-15.3-3.42-29.98-1.92-44.05,7.51-70.35,65.04-125.56,119.25-168.52,10.46-9.57,20.65-19.29,30.21-29.39,10.76-11.36,20.73-23.21,29.42-35.85,2.9-4.22,5.65-8.52,8.25-12.93,23.16-48.88,55.27-92.64,71.12-146.52,3.12-11.58.83-24.67-8.46-33.08-21.83-16.45-46.32-30.85-53.37-58.62-2.31-5.7-4.75-11.37-7.31-17.01-12.77-28.21-28.33-55.75-44.04-83.39-19.65-33.95-33.72-86.27,16.08-98.39,15.35-3.75,31.77-8.37,47.14-14.86,5.12-2.16,10.13-4.53,14.94-7.15,12.03-6.26,20.96-19.48,16.42-33.66-6.59-16.85-20.38-27.45-28.64-43.72-3-7.59-3.44-16.44,1.41-23,16.45-21.83,51.45-38.82,37.03-71.04-2.62-6.16-5.46-12.3-8.42-18.42-11.84-24.45-25.62-48.44-38.16-71.91-18.64-34.73-32.38-86.1,15.53-101.19,38.89-12.19,85.67-25.61,99.45-68.37,15.53,2.94,31.18,4.99,46.9,7.18,9.4,1.26,19.96,2.65,31.52,4.53,29.03,4.64,55.52,17.66,80.14,34.53,38.11,25,69.01,66.8,116.75,70.32,37.91,2.24,61.37-31.07,92.85-49.23,15.77-9.3,32.24-13.51,49.77-12.93,11.13,1.24,22.26,2.6,33.37,4.03,11.11,1.42,22.2,2.91,33.27,4.5,23.18,3.23,35.63,5.04,35.63,5.04Z"/>
    <path class="cls-1" d="m2034.22-218.36c-3.4,54.43-57.88,74.58-93.32,109.04-40.11,38.86,5.1,92.98,19.94,135.86,1.82,5.2,3.61,10.43,5.34,15.69,10.98,26.07-5.88,51.04-4.67,78.37,2.71,40.32,27.39,89.92-21.03,111.47-5.05,3.13-10.35,6.01-15.81,8.68-16.39,8-34.22,14.1-50.84,19.51-44.6,14.17-26.05,63.44-9.74,95.13,6.35,12.29,12.71,24.49,18.85,36.66,3.07,6.09,6.08,12.16,9.02,18.23,4.17,7.93,7.96,15.62,13.32,23.52,12.98,16.89,30.6,28.79,39.24,48.31,22.11,50.86-16.12,98.61-23.59,148.21-.94,3.96-1.94,7.9-3.03,11.82-4.67,17.55-11.38,33.75-20.07,49.04-8.69,15.29-19.35,29.69-31.89,43.66-11.06,12.53-23.45,24.19-36.08,35.71-73.66,50.6-132.77,153.97-64.33,235.68,11.93,14.15,26.84,26.22,41.44,38.34,4.87,4.04,9.7,8.08,14.38,12.21,17.92,15.07,35.61,32.58,40.53,55.56"/>
    <path class="cls-1" d="m2083.68-209.54c-1.86,27.74-9.07,54.99-23.57,78.78-5.17,9.61-10.84,19.04-16.44,28.53-5.6,9.48-11.14,19.02-16.07,28.83-22.05,43.31-7.06,88.28,1.94,134.61,1.12,5.79,2.15,11.6,3,17.43,3.19,42.89,2.25,86.73-6.28,128.82-1.36,5.22-2.97,10.35-4.86,15.35-5.69,14.98-13.87,28.8-25.98,39.72-6.27,5.32-13.53,9.77-21,13.98-22.42,12.64-46.74,23.19-51.8,48.79-4.75,22.34.41,43.71,8.62,64.79,2.05,5.27,4.3,10.52,6.66,15.71,18.75,38.7,52.04,77.44,40.36,123.87-6.13,22.38-16.67,41.78-23.21,64.19-1.62,7.4-2.91,14.7-4.05,22.02s-2.14,14.67-3.05,22.03c-3.2,25.01-6.7,50.46-12.83,75.12-4.48,21.44-11.97,42.03-22.62,62.1-18.09,34.53-45.78,62.88-63.2,98.16-2.95,6.21-5.2,12.34-6.85,18.38-8.39,30.79-2.53,71.52,29.82,86.95,15.1,6.77,36.73,6.41,44.1,23.36,4.95,11.04-1.89,20.54-5.32,30.64"/>
    <path class="cls-1" d="m2351.19,1092.2c-26.55-9.25-52.29-.51-75.39,13.24-7.7,4.58-15.11,9.72-22.16,14.92-28.19,18.06-44.2,48.74-70.18,70.12-5.23,3.31-11.66,9.66-15.38,7.58-12.74-6.47-17.76-23.11-21.4-37.98-9.54-49.21,1.21-137.34-56.78-140.14-19.07-.85-37.98-.16-56.77,1.73-6.26.63-12.51,1.39-18.75,2.27-34.35,4.78-55.89-26.02-86.4-37.21-31.98-12.18-45.09,26.87-56.72,48.53-9.44,17.15-22.71,33-41.78,39.04-6.14,2.07-12.28,4.12-18.43,6.16-6.15,2.04-12.3,4.06-18.45,6.05-13.4,4.64-26.49,6.92-39.46,9.75"/>
    <path class="cls-1" d="m2346.83,1017.51c-9.31-6.44-19.21-11.97-29.52-16.29-24.02-8.48-47.56-19.29-72.6-24.19-28.66-10.92-50.2,7.04-71.74,25.01-3.45,1.95-9.53-.45-10.8-3.01-17.89-34.32-49.04-52.79-85.99-39.24-18.12,6.5-35.88,13.55-53.58,20.51-5.9,2.32-11.8,4.63-17.71,6.83-30.19,8.94-55.01-15.1-83.2-19.59-11-1.44-21.73,1.15-31.31,7.09-24.68,17.55-37.86,51-70.22,53.8-6.28.71-12.54,1.46-18.79,2.27-31.24,4.09-62.05,10.04-91.77,22.5"/>
    <path class="cls-1" d="m2336.13,970.11c-3.37-2.22-6.9-4.02-10.5-5.68-49.39-18.41-95.13-47.59-147.66-58.05-5.48-.92-10.98-1.57-16.46-1.88-16.43-.92-32.67,1.22-47.98,8.21-32.8,14.6-65.8,25.41-98.96,33.63-6.63,1.64-13.27,3.19-19.98,4.4-26.32,2.89-51.33-7.58-77.47-9.41-28.5-2.14-51.4,14.05-76.94,25.89-8.48,3.69-16.75,5.8-25.9,6.9-6.7.6-13.41,1.12-20.12,1.65-40.25,3.15-80.54,6.36-120.78,11.69"/>
    <path class="cls-1" d="m2317.83,927.52c-44.38-9.03-89.76-16.58-135.19-14.87-5.9-.08-11.82-.15-17.74-.21-53.25-.55-106.41-.4-159.54-.38-7.08,0-14.17,0-21.26,0-28.86.71-56.06-5.25-85.75-4.35-29.01,1.79-56.35,3.01-84.19,2.39-7.08-.2-14.17-.43-21.25-.67-28.34-.98-56.68-2.32-85.05-4.15-14.07-.43-28.17-.36-42.34.39"/>
    <path class="cls-1" d="m2286.29,871.83c-39.36-7.18-77.83-18.62-118.56-21.12-4.15-.48-8.3-.89-12.45-1.22-20.74-1.69-41.5-1.74-62.8-1.87-115.43,2.46-226.11-.85-337.58-17.76-16.21-2.3-32.45-4.52-48.74-6.54"/>
    <path class="cls-1" d="m2337.24,818.51c-41.2-11.38-83.44-18.51-125.54-21.53-5.13-.45-10.24-.84-15.33-1.15-6.97-.21-13.84.16-20.67.89-47.28,8.44-95.02,18.97-143.53,9.07-6.16-.99-12.3-2.11-18.43-3.34-42.9-8.64-85.18-22.61-127.85-31.46-13.26-2.54-25.63-5.76-39.09-6.72-25.15-3.29-50.88-8.26-76.08-8.51"/>
    <path class="cls-1" d="m2375.61,754.94c-29.4-14.89-61.06-23.13-94.67-23.44-9.47-.03-18.9.09-28.29.28-9.39.19-18.19.78-25.71,2.28-7.05,1.72-13.77,4.47-19.78,8.69-6.11,4.09-12.25,7.97-18.5,11.43-55.2,30.85-124.75,36.92-183.1,10.42-4.99-2.17-9.93-4.44-14.84-6.77-9.81-4.66-19.44-9.54-28.91-14.35-13.1-6.84-26.14-13.85-39.19-20.44-13.05-6.59-26.12-12.77-39.3-17.96-18.35-6.4-37.04-4.05-55.72-6.32"/>
    <path class="cls-1" d="m2427.67,680.12c-40.3-32.18-89.45-26.37-139.06-17.67-12.4,2.18-24.83,4.53-37.16,6.52-10.83,1.61-12.99,4.52-17.83,7.24-3.29,2.73-6.66,5.35-10.09,7.86s-6.92,4.91-10.47,7.19c-28.26,25.35-58.59.59-84.66-14.02-5.98-3.18-13.15-3.32-19.96-.22-34.32,17.89-70.76,45.89-108.11,23.62-5.04-2.51-10.03-5.17-14.98-7.93-19.8-11.03-38.92-23.73-58.07-36.23-4.8-3.03-9.88-5.04-15.14-6.41s-10.7-2.08-16.21-2.51c-11.36-.68-21.68-1.23-32.7-2.25"/>
    <path class="cls-1" d="m2488.74,607.62c-51-19.11-103.37-13.93-156.3-5.09-10.59,1.77-21.2,3.68-31.82,5.58-11.78,2.83-23.55,5.37-34.71,7.46-7.58,1.42-15.75,3.38-23.76,4.01-4.01.32-7.98.3-11.82-.27-3.86-1.15-7.79-1.66-10.72-3.64-48.64-37.55-107.44-52.45-166.77-40.75-6.38.39-12.72.85-19.05,1.48-12.65,1.26-25.24,3.33-37.69,6.21-7.47,1.73-14.89,3.75-22.25,6.07-26,14.57-54.77,8.4-74.29-13.2"/>
    <path class="cls-1" d="m2456.51,518.48c-9.75.15-19.41.36-29.04.64-9.63.28-19.22.61-28.82.99-27.42,1.3-54.83,2.26-81.87,4.22-10.05.26-19.99,1.17-29.85,2.52-14.79,2.03-29.42,5.06-44.05,8.42-16.78,3.97-35.31,6.54-50.98-2.33-46-26.9-96.4-37.06-149.65-37.25-5.92-.02-11.87.08-17.82.24-7.44.46-15.19-1.35-21.07-5.32-35.35-23.02-75.67-38.69-117.62-27.88"/>
    <path class="cls-1" d="m2417.29,481.55c-55.96.82-113.01-8.02-168.05,3.91-10.75,2.29-21.43,4.96-32.14,7.63-10.71,2.66-21.42,5.26-31.46,6.2-47.67-9.34-96.48-22.1-139.3-46.46-9.02-5.53-18.02-11.05-27.1-16.41-4.54-2.68-9.09-5.32-13.68-7.89-22.79-12.57-46.71-25.29-72.36-31.35-7.3-2.43-14.63-4.64-21.98-6.47-7.35-1.82-14.72-3.25-22.11-4.13-14.78-1.75-29.63-1.28-44.5,2.75"/>
    <path class="cls-1" d="m2408.93,427.82c-24.37-5.97-48.9-8.87-73.42-9.37-12.26-.25-24.49.12-36.56,1.26-37.27,4.13-70.6,22.5-107.11,30.45-45.92,10.35-90.66-9.15-127.35-38.06-21.88-16.96-39.38-36.08-62.93-49.38-7.49-4.06-15.06-7.98-22.75-11.69-7.68-3.71-15.48-7.2-23.44-10.43-10.11-4.31-20.2-8.51-30.32-12.48-40.47-15.86-81.36-27.91-125.47-27.05"/>
    <path class="cls-1" d="m2434.29,348.74c-20.54-12.28-43.87-13.13-67.05-10.25-7.73.96-15.44,2.34-23.03,3.85-12.15,2.5-24.69,4.5-34.69,11.37-4.98,3.54-10.08,7.01-15.28,10.39s-10.52,6.65-15.92,9.8c-31.83,18.25-66.53,32.89-103.55,35.55-5.92.4-11.83.49-17.72.21-29.46-1.39-58.41-11.76-84.9-35.21-29.32-26.12-49.03-59.63-86.26-71.69-11.19-4.1-22.43-8.27-33.75-12.44-11.32-4.17-22.71-8.35-34.22-12.48-40.35-14.84-78.93-25.8-119.03-35.08"/>
    <path class="cls-1" d="m2475.87,254.71c-35.94-17.86-72.45-4.79-108.1,10.64-8.91,3.86-17.69,7.86-26.06,11.54-12.42,4.58-23.74,11.82-35.86,17.65-4.04,1.94-8.17,3.73-12.46,5.22-30.97,7.35-57.91,23.81-88.64,32.57-28.26,8.29-56.11-4.95-81.69-17.1-26.95-13.92-53.91-27.85-82.84-37.28-5.67-1.88-11.02-4.4-16.42-6.83s-10.85-4.76-16.69-6.25c-7.54-2.26-16.12-4.77-24.75-7.33-43.1-12.78-85.97-26.54-129.18-38.31"/>
    <path class="cls-1" d="m2514.63,172.29c-31.25-3.63-60.61,5.26-90.05,18.23-34.93,14.98-69.26,32.31-104.4,44.58-8.2,2.62-13.87,3.61-20.72,3.88-8.61.41-17.05-1.15-24.74-4.89-11.87-6.56-24.05-12.18-36.44-16.86-6.2-2.34-12.45-4.44-18.74-6.28-57.23-12.1-119.29-8.24-174.86,8.93-7.19,2.67-14.91,2.57-22.43,1.45-40.35-6.15-79.5-18.47-119.03-26.95"/>
    <path class="cls-1" d="m2521.83,123.63c-11.27,2.41-22.33,5.41-33.3,8.81-10.97,3.4-21.81,7.21-32.8,11.23-48.69,18.06-96.7,44.39-146.63,56.74-7.95.82-14.38-.12-21.68-1.77-7.9-1.2-15.27-3.99-22.46-8.11-36.74-21.26-76.75-30.57-117.49-31.39-5.82-.12-11.66-.06-17.5.16-12.18.96-23.28.3-35.1,3.2-5.85.83-11.68,1.81-17.51,2.92-5.82,1.11-11.63,2.35-17.42,3.71-50.45.13-97.32-20.4-147.24-23.74-8.64-1.13-17.08-3.84-25.7-2.88"/>
    <path class="cls-1" d="m2481.72,109.05c-12.29,3.67-24.56,8.04-36.5,12.78-11.91,4.74-23.46,9.85-34.99,14.94-23.07,10.18-46.24,20.27-69.98,27.36-7.91,2.36-15.89,4.39-23.94,5.98-14.06,3.02-29.73,4.61-42.55-1.62-56.71-28.8-117.25-42.19-179.44-47.1-5.31-.92-10.64-1.87-15.98-2.83s-10.68-1.92-16.04-2.88c-56.57-9.28-111.03-26.8-168.09-28.97"/>
    <path class="cls-1" d="m2411.59,111.68c-19.35,6.39-38.08,13.94-57.39,20.16-9.48,2.98-19.04,5.53-28.7,7.27-9.67,1.74-19.45,2.67-29.37,2.42-10.45-.41-20.5-2.01-30.51-4.57-11.71-3.07-22.05-8.51-32.18-14.2-10.13-5.7-19.75-12.16-29.45-18.62-6.46-4.32-12.98-8.56-19.76-12.4-14.38-8.25-29.62-13.43-45.42-17.77-51.99-12.72-101.93-23.81-153.63-38.77-25.91-7.03-51.1-12.61-77.02-15.16"/>
    <path class="cls-1" d="m2368.52,94.8c-40.17,7.62-89.53,12.98-120.9-19.21-9.32-8.72-17.91-18.6-28.18-27-7.92-6.38-16.26-11.45-24.91-15.56-9.76-4.44-20.14-8.53-30.75-10.83-85.08-17.06-161.9-48.5-246.47-76.4-18.31-6.04-35.51-10.11-53.53-14.19"/>
    <path class="cls-1" d="m2406.77,41.47c-26.33.02-52.39,7.97-78.74.88-11.45-2.86-22.04-8.8-33.49-11.66-68.96-18.59-131.83-45.47-194.39-78.22-11.1-5.55-22.99-8.47-34.49-12.19-10.73-3.29-21.42-6.75-32.11-10.33-42.74-14.34-85.3-30.8-128.85-47.65-17.8-6.43-35.22-12.35-52.74-17.86"/>
  </g>
  <g>
    <path class="cls-1" d="m-289.17,350.63c23.61,11.16,47.22,24.3,64.4,44.73,25.44,31.35,23.02,69.11,15,106.58-2.01,9.37-4.36,18.71-6.72,27.94-3.77,30.62-31.44,76.64,3.2,97.52,8.73,3.43,16.63.75,23.9-4.1,7.27-4.85,13.9-11.88,20.14-17.11,21.91-18.22,40.33-40.6,63.28-57.35,6.63-4.68,15.6-6.04,22.78-1.74,9.08,4.64,14.84,12.44,19.12,21.43s7.05,19.17,10.3,28.47c25.82,77.25,44.79,151.06,79.22,227.21,16.46,35.84,50.48,63.71,90.24,58.28,13.98-1.31,28.46-4.63,42.54-5.6,14.08-.97,27.75.42,40.1,8.54,21.78,14.43,21.04,43.1,21.94,67.85,2.41,63.74,3.72,127.12,23.7,184.04,2,5.69,4.06,11.45,5.41,17.92,5.19,25.78-5.17,49.59-5.78,76.21.19,15.39,6.09,30.63,22.28,35.69,25.94,7.89,52.03,5,74.98,17.41,5.44,3.15,10.48,6.61,15.46,10.16,4.98,3.54,9.94,7.14,14.87,10.81,49.23,36.64,94.58,79.83,115.34,139.22-7.67,21.97-15.86,43.61-21.98,66.01-7.9,25.33-8.51,51.96-10.87,78.85-1.91,27.54-34.55,32.14-57.29,28.79-44.64-8.27-74.39-43.55-109.35-68.35-21.29-15.05-53.97-20.12-71.23.79-4.5,5.31-8.83,10.69-13.03,16.12s-8.33,10.94-12.93,16.41c-23.83,22.01-56.44,19.79-87.78,23.48-10.51,1.6-21.33,8.26-20.57,20.34,4.76,38.36,36.41,79.08,9.86,115.6-2.2,3.76-4.44,7.42-6.8,10.9-7.06,10.44-15.13,19.29-26.12,23.65-70.09,27.15-149.01,3.3-207.82-41.54-12.52-9.27-22.84-19.72-31.27-31.09-42.16-56.82-37.3-136.4-26.55-204.73,1.21-14.13,2.11-28.18,2.29-42.08.21-15.65-.49-31.11-2.68-46.3-.73-5.06-1.62-10.1-2.7-15.09-16.11-51.64-22.16-105.57-47.03-155.93-5.56-10.63-16.11-18.7-28.64-18.59-27.2,2.7-54.97,8.72-78.97-6.92-5.56-2.63-11.2-5.14-16.91-7.56-28.51-12.09-58.62-21.78-88.9-31.46-37.46-11.64-83.27-40.57-54.88-83.24,8.74-13.16,17.68-27.69,24.58-42.87,2.3-5.06,4.37-10.2,6.14-15.38,4.6-12.76,2.21-28.53-10.74-35.88-16.26-7.92-33.6-6.36-50.7-12.73-7.35-3.54-13.67-9.75-14.55-17.87-2.7-27.2,11.51-63.42-20.93-77.33-6.1-2.76-12.35-5.35-18.67-7.84-25.28-9.95-51.67-18.24-76.8-27-37.25-12.9-82.16-41.35-57.17-84.93,20.33-35.32,45.62-76.9,26.77-117.68,13.41-8.36,26.31-17.46,39.34-26.52,7.77-5.45,16.47-11.58,26.25-18.04,24.49-16.26,52.79-24.65,82.32-28.93,44.96-7.45,96.01,2.33,133.5-27.44,29.39-24.05,24.06-64.44,34.9-99.13,5.29-17.53,14.54-31.79,27.82-43.24,9.02-6.63,18.13-13.17,27.26-19.66,9.13-6.48,18.3-12.91,27.51-19.24,19.23-13.34,29.61-20.45,29.61-20.45Z"/>
    <path class="cls-1" d="m-675.16,624.55c34.39,42.32,8,94.06,5.3,143.42-3.15,55.75,66.78,64.91,106.75,86.36,4.86,2.59,9.72,5.22,14.56,7.92,25.74,11.72,30.27,41.51,49.69,60.79,29.33,27.81,81.09,47.55,60.1,96.2-1.59,5.72-3.53,11.43-5.74,17.1-6.63,16.99-15.6,33.56-24.16,48.8-23.19,40.65,23.85,64.29,57.33,76.54,13,4.73,25.94,9.39,38.7,14.18,6.38,2.39,12.72,4.82,18.99,7.29,8.44,3,16.44,6.09,25.73,8.26,20.99,3.62,42.01.42,61.59,8.92,50.73,22.4,54.99,83.42,83.12,124.95,2,3.55,3.93,7.13,5.79,10.74,8.46,16.07,14.51,32.52,18.49,49.66,3.98,17.14,5.9,34.94,6.14,53.71.36,16.71-.84,33.68-2.31,50.71-19.85,87.13,6.76,203.2,112.46,216.88,18.37,2.32,37.51,1.09,56.45.1,6.32-.33,12.61-.63,18.84-.77,23.39-1.07,48.27-.19,67.46,13.38"/>
    <path class="cls-1" d="m-632.83,597.51c17.44,21.65,30.61,46.57,36.07,73.89,2.71,10.57,4.94,21.35,7.25,32.12,2.31,10.77,4.7,21.54,7.73,32.09,13.15,46.79,54.65,69.69,92.67,97.66,4.75,3.5,9.45,7.07,14.02,10.78,31.42,29.36,60.44,62.24,82.7,98.96,2.54,4.76,4.83,9.62,6.83,14.58,5.97,14.87,9.33,30.58,7.82,46.82-1,8.16-3.33,16.35-5.96,24.52-7.91,24.49-18.64,48.73-5.01,70.98,11.66,19.64,29.93,31.86,50.26,41.79,5.08,2.48,10.29,4.82,15.55,7.04,40.02,15.74,90.75,21.65,113.64,63.71,10.66,20.61,16.07,42.02,26.45,62.93,3.82,6.54,7.83,12.78,11.95,18.94s8.37,12.23,12.69,18.26c14.6,20.56,29.28,41.64,41.49,63.92,11.24,18.79,19.69,39.01,25.46,60.99,10.11,37.65,8.96,77.26,20.08,115.01,2.04,6.56,4.54,12.6,7.42,18.15,14.7,28.32,46.62,54.3,80.86,43.72,15.69-5.25,31.35-20.18,48.26-12.72,11.12,4.76,12.53,16.38,16.86,26.13"/>
    <path class="cls-1" d="m-576.75,580.61c14.62,18.61,29.25,36.99,40.45,58.33,16.75,32.33,24.2,67.91,45.65,96.95,6.26,9.21,13.11,18.18,20.69,26.77,25.7,28.59,50.39,57.15,73.62,87,5.81,7.46,8.22,14.11,11.09,21.34,2.11,6.3,4.28,12.59,6.52,18.85,11.56,31.44,24.47,62.11,38.12,92.11,2.85,6,5.76,11.97,8.74,17.91,14.87,29.69,31.26,58.54,49.14,86.31,5.22,6.58,11.42,12.56,18.88,17.79,3.36,2.32,6.72,4.64,10.08,6.97,3.36,2.33,6.72,4.66,10.08,7,49.44,20.88,61.97,70.24,71.03,118.43,1.43,4.79,2.96,9.56,4.64,14.27,3.37,9.43,7.33,18.67,12.25,27.62,7.51,14.16,16.41,27.09,26.2,39.16,14.5,18.31,30.81,35.14,48.25,51.12,17.16,15.09,42.45,23.44,49.42,45.68,8.39,24.85,20.98,46.33,36.65,64.84,3.92,4.63,8.03,9.07,12.29,13.33,39.11,41.1,93.84,56.8,148.27,77.57,11.31,3.66,7.08,18.28,4.35,27.98"/>
    <path class="cls-1" d="m-502.72,574.1c21.79,25.22,41.29,52.85,53.16,85.31,14.71,40.39,29.48,78.53,53.25,113.7,7.03,10.43,14.5,20.61,22.13,30.64,7.64,10.03,8.7,15.29,12.16,22.55,1.95,5.44,3.87,10.92,5.77,16.41,6.1,16.12,11.36,31.81,19.47,47.43,14.97,25.33,26.62,50.09,39.64,76.79,4.91,11.08,10.02,21.07,18.85,28.76,3.64,3.83,7.44,7.53,11.35,11.1,23.43,21.47,50.37,38.67,77.64,55.03,5.85,3.6,11.7,7.2,16.7,11.76,8.8,7.43,17.99,17.85,29.84,26.04,2.82,2.43,6.63,4.7,6.72,7.95.37,5.32.86,10.6,1.46,15.85.6,5.25,1.32,10.47,2.14,15.64,12.32,100.68,87.43,179.61,161.32,244.18,5.25,4.17,10.57,8.25,15.96,12.25,48.45,36.03,101.84,65.98,152.77,99.26,15.88,10.13,16.49,32.99,24.46,50.59"/>
    <path class="cls-1" d="m-441.41,558.1c32,35.45,53.77,78.03,55.26,129.4.99,37.38,22.05,67.22,43.41,95.2,4.96,6.39,10.2,12.57,15.71,18.51,2.75,2.97,5.58,5.88,8.47,8.72,2.9,2.85,5.86,5.63,8.93,8.35,28.23,21.13,55.2,42.84,84.95,61.62,16.8,11.43,33.86,24.61,36.41,46.09,2.78,30.05,13.4,57.48,36.84,77.18,4.44,4.42,8.95,8.78,13.52,13.07,4.57,4.3,9.21,8.53,13.92,12.7,4.45,4.41,6.63,6.57,14.41,15.24,10.31,11.49,21.47,21.82,34.43,29.23,5.57,3.21,11.03,6.56,16.35,10.06,86.9,48.75,121.75,143.48,128.75,241.38.76,12.07,8.34,24.19,20.57,29.14,13.88,5.73,27.27,12.08,40.14,19.03,77.22,41.7,135.75,105.02,169.32,185.01"/>
    <path class="cls-1" d="m-415.34,519.08c41.37,37.87,72.95,87.32,63.69,148.49-5.98,38.44,9.63,84.81,46.54,103.48,7.65,2.5,15.29,4.88,22.87,7.27,28.41,8.95,55.9,18.02,79.72,34.39,3.97,2.73,7.84,5.66,11.6,8.83,41.21,32.63,65.35,80.59,82.03,129.64,2.22,5.43,4.43,10.9,6.62,16.4,2.2,5.5,4.39,11.03,6.6,16.59,3.36,8.67,8.19,16.3,13.51,23.64,4.05,5.15,8.59,10.95,13.21,17.01,6.92,9.1,13.44,18.26,19.94,25.13,4.63,4.54,9.26,9.54,14.85,12.77,5.09,2.72,10.08,5.56,14.95,8.53,4.88,2.97,9.64,6.06,14.29,9.27,18.12,12.76,34.99,27.05,49.77,44.15,3.62,4.14,7.1,8.38,10.43,12.73,9.99,13.05,18.65,27.07,25.84,41.97,2.4,4.97,4.63,10.03,6.69,15.16s3.95,10.33,5.65,15.57c7.49,24,7.26,48.42,12.74,72.68.99,4.15,1.79,9.41,4.92,13.1,2.35,4.08,5.42,7.74,9.13,10.94,6.32,6.21,12.19,11.77,20,15.96,80.71,49.75,121.3,137.52,181.44,207.61,25.9,31.2,55.42,57.9,81.78,88.95"/>
    <path class="cls-1" d="m-404.77,464.7c30.87,24.32,66.42,48.9,76.52,89.79,9.01,37.79,2.35,74.5-.12,113.22-2.76,42.23,22.16,85.36,65.86,89.85,8.38,2.26,16.77,4.29,25.08,6.34,33.26,8.21,65.35,16.83,90.89,42.59,9.35,9.54,17.47,19.72,24.63,30.37,3.58,5.33,6.92,10.78,10.06,16.33,6.39,11.46,12.41,22.73,16.72,34.36,2.48,5.88,4.83,11.82,7.09,17.8,4.52,11.96,8.66,24.1,12.73,36.26,3.55,9.32,6.94,17.97,12.08,26.73,6.89,9.07,14.09,17.91,21.73,26.45,6.43,7.33,13.03,14.53,19.82,21.63,6.79,7.1,13.78,14.11,21,21.02,14.13,13.76,33.13,18.01,50.12,26.44,18.5,9.02,32.41,24.03,41.55,41.66,3.72,6.86,6.81,14.16,9.3,21.79,3.2,9.88,6.26,19.79,9.34,29.68,3.05,9.79,5.99,19.61,8.99,29.42,5.16,21.53,12.73,42.18,22.87,61.36,2.03,3.84,4.16,7.62,6.38,11.35,9.79,15.47,18.36,31.73,33.22,44.53,16.87,14.29,28.11,31.58,40.43,49.3,3.64,5.82,7.22,11.69,10.79,17.58,53.61,88.28,106.92,178.52,211.95,220.81,3.12,1.68,5.6,3.81,7.3,7.05"/>
    <path class="cls-1" d="m-378.11,413.75c33.6,13.68,73.27,33.15,78.71,72.91,8.03,52.83,1.51,103.79-5.72,156.9-5.75,42.69,16.52,89.88,61.98,94.38,13.16,2.49,26.87,2.55,39.91.65,8.37-1.19,16.81-3.02,25.38-4.57,8.57-1.55,17.27-2.76,26.19-2.84,31.4-.08,39.04,38.12,52.54,61.15,4.94,8.17,9.48,16.75,13.77,25.58,4.31,8.82,8.4,17.88,12.4,27.05,7.49,18.54,15.98,36.83,24.38,54.86,4.38,8.9,9.01,17.59,14.08,25.89,15.2,24.91,34.27,46.4,61.69,60.24,7.66,2.66,15.93,4.19,24.92,4.28,9.45.5,18.52.45,27.53.71s17.97.84,27.22,2.59c30.31,6.2,39.15,37.49,42.98,64.04,4.83,31.77,9.04,63.98,15.27,95.47,2.08,10.5,4.38,20.91,6.99,31.09,1.04,4.53,2.2,9.03,3.48,13.5,1.28,4.46,2.67,8.91,4,13.48,7.67,27.08,11.28,55.57,29.68,77.52,17.94,21.29,41.44,36.72,55.98,60.38,2.04,3.31,4.07,6.62,6.1,9.94,45.89,78.55,101.19,156.91,183.91,200.79"/>
    <path class="cls-1" d="m-329.65,378.62c29.17,11.11,60.55,24.29,75.84,53.78,5.47,10.49,7.2,21.54,6.97,32.75s-2.43,22.55-4.79,33.64c-10.51,43.79-22.28,85.76-25.69,131.77-1.71,24.94,5.26,52.03,27.36,64.58,8.52,5.03,18.68,6.13,28.44,3.67,7.3-1.5,14.37-4.61,21.22-8.71,20.55-12.31,39.13-33.51,56.31-46.56,10.06-7.65,24.23-20.41,36.27-9.6,24.24,22.62,32.04,52.44,43.35,82.54,24.96,63.51,40.79,127.4,76.32,184,14.23,22.52,41.64,32.42,67.66,33.37,9.11.52,18.38.27,27.6-.53,9.21-.81,18.36-2.18,27.24-3.94,32.85-6.63,51.81,24.14,53.99,54.61,3.99,54.92,6.11,110.65,18.19,162.85,1.34,5.8,2.81,11.56,4.41,17.26,2.4,8.08,5.67,15.47,5.9,24.04,2.02,34.47-8.27,77.63,26.81,98.47,22.78,13.03,49.67,15.39,68.26,34.1,4.47,4.6,8.96,9.17,13.46,13.72,13.5,13.67,27.06,27.24,40.05,41.11,7.79,7.99,15.42,16.05,22.87,24.22,29.77,32.7,56.54,67.28,78.33,106.71"/>
    <path class="cls-1" d="m223.13,1018.41c-51.44,3.66-83.64,41.25-114.21,81.28-7.64,10.01-15.19,20.16-22.9,29.98-6.87,8.53-6.49,12.13-8.2,17.41-.57,4.24-1.27,8.45-2.09,12.62s-1.76,8.3-2.83,12.38c-3.6,37.79-42.68,40.15-71.74,47.08-6.55,1.71-11.92,6.47-14.82,13.37-13.11,36.41-20.92,81.7-63.47,90.65-5.41,1.57-10.88,3-16.39,4.33-22.04,5.31-44.7,8.94-67.25,12.72-5.58,1.03-10.68,2.99-15.47,5.55s-9.27,5.72-13.61,9.14c-8.82,7.2-16.78,13.79-25.57,20.52"/>
    <path class="cls-1" d="m218.89,923.71c-50.45,20.53-85.44,59.83-118.36,102.21-6.59,8.48-13.09,17.07-19.61,25.67-6.74,10.07-13.68,19.91-20.47,29.01-4.61,6.18-9.29,13.16-14.75,19.05-2.73,2.95-5.66,5.63-8.88,7.81-3.61,1.77-6.85,4.06-10.35,4.59-61.21,5.36-114.54,34.27-150.23,83.09-4.42,4.61-8.78,9.24-13,14-8.45,9.5-16.3,19.55-23.5,30.11-4.32,6.34-8.41,12.85-12.25,19.55-9.24,28.33-34.57,43.3-63.57,40.65"/>
    <path class="cls-1" d="m189.14,879.95c-39.84,31.29-73.91,67.18-107.45,104.94-8.39,9.44-16.74,19-25.06,28.63-6.68,7.62-12.91,15.47-18.89,23.46-5.98,7.99-11.71,16.13-17.4,24.31-3.55,4.96-7.48,10.06-12.05,14.1s-9.77,7.03-15.89,7.74c-40.25,4.72-78.84,17.4-113.2,39.2-5.49,3.55-10.82,7.35-15.97,11.39-12.87,10.1-24.6,21.73-34.94,34.96-3.45,4.41-6.74,9-9.87,13.76-12.41,17.26-19.57,45.6-46.46,43.24-13.45-1.18-27.81-3.66-40.76,1.58"/>
    <path class="cls-1" d="m134.77,880.02c-7.07,6.72-14.03,13.43-20.92,20.15-6.89,6.73-13.72,13.48-20.52,20.27-19.28,19.55-38.78,38.83-57.33,58.6-7.21,7.01-13.9,14.41-20.23,22.09-9.5,11.52-18.2,23.66-26.68,36.04-9.65,14.29-21.53,28.74-39.06,32.84-52.05,11.4-96,38.09-135.28,74.06-4.36,4-8.67,8.1-12.94,12.25-5.16,5.38-12.09,9.3-19.1,10.37-41.6,7.04-81.86,22.85-105.38,59.23"/>
    <path class="cls-1" d="m80.9,879.46c-40.58,38.53-88.52,70.71-120.9,116.78-6.36,8.97-12.39,18.18-18.46,27.4-6.07,9.22-12.18,18.39-18.93,25.88-41.38,25.45-85.91,49.15-133.91,60.27-10.38,2.05-20.74,4.09-31.05,6.3-5.15,1.11-10.29,2.26-15.41,3.47-25.28,6.21-51.48,13.07-74.45,26-7.02,3.16-13.9,6.5-20.54,10.14-6.64,3.64-13.03,7.59-19.06,11.96-12.05,8.73-22.65,19.14-30.85,32.18"/>
    <path class="cls-1" d="m38.34,845.62c-21.97,12.13-41.96,26.63-60.33,42.88-9.19,8.12-17.92,16.69-26.03,25.71-24.6,28.3-36.65,64.4-58.11,94.99-26.74,38.74-72.86,54.73-119.42,58.34-27.58,2.36-53.41.17-79.74,6.35-8.27,2.09-16.49,4.34-24.65,6.83-8.16,2.48-16.27,5.2-24.3,8.23-10.35,3.68-20.62,7.43-30.75,11.38-40.51,15.77-78.73,34.63-110.59,65.16"/>
    <path class="cls-1" d="m3.38,770.3c-23.43,4.89-41.15,20.08-56.24,37.92-5.03,5.95-9.77,12.19-14.32,18.44-7.24,10.08-15.11,20.04-17.79,31.87-1.26,5.98-2.66,11.99-4.2,18-1.54,6.01-3.22,12.02-5.06,18-11.03,35-26.61,69.28-52.03,96.32-4.08,4.31-8.37,8.38-12.89,12.17-22.6,18.95-50.91,30.95-86.28,31.66-39.26.67-76.47-10.6-112.02,5.77-11.01,4.57-22.09,9.13-33.24,13.73-11.15,4.6-22.36,9.26-33.62,14.03-39.72,16.44-75.52,34.53-111.29,54.89"/>
  </g>
  <g>
    <path class="cls-1" d="m52.74,362.49c-26.06,1.6-53.09,1.48-77.99-8.14-37.4-15.2-53.49-49.45-64.52-86.14-2.76-9.17-5.2-18.5-7.58-27.72-11.46-28.65-9.4-82.31-49.82-83.9-9.31,1.2-14.93,7.36-18.96,15.12-4.03,7.76-6.45,17.11-9.4,24.7-10.41,26.53-15.76,55.02-27.79,80.75-3.55,7.3-10.76,12.82-19.12,12.51-10.19.31-19-3.74-27.08-9.55-8.08-5.81-15.42-13.4-22.74-19.98-59.87-55.23-112.07-110.75-178.94-160.87-31.7-23.46-74.94-31.48-107.16-7.55-11.61,7.89-22.7,17.78-34.57,25.42-11.87,7.64-24.52,13.01-39.25,11.85-26.04-2.15-39.21-27.62-51.93-48.86-32.84-54.68-64.54-109.58-109.49-149.81-4.49-4.02-9.07-8.07-13.38-13.09-16.98-20.08-19.38-45.94-31.68-69.56-7.58-13.39-20.1-23.89-36.73-20.53-26.53,5.59-47.99,20.71-74.09,20.9-6.28-.14-12.37-.74-18.44-1.45-6.07-.7-12.15-1.46-18.23-2.3-60.8-8.37-121.35-24.34-168.17-66.37-3.87-22.95-7.13-45.85-12.56-68.43-5.3-26-17.6-49.63-28.49-74.33-11.61-25.05,14.77-44.82,36.31-52.84,43.1-14.28,86.16,2.29,128.75,7.16,25.91,2.92,56.98-8.39,62.02-35.03,1.38-6.82,2.59-13.62,3.64-20.41s2.02-13.6,3.42-20.61c10.27-30.77,39.9-44.55,65.59-62.9,8.44-6.47,14.71-17.52,8.22-27.74-22.66-31.31-70.02-51.73-64.37-96.53.11-4.36.32-8.64.7-12.83,1.15-12.55,3.96-24.19,11.48-33.31,48.32-57.58,128.96-74.73,202.1-63.79,15.44,2.08,29.52,6.27,42.38,12.16,64.33,29.45,98.43,101.52,121.96,166.57,5.75,12.96,11.74,25.7,18.28,37.98,7.36,13.81,15.43,27.02,24.67,39.27,3.08,4.09,6.29,8.06,9.64,11.92,39.01,37.47,70.31,81.81,116.38,113.94,9.99,6.63,23.13,8.62,34.06,2.48,22.53-15.48,43.95-34.14,72.53-32.01,6.14-.38,12.29-.9,18.45-1.53,30.81-3.16,61.86-9.18,93.06-15.3,38.43-7.86,92.51-4.6,88.21,46.47-1.31,15.74-2.14,32.78-.87,49.41.42,5.54,1.08,11.04,2.04,16.43,2.12,13.4,11.82,26.06,26.71,26.26,18.07-.9,32.5-10.62,50.55-13.29,8.15-.44,16.68,1.95,21.36,8.64,15.48,22.53,20.49,61.11,55.62,57.66,6.67-.53,13.4-1.27,20.13-2.14,26.94-3.47,54.07-8.93,80.3-13.37,38.85-6.66,91.92-3.38,91.03,46.84-.78,40.74-2.9,89.37,33.28,116.01-7.72,13.79-14.63,27.98-21.69,42.2-4.18,8.52-8.84,18.09-14.3,28.46-13.62,26.05-34.37,47.04-58.18,65.04-35.8,28.2-85.24,44.25-103.74,88.4-14.15,35.24,9.99,68.06,17.22,103.67,3.82,17.91,2.58,34.86-3.53,51.3-4.71,10.16-9.53,20.28-14.41,30.37-4.88,10.09-9.81,20.13-14.82,30.12-10.42,20.96-16.08,32.19-16.08,32.19Z"/>
    <path class="cls-1" d="m193.82,22.36c-21.78-9.26-43.46-18.31-63.56-31.61-30.26-20.25-53.94-47.83-86.73-62.93-9.93-5.05-20.25-9.61-31.03-13.48-36.3-12.66-71.7-25.78-106.44-40.73-8.68-3.74-14-8.4-20-13.35-4.88-4.51-9.82-8.97-14.8-13.38-25.29-21.98-51.38-42.62-77.81-62.32-5.39-3.88-10.82-7.71-16.29-11.48-27.34-18.84-55.61-36.22-84.66-51.92-7.74-3.25-16.06-5.5-25.11-6.48-4.06-.42-8.12-.83-12.19-1.25-4.07-.42-8.13-.84-12.2-1.27-53.38,5.55-88.15-31.67-119.32-69.52-3.56-3.51-7.2-6.95-10.95-10.26-7.49-6.64-15.42-12.83-24.05-18.29-13.41-8.78-27.44-15.82-41.83-21.68-21.53-9.05-43.93-15.93-66.92-21.53-22.31-4.95-48.49-.07-65.32-16.2-19.33-17.72-40.72-30.48-63.37-39.13-5.66-2.16-11.4-4.07-17.19-5.76-54.08-17.16-109.6-4.52-167.3,3.52-11.67,2.25-15.02-12.6-17.3-22.42"/>
    <path class="cls-1" d="m132.1,63.75c-31.25-11.59-61.65-26.4-87.7-49.11C12.04-13.66-19.29-39.95-57.06-59.31c-11.19-5.74-22.64-11.07-34.16-16.17-11.53-5.1-15-9.2-21.53-13.9-4.34-3.83-8.65-7.7-12.97-11.59-13.12-11.18-25.29-22.4-39.92-32.17-25.32-14.98-47.47-31.05-71.75-48.17-9.65-7.34-18.93-13.63-30.38-16.11-5.03-1.6-10.15-3-15.3-4.26-30.88-7.51-62.77-9.6-94.55-10.78-6.86-.33-13.72-.66-20.3-2.25-11.29-2.27-24.36-6.97-38.7-8.43-3.64-.77-8.08-.92-9.72-3.73-2.89-4.48-5.86-8.88-8.92-13.19-3.06-4.31-6.2-8.54-9.42-12.67-59.33-82.27-163.19-115.22-259.05-136.16-6.61-1.12-13.24-2.13-19.89-3.04-59.82-8.21-121.03-8.71-181.7-13.32-18.8-1.22-30.35-20.95-45.82-32.53"/>
    <path class="cls-1" d="m86.1,107.33C40.97,91.71,1.37,64.9-24.71,20.6-43.6-11.67-76.43-27.66-108.63-41.87c-7.43-3.21-15-6.1-22.69-8.65-3.84-1.27-7.72-2.46-11.62-3.56-3.91-1.1-7.85-2.1-11.85-3.01-34.92-4.9-69.02-10.92-104.13-13.04-20.23-1.92-41.53-5.24-54.12-22.83-16.92-24.99-39.45-43.9-69.49-49.85-6.02-1.73-12.07-3.38-18.14-4.94-6.08-1.56-12.18-3.04-18.32-4.42-6.02-1.72-8.98-2.56-19.98-6.41-14.57-5.09-29.33-8.77-44.26-9.02-6.43-.12-12.83-.44-19.17-.93-99.64-.81-175.84-67.02-229.16-149.41-6.49-10.21-18.97-17.17-32.07-15.62-14.92,1.68-29.71,2.57-44.34,2.68-87.76.7-169.56-26.56-237.54-80.46"/>
    <path class="cls-1" d="m82.07,154.09c-54.5-13.24-106.01-41.33-127.39-99.39C-58.61,18.13-94.65-14.97-135.98-13.52c-7.91,1.49-15.75,3.09-23.54,4.66C-188.73-3.02-217.18,2.29-245.94-.57c-4.79-.48-9.6-1.18-14.42-2.15-51.84-8.72-96.11-39.1-134.37-74.03-4.56-3.69-9.13-7.41-13.71-11.17-4.58-3.76-9.17-7.55-13.78-11.35-7.12-5.98-15.03-10.33-23.23-14.2-6.03-2.56-12.81-5.45-19.78-8.54-10.45-4.63-20.58-9.52-29.59-12.4-6.24-1.75-12.72-3.9-19.17-4.03-5.77.07-11.51-.02-17.21-.26-5.7-.25-11.37-.66-16.99-1.23-22.03-2.45-43.7-6.83-64.89-14.69-5.17-1.88-10.26-3.92-15.27-6.13-15.04-6.62-29.39-14.72-42.87-24.32-4.49-3.2-8.89-6.56-13.17-10.06s-8.44-7.15-12.46-10.92c-18.13-17.42-29.7-38.92-46.2-57.53-2.87-3.16-6.1-7.38-10.63-9.1-4.02-2.45-8.48-4.17-13.27-5.18-8.53-2.39-16.35-4.44-25.21-4.34-94.7-4.68-172.57-62-259.05-94.42-37.73-14.85-76.47-24.01-114.53-38.5"/>
    <path class="cls-1" d="m99.02,206.83c-38.77-6.43-81.77-10.82-110.32-41.78-26.11-28.77-37.98-64.13-54.48-99.25C-83.72,27.47-126.34,1.7-166.79,18.83c-8.43,2.06-16.76,4.33-25.03,6.54-33.1,8.85-65.37,16.76-100.16,6.5-12.8-3.85-24.81-8.85-36.22-14.74-5.71-2.94-11.26-6.1-16.69-9.45-11.13-6.96-21.83-13.93-31.21-22.04-5.01-3.95-9.93-8.02-14.79-12.18-9.73-8.3-19.21-16.94-28.64-25.63-7.61-6.45-14.74-12.4-23.47-17.59-10.4-4.62-20.98-8.9-31.79-12.7-9.17-3.33-18.42-6.45-27.79-9.39-9.37-2.95-18.88-5.72-28.53-8.29-19.01-5.25-37.71.19-56.66,1-20.56,1.02-39.99-5.43-56.49-16.47-6.57-4.21-12.8-9.13-18.65-14.61-7.57-7.11-15.03-14.32-22.49-21.5-7.39-7.1-14.7-14.3-22.06-21.44-14.9-16.37-31.49-30.81-49.62-42.74-3.63-2.38-7.32-4.67-11.06-6.87-16.04-8.83-31.38-18.95-50.57-23-21.67-4.38-39.85-14.12-59.19-23.7-5.99-3.34-11.96-6.77-17.93-10.2-89.53-51.5-179.74-104.86-292.15-91.28-3.54.04-6.74-.64-9.79-2.66"/>
    <path class="cls-1" d="m100.23,264.31c-36.04,4.21-80.18,6.29-104.11-25.93-32.51-42.41-51.36-90.21-70.63-140.22-15.54-40.17-57.81-70.78-99.8-52.81-12.73,4.16-24.77,10.72-35.28,18.67-6.76,5.08-13.27,10.75-20.03,16.24-6.76,5.49-13.81,10.74-21.57,15.11-27.47,15.21-52.58-14.57-75.51-28.25-8.27-4.78-16.38-10.11-24.4-15.77-8.03-5.65-15.98-11.62-23.91-17.72-15.5-12.63-31.76-24.56-47.81-36.31-8.13-5.69-16.38-11.06-24.82-15.89-25.33-14.49-52.39-24.13-83.09-23.03-8,1.36-15.97,4.01-23.9,8.26-8.52,4.12-16.44,8.54-24.46,12.65s-16.15,7.93-25.09,10.85c-29.55,9.18-52.38-13.97-68.53-35.38-19.55-25.51-38.77-51.7-59.41-76.28-6.88-8.2-13.92-16.21-21.12-23.86-3.09-3.47-6.28-6.85-9.55-10.15-3.28-3.29-6.64-6.51-10-9.88-19.77-20.03-36.68-43.25-63.37-53.61-25.98-10.01-54.01-12.2-78.15-25.91-3.38-1.91-6.76-3.84-10.14-5.77-78.07-46.69-164.3-88.69-257.93-87.25"/>
    <path class="cls-1" d="m74.7,318.45c-30.92,4.33-64.76,7.91-92.38-10.56-9.85-6.55-16.7-15.4-21.89-25.33s-8.74-20.93-12.02-31.79c-11.91-43.43-21.83-85.88-41.02-127.83-10.52-22.68-29.69-43.05-55.1-43.39-9.88-.3-19.32,3.63-26.69,10.49-5.67,4.83-10.36,10.97-14.39,17.86-12.07,20.69-18.13,48.22-26.88,67.94-5.12,11.55-11.39,29.56-27.15,25.89-32.15-8.13-53.36-30.5-77.77-51.42-52.48-43.61-97.15-91.95-155.57-124.41-23.33-12.86-52.12-8.33-75.36,3.38-8.23,3.94-16.24,8.62-23.92,13.77-7.68,5.15-15.04,10.76-21.97,16.58-25.59,21.64-57.03,3.82-73.63-21.82-29.98-46.19-58.69-94-94.45-133.91-3.97-4.43-8.03-8.77-12.19-13-6-5.92-12.43-10.82-16.76-18.22-18.38-29.23-30.17-72-70.95-73.35-26.24-.43-50.94,10.46-76.24,3.04-6.13-1.87-12.27-3.71-18.41-5.53-18.42-5.47-36.85-10.82-54.91-16.71-10.68-3.24-21.25-6.62-31.71-10.2-41.85-14.29-81.98-31.69-120.07-55.73"/>
    <path class="cls-1" d="m-193.63,256.89c.42-12.82.17-25.84-.53-38.66-.72-12.8-1.9-25.37-3.07-37.93-2.34-25.11-4.55-50.28-3.74-75.04.27-8.25.88-16.46,1.92-24.6,1.59-14.29,5.06-29.65,15.04-39.84C-138.7-3.82-106.79-56.99-82.4-114.4c2.56-4.75,5.15-9.5,7.75-14.25s5.21-9.52,7.82-14.29C-40.08-193.65-6.18-239.73,13.98-293.16"/>
    <path class="cls-1" d="m-173.87,189.55c.08-20.38-1.14-40.54-.91-60.82.18-9.94.8-19.81,2.22-29.53,1.42-9.72,3.64-19.29,7.03-28.62,3.7-9.78,8.41-18.8,14.02-27.48,6.62-10.13,15.06-18.21,23.68-26.01s17.8-14.88,27-22.02c6.15-4.76,12.24-9.6,18.03-14.8,12.39-11.02,22.14-23.83,31.27-37.43C-22.97-102.43,3.39-146.26,33.99-190.54c14.89-22.34,28.17-44.46,38.82-68.23"/>
    <path class="cls-1" d="m-144.2,154.06c5.52-40.51,16.1-89.02,56.58-108.55,11.23-6.07,23.33-11.08,34.55-18.16,8.56-5.48,16.02-11.79,22.66-18.69C-23.1.82-15.93-7.72-10.38-17.06c43.17-75.27,97.37-138.15,150.67-209.49,11.53-15.45,20.86-30.47,30.44-46.26"/>
    <path class="cls-1" d="m-105.77,207.26c8.34-24.98,9.06-52.21,24.15-74.95,6.35-9.95,15.34-18.11,21.69-28.06C-20.42,44.76,25.02-6.34,75.93-55.27c8.78-8.76,15.33-19.12,22.51-28.83,6.53-9.13,13.2-18.17,19.99-27.17,27.16-35.98,56.27-71.12,86.07-107.07,11.74-14.84,22.88-29.48,33.67-44.35"/>
    <path class="cls-1" d="m-67.9,319.31c5.03-13.36,10.34-26.33,17.88-38.71,5.77-9.79,11.62-19.5,17.36-29.15,10.19-17.11,18.06-35.34,20.87-55.54,5.65-38.37-3.85-78.61,12.72-114.68C24.2,30.38,75.33,2.62,115.89-33.3c10.98-10.2,20.95-21.39,30-33.2,6.51-9.77,13.11-19.43,19.84-29.03,26.89-38.37,55.68-75.55,83.4-113.3"/>
    <path class="cls-1" d="m-9.76,359.25c12.09-21.91,23.74-44.02,35.08-66.26,5.67-11.12,11.23-22.28,16.15-33.46,7.5-20.49,8.29-41.67,2.02-62.78-8.6-31.77-22.65-63.69-11.89-96.07C47.62,52.31,98.03,33.23,136.05,4.6c19.81-14.93,39-30.66,53.14-50.62,6.23-8.73,11.48-17.57,16.62-26.38,15.4-26.41,31.7-52.28,48.53-77.83"/>
  </g>
</svg>