<?xml version="1.0" encoding="UTF-8"?>
<svg id="Layer_1" data-name="Layer 1" xmlns="http://www.w3.org/2000/svg" viewBox="0 0 100 100">
  <defs>
    <style>
      .cls-1 {
        fill: #f5f5f5;
        stroke-width: 0px;
      }
    </style>
  </defs>
  <path class="cls-1" d="m52.26,10.99l12.63,23.1c.24.43.59.79,1.02,1.02l23.1,12.63c1.79.98,1.79,3.54,0,4.52l-23.1,12.63c-.43.24-.79.59-1.02,1.02l-12.63,23.1c-.98,1.79-3.54,1.79-4.52,0l-12.63-23.1c-.24-.43-.59-.79-1.02-1.02l-23.1-12.63c-1.79-.98-1.79-3.54,0-4.52l23.1-12.63c.43-.24.79-.59,1.02-1.02l12.63-23.1c.98-1.79,3.54-1.79,4.52,0Z"/>
  <path class="cls-1" d="m75.35,17.27l2.57,4.71c.05.09.12.16.21.21l4.71,2.57c.36.2.36.72,0,.92l-4.71,2.57c-.09.05-.16.12-.21.21l-2.57,4.71c-.2.36-.72.36-.92,0l-2.57-4.71c-.05-.09-.12-.16-.21-.21l-4.71-2.57c-.36-.2-.36-.72,0-.92l4.71-2.57c.09-.05.16-.12.21-.21l2.57-4.71c.2-.36.72-.36.92,0Z"/>
</svg>