<?xml version="1.0" encoding="UTF-8"?>
<svg id="Layer_1" data-name="Layer 1" xmlns="http://www.w3.org/2000/svg" viewBox="0 0 200 200">
  <defs>
    <style>
      .cls-1 {
        fill: none;
        stroke: #000;
        stroke-linejoin: round;
      }
    </style>
  </defs>
  <path class="cls-1" d="m124.92,73.15C94.19,17.73.14,32.64,24.12,102.45l15.81-14.97C15.89,17.56,110.07,2.71,140.85,58.18l-15.93,14.97h0Z"/>
  <path class="cls-1" d="m169.2,124.05c-3.26-23.81-21.26-44.23-44.28-50.91l15.93-14.97c33.44,9.7,62.41,58.05,33.01,87.05-14.49,14.29-34.15,11.09-52.78,10.57-30.67-.84-73.51,7.03-87.83-28.52-5.57-13.83-4.75-29.33,6.68-39.8-22.46,20.65-41.43,50.2-7.32,74.18,23.34,16.41,74.75,14.4,100.08,9.56,10.63-2.03,19.56-4.7,27.02-13.13,8.12-9.17,11.11-22.06,9.49-34.04h0Z"/>
  <polygon class="cls-1" points="69.11 118.24 58.46 108.5 74.31 93.55 84.99 103.31 69.11 118.24 69.11 118.24"/>
  <path class="cls-1" d="m81.8,103.4l-12.68,14.84c10.36-8.98,20.18-18.92,28.57-29.78l-15.89,14.94h0Z"/>
  <polygon class="cls-1" points="87.8 143.48 81.8 103.4 97.68 88.45 103.71 128.59 87.8 143.48 87.8 143.48"/>
  <polygon class="cls-1" points="100.86 143.89 87.8 143.48 103.71 128.59 116.79 129 100.86 143.89 100.86 143.89"/>
  <polygon class="cls-1" points="94.85 103.81 100.86 143.89 116.79 129 110.75 88.88 94.85 103.81 94.85 103.81"/>
  <polygon class="cls-1" points="112.1 119.59 94.85 103.81 110.75 88.88 128.03 104.68 112.1 119.59 112.1 119.59"/>
  <path class="cls-1" d="m119.9,110.45l-7.8,9.14c8.5-7.37,16.71-15.27,23.73-24.07l-15.94,14.92h0Z"/>
  <path class="cls-1" d="m95.13,87.8l24.77,22.65,15.94-14.92c-44.03-40.26-35.65-23.89-77.38,12.97,10.42-12.18,19.65-32.52,36.67-20.7h0Z"/>
  <path class="cls-1" d="m185.2,109.17c-3.28-23.85-21.3-44.29-44.35-50.99C110.07,2.71,15.89,17.56,39.93,87.48c-58.49,53.54,97.03,102.07,136.48,54.94,7.62-9.11,10.36-21.64,8.79-33.26h0Z"/>
  <path class="cls-1" d="m169.02,122.77c3.55,22.2-8.46,40.55-29.32,47.36-32.36,10.56-121.79,11.89-125.52-39.98-.77-10.69,1.85-20.3,9.93-27.69C.14,32.65,94.19,17.73,124.92,73.15c22.61,6.54,40.36,26.35,44.1,49.62h0Z"/>
  <path class="cls-1" d="m111.03,72.84l24.81,22.69-7.8,9.15-17.28-15.8,6.04,40.13-13.08-.41-6.03-40.14-12.7,14.85-10.67-9.76c10.43-12.19,19.67-32.56,36.71-20.71h0Z"/>
  <path class="cls-1" d="m119.9,110.45c-32.11-29.36-32.79-35.44-61.45-1.95l10.65,9.74,12.68-14.84,6.01,40.08,13.06.4-6.01-40.07,17.26,15.78,7.8-9.14h0Z"/>
</svg>