<?xml version="1.0" encoding="UTF-8"?>
<svg id="Layer_1" data-name="Layer 1" xmlns="http://www.w3.org/2000/svg" viewBox="0 0 200 200">
  <defs>
    <style>
      .cls-1 {
        fill: none;
        stroke: #000;
        stroke-linejoin: round;
      }
    </style>
  </defs>
  <g>
    <path class="cls-1" d="m77.56,136.83l-46.97,54.99c24.75-21.34,44.63-47.89,65.78-72.65l-18.81,17.65h0Z"/>
    <path class="cls-1" d="m66.36,126.62c-7.13-43.4,54.4,11.11,11.2,10.21l18.81-17.65c43.26.93-18.37-53.7-11.22-10.23l-18.79,17.67h0Z"/>
    <path class="cls-1" d="m19.38,181.58c21.12-24.7,40.93-51.43,65.77-72.63-21.11,24.7-40.92,51.46-65.77,72.63h0Z"/>
    <polygon class="cls-1" points="30.76 67.4 19.38 181.58 38.12 163.97 49.47 49.61 30.76 67.4 30.76 67.4"/>
    <polygon class="cls-1" points="76.63 51.22 30.76 67.4 49.47 49.61 95.4 33.43 76.63 51.22 76.63 51.22"/>
    <polygon class="cls-1" points="148.61 117.04 76.63 51.22 95.4 33.43 167.52 99.39 148.61 117.04 148.61 117.04"/>
    <polygon class="cls-1" points="30.59 191.82 138.71 166.01 157.63 148.43 49.35 174.24 30.59 191.82 30.59 191.82"/>
    <polygon class="cls-1" points="138.71 166.01 148.61 117.04 167.52 99.39 157.63 148.43 138.71 166.01 138.71 166.01"/>
    <path class="cls-1" d="m157.63,148.43l9.89-49.05L95.4,33.43l-45.93,16.18-11.35,114.36,47.02-55.02c-7.15-43.47,54.48,11.15,11.22,10.23l-47.01,55.06c36.09-8.6,72.18-17.2,108.27-25.8Z"/>
    <path class="cls-1" d="m148.61,117.04l-9.9,48.97-108.12,25.81,46.97-54.99c43.19.91-18.32-53.61-11.2-10.21l-46.98,54.96,11.38-114.18,45.87-16.18,71.98,65.82h0Z"/>
  </g>
  <g>
    <path class="cls-1" d="m105.42,26.87l-16.16,18.85c12.67-11.08,24.63-23.37,34.96-36.67l-18.8,17.81h0Z"/>
    <polygon class="cls-1" points="168.43 84.51 105.42 26.87 124.22 9.06 187.36 66.82 168.43 84.51 168.43 84.51"/>
    <polygon class="cls-1" points="89.26 45.73 152.33 103.41 171.24 85.74 108.05 27.93 89.26 45.73 89.26 45.73"/>
    <path class="cls-1" d="m152.33,103.41c10.23-13.36,22.25-25.65,35.02-36.59-10.22,13.36-22.25,25.65-35.02,36.59h0Z"/>
    <polygon class="cls-1" points="171.24 85.74 187.36 66.82 124.22 9.06 108.05 27.93 171.24 85.74 171.24 85.74"/>
    <polygon class="cls-1" points="168.43 84.51 152.33 103.41 89.26 45.73 105.42 26.87 168.43 84.51 168.43 84.51"/>
  </g>
  <g>
    <polygon class="cls-1" points="76.63 51.22 76.63 51.22 95.4 33.43 95.4 33.43 76.63 51.22 76.63 51.22"/>
    <polygon class="cls-1" points="76.63 51.22 76.63 51.22 95.41 33.43 95.4 33.43 76.63 51.22 76.63 51.22"/>
    <polygon class="cls-1" points="76.63 51.22 76.63 51.22 95.4 33.43 95.41 33.43 76.63 51.22 76.63 51.22"/>
    <rect class="cls-1" x="95.4" y="33.43" width="0" height="0" transform="translate(58.19 127.42) rotate(-87.71)"/>
    <rect class="cls-1" x="76.63" y="51.22" width="0" height="0" transform="translate(23.88 126.81) rotate(-88.85)"/>
  </g>
</svg>