<?xml version="1.0" encoding="UTF-8"?>
<svg id="Layer_1" data-name="Layer 1" xmlns="http://www.w3.org/2000/svg" viewBox="0 0 200 200">
  <defs>
    <style>
      .cls-1 {
        fill: none;
        stroke: #000;
        stroke-linejoin: round;
      }
    </style>
  </defs>
  <g>
    <path class="cls-1" d="m108.68,139.02c5.79-8.44,13.14-15.6,21.04-22.16-5.79,8.44-13.14,15.6-21.04,22.16h0Z"/>
    <polygon class="cls-1" points="79.25 138.1 108.68 139.02 124.82 123.92 95.36 122.99 79.25 138.1 79.25 138.1"/>
    <polygon class="cls-1" points="72.17 130.67 79.25 138.1 95.36 122.99 88.27 115.55 72.17 130.67 72.17 130.67"/>
    <polygon class="cls-1" points="21.94 129.09 72.17 130.67 88.27 115.55 37.98 113.95 21.94 129.09 21.94 129.09"/>
    <polygon class="cls-1" points="9.02 42.2 21.94 129.09 37.98 113.95 25.01 26.95 9.02 42.2 9.02 42.2"/>
    <polygon class="cls-1" points="150.4 46.91 9.02 42.2 25.01 26.95 166.55 31.71 150.4 46.91 150.4 46.91"/>
    <polygon class="cls-1" points="113.57 131.97 163.5 133.54 179.7 118.45 129.71 116.86 113.57 131.97 113.57 131.97"/>
    <polygon class="cls-1" points="163.5 133.54 150.4 46.91 166.55 31.71 179.7 118.45 163.5 133.54 163.5 133.54"/>
    <path class="cls-1" d="m96.82,73.71c7.44-9.06,15.75-17.35,24.57-25.08-7.44,9.06-15.75,17.35-24.57,25.08h0Z"/>
    <polygon class="cls-1" points="115.18 90.41 96.82 73.71 112.92 58.53 131.31 75.25 115.18 90.41 115.18 90.41"/>
    <path class="cls-1" d="m101.69,106.21c8.69-11.28,18.86-21.65,29.63-30.96-8.69,11.28-18.86,21.66-29.63,30.96h0Z"/>
    <polygon class="cls-1" points="113.22 116.76 101.69 106.21 117.81 91.07 129.36 101.63 113.22 116.76 113.22 116.76"/>
    <path class="cls-1" d="m129.29,90.92c-.64,10.92-7.29,18.25-16.07,25.83,36.61-31.91,41.24-38.21,8.16-68.12l-16.11,15.19c9.4,8.52,20.03,15.01,24.01,27.1h0Z"/>
    <polygon class="cls-1" points="59.89 62.33 71.43 72.88 87.5 57.69 75.95 47.12 59.89 62.33 59.89 62.33"/>
    <path class="cls-1" d="m67.83,115.32c-33.27-30.09-28.21-35.97,8.12-68.19-26.87,23.54-14.36,32.87,7.97,53.05l-16.08,15.14h0Z"/>
    <path class="cls-1" d="m76.31,105.4l-8.48,9.92c8.81-7.68,17.28-15.93,24.57-25.07l-16.09,15.15h0Z"/>
    <path class="cls-1" d="m71.43,72.88l-13.52,15.79c10.73-9.36,20.87-19.73,29.6-30.98l-16.07,15.19h0Z"/>
    <polygon class="cls-1" points="57.91 88.67 76.31 105.4 92.4 90.25 73.97 73.49 57.91 88.67 57.91 88.67"/>
    <path class="cls-1" d="m179.7,118.45l-13.15-86.74L25.01,26.95l12.97,87,50.29,1.6,7.09,7.44,29.46.93,4.9-7.06,49.98,1.59Z"/>
    <path class="cls-1" d="m150.4,46.91l13.1,86.63-49.93-1.57-4.9,7.05-29.43-.92-7.08-7.43-50.23-1.58L9.02,42.2c47.13,1.57,94.25,3.14,141.38,4.71Z"/>
    <path class="cls-1" d="m145.43,75.77c-.63,10.93-7.29,18.27-16.08,25.86l-11.55-10.56,13.51-15.82-18.39-16.72,8.46-9.89c9.42,8.53,20.06,15.03,24.05,27.14h0Z"/>
    <path class="cls-1" d="m129.37,91.61c-4.08-12.6-13.96-18.62-24.1-27.78l-8.46,9.88,18.37,16.69-13.5,15.8,11.53,10.55c8.11-7.03,15.32-14.69,16.15-25.15h0Z"/>
    <path class="cls-1" d="m73.97,73.49l18.43,16.76-8.49,9.93c-21.75-19.7-35.42-29.91-7.97-53.05l11.55,10.56-13.53,15.8h0Z"/>
    <path class="cls-1" d="m76.31,105.4l-18.41-16.73,13.52-15.79-11.54-10.55c-26.84,23.52-14.37,32.82,7.94,52.98l8.48-9.92h0Z"/>
  </g>
  <g>
    <polygon class="cls-1" points="67.7 144.96 9.89 143.16 25.92 128.03 83.79 129.85 67.7 144.96 67.7 144.96"/>
    <polygon class="cls-1" points="74.78 152.39 67.7 144.96 83.79 129.85 90.88 137.3 74.78 152.39 74.78 152.39"/>
    <polygon class="cls-1" points="117.41 153.71 74.78 152.39 90.88 137.3 133.57 138.63 117.41 153.71 117.41 153.71"/>
    <path class="cls-1" d="m122.3,146.65l-4.89,7.06c7.91-6.53,15.32-13.67,21.05-22.14l-16.16,15.09h0Z"/>
    <polygon class="cls-1" points="179.79 148.44 122.3 146.65 138.46 131.57 196.01 133.37 179.79 148.44 179.79 148.44"/>
    <path class="cls-1" d="m180.88,155.67l-1.1-7.23,16.23-15.07c14.98,44.32-64.17,26.87-80.62,26.36-25.81-.79-88.83,11.74-89.48-31.71l-16.03,15.13c.62,40.41,53.13,30.53,78.79,31.32,14.8.45,96.58,20.19,92.21-18.8h0Z"/>
    <path class="cls-1" d="m197.11,140.62l-1.1-7.24-57.55-1.81-4.9,7.06-42.69-1.33-7.09-7.45-57.87-1.82c.64,40.45,53.18,30.59,78.89,31.38,14.8.46,96.7,20.24,92.31-18.79h0Z"/>
    <path class="cls-1" d="m179.79,148.44c14.94,44.27-64.09,26.86-80.53,26.36-25.76-.78-88.73,11.76-89.37-31.64l57.8,1.8,7.08,7.44,42.64,1.32,4.89-7.06c19.16.6,38.32,1.19,57.48,1.79Z"/>
  </g>
</svg>