<?xml version="1.0" encoding="UTF-8"?>
<svg id="Layer_1" data-name="Layer 1" xmlns="http://www.w3.org/2000/svg" viewBox="0 0 300 300">
  <defs>
    <style>
      .cls-1 {
        fill: #f5f5f5;
        stroke-width: 0px;
      }

      .cls-2 {
        fill: none;
        stroke: #000;
      }

      .cls-2, .cls-3 {
        stroke-linejoin: bevel;
        stroke-width: 2px;
      }

      .cls-3, .cls-4 {
        fill: #191919;
        stroke: #191919;
      }

      .cls-4 {
        stroke-miterlimit: 10;
      }
    </style>
  </defs>
  <g>
    <path class="cls-4" d="m260.48,85.56l-219.26.22-9.47,10.1-24.94-.17,9.49-10.12c81.39-.08,162.79-.67,244.18-.03Z"/>
    <path class="cls-4" d="m260.48,105.79v-20.23l-24.49-.19v20.28c8.16.05,16.33.1,24.49.15Z"/>
    <path class="cls-4" d="m50.69,105.96l209.79-.16c-78.23-.47-156.46-.04-234.69.02,8.3.05,16.6.1,24.9.15Z"/>
    <path class="cls-4" d="m50.69,235.05V105.96l-24.9-.15v129.38c8.3-.05,16.6-.1,24.9-.15Z"/>
    <path class="cls-4" d="m250.96,235.2c-75.06-.06-150.12-.45-225.17-.01,75.06.06,150.12.46,225.17.01Z"/>
    <path class="cls-4" d="m250.96,147.74v87.46l-24.51.15v-87.66l24.51.05Z"/>
    <path class="cls-4" d="m66.41,147.65l77.87,53.83,9.58.47,97.09-54.21-24.51-.05-97.28,54.33-9.6-.48-78.03-53.95c8.29.02,16.58.03,24.87.05Z"/>
    <path class="cls-4" d="m76.73,130.72l-10.32,16.93-24.87-.05,10.34-16.97,24.85.09Z"/>
    <path class="cls-4" d="m149.96,181.31l-73.23-50.6-24.85-.09,73.37,50.71,24.71-.02Z"/>
    <path class="cls-4" d="m256.05,122.05l-106.09,59.26-24.71.02,106.3-59.4c8.17.04,16.33.07,24.5.11Z"/>
    <path class="cls-4" d="m270,131l-13.95-8.95-24.5-.11,13.97,8.97c8.16.03,16.32.06,24.47.09Z"/>
    <polygon class="cls-4" points="270 245.33 270 131 245.52 130.91 245.52 245.5 235.98 255.63 16.3 255.41 6.81 245.29 6.81 95.72 31.75 95.89 31.75 245.12 41.22 255.22 260.48 255.44 270 245.33 270 245.33"/>
    <polygon class="cls-4" points="245.52 245.5 245.52 130.91 231.55 121.94 125.25 181.34 51.88 130.63 41.54 147.6 119.56 201.55 129.17 202.02 226.45 147.69 226.45 235.35 25.79 235.19 25.79 105.81 235.98 105.65 235.98 85.37 16.3 85.6 6.81 95.72 6.81 245.29 16.3 255.41 235.98 255.63 245.52 245.5 245.52 245.5"/>
    <polygon class="cls-4" points="270 131 270 245.33 260.48 255.44 41.22 255.22 31.75 245.12 31.75 95.89 41.22 85.79 260.48 85.56 260.48 105.79 50.69 105.96 50.69 235.05 250.96 235.2 250.96 147.74 153.87 201.95 144.28 201.48 66.41 147.65 76.73 130.72 149.96 181.31 256.05 122.05 270 131 270 131"/>
  </g>
  <g>
    <path class="cls-3" d="m257.01,85.56l-219.26.22-9.47,10.1-24.94-.17,9.49-10.12c81.39-.08,162.79-.67,244.18-.03Z"/>
    <path class="cls-3" d="m257.01,105.79v-20.23l-24.49-.19v20.28c8.16.05,16.33.1,24.49.15Z"/>
    <path class="cls-3" d="m47.22,105.96l209.79-.16c-78.23-.47-156.46-.04-234.69.02,8.3.05,16.6.1,24.9.15Z"/>
    <path class="cls-3" d="m47.22,235.05V105.96l-24.9-.15v129.38c8.3-.05,16.6-.1,24.9-.15Z"/>
    <path class="cls-3" d="m247.49,235.2c-75.06-.06-150.12-.45-225.17-.01,75.06.06,150.12.46,225.17.01Z"/>
    <path class="cls-3" d="m247.49,147.74v87.46l-24.51.15v-87.66l24.51.05Z"/>
    <path class="cls-3" d="m62.94,147.65l77.87,53.83,9.58.47,97.09-54.21-24.51-.05-97.28,54.33-9.6-.48-78.03-53.95c8.29.02,16.58.03,24.87.05Z"/>
    <path class="cls-3" d="m73.26,130.72l-10.32,16.93-24.87-.05,10.34-16.97,24.85.09Z"/>
    <path class="cls-3" d="m146.49,181.31l-73.23-50.6-24.85-.09,73.37,50.71,24.71-.02Z"/>
    <path class="cls-3" d="m252.58,122.05l-106.09,59.26-24.71.02,106.3-59.4c8.17.04,16.33.07,24.5.11Z"/>
    <path class="cls-3" d="m266.53,131l-13.95-8.95-24.5-.11,13.97,8.97c8.16.03,16.32.06,24.47.09Z"/>
    <polygon class="cls-3" points="266.53 245.33 266.53 131 242.05 130.91 242.05 245.5 232.51 255.63 12.83 255.41 3.34 245.29 3.34 95.72 28.28 95.89 28.28 245.12 37.75 255.22 257.01 255.44 266.53 245.33 266.53 245.33"/>
    <polygon class="cls-3" points="242.05 245.5 242.05 130.91 228.08 121.94 121.78 181.34 48.41 130.63 38.07 147.6 116.1 201.55 125.7 202.02 222.98 147.69 222.98 235.35 22.32 235.19 22.32 105.81 232.51 105.65 232.51 85.37 12.83 85.6 3.34 95.72 3.34 245.29 12.83 255.41 232.51 255.63 242.05 245.5 242.05 245.5"/>
    <polygon class="cls-3" points="266.53 131 266.53 245.33 257.01 255.44 37.75 255.22 28.28 245.12 28.28 95.89 37.75 85.79 257.01 85.56 257.01 105.79 47.22 105.96 47.22 235.05 247.49 235.2 247.49 147.74 150.4 201.95 140.82 201.48 62.94 147.65 73.26 130.72 146.49 181.31 252.58 122.05 266.53 131 266.53 131"/>
  </g>
  <g>
    <path class="cls-1" d="m268.85,75.6l-219.26.22-9.47,10.1-24.94-.17,9.49-10.12c81.39-.08,162.79-.67,244.18-.03Z"/>
    <path class="cls-1" d="m268.85,95.83v-20.23l-24.49-.19v20.28c8.16.05,16.33.1,24.49.15Z"/>
    <path class="cls-1" d="m59.06,95.99l209.79-.16c-78.23-.47-156.46-.04-234.69.02,8.3.05,16.6.1,24.9.15Z"/>
    <path class="cls-1" d="m59.06,225.08V95.99l-24.9-.15v129.38c8.3-.05,16.6-.1,24.9-.15Z"/>
    <path class="cls-1" d="m259.33,225.24c-75.06-.06-150.12-.45-225.17-.01,75.06.06,150.12.46,225.17.01Z"/>
    <path class="cls-1" d="m259.33,137.78v87.46l-24.51.15v-87.66l24.51.05Z"/>
    <path class="cls-1" d="m74.78,137.68l77.87,53.83,9.58.47,97.09-54.21-24.51-.05-97.28,54.33-9.6-.48-78.03-53.95c8.29.02,16.58.03,24.87.05Z"/>
    <path class="cls-1" d="m85.11,120.75l-10.32,16.93-24.87-.05,10.34-16.97,24.85.09Z"/>
    <path class="cls-1" d="m158.34,171.35l-73.23-50.6-24.85-.09,73.37,50.71,24.71-.02Z"/>
    <path class="cls-1" d="m264.42,112.08l-106.09,59.26-24.71.02,106.3-59.4c8.17.04,16.33.07,24.5.11Z"/>
    <path class="cls-1" d="m278.37,121.03l-13.95-8.95-24.5-.11,13.97,8.97c8.16.03,16.32.06,24.47.09Z"/>
    <polygon class="cls-1" points="278.37 235.37 278.37 121.03 253.9 120.94 253.9 235.54 244.36 245.67 24.67 245.44 15.18 235.32 15.18 85.75 40.12 85.92 40.12 235.15 49.59 245.25 268.85 245.48 278.37 235.37 278.37 235.37"/>
    <polygon class="cls-1" points="253.9 235.54 253.9 120.94 239.92 111.98 133.63 171.37 60.25 120.66 49.91 137.63 127.94 191.58 137.54 192.06 234.82 137.73 234.82 225.38 34.16 225.23 34.16 95.85 244.36 95.68 244.36 75.41 24.67 75.63 15.18 85.75 15.18 235.32 24.67 245.44 244.36 245.67 253.9 235.54 253.9 235.54"/>
    <polygon class="cls-1" points="278.37 121.03 278.37 235.37 268.85 245.48 49.59 245.25 40.12 235.15 40.12 85.92 49.59 75.82 268.85 75.6 268.85 95.83 59.06 95.99 59.06 225.08 259.33 225.24 259.33 137.78 162.24 191.99 152.66 191.51 74.78 137.68 85.11 120.75 158.34 171.35 264.42 112.08 278.37 121.03 278.37 121.03"/>
  </g>
  <g>
    <path class="cls-2" d="m269.24,75.55l-219.26.22-9.47,10.1-24.94-.17,9.49-10.12c81.39-.08,162.79-.67,244.18-.03Z"/>
    <path class="cls-2" d="m269.24,95.78v-20.23l-24.49-.19v20.28c8.16.05,16.33.1,24.49.15Z"/>
    <path class="cls-2" d="m59.46,95.94l209.79-.16c-78.23-.47-156.46-.04-234.69.02,8.3.05,16.6.1,24.9.15Z"/>
    <path class="cls-2" d="m59.46,225.03V95.94l-24.9-.15v129.38c8.3-.05,16.6-.1,24.9-.15Z"/>
    <path class="cls-2" d="m259.73,225.19c-75.06-.06-150.12-.45-225.17-.01,75.06.06,150.12.46,225.17.01Z"/>
    <path class="cls-2" d="m259.73,137.73v87.46l-24.51.15v-87.66l24.51.05Z"/>
    <path class="cls-2" d="m75.18,137.63l77.87,53.83,9.58.47,97.09-54.21-24.51-.05-97.28,54.33-9.6-.48-78.03-53.95c8.29.02,16.58.03,24.87.05Z"/>
    <path class="cls-2" d="m85.5,120.7l-10.32,16.93-24.87-.05,10.34-16.97,24.85.09Z"/>
    <path class="cls-2" d="m158.73,171.3l-73.23-50.6-24.85-.09,73.37,50.71,24.71-.02Z"/>
    <path class="cls-2" d="m264.82,112.03l-106.09,59.26-24.71.02,106.3-59.4c8.17.04,16.33.07,24.5.11Z"/>
    <path class="cls-2" d="m278.76,120.98l-13.95-8.95-24.5-.11,13.97,8.97c8.16.03,16.32.06,24.47.09Z"/>
    <polygon class="cls-2" points="278.76 235.32 278.76 120.98 254.29 120.89 254.29 235.49 244.75 245.62 25.07 245.39 15.58 235.27 15.58 85.7 40.52 85.87 40.52 235.1 49.99 245.2 269.24 245.42 278.76 235.32 278.76 235.32"/>
    <polygon class="cls-2" points="254.29 235.49 254.29 120.89 240.32 111.93 134.02 171.32 60.65 120.61 50.31 137.58 128.33 191.53 137.94 192.01 235.21 137.68 235.21 225.33 34.55 225.17 34.55 95.8 244.75 95.63 244.75 75.36 25.07 75.58 15.58 85.7 15.58 235.27 25.07 245.39 244.75 245.62 254.29 235.49 254.29 235.49"/>
    <polygon class="cls-2" points="278.76 120.98 278.76 235.32 269.24 245.42 49.99 245.2 40.52 235.1 40.52 85.87 49.99 75.77 269.24 75.55 269.24 95.78 59.46 95.94 59.46 225.03 259.73 225.19 259.73 137.73 162.64 191.94 153.05 191.46 75.18 137.63 85.5 120.7 158.73 171.3 264.82 112.03 278.76 120.98 278.76 120.98"/>
  </g>
</svg>