<?xml version="1.0" encoding="UTF-8"?>
<svg id="Layer_1" data-name="Layer 1" xmlns="http://www.w3.org/2000/svg" viewBox="0 0 400 400">
  <defs>
    <style>
      .cls-1 {
        fill: #f5f5f5;
        stroke: #191919;
        stroke-miterlimit: 10;
        stroke-width: 10px;
      }

      .cls-2 {
        fill: #191919;
        stroke-width: 0px;
      }
    </style>
  </defs>
  <g>
    <polygon class="cls-2" points="139.89 270.16 139.89 260.83 149.22 260.83 149.22 251.49 158.56 251.49 158.56 242.16 167.89 242.16 167.89 232.83 167.89 223.49 177.22 223.49 177.22 214.16 186.56 214.16 195.89 214.16 195.89 204.83 205.22 204.83 205.22 195.49 214.56 195.49 214.56 186.16 223.89 186.16 223.89 176.83 223.89 167.49 233.22 167.49 233.22 158.16 242.56 158.16 251.89 158.16 251.89 148.83 261.22 148.83 261.22 139.49 270.56 139.49 270.56 130.16 279.89 130.16 279.89 120.83 279.89 111.49 289.22 111.49 289.22 102.16 298.56 102.16 307.89 102.16 307.89 92.83 317.22 92.83 317.22 83.49 326.56 83.49 326.56 74.16 335.89 74.16 335.89 64.83 335.89 55.49 345.22 55.49 345.22 46.16 335.89 46.16 326.56 46.16 317.22 46.16 317.22 55.49 307.89 55.49 298.56 55.49 289.22 55.49 279.89 55.49 279.89 64.83 270.56 64.83 261.22 64.83 261.22 74.16 251.89 74.16 242.56 74.16 233.22 74.16 223.89 74.16 223.89 83.49 214.56 83.49 205.22 83.49 195.89 83.49 195.89 92.83 186.56 92.83 177.22 92.83 167.89 92.83 158.56 92.83 158.56 102.16 149.22 102.16 139.89 102.16 130.56 102.16 130.56 111.49 121.22 111.49 111.89 111.49 102.56 111.49 93.22 111.49 93.22 120.83 83.89 120.83 74.56 120.83 65.22 120.83 65.22 130.16 55.89 130.16 55.89 139.49 46.56 139.49 46.56 148.83 46.56 158.16 46.56 167.49 55.89 167.49 55.89 176.83 65.22 176.83 65.22 186.16 74.56 186.16 74.56 195.49 83.89 195.49 83.89 204.83 93.22 204.83 93.22 214.16 102.56 214.16 102.56 223.49 102.56 232.83 102.56 242.16 102.56 251.49 102.56 260.83 102.56 270.16 102.56 279.49 102.56 288.83 102.56 298.16 111.89 298.16 111.89 288.83 111.89 279.49 121.22 279.49 121.22 270.16 130.56 270.16 139.89 270.16"/>
    <polygon class="cls-2" points="363.89 83.49 354.56 83.49 354.56 92.83 345.22 92.83 345.22 102.16 335.89 102.16 335.89 111.49 326.56 111.49 326.56 120.83 317.22 120.83 317.22 130.16 307.89 130.16 307.89 139.49 298.56 139.49 298.56 148.83 289.22 148.83 289.22 158.16 279.89 158.16 279.89 167.49 270.56 167.49 270.56 176.83 261.22 176.83 261.22 186.16 251.89 186.16 251.89 195.49 242.56 195.49 242.56 204.83 233.22 204.83 233.22 214.16 223.89 214.16 223.89 223.49 214.56 223.49 214.56 232.83 205.22 232.83 205.22 242.16 195.89 242.16 195.89 251.49 186.56 251.49 186.56 260.83 177.22 260.83 177.22 270.16 167.89 270.16 167.89 279.49 158.56 279.49 158.56 288.83 149.22 288.83 149.22 298.16 139.89 298.16 139.89 307.49 130.56 307.49 130.56 316.83 139.89 316.83 149.22 316.83 158.56 316.83 167.89 316.83 177.22 316.83 186.56 316.83 195.89 316.83 205.22 316.83 205.22 326.16 214.56 326.16 214.56 335.49 223.89 335.49 223.89 344.83 233.22 344.83 233.22 354.16 242.56 354.16 242.56 363.49 251.89 363.49 251.89 372.83 261.22 372.83 270.56 372.83 279.89 372.83 289.22 372.83 289.22 363.49 289.22 354.16 298.56 354.16 298.56 344.83 298.56 335.49 307.89 335.49 307.89 326.16 307.89 316.83 307.89 307.49 307.89 298.16 317.22 298.16 317.22 288.83 317.22 279.49 317.22 270.16 326.56 270.16 326.56 260.83 326.56 251.49 326.56 242.16 326.56 232.83 335.89 232.83 335.89 223.49 335.89 214.16 335.89 204.83 345.22 204.83 345.22 195.49 345.22 186.16 345.22 176.83 345.22 167.49 354.56 167.49 354.56 158.16 354.56 148.83 354.56 139.49 363.89 139.49 363.89 130.16 363.89 120.83 363.89 111.49 373.22 111.49 373.22 102.16 373.22 92.83 373.22 83.49 373.22 74.16 363.89 74.16 363.89 83.49"/>
    <rect class="cls-2" x="373.22" y="64.83" width="9.33" height="9.33"/>
    <rect class="cls-2" x="345.22" y="36.83" width="9.33" height="9.33"/>
  </g>
  <g>
    <polygon class="cls-1" points="125.57 265.49 125.57 256.16 134.91 256.16 134.91 246.83 144.24 246.83 144.24 237.49 153.57 237.49 153.57 228.16 153.57 218.83 162.91 218.83 162.91 209.49 172.24 209.49 181.57 209.49 181.57 200.16 190.91 200.16 190.91 190.83 200.24 190.83 200.24 181.49 209.57 181.49 209.57 172.16 209.57 162.83 218.91 162.83 218.91 153.49 228.24 153.49 237.57 153.49 237.57 144.16 246.91 144.16 246.91 134.83 256.24 134.83 256.24 125.49 265.57 125.49 265.57 116.16 265.57 106.83 274.91 106.83 274.91 97.49 284.24 97.49 293.57 97.49 293.57 88.16 302.91 88.16 302.91 78.83 312.24 78.83 312.24 69.49 321.57 69.49 321.57 60.16 321.57 50.83 330.91 50.83 330.91 41.49 321.57 41.49 312.24 41.49 302.91 41.49 302.91 50.83 293.57 50.83 284.24 50.83 274.91 50.83 265.57 50.83 265.57 60.16 256.24 60.16 246.91 60.16 246.91 69.49 237.57 69.49 228.24 69.49 218.91 69.49 209.57 69.49 209.57 78.83 200.24 78.83 190.91 78.83 181.57 78.83 181.57 88.16 172.24 88.16 162.91 88.16 153.57 88.16 144.24 88.16 144.24 97.49 134.91 97.49 125.57 97.49 116.24 97.49 116.24 106.83 106.91 106.83 97.57 106.83 88.24 106.83 78.91 106.83 78.91 116.16 69.57 116.16 60.24 116.16 50.91 116.16 50.91 125.49 41.57 125.49 41.57 134.83 32.24 134.83 32.24 144.16 32.24 153.49 32.24 162.83 41.57 162.83 41.57 172.16 50.91 172.16 50.91 181.49 60.24 181.49 60.24 190.83 69.57 190.83 69.57 200.16 78.91 200.16 78.91 209.49 88.24 209.49 88.24 218.83 88.24 228.16 88.24 237.49 88.24 246.83 88.24 256.16 88.24 265.49 88.24 274.83 88.24 284.16 88.24 293.49 97.57 293.49 97.57 284.16 97.57 274.83 106.91 274.83 106.91 265.49 116.24 265.49 125.57 265.49"/>
    <polygon class="cls-1" points="349.57 78.83 340.24 78.83 340.24 88.16 330.91 88.16 330.91 97.49 321.57 97.49 321.57 106.83 312.24 106.83 312.24 116.16 302.91 116.16 302.91 125.49 293.57 125.49 293.57 134.83 284.24 134.83 284.24 144.16 274.91 144.16 274.91 153.49 265.57 153.49 265.57 162.83 256.24 162.83 256.24 172.16 246.91 172.16 246.91 181.49 237.57 181.49 237.57 190.83 228.24 190.83 228.24 200.16 218.91 200.16 218.91 209.49 209.57 209.49 209.57 218.83 200.24 218.83 200.24 228.16 190.91 228.16 190.91 237.49 181.57 237.49 181.57 246.83 172.24 246.83 172.24 256.16 162.91 256.16 162.91 265.49 153.57 265.49 153.57 274.83 144.24 274.83 144.24 284.16 134.91 284.16 134.91 293.49 125.57 293.49 125.57 302.83 116.24 302.83 116.24 312.16 125.57 312.16 134.91 312.16 144.24 312.16 153.57 312.16 162.91 312.16 172.24 312.16 181.57 312.16 190.91 312.16 190.91 321.49 200.24 321.49 200.24 330.83 209.57 330.83 209.57 340.16 218.91 340.16 218.91 349.49 228.24 349.49 228.24 358.83 237.57 358.83 237.57 368.16 246.91 368.16 256.24 368.16 265.57 368.16 274.91 368.16 274.91 358.83 274.91 349.49 284.24 349.49 284.24 340.16 284.24 330.83 293.57 330.83 293.57 321.49 293.57 312.16 293.57 302.83 293.57 293.49 302.91 293.49 302.91 284.16 302.91 274.83 302.91 265.49 312.24 265.49 312.24 256.16 312.24 246.83 312.24 237.49 312.24 228.16 321.57 228.16 321.57 218.83 321.57 209.49 321.57 200.16 330.91 200.16 330.91 190.83 330.91 181.49 330.91 172.16 330.91 162.83 340.24 162.83 340.24 153.49 340.24 144.16 340.24 134.83 349.57 134.83 349.57 125.49 349.57 116.16 349.57 106.83 358.91 106.83 358.91 97.49 358.91 88.16 358.91 78.83 358.91 69.49 349.57 69.49 349.57 78.83"/>
    <rect class="cls-1" x="358.91" y="60.16" width="9.33" height="9.33"/>
    <rect class="cls-1" x="330.91" y="32.16" width="9.33" height="9.33"/>
  </g>
</svg>