<?xml version="1.0" encoding="UTF-8"?>
<svg id="Layer_1" data-name="Layer 1" xmlns="http://www.w3.org/2000/svg" xmlns:xlink="http://www.w3.org/1999/xlink" viewBox="0 0 200 200">
  <defs>
    <style>
      .cls-1, .cls-2 {
        stroke-width: 0px;
      }

      .cls-2 {
        fill: none;
      }

      .cls-3 {
        clip-path: url(#clippath);
      }
    </style>
    <clipPath id="clippath">
      <circle class="cls-2" cx="101" cy="100.19" r="68.39"/>
    </clipPath>
  </defs>
  <g class="cls-3">
    <g>
      <path class="cls-1" d="m74.92,149.39c-.97.46-1.99.96-3.01,1.45-3.12,1.47-6.4,2.74-7.74,6.38-.11.3-.44.6-.74.72-2.62,1.1-5.23,2.2-7.89,3.21-3.33,1.26-6.65,2.61-10.06,3.61-5.5,1.61-11.07,2.96-16.55,4.4-.04.92-.07,1.51-.1,2.11h49.79c-3.22-7.06-5.01-14.36-3.69-21.87Z"/>
      <path class="cls-1" d="m155.66,165.55c-2.99-1.61-6.47-2.3-9.68-3.54-1.02-.39-1.89-1.2-2.78-1.88-1.09-.84-2.02-1.92-3.19-2.59-3.96-2.27-8.23-3.7-12.77-4.26-.05,0-.12.11-.45.42,1.63,1.55,3.14,3.21,4.87,4.59,2.35,1.86,3.92,4.23,4.48,7.07.38,1.89.03,3.92,0,5.89h30.98v-2.49c-3.78-1.19-7.81-1.25-11.46-3.21Z"/>
      <path class="cls-1" d="m131.55,137.02c.48-.86,1.1-1.57.47-2.61-.1-.17.01-.58.16-.78.88-1.22.85-2.48.3-3.81-.07-.16-.07-.37-.04-.55.28-2.32.55-4.64.88-6.95.16-1.08.45-2.14.7-3.21.56-2.39,1.1-4.78,1.71-7.16.17-.65.74-1.25.76-1.89.05-1.42-.04-2.86-.21-4.27-.33-2.7.55-4.54,2.91-5.83.18.3.35.6.41.69.28-.66.61-1.41.93-2.16.2.06.41.13.61.19-.37,1.45-.74,2.9-1.11,4.35.15.03.3.05.44.08.36-1.13.81-2.24,1.07-3.39.62-2.71,1.49-5.42,1.61-8.16.08-1.72-.54-3.49-.14-5.31.26-1.22.12-2.52.24-3.78.15-1.57.61-3.14.55-4.7-.1-2.46-.49-4.91-.84-7.36-.17-1.22-.74-2.41-.75-3.61-.04-5.21-1.74-9.69-5.46-13.38-.35-.35-.62-.89-.7-1.38-.32-1.9-1.04-3.31-3.27-3.36-.38,0-.8-.39-1.13-.69-.62-.55-1.12-1.55-1.79-1.67-3.02-.55-5.02-2.67-7.35-4.31-1.48-1.04-3.06-1.92-4.56-2.92-2.1-1.4-4.46-1.69-6.9-1.76-1.03-.03-2.06-.16-3.07-.36-2.11-.41-4.2-.89-6.3-1.34-.03,0-.08.06-.12.06-1.49.06-2.98.21-4.46.13-1.23-.07-2.45-.43-3.71-.67.05.36.07.58.08.61-1.61-.1-3.14-.2-5.06-.33.53.49.74.68,1.18,1.07h-3.35c.92,1.2-.1,1.31-.64,1.51-.98.37-2.08.44-3.01.89-2.4,1.19-4.76,2.47-7.08,3.8-1.79,1.03-3.52,2.11-4.81,3.84-.8,1.08-1.99,1.86-2.95,2.83-.48.48-.91,1.05-1.24,1.65-1.01,1.84-1.95,3.72-2.94,5.56-.65,1.21-1.49,2.35-1.97,3.62-.72,1.92-1.22,3.93-1.79,5.91-.93,3.22-1.13,6.47-.33,9.75.47,1.92,1.1,3.84,1.23,5.78.13,2.02-.18,4.09-.43,6.12-.3,2.42-.31,4.75.94,6.95.17.3.31.7.27,1.03-.36,3.17,1.04,5.85,2.33,8.89.21-2.04,0-3.87,1.07-5.81.56,1.05,1.24,1.77,1.24,2.5,0,.89-.67,1.77-.85,2.69-.47,2.34-.4,5.2,1.39,6.49.52.37.82,1.04,1.22,1.57-.09.07-.18.14-.27.21-.53-.3-1.07-.6-1.3-.73,1.02,2.65,2.09,5.46,3.17,8.27-.17.02-.35.03-.52.05-.21.33-.52.64-.6.99-.1.5.01,1.04-.04,1.56-.08.86-.27,1.73.89,2.05.1.03.17.19.17.19-.09.83-.29,1.57-.21,2.27.22,1.77.83,3.53.81,5.29-.06,5.21,1.64,9.74,4.84,13.74,1.06,1.33,2.11,2.57,1.84,4.42-.03.24.12.51.23.92,1.19-.81,1.5-.04,1.7.87.24,1.1.94,1.49,2.01,1.37,1.41-.16,1.76.27,1.87,1.67.05.65.5,1.28.77,1.92l.36-.17c-.26-.41-.53-.82-.79-1.24.09-.08.17-.17.26-.25.64.47,1.25,1.26,1.93,1.34,1.82.21,2.08,2.63,4.04,2.61.48,0,1.08.63,1.43,1.11.64.91,1.43.98,2.39.75.29-.07.63.07.94.04.73-.07,1.79.68,2.01-.92.73.47,1.39.9,2.08,1.34,1.21-.43,2.47-1.03,4.04-.28,1.22.59,2.58,1.56,4.04.27.22-.2.78.03,1.15-.06.66-.16,1.68.3,1.75-.81,1.64-.33,3.26-.66,4.51-.92,1.23-1.27,2.33-2.42,3.4-3.54,0,0,0,0,.01,0-.04-.03-.11-.08-.19-.14,1.76-2.05,3.53-4.1,5.29-6.15.05.04.11.08.16.12-.19.33-.38.66-.58.99.1.05.19.11.29.16.5-.88.99-1.77,1.51-2.68.34.31.55.49.64.57.33-.43.55-.8.84-1.1.25-.25.68-.36.86-.65.87-1.37,1.73-2.75,2.5-4.18,1.15-2.12,2.17-4.31,3.35-6.41Zm-13.84,6.94c.26.39.52.79.86,1.3-.44-.15-.76-.26-1.08-.37-.54.92-2.22,1.08-1.41,2.7-.85-.28-1.42-.47-1.9-.63-.21.72-.39,1.32-.57,1.92-.13.03-.26.07-.4.1-.31-.45-.61-.91-.92-1.36l-.26.18c.1.36.21.72.35,1.22-.34-.15-.59-.27-1.03-.47.23.55.4.98.57,1.41-.11.09-.23.17-.34.26-.3-.42-.56-.87-.89-1.27-.23-.27-.54-.47-.81-.7-.04.33-.09.67-.12,1-.03.41-.05.82-.35,1.26-.31-.5-.63-1.01-.87-1.4-.37.46-.69.86-1.01,1.25.13-.18.25-.36.38-.54-.83-.58-1.73-1.09-2.47-1.77-.32-.3-.58-1.27-.44-1.38,1.06-.82.49-1.97.74-2.93.17-.65.54-1.26.89-2.05-.85-.09-1.86-.25-2.89-.29-2.06-.08-4.13-.15-6.19-.12-.82.01-1.65.28-1.64,1.56.55-.42.99-.77,1.43-1.11-.25,1.7.8,2.58,1.41,3.77.91,1.78,3.08,1.56,3.89,3.15.12.23.27.45.45.74-3-.67-3.84-.4-4.38,1.39-.25-.57-.5-1.14-.89-2.02-2.13.68-4.59,1.46-7.16,2.28.06-.22.12-.42.2-.71-.34.1-.63.18-1.27.36.52-.55.79-.84,1.12-1.19-1.03-.12-1.95-.22-2.91-.33.24-.44.42-.78.71-1.32-1.56.19-2.55-.25-3.08-1.59-.07-.19-.77-.13-1.26-.2.39-.29.74-.54,1.15-.83-1.14.22-2.24.7-3.18.5-.53-.11-.83-1.36-1.23-2.09.12-.1.24-.2.36-.3-.47-.1-.95-.21-1.92-.42,2.24-1.82,4.2-3.42,5.89-4.8.64-1.08.99-2.15,1.72-2.8.92-.82,2.08-.71,3.18.06,1.04.73,2.2,1.3,3.63,1.84-.16-.46-.32-.93-.47-1.36,2.44.2,4.96.53,7.48.58,1.48.03,2.96-.38,4.44-.58.4-.05.86-.21,1.2-.08.33.12.67.52.76.86.05.2-.33.59-.59.79-.4.29-.92.42-1.29.74-.22.19-.25.61-.37.92.33.09.76.35.98.24,1.27-.69,2.52-1.44,3.73-2.23,1.07-.69,2.01-1.73,3.16-2.1.79-.25,2.24-.58,2.74.74.37,1,.42,2.12.59,3.2.02.15-.1.33-.17.54,1.54-.13,1.67,1.13,2.17,2.01,0-.02,0-.05,0-.07.28.64.69,1.27.78,1.94.13.88-.26,1.31-1.21.65Zm-17.59-9.04c1.06.06,2.12.13,3.36.2-.8,1.15-1.97,1.18-3.36-.2Zm7.04-3.08c.28.18.52.33.51.32.79-.3,1.51-.85,2.01-.7.51.16.8,1.01,1.2,1.56-2.06.8-3.84.27-3.71-1.19Zm2.16,4.02c-.11.28-.26.81-.31.8-.54-.12-1.07-.31-1.6-.49.05-.2.1-.4.15-.59.59.1,1.17.19,1.76.29Zm17.65-9.36c-.16.4-.44.75-.68,1.14-.31-.17-.71-.38-1.1-.59-.13,1.2-.24,2.2-.36,3.3-.38-.26-.74-.5-.83-.56.13.7.47,1.61.39,2.49-.04.4-.91.72-1.6,1.22-.15.29-.46.93-.91,1.83.13.34.37,1.01.68,1.84-.85-.49-1.56-.88-2.34-1.33.15,1.2.26,2.39-1.02,3.19-.23.14-.08.93-.07,1.42.02.7-.08,1.23-.99.95-.18-1.49,1-2.6,1.2-3.88.29-1.86-.09-3.82-.19-6-1.02.89-1.07.81-1.91-2.08-.22.36-.38.62-.7,1.14-.8-1.99-2.97.25-3.87-1.53-1.53.21-2.73-.71-4.16-1.18-.03.42-.06.85-.09,1.26-.49-.44-.94-.89-1.44-1.29-.5-.4-1.05-.73-1.9-1.31-.09,1.28-.22,2.14-.17,2.98.04.61.34,1.21.48,1.82.02.11-.17.26-.27.4.34.22.69.43,1.03.65-.21.26-.4.7-.65.74-.3.05-.67-.2-.98-.38-.18-.1-.31-.28-.45-.43-.08-.45-.52-1.04.43-1.1-.7-1.1-1.4-2.19-2.05-3.22-.34.26-.81.62-1.38,1.04,1.03,1.13,2,2.2,2.97,3.26-.29,1.58-1.7,2.33-3.4,1.81-.64-.2-1.28-.43-2.32-.77.51.63.85.9.95,1.24.1.34-.03.75-.05,1.06-1.39-.38-2.66-.73-4.03-1.11.04-.26.09-.64.14-1.01-.55-.31-1.09-.62-1.62-.92.01-.13.02-.26.03-.39.87-.13,1.74-.25,2.63-.38-.24,2.34-.07,2.56,2.45,2.92-.58-.32-.88-.47-1.18-.64-.31-.18-.62-.38-.99-.6.45-1.39.89-2.74,1.33-4.08.15.04.3.07.46.11-.26.81-.51,1.62-.77,2.43,1.9-1.15,2.36-2.01,2-3.82-.38.16-.73.3-1.1.46-.55-.82-1.1-1.63-1.72-2.55-1.42.27-2.81,1-3.96,2.27-1.12,1.24-2.62,1.32-4.05.55-.37-.2-1.08-.19-1.43.04-1.02.65-1.93,1.47-2.81,2.16.06-.49.14-1.13.27-2.23-.78.97-1.44,1.67-1.94,2.46-.39.61-.56,1.35-.87,2.02-.46.98-.05,1.8.28,2.72.18.49.58,1.74-.95,1.37-.1-.02-.28.43-.47.61-.42.41-.87.8-1.39,1.03.26-.53.63-1.04.75-1.61.13-.6.03-1.24.03-1.95-.32.21-.59.38-.9.58-.09-.94-.17-1.77-.27-2.81-.65.38-1.16.69-2.04,1.2.37-.92.64-1.54.86-2.18.1-.29.23-.7.1-.92-.72-1.29-1.52-2.53-2.29-3.79-.23.14-.47.29-.81.5-.02-.25-.08-.39-.03-.49.38-.8-.03-1.3-.47-1.98-.97-1.51-1.9-3.1-2.47-4.78-1.26-3.74-2.32-7.55-3.39-11.36-1.07-3.8-.29-7.59.13-11.39.3-2.68.41-5.39.65-8.08.07-.77.27-1.53.46-2.28.76-3.03.38-6.24,1.58-9.25.42-1.06.39-2.3,1.44-3.05.36-.26.79-.51,1.22-.56,2.46-.3,4.92-.64,7.39-.76.97-.05,1.96.47,2.95.68.28.06.6-.05.9-.1.78-.15,1.56-.33,2.35-.48.53-.1,1.07-.19,1.61-.26.88-.1,1.77-.19,2.66-.25,1.07-.08,2.14-.2,3.21-.16,2.87.09,5.74.31,8.62.38,1.41.04,2.79.64,4.28-.13,1-.52,2.36-.3,3.47-.68,1.41-.49,2.7-1.31,4.08-1.89.6-.26,1.3-.26,1.95-.44,1.22-.33,2.51-.48,3.34-1.66.13-.18.74-.03,1.34-.03,1.46-2.56,2.82.24,3.95.37.93-.85,1.66-1.52,2.67-2.44.35.72.65,1.34,1.01,2.09.15.04.68.18,1.2.32.05.18.11.36.16.54-.37.23-.74.46-1.33.82,1.79-.49,1.8-.49,1.92,1.25.25,3.7.47,7.41.74,11.12.37,5.2.75,10.4,1.18,15.59.22,2.65.77,5.28.84,7.93.11,3.79-1.36,7.29-2.58,10.8-.61,1.75-1.55,3.37-2.3,5.07-.21.48-.35,1-.42,1.52-.2,1.37-1.86,1.37-2.31,2.51Z"/>
      <path class="cls-1" d="m116.87,156.48s.04.03,0,0h0Z"/>
      <path class="cls-1" d="m131.11,93.47c-.29-.64-.27-1.44-.4-2.26-1.02-.16-2.06-.32-3.11-.49-.01.09-.03.17-.04.26.58.15,1.16.3,1.74.46-.93.24-1.85.37-2.71.2-.68-.13-1.28-.65-1.94-.95-.29-.14-.66-.32-.93-.25-.66.16-1.26.61-1.92.67-2.19.2-4.39.25-6.59.42-1.61.13-3.22.35-4.92.54-.02,1.6-1.42,2.16-2.57,2.93-.35.23-.69.46-1.04.7.27.4.46.97.84,1.16.79.4,1,.85.62,1.64-.08.17-.01.42-.01.93.93-.67,1.67-1.19,2.41-1.72.06.06.13.12.19.19-.43.64-.86,1.29-1.35,2.02,1.49.3,2.82.44,4.06.85,1.9.62,3.76.31,5.61,0,.47-.08.88-.74,1.24-1.19.24-.3.34-.7.51-1.06.17-.01.34-.02.52-.03.09.43.33.89.23,1.27-.19.74.02,1.09.74,1.08.88-.01,1.76-.1,2.86-.17-.97-2.35-3.05-3.23-5.05-4.5,2.52.2,4.03,1.78,5.89,3.35-.05-1.17-.12-1.97-.11-2.77,0-.85.37-1.06,1.2-.69.65.28,1.4.44,2.11.44,1.61,0,2.56-1.65,1.92-3.04Zm-17.41,6.63c-.5-.35-1.37-.65-1.41-1.05-.06-.48.58-1.04.92-1.57.14.08.27.15.41.23.12.71.23,1.41.35,2.12-.09.09-.17.18-.26.27Z"/>
      <path class="cls-1" d="m92.79,99.79c-.42-.84-.87-1.67-1.32-2.51.09-.09.18-.19.27-.28.73.94,1.46,1.88,2.19,2.81.59-2.19-1.34-2.54-2.24-3.72,1.7-.73,2.66.95,4.13,1.1-.05-.42-.19-.76-.1-1.02.36-1.05.05-1.68-1.02-1.98-.21-.06-.39-.24-.56-.38-1.65-1.33-3.49-2.12-5.64-2.2-.65-.03-1.3-.26-1.94-.42-.65-.16-1.31-.31-1.95-.54-1.96-.71-4.07-.45-5.98-.8-2.19-.41-3.7.62-5.54,1,.25.07.51.14.74.21-.82.86-3.64.59-1.39,2.91-.35.09-.69.18-1.16.3.35.51.72.89.9,1.35.25.63.57.78,1.09.5.68-.36,1.39-.74,2.13-.87,1.31-.23,2.65-.29,3.97-.41.54-.05,1.07-.07,1.61-.11.02.12.04.23.06.35-.35.2-.71.37-1.04.59-.96.68-1.99,1.3-2.84,2.1-.61.58-.59,1.63.25,1.83,1.14.27,2.4.07,3.7.07-.42-.71-.67-1.12-.91-1.53.4-.21.8-.42,1.16-.6.52,1.18.94,2.16,1.41,3.13.08.16.49.35.57.29,1.15-.82,1.95.1,3.02.64-.22-.5-.36-.84-.57-1.32.78.28,1.43.52,2.15.78-.02-.2-.03-.36-.05-.53,1.61-.09,3.21-.19,4.9-.29,0-.09.06-.29,0-.44Zm-15.04-.82c-.16-.16-.33-.33-.49-.49.8-.7,1.6-1.4,2.4-2.1.07.07.13.14.2.22-.71.79-1.41,1.59-2.12,2.38Zm10.14,1.53s0,0,0,0c-.09-.24-.29-.51-.24-.71.26-.91.58-1.8.97-2.96.99.71,1.98,1.42,3,2.15-1.24.51-2.48,1.02-3.73,1.53Z"/>
      <path class="cls-1" d="m94.48,122.5c-2.63-1.11-2.03-3.38-1.92-5.73-1.9,3.11,0,6.67,3.73,7.7.22-2.08,1.21-.11,2.19-.37-1.02-.89-1.77-1.66-2.64-2.26-.64-.44-1.41-.56-1.36.66Z"/>
      <path class="cls-1" d="m102.77,123.73c-1.41.21-2.51.38-3.6.54,1.25,1.28,2.31.57,3.6-.54Z"/>
    </g>
  </g>
  <path class="cls-1" d="m121.5,32.41c37.16,0,67.39,30.23,67.39,67.39s-30.23,67.39-67.39,67.39-67.39-30.23-67.39-67.39,30.23-67.39,67.39-67.39m0-1c-37.77,0-68.39,30.62-68.39,68.39s30.62,68.39,68.39,68.39,68.39-30.62,68.39-68.39S159.27,31.41,121.5,31.41h0Z"/>
  <path class="cls-1" d="m80.56,32.41c37.16,0,67.39,30.23,67.39,67.39s-30.23,67.39-67.39,67.39S13.17,136.97,13.17,99.81,43.4,32.41,80.56,32.41m0-1c-37.77,0-68.39,30.62-68.39,68.39s30.62,68.39,68.39,68.39,68.39-30.62,68.39-68.39S118.33,31.41,80.56,31.41h0Z"/>
  <path class="cls-1" d="m101.41,32.41c37.16,0,67.39,30.23,67.39,67.39s-30.23,67.39-67.39,67.39-67.39-30.23-67.39-67.39,30.23-67.39,67.39-67.39m0-1c-37.77,0-68.39,30.62-68.39,68.39s30.62,68.39,68.39,68.39,68.39-30.62,68.39-68.39S139.18,31.41,101.41,31.41h0Z"/>
  <path class="cls-1" d="m91.45,32.41c37.16,0,67.39,30.23,67.39,67.39s-30.23,67.39-67.39,67.39S24.05,136.97,24.05,99.81,54.29,32.41,91.45,32.41m0-1c-37.77,0-68.39,30.62-68.39,68.39s30.62,68.39,68.39,68.39,68.39-30.62,68.39-68.39S129.22,31.41,91.45,31.41h0Z"/>
  <path class="cls-1" d="m111.16,32.41c37.16,0,67.39,30.23,67.39,67.39s-30.23,67.39-67.39,67.39-67.39-30.23-67.39-67.39,30.23-67.39,67.39-67.39m0-1c-37.77,0-68.39,30.62-68.39,68.39s30.62,68.39,68.39,68.39,68.39-30.62,68.39-68.39S148.93,31.41,111.16,31.41h0Z"/>
</svg>