<?xml version="1.0" encoding="UTF-8"?>
<svg id="Layer_2" data-name="Layer 2" xmlns="http://www.w3.org/2000/svg" xmlns:xlink="http://www.w3.org/1999/xlink" viewBox="0 0 524.82 520.46">
  <defs>
    <style>
      .cls-1 {
        fill: url(#radial-gradient);
        stroke-width: 0px;
      }
    </style>
    <radialGradient id="radial-gradient" cx="262.41" cy="260.23" fx="262.41" fy="260.23" r="261.32" gradientUnits="userSpaceOnUse">
      <stop offset="0" stop-color="#191919" stop-opacity=".7"/>
      <stop offset="1" stop-color="#f5f5f5" stop-opacity="0"/>
    </radialGradient>
  </defs>
  <g id="Layer_1-2" data-name="Layer 1">
    <path class="cls-1" d="m523.97,457.51c1.3-21.62,1.09-42.57-.61-63.21-.53-6.39-1.21-12.84-2.04-19.26-3.59-10.88-7.04-22.21-10.01-33.92.21-.02.42-.04.64-.06l-.1-.99c-.26.03-.52.05-.78.07-8.54-33.97-12.96-71.13-4.83-109.86.6,0,1.2,0,1.8,0v-1c-.53,0-1.05,0-1.58,0,1.94-9.02,4.55-18.13,7.97-27.3,2.99-8.97,4.04-20.11,2.8-29.74.03-5.74.06-11.49.08-17.26.12-34.65.06-69.83-.19-104.58V6.83c0-.28-.22-.5-.5-.5H215.8l-3.82-.04c-4.33-.04-8.65-.08-12.94-.16C173.73,2.48,147.72.53,120.18.26l-.84-.26c-.03.09-.05.17-.08.25C87.46,0,53.6,1.98,16.39,6.23c-.25.03-.44.24-.44.49l-.1,8.3c-.43,29.46-.34,55.82.27,80.57,0,7.54,0,15.41,0,23.57v237.43c.47,19.31-3.96,39.63-8.24,59.29C-.01,452.06-7.46,486.24,14.55,512.14c4.85,6.14,12.22,8.32,21.09,8.32,10.47,0,23.02-3.03,35.95-6.16,10.26-2.48,20.88-5.05,30.4-5.97,11.83-1.08,23.35-1.96,34.26-1h266.67c7.48.2,14.99.43,22.53.67,30.47.95,61.97,1.94,92.52.33.24-.01.43-.19.47-.42,2.68-17.07,4.5-33.59,5.49-49.74.07-.02.14-.04.2-.05l-.16-.6Zm-.99-.13c-14.4,3.86-28.72,7.35-43.65,8.74,4.37-12.25,7.5-24.92,6.11-38.36-.42-3.53-.96-7.04-1.58-10.51,13.58-2.92,26.47-8.7,39.11-14.43,1.11,17.85,1.12,35.95,0,54.56Zm-173.53,48.94h-54.56s0-54.56,0-54.56h43.77c2.22.03,4.44.05,6.65.07,1.39.01,2.77.03,4.16.04-.02,5.19-.02,10.11-.02,14.69v39.75ZM72.6,356.57c.01-2.59.02-5.19.03-7.81,0-2.68.02-5.38.03-8.09h35.24c6.4-.16,12.81-.3,19.22-.42.03,1.11.06,2.22.1,3.33v43.62c0,2.58,0,5.19,0,7.79-16.94-.22-33.94.95-50.46,2.1-2.14.15-4.28.3-6.43.45.39-2.88.77-5.77,1.11-8.64l.13-1.46c.94-10.33,1.83-20.08,1.03-30.84ZM110.93,49.39c.04,3.21.21,6.38.52,9.5,1.6,13.98,4.51,27.83,7.33,41.22.92,4.39,1.85,8.81,2.74,13.26-17.08-.44-34.29-.36-51.53.78-.62-5.28-1.28-10.54-1.93-15.73-1.84-14.55-3.7-29.33-4.43-44.18,15.08-3.43,30.58-6.38,46.31-4.9.33.02.67.04,1,.06Zm128.41-3.93V7.33h54.56v24.88c-.06,10.34-.11,20.65-.15,30.94-6.09-.13-12.15-.29-18.17-.45-11.81-.31-23.9-.62-36-.7-.06-5.54-.14-11.06-.23-16.54Zm222.7,14.53c-18.55-.41-35.82-.51-52.3-.3-.99-9.34-2.23-18.48-3.71-27.51-.03-5.34-.03-9.94-.03-13.7V7.33h54.56v11.13c-.51,14,.29,27.89,1.48,41.53Zm54.31,56.6c-15.92-3.58-32.09-6.05-48.78-7.46-.04-.45-.08-.89-.12-1.34-.66-9.96-1.67-19.96-2.65-29.62-.57-5.67-1.15-11.39-1.66-17.16,16.55.37,34.11.99,53.05,1.85.1,17.88.16,35.81.17,53.72Zm-.05,38.39c-.02,5.77-.05,11.52-.08,17.33.02.19.03.38.05.56-10.66-.98-21.46-2.43-31.9-3.84-5.86-.79-11.78-1.59-17.74-2.31.03-.34.06-.66.09-1.01,1.48-16.46,2.72-35.84.93-55.58,16.67,1.41,32.8,3.89,48.69,7.47,0,12.49,0,24.97-.05,37.37Zm-276.97,240.24v-38.7l-.12-4.29c-.11-4.03-.23-8.08-.34-12.14,9.27.15,18.52.33,27.74.56h27.28v54.57h-54.56Zm54.56,1v54.56h-54.56s0-54.56,0-54.56h54.56Zm-165.67-9.04v-43.63c-.03-1.11-.06-2.22-.09-3.33,18.06-.34,36.17-.51,54.27-.54.38,6.47.36,12.96.32,19.3-.02,4.29-.05,8.72.05,13.1v23.14h-46.51c-2.68-.12-5.36-.2-8.05-.24,0-2.6,0-5.21,0-7.79ZM17.11,118.44h10.22c2.99,0,7.52,0,12.64-.13,9.7-1.45,19.41-2.44,29.12-3.1,1.11,9.65,2.06,19.4,2.5,29.06.06,4.52.07,9.19.07,13.32v15.41H17.11v-53.84c0-.24,0-.47,0-.71Zm393.61,46.09c-5.27.43-10.18,1.09-14.87,2-.04,0-.08.02-.11.04-14.67,6.76-29.65,11.94-44.81,15.56.18-18.33.35-36.91.39-55.62,5.29-2.26,10.58-4.99,15.89-8.24,12.7-7.81,28.54-8.93,43.79-8.96.24-.01.49-.02.73-.03.31,17.21-.03,35.47-1,55.27Zm-228.28,165.24c-2.39-19.09-3.43-37.76-3.68-56.33,18.86-.45,37.12,2.74,56.25,6.08.47.08.96.17,1.43.25.33,19.82.84,39.72,1.39,59.31-18.12-.29-36.3-.42-54.5-.4-.2-2.98-.47-5.95-.9-8.91Zm-55.87-105.06c17.44-1.7,34.71-2.99,52.22-3.46-.76,17.17-1.23,34.16-1.04,51.22-3.92.12-7.87.39-11.86.86-10.65,1.14-21.46,3.03-31.92,4.86-2.39.42-4.8.84-7.21,1.25-.25-17.97-.35-36.24-.19-54.73Zm-.99-.91c-14,1.37-28.11,2.99-42.52,4.65l-.71.08c-3.33,0-6.56,0-9.68,0v-54.55h35.24c5.1-.07,10.21-.15,15.33-.22,1.16-.02,2.33-.03,3.49-.05-.08,2.17-.16,4.34-.23,6.52-.49,14.62-.78,29.16-.91,43.57Zm1.91-43.53c.07-2.19.15-4.38.24-6.57,16.83-.25,34.12-.49,51.17-.58.8,0,1.61,0,2.41,0-.25,4.6-.5,9.18-.74,13.67-.62,11.28-1.23,22.41-1.73,33.47-17.52.47-34.81,1.76-52.25,3.45.13-14.37.42-28.86.91-43.44Zm222.03,50.43c-17.86.8-36.09.66-54.82-.39-.05-13.76-.08-27.46-.11-41.14,1.2.02,2.39.04,3.59.04,3.47,0,6.94-.08,10.42-.24,13.94-.63,27.74-2.54,41.32-5.67,0,.88-.02,1.78-.03,2.66-.15,14.68-.29,29.7-.38,44.74Zm-112.35,26.12c-.05-6.74-.07-13.41-.06-19.8.14-3.87.27-7.71.4-11.54,19.31,2.81,37.99,4.73,56.18,5.78.05,14.14.11,28.33.19,42.6v10.7c-8.85.34-17.54-.37-26.63-1.12l-1.25-.1c-9.64-1.13-19.24-2.77-28.57-4.4-.12-7.39-.21-14.76-.27-22.11Zm57.53-25.5c10.63.6,21.09.9,31.42.9,7.87,0,15.66-.18,23.39-.52-.04,7.25-.06,14.5-.06,21.71v30.69s-48.89,0-48.89,0c-1.9.2-3.79.32-5.67.41v-10.66c-.08-14.25-.14-28.42-.19-42.54Zm-1-1.06c-18.17-1.05-36.84-2.98-56.14-5.79.49-14.62.9-28.93,1.23-43,18.08,4.75,36.41,7.32,54.81,7.69.02,13.67.06,27.36.11,41.09Zm-57.14-5.93c-7.76-1.14-15.62-2.41-23.6-3.83-6.14-.27-12.49-.42-18.88-.43-4.77-.01-9.51.05-14.24.17.5-11.03,1.1-22.13,1.72-33.39.25-4.51.5-9.11.75-13.73,4.79-.02,9.58-.03,14.4-.03,9.28-.97,16.28-.27,22.07,2.21,6.3,2.24,12.64,4.21,19,5.91-.33,14.1-.73,28.45-1.23,43.12Zm-56.76-3.1c4.31-.11,8.63-.17,12.98-.17.43,0,.87,0,1.3,0,6.38.02,12.71.16,18.77.42,8,1.43,15.89,2.71,23.67,3.85-.13,3.87-.27,7.75-.41,11.66-.01,6.41,0,13.08.06,19.83.05,7.28.15,14.6.27,21.93-.41-.07-.83-.14-1.24-.22-19.18-3.36-37.49-6.55-56.44-6.1-.2-17.06.27-34.05,1.04-51.21Zm57.66,58.72c9.29,1.62,18.83,3.25,28.45,4.38l1.27.11c9.12.76,17.84,1.47,26.72,1.13v54.09h-27.26c-9.23-.24-18.5-.41-27.78-.56-.55-19.53-1.06-39.38-1.39-59.15Zm57.44,5.57c1.9-.09,3.8-.21,5.72-.41h48.84v51.45c0,1.1,0,2.22,0,3.33-2.49-.08-4.87-.16-7.2-.22h-47.36v-54.14Zm55.56-.41h13.55c12.64-.22,25.36-.21,38.05-.09.07,19.99,1.37,39,3.91,57.16-6.81-.26-13.55-.55-20.22-.87l-5.45-.23c-5.46-.23-10.9-.45-16.34-.66-4.94-.19-9.37-.35-13.51-.49,0-1.12,0-2.25,0-3.36v-51.45Zm13.54-1h-13.54s0-30.69,0-30.69c0-7.23.03-14.5.06-21.76,2.49-.12,4.97-.25,7.45-.4,6.99-.43,14.04-1.01,20.91-1.72,8.62-.24,17.29-.35,25.96-.37-1.87,19.09-2.79,37.34-2.77,54.84-12.69-.12-25.43-.13-38.06.09Zm14.81-55.56c-6.9.71-13.93,1.29-20.91,1.72-2.45.15-4.91.27-7.38.39.08-15.02.23-30.01.38-44.68,0-.96.02-1.94.03-2.9,15.38-3.62,30.48-8.81,45.18-15.58,4.6-.89,9.41-1.53,14.58-1.96-.19,3.83-.41,7.72-.65,11.67-.4,6.53-.86,13.31-1.42,20.71-1.48,10.32-2.71,20.4-3.69,30.25-8.72.03-17.44.13-26.12.38Zm32.17-120.25c-15.37.04-31.38,1.17-44.28,9.11-5.13,3.14-10.25,5.79-15.37,8,.04-20.53-.09-41.2-.55-61.88,6.83-.41,13.65-.97,20.45-1.73,6.62-.32,13.41-.57,20.76-.76,5.54-.15,11.16-.25,16.87-.33,1.58,15.16,2.53,30.87,2.86,47.56-.25.01-.49.02-.74.03Zm-60.65,17.53c-18.58,7.82-37.08,9.89-55.75,8.77.02-23.43.08-46.87.17-70.43,7.37.15,14.77.26,22.2.26,10.92,0,21.88-.23,32.82-.86.46,20.81.59,41.61.55,62.25Zm-46.53,10.07c15.54,0,31-2.52,46.53-8.99-.04,18.65-.21,37.17-.39,55.45-18.25,4.26-36.76,6.25-55.34,5.93-.03-17.59-.04-35.13-.02-52.68,3.08.18,6.15.29,9.22.29Zm-10.2,52.38c-18.27-.39-36.59-2.99-54.79-7.81.43-18.66.73-36.89.87-54.71,18.23,4.64,36.13,8.63,53.89,9.8-.01,17.56,0,35.13.02,52.73Zm-55.78-8.08c-6.24-1.68-12.46-3.61-18.66-5.82-7.79-3.34-16.59-2.9-22.48-2.28-4.76-.01-9.53,0-14.3.03.21-3.87.41-7.76.6-11.63.35-7.19.61-13.22.81-19.01-.06-8.03-.34-16.19-.72-24.33,5.88.29,11.75.56,17.71.8,5.68-.57,11.58.21,18.06,2.37,2.39.62,4.78,1.25,7.17,1.88,4.25,1.11,8.47,2.22,12.68,3.29-.15,17.83-.44,36.04-.87,54.71Zm-55.04-38.72c-.2,5.76-.46,11.79-.81,18.97-.19,3.88-.39,7.79-.6,11.68-.82,0-1.65,0-2.47,0-17.03.09-34.31.33-51.13.58.14-3.59.29-7.17.45-10.68.11-16.15-2.4-32.06-5.47-47.62,14.88.4,29.66,1.16,44.26,1.92,5.01.26,10.03.52,15.05.77.38,8.16.66,16.33.72,24.37Zm-55.56,20.53c-.16,3.52-.31,7.11-.45,10.73-1.18.02-2.37.04-3.54.05-5.12.08-10.23.15-15.32.22h-35.23v-15.41c0-4.13-.02-8.81-.07-13.35-.44-9.68-1.38-19.44-2.5-29.1,17.27-1.14,34.51-1.2,51.61-.76,3.08,15.57,5.61,31.49,5.5,47.62Zm-110.1,12h54.56v54.56c-4.01,0-7.84,0-11.48,0H17.11v-54.56Zm0,55.56h43.08c3.64,0,7.47,0,11.48,0v54.55c-4.01,0-7.84,0-11.48,0H17.11v-54.55Zm55.56,0c3.14,0,6.38,0,9.74,0l.77-.09c14.37-1.66,28.43-3.28,42.4-4.64-.16,18.52-.06,36.82.19,54.81-14.4,2.45-29.1,4.59-43.41,4.48-3.33,0-6.56,0-9.68.01v-54.55Zm9.68,55.54c14.33.11,29.03-2.02,43.43-4.47.29,19.98.77,39.56,1.32,58.61-6.41.12-12.81.26-19.2.42h-35.23v-54.56c3.13,0,6.35,0,9.68-.01Zm44.43-4.64c2.47-.42,4.93-.85,7.37-1.28,10.44-1.83,21.23-3.71,31.85-4.85,3.96-.47,7.87-.73,11.76-.85.25,18.6,1.29,37.29,3.69,56.42.42,2.91.69,5.84.88,8.78-18.09.03-36.19.2-54.24.54-.55-19.1-1.03-38.74-1.32-58.76Zm56.95,78.53c.03-6.34.06-12.83-.32-19.31,18.19-.02,36.36.11,54.47.4.11,4.08.23,8.14.34,12.18l.12,4.27v38.68h-54.56s0-23.15,0-23.15c-.1-4.38-.08-8.8-.05-13.08Zm111.17-18.33h47.34c2.33.07,4.73.15,7.22.23,0,17.29,0,35.89,0,54.93-5.75-.41-11.55-.59-17.43-.45l-2.39-.02c-4.21-.03-8.45-.06-12.73-.14h-22.02s0-54.56,0-54.56Zm55.56.26c4.13.14,8.54.3,13.47.49,5.44.21,10.88.44,16.34.66l5.45.22c6.72.32,13.54.62,20.41.88,1.33,9.3,2.98,18.38,4.96,27.25.99,5.08,2.14,10.52,3.5,16.65,1.32,5.92,2.7,11.85,3.88,16.85.37,1.78.67,3.55.91,5.31-1.13-.28-2.27-.56-3.4-.84-22.24-5.53-43.53-10.81-65.52-12.5,0-19.05,0-37.67,0-54.97Zm68.98,62.79c-1.18-5.01-2.56-10.93-3.88-16.85-1.36-6.12-2.51-11.56-3.5-16.64-1.96-8.79-3.6-17.79-4.92-27.01,13.27.49,26.77.82,40.42.82,3.33,0,6.67-.03,10.02-.07,3.1,7.79,6.93,15.47,11.58,22.97,2.2,5.83,4.18,12,6.43,20.03,2.63,9.38,5.24,19.3,7.12,29.52-8.89,1.82-18.07,2.38-27.66.85-11.72-2.23-23.33-5.04-34.63-7.84-.26-1.91-.58-3.84-.98-5.78Zm-12.45-61.5c-2.55-18.17-3.86-37.18-3.93-57.19,14.17.14,28.28.42,42.15.69.34,0,.69.01,1.04.02.46,19.1,3.63,38.49,10.94,57.24-16.97.2-33.77-.15-50.2-.76Zm38.24-57.5c-13.87-.28-27.99-.55-42.17-.69-.02-17.5.9-35.75,2.78-54.86,15.38-.04,30.74.19,45.84.45-3.53,17.48-5.82,36.16-5.46,55.12-.33,0-.67-.01-1-.02Zm-39.3-56.55c.98-9.82,2.2-19.86,3.68-30.14.56-7.44,1.02-14.23,1.42-20.76.24-4,.46-7.93.65-11.81,1.65-.13,3.33-.23,5.06-.32,16.52-.8,32.83.55,48.81,2.47-.63,6.73-1.23,12.06-1.92,16.98-4.22,13.22-8.49,28.13-11.75,44.03-15.14-.26-30.53-.49-45.95-.45Zm10.76-64.03c-1.69.08-3.34.19-4.96.31.97-19.78,1.31-38.04,1-55.23,5.4-.24,10.77-.4,15.99-.46,13.02-.14,25.62.3,37.93,1.31,1.8,19.73.56,39.11-.92,55.57-.03.34-.06.65-.09.98-16.01-1.92-32.37-3.27-48.95-2.47Zm47.11-85.87c.98,9.66,1.98,19.65,2.65,29.61.04.39.07.78.11,1.17-12.29-1-24.86-1.44-37.85-1.29-5.23.06-10.6.21-16,.46-.33-16.69-1.28-32.39-2.86-47.53,16.47-.2,33.74-.1,52.28.31.52,5.81,1.1,11.58,1.67,17.28Zm-58.76-46.02c1.48,9.01,2.71,18.13,3.7,27.44-5.68.07-11.27.18-16.79.32-7.36.19-14.16.44-20.82.76-6.78.76-13.58,1.32-20.4,1.72-.09-4-.18-8.01-.3-12.01V7.33h54.56v11.15c0,3.76,0,8.36.04,13.78Zm-55.3,30.31c-18.38,1.05-36.82.98-55,.6.04-10.29.09-20.61.15-30.96V7.33h54.56v43.18c.12,4.02.21,8.04.3,12.06Zm-74.2,1.14c6.03.16,12.1.31,18.19.44-.1,23.55-.15,46.97-.17,70.39-17.75-1.17-35.65-5.17-53.89-9.82.17-21.05.13-41.57-.1-61.71,12.09.08,24.16.39,35.96.7Zm-36.86,60.75c-4.13-1.06-8.27-2.14-12.43-3.23-2.39-.63-4.78-1.25-7.14-1.87-6.59-2.2-12.62-2.98-18.37-2.41-5.91-.25-11.82-.52-17.73-.81-.32-6.69-.69-13.37-1.06-19.94-.7-12.4-1.41-24.98-1.71-37.6,8.94,1.38,17.97,2.62,26.95,3.45,5.75.53,11.08.85,16.31,1,5.02-.07,10.05-.08,15.09-.05.23,20.06.26,40.5.1,61.46Zm-57.74-28.2c.37,6.54.74,13.18,1.06,19.84-4.98-.25-9.97-.5-14.95-.76-14.69-.77-29.55-1.53-44.52-1.93-.9-4.53-1.84-9.03-2.78-13.49-2.81-13.37-5.72-27.2-7.31-41.12-.31-3.07-.47-6.17-.51-9.33,17.9.96,35.72,3.86,52.98,6.69,4.73.77,9.51,1.56,14.32,2.3.29,12.69,1.01,25.34,1.71,37.81Zm-113.89,2.28c.65,5.17,1.31,10.41,1.93,15.68-9.7.66-19.4,1.65-29.09,3.1-5.05.12-9.57.12-12.56.12h-10.22c0-7.54,0-14.85,0-21.87-.26-10.66-.43-21.63-.5-33,13.68-.59,27.23-3.75,40.33-6.8,1.89-.44,3.78-.88,5.68-1.32.74,14.82,2.6,29.57,4.43,44.08Zm-49.94,186.57h43.08c3.64,0,7.47,0,11.48,0v54.56H17.11v-54.56Zm59.72,112.96c16.5-1.15,33.47-2.32,50.39-2.1-.02,11.85-.19,23.8-.37,35.44-.1,6.8-.2,13.66-.27,20.56-18.89,1.93-37.69,5.44-57.13,9.08-2.4.45-4.83.9-7.26,1.35.86-15.62,3.2-31.26,5.5-46.64.85-5.66,1.7-11.44,2.5-17.23,2.22-.15,4.44-.31,6.64-.46Zm51.02,33.35c.18-11.64.35-23.59.37-35.44,2.68.04,5.35.12,8.02.24h46.53v54.56h-15.88c-13.31-.73-26.34-.19-39.32,1.09.07-6.86.17-13.69.27-20.45Zm55.92-35.2h54.56v54.56h-54.56s0-54.56,0-54.56Zm54.56,55.56v54.56h-54.56s0-54.56,0-54.56h54.56Zm1,0h54.56v54.56h-54.56s0-54.56,0-54.56Zm105.98-.93c-2.21-.02-4.42-.04-6.65-.07h-43.78s0-54.56,0-54.56h22.01c4.27.07,8.51.1,12.73.14l2.4.02c5.88-.15,11.67.03,17.43.45,0,16.3.02,32.91.04,49.25,0,1.64-.02,3.24-.02,4.82-1.38-.01-2.77-.03-4.15-.04Zm5.14-53.95c21.89,1.69,43.1,6.95,65.27,12.47,1.26.31,2.52.63,3.79.94,2.12,16.79-1.1,32.56-5.45,48.71-19.8-4.18-40.26-8.44-61.59-8.1-.67,0-1.34-.01-2-.02,0-1.59.01-3.19.02-4.83-.02-16.32-.03-32.89-.04-49.17Zm70.1,13.67c11.19,2.77,22.69,5.55,34.32,7.76,3.89.62,7.7.91,11.46.91,5.65,0,11.16-.66,16.56-1.77.62,3.44,1.15,6.92,1.57,10.42,1.39,13.39-1.81,26.08-6.22,38.35-7.55.65-15.26.77-23.23.1-13.64-1.56-27.02-4.38-39.96-7.11,4.34-16.11,7.55-31.86,5.51-48.66Zm99.8-35.3c.81,6.31,1.49,12.75,2.01,19.12.2,2.45.38,4.91.54,7.37-12.68,5.76-25.61,11.6-39.23,14.53-1.88-10.24-4.5-20.18-7.14-29.58-2.26-8.06-4.25-14.26-6.5-20.21-4.56-7.36-8.32-14.9-11.39-22.54,17.12-.23,34.41-1.04,51.65-2.74,2.99,11.76,6.45,23.13,10.05,34.05Zm-10.3-35.03c-17.3,1.7-34.63,2.5-51.8,2.73-7.35-18.73-10.54-38.11-11-57.21,16.91.34,34.33.67,51.43.74v-1c-17.11-.06-34.53-.4-51.45-.74-.37-18.96,1.93-37.64,5.46-55.12,1.72.03,3.45.06,5.17.09,15.51.27,31.53.53,47.34.56-8.1,38.79-3.68,75.98,4.85,109.95Zm3.42-138.58c-3.46,9.28-6.1,18.5-8.05,27.62-15.91-.03-31.96-.29-47.54-.56-1.65-.03-3.32-.06-4.98-.09,3.25-15.82,7.51-30.66,11.7-43.83.71-5,1.32-10.35,1.94-17.08,5.95.72,11.85,1.52,17.7,2.3,10.52,1.42,21.39,2.88,32.13,3.86.93,9.17-.12,19.42-2.9,27.76Zm2.7-139.79c-18.97-.87-36.56-1.48-53.13-1.85-1.19-13.64-2-27.53-1.49-41.54V7.33h54.56v43.08c.03,3.81.04,7.64.07,11.46ZM211.97,7.29l3.82.04h22.54v38.14c.09,5.48.17,10.99.23,16.53-5.03-.03-10.06-.02-15.07.05-5.19-.14-10.5-.47-16.22-.99-9.01-.83-18.09-2.08-27.07-3.47-.37-17.27.06-34.6,2.39-51.65l-.99-.14c-2.34,17.06-2.77,34.38-2.41,51.63-4.75-.74-9.47-1.51-14.13-2.27-17.31-2.84-35.19-5.75-53.15-6.71-.05-14.16,2.58-29.45,8.08-47.18,27.58.26,53.61,2.21,78.96,5.86,4.36.08,8.68.13,13.01.17ZM118.96,1.25c-5.46,17.68-8.08,32.96-8.03,47.13-.31-.02-.62-.04-.93-.06-15.8-1.48-31.32,1.46-46.43,4.89-.77-16.82-.06-33.74,3.83-50.51,17.87-1.09,34.99-1.58,51.56-1.45ZM16.84,15.03l.1-7.86c17.15-1.95,33.58-3.41,49.42-4.4-3.87,16.85-4.57,33.81-3.79,50.67-1.96.45-3.91.9-5.86,1.36-13.05,3.04-26.53,6.18-40.11,6.77-.08-14.72,0-30.15.23-46.54Zm85.06,492.3c-9.59.93-20.24,3.5-30.54,5.99-23.58,5.7-45.84,11.08-56.03-1.82-21.7-25.53-14.31-59.48-6.48-95.42,4.3-19.72,8.74-40.11,8.26-59.52v-15.91h54.56c-.01,2.71-.02,5.41-.03,8.09,0,2.62-.02,5.22-.03,7.85.8,10.72-.08,20.43-1.02,30.72l-.13,1.45c-.35,2.93-.74,5.87-1.14,8.82-18.51,1.26-37.45,2.28-56,1.05l-.07,1c18.55,1.23,37.45.22,55.93-1.04-.78,5.72-1.63,11.43-2.47,17.01-2.32,15.49-4.67,31.24-5.52,46.98-9,1.67-18.17,3.32-27.34,4.75-10.51,2.1-21.29,1.86-30.37-.68l-.27.96c5.08,1.42,10.67,2.13,16.45,2.13,4.73,0,9.58-.48,14.36-1.43,9.09-1.41,18.18-3.05,27.11-4.7-.85,16.88.06,33.74,4.63,50.29l.96-.27c-4.55-16.5-5.44-33.35-4.58-50.21,2.51-.47,5.02-.93,7.49-1.4,19.37-3.63,38.11-7.13,56.93-9.05-.18,17.55-.14,35.33.61,52.95-8.19-.06-16.65.62-25.29,1.4Zm26.29-1.4c-.76-17.65-.79-35.47-.61-53.06,12.98-1.29,26-1.83,39.3-1.1h15.9v54.56h-46.49c-2.67-.24-5.37-.36-8.11-.4Zm261.31.4h-39.05s0-39.75,0-39.75c0-4.58,0-9.49.02-14.68.67,0,1.34.01,2.01.02,21.2-.34,41.6,3.9,61.33,8.06-.88,3.25-1.81,6.51-2.74,9.81-1.56,5.51-3.17,11.21-4.61,16.97-.72,5.01-.92,9.48-1.14,14.21-.08,1.76-.17,3.56-.28,5.43-.7-.02-1.4-.04-2.11-.06h-13.43Zm16.54.09c.11-1.86.19-3.65.28-5.41.22-4.71.42-9.15,1.12-14.06,1.42-5.7,3.04-11.39,4.59-16.89.94-3.31,1.87-6.6,2.76-9.87,12.98,2.74,26.4,5.57,40.12,7.14,7.81.65,15.47.54,22.96-.09-1.68,4.6-3.52,9.15-5.34,13.66-3.57,8.81-7.25,17.92-9.59,27.1-12.56-.22-25.09-.61-37.45-1-6.5-.2-12.98-.4-19.45-.58Zm111.48.93c-17.66.92-35.64.97-53.55.66,2.33-9.04,5.96-18.04,9.49-26.75,1.89-4.66,3.79-9.37,5.52-14.14,15.3-1.4,29.94-4.95,43.94-8.69-.99,15.88-2.78,32.13-5.4,48.91Z"/>
  </g>
</svg>