<?xml version="1.0" encoding="UTF-8"?>
<svg id="Layer_1" data-name="Layer 1" xmlns="http://www.w3.org/2000/svg" viewBox="0 0 300 300">
  <defs>
    <style>
      .cls-1 {
        fill: #f5f5f5;
        stroke-width: 0px;
      }

      .cls-2, .cls-3 {
        fill: none;
        stroke: #000;
      }

      .cls-2, .cls-3, .cls-4, .cls-5 {
        stroke-width: 2px;
      }

      .cls-2, .cls-4 {
        stroke-linejoin: bevel;
      }

      .cls-3, .cls-6, .cls-5 {
        stroke-miterlimit: 10;
      }

      .cls-4, .cls-6, .cls-5 {
        fill: #191919;
        stroke: #191919;
      }
    </style>
  </defs>
  <polygon class="cls-6" points="242.6 221.95 251.31 221.95 253.22 219.43 253.6 184.99 251.72 181.78 249.93 181.2 39.93 181.65 31.43 181.36 28.68 182.53 27.93 186.57 27.93 219.45 30.1 222.32 61.64 222.32 242.6 221.95"/>
  <polygon class="cls-6" points="242.6 176.55 251.31 176.55 253.22 174.04 253.6 139.59 251.72 136.38 249.93 135.8 39.93 136.26 31.43 135.97 28.68 137.13 27.93 141.17 27.93 174.05 30.1 176.92 61.64 176.92 242.6 176.55"/>
  <polygon class="cls-6" points="242.6 131.74 251.31 131.74 253.22 129.23 253.6 94.79 251.72 91.58 249.93 90.99 39.93 91.45 31.43 91.16 28.68 92.33 27.93 96.37 27.93 129.25 30.1 132.12 61.64 132.12 242.6 131.74"/>
  <g>
    <circle class="cls-5" cx="229.18" cy="110.96" r="2.43"/>
    <circle class="cls-5" cx="223.54" cy="110.96" r="2.43"/>
    <line class="cls-5" x1="223.54" y1="108.54" x2="229.18" y2="108.54"/>
    <line class="cls-5" x1="223.54" y1="113.39" x2="229.18" y2="113.39"/>
    <circle class="cls-5" cx="216.16" cy="110.96" r="2.43"/>
    <circle class="cls-5" cx="210.52" cy="110.96" r="2.43"/>
    <line class="cls-5" x1="210.52" y1="108.54" x2="216.16" y2="108.54"/>
    <line class="cls-5" x1="210.52" y1="113.39" x2="216.16" y2="113.39"/>
    <circle class="cls-5" cx="203" cy="110.96" r="2.43"/>
    <circle class="cls-5" cx="197.36" cy="110.96" r="2.43"/>
    <line class="cls-5" x1="197.36" y1="108.54" x2="203" y2="108.54"/>
    <line class="cls-5" x1="197.36" y1="113.39" x2="203" y2="113.39"/>
    <g>
      <path class="cls-4" d="m37.05,93.29v35.34l-9.36.02v-35.38c3.12,0,6.24.01,9.36.02Z"/>
      <path class="cls-4" d="m253.42,93.24l-2.3-2.44-211.78.06-2.28,2.43-9.36-.02,2.29-2.44,211.96-.06,2.3,2.44,9.18.02Z"/>
      <path class="cls-4" d="m251.12,131.13l2.3-2.44-9.18.02-2.3,2.44-211.96-.06-2.29-2.44,9.36-.02,2.28,2.43,185.46.05c8.78,0,17.55,0,26.33,0Z"/>
      <path class="cls-4" d="m253.42,128.69v-35.45l-9.18-.02v35.48l9.18-.02Z"/>
      <polygon class="cls-4" points="244.24 128.71 244.24 93.22 241.94 90.78 29.98 90.84 27.69 93.27 27.69 128.65 29.98 131.09 241.94 131.15 244.24 128.71 244.24 128.71"/>
      <polygon class="cls-4" points="253.42 93.24 253.42 128.69 251.12 131.13 39.34 131.07 37.05 128.63 37.05 93.29 39.34 90.86 251.12 90.8 253.42 93.24 253.42 93.24"/>
    </g>
    <circle class="cls-5" cx="229.18" cy="156.36" r="2.43"/>
    <circle class="cls-5" cx="223.54" cy="156.36" r="2.43"/>
    <line class="cls-5" x1="223.54" y1="153.93" x2="229.18" y2="153.93"/>
    <line class="cls-5" x1="223.54" y1="158.79" x2="229.18" y2="158.79"/>
    <circle class="cls-5" cx="216.16" cy="156.36" r="2.43"/>
    <circle class="cls-5" cx="210.52" cy="156.36" r="2.43"/>
    <line class="cls-5" x1="210.52" y1="153.93" x2="216.16" y2="153.93"/>
    <line class="cls-5" x1="210.52" y1="158.79" x2="216.16" y2="158.79"/>
    <circle class="cls-5" cx="203" cy="156.36" r="2.43"/>
    <circle class="cls-5" cx="197.36" cy="156.36" r="2.43"/>
    <line class="cls-5" x1="197.36" y1="153.93" x2="203" y2="153.93"/>
    <line class="cls-5" x1="197.36" y1="158.79" x2="203" y2="158.79"/>
    <g>
      <path class="cls-4" d="m37.05,138.69v35.34l-9.36.02v-35.38c3.12,0,6.24.01,9.36.02Z"/>
      <path class="cls-4" d="m253.42,138.64l-2.3-2.44-211.78.06-2.28,2.43-9.36-.02,2.29-2.44,211.96-.06,2.3,2.44,9.18.02Z"/>
      <path class="cls-4" d="m251.12,176.53l2.3-2.44-9.18.02-2.3,2.44-211.96-.06-2.29-2.44,9.36-.02,2.28,2.43,185.46.05c8.78,0,17.55,0,26.33,0Z"/>
      <path class="cls-4" d="m253.42,174.09v-35.45l-9.18-.02v35.48l9.18-.02Z"/>
      <polygon class="cls-4" points="244.24 174.1 244.24 138.62 241.94 136.18 29.98 136.24 27.69 138.67 27.69 174.05 29.98 176.49 241.94 176.55 244.24 174.1 244.24 174.1"/>
      <polygon class="cls-4" points="253.42 138.64 253.42 174.09 251.12 176.53 39.34 176.47 37.05 174.03 37.05 138.69 39.34 136.26 251.12 136.2 253.42 138.64 253.42 138.64"/>
    </g>
    <circle class="cls-5" cx="229.18" cy="201.76" r="2.43"/>
    <circle class="cls-5" cx="223.54" cy="201.76" r="2.43"/>
    <line class="cls-5" x1="223.54" y1="199.33" x2="229.18" y2="199.33"/>
    <line class="cls-5" x1="223.54" y1="204.19" x2="229.18" y2="204.19"/>
    <circle class="cls-5" cx="216.16" cy="201.76" r="2.43"/>
    <circle class="cls-5" cx="210.52" cy="201.76" r="2.43"/>
    <line class="cls-5" x1="210.52" y1="199.33" x2="216.16" y2="199.33"/>
    <line class="cls-5" x1="210.52" y1="204.19" x2="216.16" y2="204.19"/>
    <circle class="cls-5" cx="203" cy="201.76" r="2.43"/>
    <circle class="cls-5" cx="197.36" cy="201.76" r="2.43"/>
    <line class="cls-5" x1="197.36" y1="199.33" x2="203" y2="199.33"/>
    <line class="cls-5" x1="197.36" y1="204.19" x2="203" y2="204.19"/>
    <g>
      <path class="cls-4" d="m37.05,184.09v35.34l-9.36.02v-35.38c3.12,0,6.24.01,9.36.02Z"/>
      <path class="cls-4" d="m253.42,184.04l-2.3-2.44-211.78.06-2.28,2.43-9.36-.02,2.29-2.44,211.96-.06,2.3,2.44c3.06,0,6.12.01,9.18.02Z"/>
      <path class="cls-4" d="m251.12,221.93l2.3-2.44-9.18.02-2.3,2.44-211.96-.06-2.29-2.44,9.36-.02,2.28,2.43,185.46.05c8.78,0,17.55,0,26.33,0Z"/>
      <path class="cls-4" d="m253.42,219.48v-35.45l-9.18-.02v35.48l9.18-.02Z"/>
      <polygon class="cls-4" points="244.24 219.5 244.24 184.02 241.94 181.57 29.98 181.63 27.69 184.07 27.69 219.45 29.98 221.89 241.94 221.95 244.24 219.5 244.24 219.5"/>
      <polygon class="cls-4" points="253.42 184.04 253.42 219.48 251.12 221.93 39.34 221.87 37.05 219.43 37.05 184.09 39.34 181.65 251.12 181.59 253.42 184.04 253.42 184.04"/>
    </g>
  </g>
  <polygon class="cls-1" points="252.04 215.58 260.75 215.58 262.67 213.07 263.04 178.63 261.17 175.42 259.37 174.83 49.38 175.29 40.87 175 38.12 176.17 37.37 180.21 37.37 213.09 39.54 215.96 71.08 215.96 252.04 215.58"/>
  <polygon class="cls-1" points="252.04 170.19 260.75 170.19 262.67 167.67 263.04 133.23 261.17 130.02 259.37 129.44 49.38 129.9 40.87 129.6 38.12 130.77 37.37 134.81 37.37 167.69 39.54 170.56 71.08 170.56 252.04 170.19"/>
  <polygon class="cls-1" points="252.04 125.38 260.75 125.38 262.67 122.87 263.04 88.42 261.17 85.22 259.37 84.63 49.38 85.09 40.87 84.8 38.12 85.97 37.37 90.01 37.37 122.89 39.54 125.76 71.08 125.76 252.04 125.38"/>
  <g>
    <circle class="cls-3" cx="238.62" cy="104.6" r="2.43"/>
    <circle class="cls-3" cx="232.98" cy="104.6" r="2.43"/>
    <line class="cls-3" x1="232.98" y1="102.17" x2="238.62" y2="102.17"/>
    <line class="cls-3" x1="232.98" y1="107.03" x2="238.62" y2="107.03"/>
    <circle class="cls-3" cx="225.61" cy="104.6" r="2.43"/>
    <circle class="cls-3" cx="219.96" cy="104.6" r="2.43"/>
    <line class="cls-3" x1="219.96" y1="102.17" x2="225.61" y2="102.17"/>
    <line class="cls-3" x1="219.96" y1="107.03" x2="225.61" y2="107.03"/>
    <circle class="cls-3" cx="212.45" cy="104.6" r="2.43"/>
    <circle class="cls-3" cx="206.8" cy="104.6" r="2.43"/>
    <line class="cls-3" x1="206.8" y1="102.17" x2="212.45" y2="102.17"/>
    <line class="cls-3" x1="206.8" y1="107.03" x2="212.45" y2="107.03"/>
    <g>
      <path class="cls-2" d="m46.5,86.93v35.34l-9.36.02v-35.38c3.12,0,6.24.01,9.36.02Z"/>
      <path class="cls-2" d="m262.86,86.88l-2.3-2.44-211.78.06-2.28,2.43-9.36-.02,2.29-2.44,211.96-.06,2.3,2.44,9.18.02Z"/>
      <path class="cls-2" d="m260.57,124.77l2.3-2.44-9.18.02-2.3,2.44-211.96-.06-2.29-2.44,9.36-.02,2.28,2.43,185.46.05c8.78,0,17.55,0,26.33,0Z"/>
      <path class="cls-2" d="m262.86,122.33v-35.45l-9.18-.02v35.48l9.18-.02Z"/>
      <polygon class="cls-2" points="253.69 122.34 253.69 86.86 251.39 84.42 39.42 84.48 37.14 86.91 37.14 122.29 39.42 124.73 251.39 124.79 253.69 122.34 253.69 122.34"/>
      <polygon class="cls-2" points="262.86 86.88 262.86 122.33 260.57 124.77 48.78 124.71 46.5 122.27 46.5 86.93 48.78 84.5 260.57 84.44 262.86 86.88 262.86 86.88"/>
    </g>
    <circle class="cls-3" cx="238.62" cy="150" r="2.43"/>
    <circle class="cls-3" cx="232.98" cy="150" r="2.43"/>
    <line class="cls-3" x1="232.98" y1="147.57" x2="238.62" y2="147.57"/>
    <line class="cls-3" x1="232.98" y1="152.43" x2="238.62" y2="152.43"/>
    <circle class="cls-3" cx="225.61" cy="150" r="2.43"/>
    <circle class="cls-3" cx="219.96" cy="150" r="2.43"/>
    <line class="cls-3" x1="219.96" y1="147.57" x2="225.61" y2="147.57"/>
    <line class="cls-3" x1="219.96" y1="152.43" x2="225.61" y2="152.43"/>
    <circle class="cls-3" cx="212.45" cy="150" r="2.43"/>
    <circle class="cls-3" cx="206.8" cy="150" r="2.43"/>
    <line class="cls-3" x1="206.8" y1="147.57" x2="212.45" y2="147.57"/>
    <line class="cls-3" x1="206.8" y1="152.43" x2="212.45" y2="152.43"/>
    <g>
      <path class="cls-2" d="m46.5,132.33v35.34l-9.36.02v-35.38c3.12,0,6.24.01,9.36.02Z"/>
      <path class="cls-2" d="m262.86,132.28l-2.3-2.44-211.78.06-2.28,2.43-9.36-.02,2.29-2.44,211.96-.06,2.3,2.44,9.18.02Z"/>
      <path class="cls-2" d="m260.57,170.17l2.3-2.44-9.18.02-2.3,2.44-211.96-.06-2.29-2.44,9.36-.02,2.28,2.43c61.82.02,123.64.03,185.46.05,8.78,0,17.55,0,26.33,0Z"/>
      <path class="cls-2" d="m262.86,167.72v-35.45l-9.18-.02v35.48l9.18-.02Z"/>
      <polygon class="cls-2" points="253.69 167.74 253.69 132.26 251.39 129.81 39.42 129.87 37.14 132.31 37.14 167.69 39.42 170.13 251.39 170.19 253.69 167.74 253.69 167.74"/>
      <polygon class="cls-2" points="262.86 132.28 262.86 167.72 260.57 170.17 48.78 170.11 46.5 167.67 46.5 132.33 48.78 129.89 260.57 129.83 262.86 132.28 262.86 132.28"/>
    </g>
    <circle class="cls-3" cx="238.62" cy="195.4" r="2.43"/>
    <circle class="cls-3" cx="232.98" cy="195.4" r="2.43"/>
    <line class="cls-3" x1="232.98" y1="192.97" x2="238.62" y2="192.97"/>
    <line class="cls-3" x1="232.98" y1="197.83" x2="238.62" y2="197.83"/>
    <circle class="cls-3" cx="225.61" cy="195.4" r="2.43"/>
    <circle class="cls-3" cx="219.96" cy="195.4" r="2.43"/>
    <line class="cls-3" x1="219.96" y1="192.97" x2="225.61" y2="192.97"/>
    <line class="cls-3" x1="219.96" y1="197.83" x2="225.61" y2="197.83"/>
    <circle class="cls-3" cx="212.45" cy="195.4" r="2.43"/>
    <circle class="cls-3" cx="206.8" cy="195.4" r="2.43"/>
    <line class="cls-3" x1="206.8" y1="192.97" x2="212.45" y2="192.97"/>
    <line class="cls-3" x1="206.8" y1="197.83" x2="212.45" y2="197.83"/>
    <g>
      <path class="cls-2" d="m46.5,177.73v35.34l-9.36.02v-35.38c3.12,0,6.24.01,9.36.02Z"/>
      <path class="cls-2" d="m262.86,177.67l-2.3-2.44-211.78.06-2.28,2.43-9.36-.02,2.29-2.44,211.96-.06,2.3,2.44,9.18.02Z"/>
      <path class="cls-2" d="m260.57,215.56l2.3-2.44-9.18.02-2.3,2.44-211.96-.06-2.29-2.44,9.36-.02,2.28,2.43,185.46.05h26.33Z"/>
      <path class="cls-2" d="m262.86,213.12v-35.45l-9.18-.02v35.48l9.18-.02Z"/>
      <polygon class="cls-2" points="253.69 213.14 253.69 177.66 251.39 175.21 39.42 175.27 37.14 177.71 37.14 213.09 39.42 215.52 251.39 215.58 253.69 213.14 253.69 213.14"/>
      <polygon class="cls-2" points="262.86 177.67 262.86 213.12 260.57 215.56 48.78 215.5 46.5 213.07 46.5 177.73 48.78 175.29 260.57 175.23 262.86 177.67 262.86 177.67"/>
    </g>
  </g>
</svg>