<?xml version="1.0" encoding="UTF-8"?>
<svg id="Layer_1" data-name="Layer 1" xmlns="http://www.w3.org/2000/svg" viewBox="0 0 400 400">
  <defs>
    <style>
      .cls-1 {
        fill: #f5f5f5;
        stroke: #191919;
        stroke-miterlimit: 10;
        stroke-width: 10px;
      }

      .cls-2 {
        fill: #191919;
        stroke-width: 0px;
      }
    </style>
  </defs>
  <polygon class="cls-2" points="381.82 225.43 381.82 215.45 381.82 205.47 381.82 195.5 371.86 195.5 371.86 185.52 361.9 185.52 361.9 175.54 351.95 175.54 351.95 165.56 341.99 165.56 341.99 155.58 332.03 155.58 322.07 155.58 322.07 145.61 312.11 145.61 302.16 145.61 302.16 135.63 302.16 125.65 292.2 125.65 292.2 115.67 282.24 115.67 282.24 105.69 282.24 95.72 272.28 95.72 262.32 95.72 262.32 85.74 252.36 85.74 252.36 75.76 242.41 75.76 232.45 75.76 222.49 75.76 222.49 65.78 212.53 65.78 202.57 65.78 192.62 65.78 182.66 65.78 172.7 65.78 162.74 65.78 162.74 75.76 152.78 75.76 142.83 75.76 132.87 75.76 132.87 85.74 122.91 85.74 112.95 85.74 112.95 95.72 102.99 95.72 102.99 105.69 93.04 105.69 93.04 115.67 83.08 115.67 83.08 125.65 83.08 135.63 73.12 135.63 73.12 145.61 73.12 155.58 63.16 155.58 63.16 165.56 63.16 175.54 63.16 185.52 63.16 195.5 63.16 205.47 63.16 215.45 63.16 225.43 53.2 225.43 53.2 235.41 43.25 235.41 43.25 245.38 43.25 255.36 33.29 255.36 33.29 265.34 33.29 275.32 33.29 285.3 33.29 295.27 33.29 305.25 43.25 305.25 43.25 315.23 43.25 325.21 43.25 335.19 53.2 335.19 53.2 345.16 63.16 345.16 63.16 355.14 73.12 355.14 83.08 355.14 83.08 365.12 93.04 365.12 102.99 365.12 112.95 365.12 122.91 365.12 132.87 365.12 142.83 365.12 152.78 365.12 162.74 365.12 172.7 365.12 182.66 365.12 192.62 365.12 202.57 365.12 212.53 365.12 222.49 365.12 232.45 365.12 242.41 365.12 252.36 365.12 262.32 365.12 272.28 365.12 282.24 365.12 292.2 365.12 302.16 365.12 312.11 365.12 312.11 355.14 322.07 355.14 332.03 355.14 332.03 345.16 341.99 345.16 351.95 345.16 351.95 335.19 361.9 335.19 361.9 325.21 371.86 325.21 371.86 315.23 371.86 305.25 381.82 305.25 381.82 295.27 381.82 285.3 391.78 285.3 391.78 275.32 391.78 265.34 391.78 255.36 391.78 245.38 391.78 235.41 391.78 225.43 381.82 225.43"/>
  <polygon class="cls-1" points="366.7 210.54 366.7 200.56 366.7 190.59 366.7 180.61 356.74 180.61 356.74 170.63 346.78 170.63 346.78 160.65 336.82 160.65 336.82 150.67 326.87 150.67 326.87 140.7 316.91 140.7 306.95 140.7 306.95 130.72 296.99 130.72 287.03 130.72 287.03 120.74 287.03 110.76 277.07 110.76 277.07 100.78 267.12 100.78 267.12 90.81 267.12 80.83 257.16 80.83 247.2 80.83 247.2 70.85 237.24 70.85 237.24 60.87 227.28 60.87 217.33 60.87 207.37 60.87 207.37 50.89 197.41 50.89 187.45 50.89 177.49 50.89 167.54 50.89 157.58 50.89 147.62 50.89 147.62 60.87 137.66 60.87 127.7 60.87 117.75 60.87 117.75 70.85 107.79 70.85 97.83 70.85 97.83 80.83 87.87 80.83 87.87 90.81 77.91 90.81 77.91 100.78 67.96 100.78 67.96 110.76 67.96 120.74 58 120.74 58 130.72 58 140.7 48.04 140.7 48.04 150.67 48.04 160.65 48.04 170.63 48.04 180.61 48.04 190.59 48.04 200.56 48.04 210.54 38.08 210.54 38.08 220.52 28.12 220.52 28.12 230.5 28.12 240.48 18.16 240.48 18.16 250.45 18.16 260.43 18.16 270.41 18.16 280.39 18.16 290.37 28.12 290.37 28.12 300.34 28.12 310.32 28.12 320.3 38.08 320.3 38.08 330.28 48.04 330.28 48.04 340.26 58 340.26 67.96 340.26 67.96 350.23 77.91 350.23 87.87 350.23 97.83 350.23 107.79 350.23 117.75 350.23 127.7 350.23 137.66 350.23 147.62 350.23 157.58 350.23 167.54 350.23 177.49 350.23 187.45 350.23 197.41 350.23 207.37 350.23 217.33 350.23 227.28 350.23 237.24 350.23 247.2 350.23 257.16 350.23 267.12 350.23 277.07 350.23 287.03 350.23 296.99 350.23 296.99 340.26 306.95 340.26 316.91 340.26 316.91 330.28 326.87 330.28 336.82 330.28 336.82 320.3 346.78 320.3 346.78 310.32 356.74 310.32 356.74 300.34 356.74 290.37 366.7 290.37 366.7 280.39 366.7 270.41 376.66 270.41 376.66 260.43 376.66 250.45 376.66 240.48 376.66 230.5 376.66 220.52 376.66 210.54 366.7 210.54"/>
</svg>