<?xml version="1.0" encoding="UTF-8"?>
<svg id="Layer_1" data-name="Layer 1" xmlns="http://www.w3.org/2000/svg" viewBox="0 0 400 400">
  <defs>
    <style>
      .cls-1 {
        fill: #f5f5f5;
        stroke: #191919;
        stroke-miterlimit: 10;
        stroke-width: 10px;
      }

      .cls-2 {
        fill: #191919;
        stroke-width: 0px;
      }
    </style>
  </defs>
  <polygon class="cls-2" points="354.91 143.35 354.91 134.49 354.91 125.62 354.91 116.76 346.1 116.76 346.1 107.9 346.1 99.04 337.29 99.04 337.29 90.18 328.48 90.18 328.48 81.32 319.66 81.32 319.66 72.45 310.85 72.45 310.85 63.59 302.04 63.59 302.04 54.73 293.23 54.73 293.23 45.87 284.41 45.87 275.6 45.87 275.6 37.01 266.79 37.01 257.98 37.01 249.16 37.01 249.16 45.87 249.16 54.73 249.16 63.59 249.16 72.45 249.16 81.32 249.16 90.18 249.16 99.04 249.16 107.9 249.16 116.76 249.16 125.62 249.16 134.49 249.16 143.35 249.16 152.21 249.16 161.07 249.16 169.93 240.35 169.93 240.35 178.79 231.54 178.79 231.54 187.65 222.73 187.65 222.73 196.52 213.91 196.52 205.1 196.52 196.29 196.52 187.47 196.52 187.47 187.65 178.66 187.65 178.66 178.79 169.85 178.79 169.85 169.93 161.04 169.93 161.04 161.07 161.04 152.21 161.04 143.35 161.04 134.49 161.04 125.62 161.04 116.76 161.04 107.9 161.04 99.04 161.04 90.18 161.04 81.32 161.04 72.45 161.04 63.59 161.04 54.73 161.04 45.87 161.04 37.01 152.22 37.01 143.41 37.01 134.6 37.01 134.6 45.87 125.79 45.87 116.97 45.87 116.97 54.73 108.16 54.73 108.16 63.59 99.35 63.59 99.35 72.45 90.54 72.45 90.54 81.32 81.72 81.32 81.72 90.18 72.91 90.18 72.91 99.04 72.91 107.9 64.1 107.9 64.1 116.76 55.29 116.76 55.29 125.62 55.29 134.49 55.29 143.35 46.47 143.35 46.47 152.21 46.47 161.07 46.47 169.93 46.47 178.79 46.47 187.65 46.47 196.52 46.47 205.38 46.47 214.24 46.47 223.1 55.29 223.1 55.29 231.96 55.29 240.82 55.29 249.69 64.1 249.69 64.1 258.55 64.1 267.41 72.91 267.41 72.91 276.27 81.72 276.27 81.72 285.13 90.54 285.13 90.54 293.99 99.35 293.99 99.35 302.86 108.16 302.86 108.16 311.72 116.97 311.72 116.97 320.58 125.79 320.58 134.6 320.58 134.6 329.44 143.41 329.44 143.41 338.3 143.41 347.16 152.22 347.16 152.22 356.02 152.22 364.89 152.22 373.75 152.22 382.61 161.04 382.61 169.85 382.61 178.66 382.61 187.47 382.61 196.29 382.61 205.1 382.61 213.91 382.61 222.73 382.61 231.54 382.61 240.35 382.61 249.16 382.61 257.98 382.61 257.98 373.75 266.79 373.75 266.79 364.89 266.79 356.02 266.79 347.16 266.79 338.3 266.79 329.44 275.6 329.44 275.6 320.58 284.41 320.58 293.23 320.58 293.23 311.72 302.04 311.72 302.04 302.86 310.85 302.86 310.85 293.99 319.66 293.99 319.66 285.13 328.48 285.13 328.48 276.27 337.29 276.27 337.29 267.41 346.1 267.41 346.1 258.55 346.1 249.69 354.91 249.69 354.91 240.82 354.91 231.96 354.91 223.1 363.73 223.1 363.73 214.24 363.73 205.38 363.73 196.52 363.73 187.65 363.73 178.79 363.73 169.93 363.73 161.07 363.73 152.21 363.73 143.35 354.91 143.35"/>
  <polygon class="cls-1" points="343.21 132.7 343.21 123.84 343.21 114.98 343.21 106.12 334.4 106.12 334.4 97.26 334.4 88.4 325.59 88.4 325.59 79.53 316.78 79.53 316.78 70.67 307.96 70.67 307.96 61.81 299.15 61.81 299.15 52.95 290.34 52.95 290.34 44.09 281.53 44.09 281.53 35.23 272.71 35.23 263.9 35.23 263.9 26.36 255.09 26.36 246.28 26.36 237.46 26.36 237.46 35.23 237.46 44.09 237.46 52.95 237.46 61.81 237.46 70.67 237.46 79.53 237.46 88.4 237.46 97.26 237.46 106.12 237.46 114.98 237.46 123.84 237.46 132.7 237.46 141.57 237.46 150.43 237.46 159.29 228.65 159.29 228.65 168.15 219.84 168.15 219.84 177.01 211.03 177.01 211.03 185.87 202.21 185.87 193.4 185.87 184.59 185.87 175.77 185.87 175.77 177.01 166.96 177.01 166.96 168.15 158.15 168.15 158.15 159.29 149.34 159.29 149.34 150.43 149.34 141.57 149.34 132.7 149.34 123.84 149.34 114.98 149.34 106.12 149.34 97.26 149.34 88.4 149.34 79.53 149.34 70.67 149.34 61.81 149.34 52.95 149.34 44.09 149.34 35.23 149.34 26.36 140.52 26.36 131.71 26.36 122.9 26.36 122.9 35.23 114.09 35.23 105.27 35.23 105.27 44.09 96.46 44.09 96.46 52.95 87.65 52.95 87.65 61.81 78.84 61.81 78.84 70.67 70.02 70.67 70.02 79.53 61.21 79.53 61.21 88.4 61.21 97.26 52.4 97.26 52.4 106.12 43.59 106.12 43.59 114.98 43.59 123.84 43.59 132.7 34.77 132.7 34.77 141.57 34.77 150.43 34.77 159.29 34.77 168.15 34.77 177.01 34.77 185.87 34.77 194.73 34.77 203.6 34.77 212.46 43.59 212.46 43.59 221.32 43.59 230.18 43.59 239.04 52.4 239.04 52.4 247.9 52.4 256.77 61.21 256.77 61.21 265.63 70.02 265.63 70.02 274.49 78.84 274.49 78.84 283.35 87.65 283.35 87.65 292.21 96.46 292.21 96.46 301.07 105.27 301.07 105.27 309.94 114.09 309.94 122.9 309.94 122.9 318.8 131.71 318.8 131.71 327.66 131.71 336.52 140.52 336.52 140.52 345.38 140.52 354.24 140.52 363.11 140.52 371.97 149.34 371.97 158.15 371.97 166.96 371.97 175.77 371.97 184.59 371.97 193.4 371.97 202.21 371.97 211.03 371.97 219.84 371.97 228.65 371.97 237.46 371.97 246.28 371.97 246.28 363.11 255.09 363.11 255.09 354.24 255.09 345.38 255.09 336.52 255.09 327.66 255.09 318.8 263.9 318.8 263.9 309.94 272.71 309.94 281.53 309.94 281.53 301.07 290.34 301.07 290.34 292.21 299.15 292.21 299.15 283.35 307.96 283.35 307.96 274.49 316.78 274.49 316.78 265.63 325.59 265.63 325.59 256.77 334.4 256.77 334.4 247.9 334.4 239.04 343.21 239.04 343.21 230.18 343.21 221.32 343.21 212.46 352.03 212.46 352.03 203.6 352.03 194.73 352.03 185.87 352.03 177.01 352.03 168.15 352.03 159.29 352.03 150.43 352.03 141.57 352.03 132.7 343.21 132.7"/>
</svg>