<?xml version="1.0" encoding="utf-8"?>
<!-- Generator: Adobe Illustrator 28.0.0, SVG Export Plug-In . SVG Version: 6.00 Build 0)  -->
<svg version="1.1" id="Layer_2_00000055685872187637847690000002235336308916893348_"
	 xmlns="http://www.w3.org/2000/svg" xmlns:xlink="http://www.w3.org/1999/xlink" x="0px" y="0px" viewBox="0 0 462 351.4"
	 style="enable-background:new 0 0 462 351.4;" xml:space="preserve">
<style type="text/css">
	.st0{fill:#F5F5F5;}
	.st1{fill:#191919;}
</style>
<path class="st0" d="M452.7,270.2l-13.9,7.8l-7.9-17.3l8.6-31l-35.4-30.2l1.2-8.5h-8.2l6.1-1.7l-10-38.1l-21-12.5l-12.7,58.7
	l-4.5,1.1l-36.6-22l-5.8-17.3l-25.3-34.8l-33.4-50.7l-21.5-16.5l-8.8-4.6L209.6,115l1.7,3.7l-8.2,4.6c-2.9-4.6-6.3-8.9-9.9-13.2
	c-3-3.4-6.1-6.7-9.4-9.8l12.9-8.6l-1.9-6.4l1.9-2.3l-4.5-6.9l-4.7-16.1L172.3,46l-5.6-8.6l-4.1-0.3l-3.5-3.2l-42.4-8.4l-35.4,3.8
	l-1.4,0.8l-9.7-0.8l2.6,5.1l-5.1,3.1L79,65.1l-31.9-0.9L13.6,0L0,62.8l79,173.5l18.5,40.6l49.2,1.4l13.6-62.8l-42.8-1.2l-6.2-13.7
	l-16.6-36.4l-9-19.7l-19.7-43.2l46.8,1.4c4.2,0.1,8.1,0.5,11.8,1.1c5,0.9,10.7,2.4,16.2,4.8c2.3,1.1,4.5,2.3,6.6,3.7
	c2.5,1.7,4.8,3.5,6.9,5.4L144,165.5l16.6,36.5c4.9,0.3,9.3,0.3,13.4,0.1c1.5-0.1,3-0.2,4.5-0.3c6.2-0.6,11.6-1.8,16.4-3.7
	c7.7-3.1,13.5-7.4,17.4-13.2c1.3-1.8,2.3-3.8,3.1-5.9c0.2-0.4,0.3-0.7,0.4-1c0,0,0,0,0,0c0.7-1.9,0.9-3.1,0.9-3.1l0.3-1.5
	c0.1-0.2,0.1-0.5,0.1-0.7l6-28l31.7,69.5c0,0,0.9,2.4,2.9,6.1c3.9,8,8.7,15.2,14.6,21.7c0.8,0.9,1.6,1.7,2.4,2.5
	c4.5,4.8,9.7,9.6,15.8,13.6c0.3,0.2,0.5,0.4,0.8,0.6l-5.2,23.9l0,0l0,0l0,0c0,0,2.2,5.7,7.3,13.8c8.8,14.3,20.1,26.1,34,35.5
	c4,2.7,8.2,5.1,12.6,7.2c0,0,33.2,11.6,53.2,12.2c4.4,0.1,8.6,0,12.5-0.4c6-0.6,11.6-1.8,16.6-3.5c4.4-1.5,8.2-3.5,11.5-5.9
	c0.1-0.1,0.2-0.2,0.3-0.3c2.8-2,5.3-4.4,7.3-7c2.9-3.8,4.9-8.2,5.9-13.3c0-0.1,0.1-0.2,0.1-0.3l13.2-61L452.7,270.2L452.7,270.2z
	 M362.6,276.1c3.9-0.9,7.4-2.1,10.5-3.8c6.8-3.7,10.2-9.1,10.3-16.1l11.8,25.8c0.3,0.7,0.6,1.4,0.9,2.1L362.6,276.1L362.6,276.1z"/>
<path class="st0" d="M13.6,0l103.8,3C129,3.3,140.2,5.4,151,9.2c10.8,3.8,21,9,30.5,15.5c9.5,6.6,17.9,14,25.3,22.5
	c7.4,8.5,13.2,17.6,17.6,27.2c4.4,9.7,6.7,18.6,7,26.8c0.2,8.2-1.6,15.1-5.5,20.8c-3.9,5.7-9.7,10.1-17.4,13.2
	c-4.7,1.9-10.2,3.1-16.4,3.7c-3.9,0.4-8.1,0.5-12.5,0.4l-5.3-0.1l-16.6-36.5c2.6,0,5-0.1,7.2-0.3c8.6-0.8,14.3-3.4,17-7.7
	c3.6-5.8,3.2-13.3-1.1-22.8c-4.1-9-10.6-16.5-19.5-22.5c-8.9-6-20.5-9.2-34.6-9.6l-46.8-1.4l19.7,43.2l9,19.7l16.6,36.4l8.6,18.8
	l26.8,58.9l-49.2-1.4l-18.5-40.6L13.6,0"/>
<path class="st1" d="M113.8,210.2L20,4.2L117.3,7c11,0.3,21.9,2.3,32.4,6c10.4,3.7,20.3,8.7,29.6,15c9.2,6.4,17.5,13.8,24.5,21.8
	c7.1,8.1,12.8,17,17,26.3c4.2,9.2,6.4,17.7,6.6,25.2c0.2,7.3-1.4,13.5-4.8,18.5c-3.5,5.1-8.6,8.9-15.6,11.7
	c-4.4,1.7-9.5,2.9-15.3,3.5c-2.8,0.3-5.7,0.4-8.8,0.4c-1.1,0-2.1,0-3.2-0.1l-2.8-0.1l-13.1-28.8c0.5,0,1-0.1,1.4-0.1
	c9.9-1,16.6-4.2,20-9.5c4.3-6.9,4-15.8-0.9-26.6c-4.4-9.7-11.4-17.8-20.9-24.2c-9.5-6.4-21.9-9.8-36.7-10.3l-53.2-1.5l22.3,49
	l9,19.7l16.6,36.4l8.6,18.8l24.1,53L113.8,210.2L113.8,210.2z"/>
<path class="st0" d="M223.5,52.5l46.1,1.3l44,96.7c9,19.8,23.3,29.9,42.9,30.5c2.2,0.1,4.3,0,6.2-0.2c7.3-0.7,12.5-3.2,15.6-7.4
	c4-5.4,4-12.4,0-21l-6.3-13.8l46.1,1.3l36.4,79.9c5.1,11.2,7.6,21.1,7.5,29.8c-0.1,8.7-2.4,15.9-6.9,21.7
	c-4.5,5.8-10.9,10.2-19.2,13.1c-5,1.8-10.6,3-16.6,3.5c-4,0.4-8.1,0.5-12.5,0.4c-25.7-0.7-47.7-7.2-65.8-19.4
	c-18.1-12.2-31.9-28.6-41.3-49.2l42.9,1.2c4.3,9.5,10.7,17,19.1,22.5c8.5,5.5,18.7,8.5,30.8,8.8c1.3,0,2.6,0,3.8-0.1
	c2.7-0.3,5.1-0.9,7.2-1.9c3.1-1.5,5.4-3.7,7-6.5c1.6-2.8,2.4-6.4,2.2-10.6c-0.2-4.2-1.5-8.9-3.8-14.1L397,193.4
	c-0.1,7-3.5,12.4-10.3,16.1c-4.7,2.6-10.4,4.2-17.1,4.8c-3,0.3-6.1,0.4-9.5,0.3c-9.2-0.3-18.3-1.9-27.3-4.8c-9-2.9-17.5-7-25.5-12.2
	c-8-5.2-15.1-11.4-21.5-18.4c-6.4-7.1-11.5-15-15.6-23.9L223.5,52.5"/>
<path class="st1" d="M410.2,284.5c-1.1,0-2.1,0-3.2,0c-24.8-0.7-46.3-7-63.7-18.7c-15.7-10.6-28.1-24.6-37-41.7l33.8,1
	c4.6,9.1,11.1,16.4,19.5,21.9c9.1,5.9,20.2,9.1,32.9,9.5c0.4,0,0.7,0,1.1,0c1.1,0,2.2,0,3.2-0.1c3.2-0.3,6-1.1,8.5-2.3
	c3.7-1.9,6.7-4.6,8.7-8.1c2-3.4,2.9-7.8,2.7-12.8c-0.2-4.7-1.6-9.9-4.2-15.6l-16.3-30.8l0,0c0,5.6-5.7,16.1-11.3,19.2
	c-4.2,2.3-9.4,3.8-15.5,4.3c-2.1,0.2-4.3,0.3-6.5,0.3c-0.8,0-1.6,0-2.4,0c-8.8-0.3-17.7-1.8-26.2-4.6c-8.6-2.8-16.9-6.7-24.5-11.7
	c-7.6-5-14.6-10.9-20.7-17.8c-6.1-6.8-11.1-14.4-14.9-22.8l-44.2-97l37.1,1.1l43,94.4c9.6,21.2,25.3,32.2,46.4,32.9
	c0.6,0,1.2,0,1.8,0c1.7,0,3.4-0.1,5-0.2c8.4-0.8,14.6-3.9,18.5-9.1c4.9-6.6,5-15,0.5-25l-3.6-7.9l37.2,1.1l35.3,77.6
	c4.8,10.5,7.2,20,7.1,28.1c-0.1,7.7-2.1,14.3-6,19.4c-4,5.1-9.8,9.1-17.3,11.8c-4.7,1.7-10,2.8-15.6,3.3
	C416.2,284.4,413.2,284.5,410.2,284.5L410.2,284.5z"/>
</svg>
