<?xml version="1.0" encoding="UTF-8"?>
<svg id="Layer_1" data-name="Layer 1" xmlns="http://www.w3.org/2000/svg" viewBox="0 0 400 400">
  <defs>
    <style>
      .cls-1 {
        fill: #f5f5f5;
        stroke: #191919;
        stroke-miterlimit: 10;
        stroke-width: 10px;
      }

      .cls-2 {
        fill: #191919;
        stroke-width: 0px;
      }
    </style>
  </defs>
  <g>
    <polygon class="cls-2" points="260.47 235.03 270.7 235.03 270.7 224.78 270.7 214.53 270.7 204.28 270.7 194.03 270.7 183.78 270.7 173.53 260.47 173.53 260.47 163.28 250.25 163.28 250.25 153.03 240.03 153.03 240.03 142.78 229.81 142.78 219.58 142.78 209.36 142.78 199.14 142.78 188.92 142.78 178.7 142.78 178.7 153.03 168.47 153.03 168.47 163.28 158.25 163.28 158.25 173.53 158.25 183.78 148.03 183.78 148.03 194.03 148.03 204.28 148.03 214.53 148.03 224.78 148.03 235.03 158.25 235.03 158.25 245.28 168.47 245.28 168.47 255.53 178.7 255.53 178.7 265.78 188.92 265.78 199.14 265.78 209.36 265.78 219.58 265.78 229.81 265.78 240.03 265.78 240.03 255.53 250.25 255.53 250.25 245.28 260.47 245.28 260.47 235.03"/>
    <path class="cls-2" d="m383.14,173.53v-20.5h-10.22v-10.25h-10.22v-10.25h-10.22v-10.25h-10.22v-10.25h-10.22v-10.25h-10.22v-10.25h-10.22v-10.25h-30.67v-10.25h-30.67v-10.25h-81.78v10.25h-30.67v10.25h-20.44v10.25h-20.44v10.25h-10.22v10.25h-10.22v10.25h-10.22v10.25h-10.22v10.25h-10.22v20.5h-10.22v10.25h-10.22v61.5h10.22v10.25h10.22v20.5h10.22v10.25h10.22v10.25h10.22v10.25h10.22v10.25h10.22v10.25h10.22v10.25h30.67v10.25h30.67v10.25h92v-10.25h20.44v-10.25h30.67v-10.25h10.22v-10.25h10.22v-10.25h10.22v-10.25h10.22v-10.25h10.22v-10.25h10.22v-10.25h10.22v-20.5h10.22v-61.5h-10.22Zm-143.11,112.75v10.25h-61.33v-10.25h-20.44v-10.25h-10.22v-10.25h-10.22v-10.25h-10.22v-20.5h-10.22v-61.5h10.22v-20.5h10.22v-10.25h10.22v-10.25h10.22v-10.25h20.44v-10.25h61.33v10.25h20.44v10.25h10.22v10.25h10.22v10.25h10.22v20.5h10.22v61.5h-10.22v20.5h-10.22v10.25h-10.22v10.25h-10.22v10.25h-20.44Z"/>
  </g>
  <g>
    <polygon class="cls-1" points="244.61 226.47 254.83 226.47 254.83 216.22 254.83 205.97 254.83 195.72 254.83 185.47 254.83 175.22 254.83 164.97 244.61 164.97 244.61 154.72 234.39 154.72 234.39 144.47 224.17 144.47 224.17 134.22 213.94 134.22 203.72 134.22 193.5 134.22 183.28 134.22 173.06 134.22 162.83 134.22 162.83 144.47 152.61 144.47 152.61 154.72 142.39 154.72 142.39 164.97 142.39 175.22 132.17 175.22 132.17 185.47 132.17 195.72 132.17 205.97 132.17 216.22 132.17 226.47 142.39 226.47 142.39 236.72 152.61 236.72 152.61 246.97 162.83 246.97 162.83 257.22 173.06 257.22 183.28 257.22 193.5 257.22 203.72 257.22 213.94 257.22 224.17 257.22 224.17 246.97 234.39 246.97 234.39 236.72 244.61 236.72 244.61 226.47"/>
    <path class="cls-1" d="m367.28,164.97v-20.5h-10.22v-10.25h-10.22v-10.25h-10.22v-10.25h-10.22v-10.25h-10.22v-10.25h-10.22v-10.25h-10.22v-10.25h-30.67v-10.25h-30.67v-10.25h-81.78v10.25h-30.67v10.25h-20.44v10.25h-20.44v10.25h-10.22v10.25h-10.22v10.25h-10.22v10.25h-10.22v10.25h-10.22v20.5h-10.22v10.25h-10.22v61.5h10.22v10.25h10.22v20.5h10.22v10.25h10.22v10.25h10.22v10.25h10.22v10.25h10.22v10.25h10.22v10.25h30.67v10.25h30.67v10.25h92v-10.25h20.44v-10.25h30.67v-10.25h10.22v-10.25h10.22v-10.25h10.22v-10.25h10.22v-10.25h10.22v-10.25h10.22v-10.25h10.22v-20.5h10.22v-61.5h-10.22Zm-143.11,112.75v10.25h-61.33v-10.25h-20.44v-10.25h-10.22v-10.25h-10.22v-10.25h-10.22v-20.5h-10.22v-61.5h10.22v-20.5h10.22v-10.25h10.22v-10.25h10.22v-10.25h20.44v-10.25h61.33v10.25h20.44v10.25h10.22v10.25h10.22v10.25h10.22v20.5h10.22v61.5h-10.22v20.5h-10.22v10.25h-10.22v10.25h-10.22v10.25h-20.44Z"/>
  </g>
</svg>