<?xml version="1.0" encoding="UTF-8"?>
<svg id="Layer_1" data-name="Layer 1" xmlns="http://www.w3.org/2000/svg" viewBox="0 0 400 400">
  <defs>
    <style>
      .cls-1 {
        fill: #f5f5f5;
        stroke: #191919;
        stroke-miterlimit: 10;
        stroke-width: 10px;
      }

      .cls-2 {
        fill: #191919;
        stroke-width: 0px;
      }
    </style>
  </defs>
  <g>
    <polygon class="cls-2" points="132.5 346.15 123.33 346.15 114.17 346.15 105 346.15 95.83 346.15 86.67 346.15 86.67 336.98 77.5 336.98 77.5 327.81 68.33 327.81 68.33 318.65 68.33 309.48 68.33 300.31 68.33 291.15 68.33 281.98 68.33 272.81 68.33 263.65 59.17 263.65 50 263.65 40.83 263.65 40.83 272.81 40.83 281.98 40.83 291.15 40.83 300.31 40.83 309.48 40.83 318.65 40.83 327.81 50 327.81 50 336.98 50 346.15 59.17 346.15 59.17 355.31 68.33 355.31 68.33 364.48 77.5 364.48 77.5 373.65 86.67 373.65 95.83 373.65 105 373.65 114.17 373.65 123.33 373.65 132.5 373.65 141.67 373.65 150.83 373.65 150.83 364.48 150.83 355.31 150.83 346.15 141.67 346.15 132.5 346.15"/>
    <path class="cls-2" d="m270,291.15v-18.33h18.33v-18.33h9.17v-27.5h9.17v-36.67h-9.17v-27.5h-9.17v-9.17h-9.17v-9.17h-9.17v-9.17h-9.17v-9.17h-9.17v-9.17h-91.67v9.17h-9.17v9.17h-9.17v9.17h-9.17v9.17h-9.17v9.17h-9.17v91.67h9.17v9.17h9.17v9.17h9.17v9.17h9.17v9.17h9.17v9.17h27.5v9.17h36.67v-9.17h27.5v-9.17h18.33Zm-110-110v-9.17h27.5v36.67h-27.5v-9.17h-9.17v-18.33h9.17Zm100.83,0v18.33h-9.17v9.17h-27.5v-36.67h36.67v9.17Zm-36.67,82.5h-45.83v-9.17h-18.33v-9.17h-9.17v-18.33h36.67v9.17h36.67v-9.17h36.67v18.33h-9.17v9.17h-18.33v9.17h-9.17Z"/>
    <polygon class="cls-2" points="352.5 263.65 343.33 263.65 343.33 272.81 343.33 281.98 343.33 291.15 343.33 300.31 343.33 309.48 343.33 318.65 343.33 327.81 334.17 327.81 334.17 336.98 325 336.98 325 346.15 315.83 346.15 306.67 346.15 297.5 346.15 288.33 346.15 279.17 346.15 270 346.15 260.83 346.15 260.83 355.31 260.83 364.48 260.83 373.65 270 373.65 279.17 373.65 288.33 373.65 297.5 373.65 306.67 373.65 315.83 373.65 325 373.65 334.17 373.65 334.17 364.48 343.33 364.48 343.33 355.31 352.5 355.31 352.5 346.15 361.67 346.15 361.67 336.98 370.83 336.98 370.83 327.81 370.83 318.65 370.83 309.48 370.83 300.31 370.83 291.15 370.83 281.98 370.83 272.81 370.83 263.65 361.67 263.65 352.5 263.65"/>
    <polygon class="cls-2" points="59.17 153.65 68.33 153.65 68.33 144.48 68.33 135.31 68.33 126.15 68.33 116.98 68.33 107.81 68.33 98.65 77.5 98.65 77.5 89.48 77.5 80.31 86.67 80.31 95.83 80.31 95.83 71.15 105 71.15 114.17 71.15 123.33 71.15 132.5 71.15 141.67 71.15 150.83 71.15 150.83 61.98 150.83 52.81 150.83 43.65 141.67 43.65 132.5 43.65 123.33 43.65 114.17 43.65 105 43.65 95.83 43.65 86.67 43.65 86.67 52.81 77.5 52.81 68.33 52.81 68.33 61.98 59.17 61.98 59.17 71.15 50 71.15 50 80.31 50 89.48 40.83 89.48 40.83 98.65 40.83 107.81 40.83 116.98 40.83 126.15 40.83 135.31 40.83 144.48 40.83 153.65 50 153.65 59.17 153.65"/>
    <polygon class="cls-2" points="361.67 80.31 361.67 71.15 352.5 71.15 352.5 61.98 343.33 61.98 343.33 52.81 334.17 52.81 334.17 43.65 325 43.65 315.83 43.65 306.67 43.65 297.5 43.65 288.33 43.65 279.17 43.65 270 43.65 260.83 43.65 260.83 52.81 260.83 61.98 260.83 71.15 270 71.15 279.17 71.15 288.33 71.15 297.5 71.15 306.67 71.15 315.83 71.15 325 71.15 325 80.31 334.17 80.31 334.17 89.48 343.33 89.48 343.33 98.65 343.33 107.81 343.33 116.98 343.33 126.15 343.33 135.31 343.33 144.48 343.33 153.65 352.5 153.65 361.67 153.65 370.83 153.65 370.83 144.48 370.83 135.31 370.83 126.15 370.83 116.98 370.83 107.81 370.83 98.65 370.83 89.48 370.83 80.31 361.67 80.31"/>
  </g>
  <g>
    <polygon class="cls-1" points="120.83 337.4 111.67 337.4 102.5 337.4 93.33 337.4 84.17 337.4 75 337.4 75 328.24 65.83 328.24 65.83 319.07 56.67 319.07 56.67 309.9 56.67 300.74 56.67 291.57 56.67 282.4 56.67 273.24 56.67 264.07 56.67 254.9 47.5 254.9 38.33 254.9 29.17 254.9 29.17 264.07 29.17 273.24 29.17 282.4 29.17 291.57 29.17 300.74 29.17 309.9 29.17 319.07 38.33 319.07 38.33 328.24 38.33 337.4 47.5 337.4 47.5 346.57 56.67 346.57 56.67 355.74 65.83 355.74 65.83 364.9 75 364.9 84.17 364.9 93.33 364.9 102.5 364.9 111.67 364.9 120.83 364.9 130 364.9 139.17 364.9 139.17 355.74 139.17 346.57 139.17 337.4 130 337.4 120.83 337.4"/>
    <path class="cls-1" d="m258.33,282.4v-18.33h18.33v-18.33h9.17v-27.5h9.17v-36.67h-9.17v-27.5h-9.17v-9.17h-9.17v-9.17h-9.17v-9.17h-9.17v-9.17h-9.17v-9.17h-91.67v9.17h-9.17v9.17h-9.17v9.17h-9.17v9.17h-9.17v9.17h-9.17v91.67h9.17v9.17h9.17v9.17h9.17v9.17h9.17v9.17h9.17v9.17h27.5v9.17h36.67v-9.17h27.5v-9.17h18.33Zm-110-110v-9.17h27.5v36.67h-27.5v-9.17h-9.17v-18.33h9.17Zm100.83,0v18.33h-9.17v9.17h-27.5v-36.67h36.67v9.17Zm-36.67,82.5h-45.83v-9.17h-18.33v-9.17h-9.17v-18.33h36.67v9.17h36.67v-9.17h36.67v18.33h-9.17v9.17h-18.33v9.17h-9.17Z"/>
    <polygon class="cls-1" points="340.83 254.9 331.67 254.9 331.67 264.07 331.67 273.24 331.67 282.4 331.67 291.57 331.67 300.74 331.67 309.9 331.67 319.07 322.5 319.07 322.5 328.24 313.33 328.24 313.33 337.4 304.17 337.4 295 337.4 285.83 337.4 276.67 337.4 267.5 337.4 258.33 337.4 249.17 337.4 249.17 346.57 249.17 355.74 249.17 364.9 258.33 364.9 267.5 364.9 276.67 364.9 285.83 364.9 295 364.9 304.17 364.9 313.33 364.9 322.5 364.9 322.5 355.74 331.67 355.74 331.67 346.57 340.83 346.57 340.83 337.4 350 337.4 350 328.24 359.17 328.24 359.17 319.07 359.17 309.9 359.17 300.74 359.17 291.57 359.17 282.4 359.17 273.24 359.17 264.07 359.17 254.9 350 254.9 340.83 254.9"/>
    <polygon class="cls-1" points="47.5 144.9 56.67 144.9 56.67 135.74 56.67 126.57 56.67 117.4 56.67 108.24 56.67 99.07 56.67 89.9 65.83 89.9 65.83 80.74 65.83 71.57 75 71.57 84.17 71.57 84.17 62.4 93.33 62.4 102.5 62.4 111.67 62.4 120.83 62.4 130 62.4 139.17 62.4 139.17 53.24 139.17 44.07 139.17 34.9 130 34.9 120.83 34.9 111.67 34.9 102.5 34.9 93.33 34.9 84.17 34.9 75 34.9 75 44.07 65.83 44.07 56.67 44.07 56.67 53.24 47.5 53.24 47.5 62.4 38.33 62.4 38.33 71.57 38.33 80.74 29.17 80.74 29.17 89.9 29.17 99.07 29.17 108.24 29.17 117.4 29.17 126.57 29.17 135.74 29.17 144.9 38.33 144.9 47.5 144.9"/>
    <polygon class="cls-1" points="350 71.57 350 62.4 340.83 62.4 340.83 53.24 331.67 53.24 331.67 44.07 322.5 44.07 322.5 34.9 313.33 34.9 304.17 34.9 295 34.9 285.83 34.9 276.67 34.9 267.5 34.9 258.33 34.9 249.17 34.9 249.17 44.07 249.17 53.24 249.17 62.4 258.33 62.4 267.5 62.4 276.67 62.4 285.83 62.4 295 62.4 304.17 62.4 313.33 62.4 313.33 71.57 322.5 71.57 322.5 80.74 331.67 80.74 331.67 89.9 331.67 99.07 331.67 108.24 331.67 117.4 331.67 126.57 331.67 135.74 331.67 144.9 340.83 144.9 350 144.9 359.17 144.9 359.17 135.74 359.17 126.57 359.17 117.4 359.17 108.24 359.17 99.07 359.17 89.9 359.17 80.74 359.17 71.57 350 71.57"/>
  </g>
</svg>