<?xml version="1.0" encoding="UTF-8"?>
<svg id="Layer_1" data-name="Layer 1" xmlns="http://www.w3.org/2000/svg" viewBox="0 0 300 300">
  <defs>
    <style>
      .cls-1 {
        fill: #f5f5f5;
        stroke-width: 0px;
      }

      .cls-2 {
        fill: none;
        stroke: #000;
      }

      .cls-2, .cls-3 {
        stroke-linejoin: bevel;
        stroke-width: 2px;
      }

      .cls-3, .cls-4 {
        fill: #191919;
        stroke: #191919;
      }

      .cls-4 {
        stroke-miterlimit: 10;
      }
    </style>
  </defs>
  <g>
    <path class="cls-4" d="m216.74,236.61v-25.21l-20.09.1v25.26l20.09-.15Z"/>
    <path class="cls-4" d="m37.62,206.64l147.76.09,31.36,29.88-20.09.15-31.41-29.94-148.02-.09,20.4-.09Z"/>
    <path class="cls-4" d="m37.62,65.18v141.47l-20.4.09V64.99c6.8.06,13.6.13,20.4.19Z"/>
    <path class="cls-4" d="m261.01,64.9c-81.26.1-162.54.84-243.79.09,81.26-.1,162.54-.86,243.79-.09Z"/>
    <path class="cls-4" d="m216.74,211.4l44.26,45.07-20.02.19-44.34-45.16c6.7-.03,13.4-.07,20.09-.1Z"/>
    <path class="cls-4" d="m261.01,256.47V64.9l-20.02-.19v191.96l20.02-.19Z"/>
    <polygon class="cls-4" points="240.99 256.66 240.99 64.71 17.22 64.99 17.22 206.73 165.24 206.82 196.65 236.76 196.65 211.5 240.99 256.66 240.99 256.66"/>
    <path class="cls-4" d="m261.01,64.9v191.57l-44.26-45.07v25.21l-31.36-29.88-147.76-.09V65.18c74.46-.09,148.92-.19,223.39-.28Z"/>
  </g>
  <g>
    <path class="cls-3" d="m216.4,236.53v-25.21l-20.09.1v25.26c6.7-.05,13.4-.1,20.09-.15Z"/>
    <path class="cls-3" d="m37.28,206.57l147.76.09,31.36,29.88-20.09.15-31.41-29.94-148.02-.09c6.8-.03,13.6-.06,20.4-.09Z"/>
    <path class="cls-3" d="m37.28,65.1v141.47l-20.4.09V64.91c6.8.06,13.6.13,20.4.19Z"/>
    <path class="cls-3" d="m260.66,64.82c-81.26.1-162.54.84-243.79.09,81.26-.1,162.54-.86,243.79-.09Z"/>
    <path class="cls-3" d="m216.4,211.33l44.26,45.07-20.02.19-44.34-45.16c6.7-.03,13.4-.07,20.09-.1Z"/>
    <path class="cls-3" d="m260.66,256.4V64.82l-20.02-.19v191.96c6.67-.06,13.34-.13,20.02-.19Z"/>
    <polygon class="cls-3" points="240.65 256.59 240.65 64.63 16.87 64.91 16.87 206.66 164.89 206.75 196.31 236.69 196.31 211.43 240.65 256.59 240.65 256.59"/>
    <path class="cls-3" d="m260.66,64.82v191.57l-44.26-45.07v25.21l-31.36-29.88-147.76-.09V65.1c74.46-.09,148.92-.19,223.39-.28Z"/>
  </g>
  <g>
    <path class="cls-1" d="m225.73,227.85v-25.21l-20.09.1v25.26l20.09-.15Z"/>
    <path class="cls-1" d="m46.61,197.88l147.76.09,31.36,29.88-20.09.15-31.41-29.94-148.02-.09c6.8-.03,13.6-.06,20.4-.09Z"/>
    <path class="cls-1" d="m46.61,56.41v141.47l-20.4.09V56.23c6.8.06,13.6.13,20.4.19Z"/>
    <path class="cls-1" d="m270,56.14c-81.26.1-162.54.84-243.79.09,81.26-.1,162.54-.86,243.79-.09Z"/>
    <path class="cls-1" d="m225.73,202.64l44.26,45.07-20.02.19-44.34-45.16c6.7-.03,13.4-.07,20.09-.1Z"/>
    <path class="cls-1" d="m270,247.71V56.14l-20.02-.19v191.96c6.67-.06,13.34-.13,20.02-.19Z"/>
    <polygon class="cls-1" points="249.98 247.9 249.98 55.95 26.21 56.23 26.21 197.97 174.23 198.06 205.64 228 205.64 202.74 249.98 247.9 249.98 247.9"/>
    <path class="cls-1" d="m270,56.14v191.57l-44.26-45.07v25.21l-31.36-29.88-147.76-.09V56.41c74.46-.09,148.92-.19,223.39-.28Z"/>
  </g>
  <g>
    <path class="cls-2" d="m225.39,227.77v-25.21l-20.09.1v25.26l20.09-.15Z"/>
    <path class="cls-2" d="m46.27,197.8l147.76.09,31.36,29.88-20.09.15-31.41-29.94-148.02-.09c6.8-.03,13.6-.06,20.4-.09Z"/>
    <path class="cls-2" d="m46.27,56.34v141.47l-20.4.09V56.15c6.8.06,13.6.13,20.4.19Z"/>
    <path class="cls-2" d="m269.65,56.06c-81.26.1-162.54.84-243.79.09,81.26-.1,162.54-.86,243.79-.09Z"/>
    <path class="cls-2" d="m225.39,202.56l44.26,45.07-20.02.19-44.34-45.16c6.7-.03,13.4-.07,20.09-.1Z"/>
    <path class="cls-2" d="m269.65,247.63V56.06l-20.02-.19v191.96l20.02-.19Z"/>
    <polygon class="cls-2" points="249.64 247.82 249.64 55.87 25.86 56.15 25.86 197.89 173.88 197.98 205.3 227.92 205.3 202.66 249.64 247.82 249.64 247.82"/>
    <path class="cls-2" d="m269.65,56.06v191.57l-44.26-45.07v25.21l-31.36-29.88-147.76-.09V56.34c74.46-.09,148.92-.19,223.39-.28Z"/>
  </g>
</svg>