<?xml version="1.0" encoding="UTF-8"?>
<svg id="Layer_1" data-name="Layer 1" xmlns="http://www.w3.org/2000/svg" viewBox="0 0 400 400">
  <defs>
    <style>
      .cls-1 {
        fill: #191919;
        stroke-width: 0px;
      }

      .cls-2 {
        fill: #f7f7f7;
        stroke: #191919;
        stroke-miterlimit: 10;
        stroke-width: 10px;
      }
    </style>
  </defs>
  <path class="cls-1" d="m379,82.69v-19.33h-9.67v-9.67h-9.67v-9.67h-19.33v-9.67H89v9.67h-19.33v9.67h-9.67v9.67h-9.67v19.33h-9.67v251.33h9.67v19.33h9.67v9.67h9.67v9.67h19.33v9.67h251.33v-9.67h19.33v-9.67h9.67v-9.67h9.67v-19.33h9.67V82.69h-9.67Zm-67.67,106.33v48.33h-9.67v9.67h-9.67v9.67h-9.67v9.67h-9.67v9.67h-29v-19.33h9.67v-9.67h9.67v-9.67h9.67v-9.67h9.67v-38.67h-9.67v-9.67h-9.67v-9.67h-9.67v-9.67h-9.67v-19.33h29v9.67h9.67v9.67h9.67v9.67h9.67v9.67h9.67v9.67Zm-193.33,38.67v-48.33h9.67v-9.67h9.67v-9.67h9.67v-9.67h9.67v-9.67h29v19.33h-9.67v9.67h-9.67v9.67h-9.67v9.67h-9.67v38.67h9.67v9.67h9.67v9.67h9.67v9.67h9.67v19.33h-29v-9.67h-9.67v-9.67h-9.67v-9.67h-9.67v-9.67h-9.67v-9.67Z"/>
  <path class="cls-2" d="m359.33,67.11v-19.33h-9.67v-9.67h-9.67v-9.67h-19.33v-9.67H69.33v9.67h-19.33v9.67h-9.67v9.67h-9.67v19.33h-9.67v251.33h9.67v19.33h9.67v9.67h9.67v9.67h19.33v9.67h251.33v-9.67h19.33v-9.67h9.67v-9.67h9.67v-19.33h9.67V67.11h-9.67Zm-67.67,106.33v48.33h-9.67v9.67h-9.67v9.67h-9.67v9.67h-9.67v9.67h-29v-19.33h9.67v-9.67h9.67v-9.67h9.67v-9.67h9.67v-38.67h-9.67v-9.67h-9.67v-9.67h-9.67v-9.67h-9.67v-19.33h29v9.67h9.67v9.67h9.67v9.67h9.67v9.67h9.67v9.67Zm-193.33,38.67v-48.33h9.67v-9.67h9.67v-9.67h9.67v-9.67h9.67v-9.67h29v19.33h-9.67v9.67h-9.67v9.67h-9.67v9.67h-9.67v38.67h9.67v9.67h9.67v9.67h9.67v9.67h9.67v19.33h-29v-9.67h-9.67v-9.67h-9.67v-9.67h-9.67v-9.67h-9.67v-9.67Z"/>
</svg>