<?xml version="1.0" encoding="UTF-8"?>
<svg id="Layer_1" data-name="Layer 1" xmlns="http://www.w3.org/2000/svg" viewBox="0 0 300 300">
  <defs>
    <style>
      .cls-1, .cls-2 {
        fill: none;
      }

      .cls-1, .cls-2, .cls-3, .cls-4, .cls-5 {
        stroke: #191919;
      }

      .cls-1, .cls-2, .cls-4 {
        stroke-width: 2px;
      }

      .cls-1, .cls-4 {
        stroke-linejoin: bevel;
      }

      .cls-2, .cls-3, .cls-5 {
        stroke-miterlimit: 10;
      }

      .cls-3, .cls-4 {
        fill: #f5f5f5;
      }

      .cls-5 {
        fill: #191919;
      }
    </style>
  </defs>
  <path class="cls-5" d="m178.87,100.49l10.76-30.92-26.49-.03-17.21.13-41.61,120.74c-22.34-10.16-44.66-20.51-67.4-29.66l.18-.13c17.77-7.04,35.21-15.03,52.68-22.81,2.5-1.11,4.99-2.22,7.49-3.32v-24.77l-17.12.07L1.44,147.79v26.02l93.25,44.52-7.69,22.19,17.13.13,26.52-.03,38.48-111.73c23.24,10.87,46.46,21.95,70.13,31.76l-.17.14c-20.21,8.01-40.2,16.91-60.08,25.68l.21,25.08,17.25.09,78.5-38.03v-25.99l-96.1-47.13Z"/>
  <polygon class="cls-3" points="15.33 168.74 30.26 168.74 121.13 212.14 118.42 213.33 106.49 213.24 16.33 170.19 15.33 168.74"/>
  <polygon class="cls-3" points="181.55 124.08 250.17 155.39 265.92 155.51 261.08 152.25 184.06 117.2 182.78 118.4 181.38 122.49 181.55 124.08"/>
  <polygon class="cls-3" points="191.42 181.94 191.14 205.67 194.47 204.97 208.64 197.92 208.26 181.8 191.42 181.94"/>
  <polygon class="cls-1" points="191.01 181.75 191.01 206.45 208.26 206.54 208.26 181.8 191.01 181.75 191.01 181.75"/>
  <polygon class="cls-3" points="194.22 181.06 250.61 155.39 265.17 155.57 259.67 159.56 208.26 181.8 193.78 181.76 194.22 181.06"/>
  <polygon class="cls-3" points="14.67 142.53 29.83 142.69 91.96 112.89 91.96 104.7 14.5 142.08 14.67 142.53"/>
  <polygon class="cls-3" points="91.96 104.7 91.96 112.89 107.25 105.51 100.52 104.25 91.96 104.7"/>
  <path class="cls-1" d="m251.06,155.56l-.17.14c-20.21,8.01-39.98,17.28-59.87,26.06l17.25.05c19.91-8.79,39.72-18.07,59.95-26.1l.17-.14h-17.33Z"/>
  <path class="cls-1" d="m166.1,116.91c28.23,12.98,56.25,26.75,84.96,38.65h17.33c-28.74-11.92-56.8-25.7-85.07-38.7l-17.22.05h0Z"/>
  <rect class="cls-3" x="13.24" y="142.69" width="16.59" height="26.06"/>
  <polygon class="cls-3" points="157.74 64.58 171.43 64.48 174.94 64.45 173.44 68.81 130.99 192.03 116.13 185.32 157.74 64.58"/>
  <polygon class="cls-1" points="125.29 235.4 166.1 116.91 183.32 116.86 142.45 235.52 125.29 235.4 125.29 235.4"/>
  <polygon class="cls-3" points="193.47 206.47 208.26 206.31 208.16 198.15 195.56 203.94 193.47 206.47"/>
  <path class="cls-1" d="m98.8,235.42c14.55-.01,29.1,0,43.65.1-14.55.01-29.1,0-43.65-.1h0Z"/>
  <polygon class="cls-3" points="98.8 235.42 116.13 234.97 123.63 213.33 106.49 213.24 98.8 235.42"/>
  <polygon class="cls-1" points="106.49 213.24 98.8 235.42 115.93 235.55 123.63 213.33 106.49 213.24 106.49 213.24"/>
  <polygon class="cls-1" points="13.24 168.72 106.49 213.24 123.63 213.33 30.26 168.74 13.24 168.72 13.24 168.72"/>
  <polygon class="cls-1" points="13.24 142.69 13.24 168.72 30.26 168.74 30.26 142.68 13.24 142.69 13.24 142.69"/>
  <polygon class="cls-1" points="91.96 104.7 13.24 142.69 30.26 142.68 109.08 104.63 91.96 104.7 91.96 104.7"/>
  <polygon class="cls-1" points="91.96 129.42 91.96 104.7 109.08 104.63 109.08 129.39 91.96 129.42 91.96 129.42"/>
  <path class="cls-1" d="m31.69,155.65l.18-.13c20.28-8.03,40.13-17.3,60.09-26.09l17.12-.03c-19.99,8.8-39.86,18.09-60.17,26.13l-.18.13h-17.04Z"/>
  <path class="cls-1" d="m113.84,191.96c-27.3-12.2-54.41-25.14-82.15-36.31h17.04c27.77,11.19,54.92,24.16,82.26,36.38l-17.15-.06h0Z"/>
  <polygon class="cls-1" points="157.74 64.58 113.84 191.96 130.99 192.03 174.94 64.45 157.74 64.58 157.74 64.58"/>
  <path class="cls-1" d="m184.19,64.6l-26.45-.03c14.57-.11,29.13-.12,43.69-.1l-17.24.13h0Z"/>
  <polygon class="cls-1" points="173.44 95.47 184.19 64.6 201.43 64.48 190.67 95.39 173.44 95.47 173.44 95.47"/>
  <polygon class="cls-1" points="269.41 142.53 173.44 95.47 190.67 95.39 286.76 142.52 269.41 142.53 269.41 142.53"/>
  <polygon class="cls-1" points="191.01 206.45 269.41 168.48 286.76 168.51 208.26 206.54 191.01 206.45 191.01 206.45"/>
  <polygon class="cls-1" points="269.41 168.48 269.41 142.53 286.76 142.52 286.76 168.51 269.41 168.48 269.41 168.48"/>
  <path class="cls-4" d="m286.76,168.51v-25.99l-96.1-47.13,10.76-30.92-26.49-.03-43.95,127.58c-27.33-12.22-54.48-25.18-82.26-36.37l.18-.13c20.31-8.04,40.18-17.33,60.17-26.13v-24.77l-78.82,38.05v26.06l93.37,44.59-7.7,22.22,26.52-.03,40.87-118.67c28.27,13,56.33,26.79,85.07,38.71l-.17.14c-20.24,8.03-40.04,17.31-59.95,26.1v24.74l78.5-38.03h0Z"/>
  <path class="cls-1" d="m269.41,142.53v25.95l-78.4,37.97v-24.7c19.89-8.78,39.66-18.04,59.87-26.06l.17-.14c-28.7-11.91-56.73-25.67-84.96-38.65l-40.81,118.49-26.49.03,7.69-22.19L13.24,168.72v-26.02l78.72-38v24.73c-19.96,8.79-39.81,18.06-60.09,26.09l-.18.13c27.74,11.16,54.85,24.12,82.15,36.31l43.9-127.38,26.45.03-10.75,30.87,95.97,47.06h0Z"/>
  <line class="cls-1" x1="269.41" y1="142.53" x2="286.76" y2="142.52"/>
  <line class="cls-1" x1="269.41" y1="168.48" x2="286.76" y2="168.51"/>
  <line class="cls-2" x1="91.96" y1="129.42" x2="109.08" y2="129.39"/>
</svg>