<?xml version="1.0" encoding="UTF-8"?>
<svg id="Layer_1" data-name="Layer 1" xmlns="http://www.w3.org/2000/svg" viewBox="0 0 300 300">
  <defs>
    <style>
      .cls-1 {
        stroke-linejoin: bevel;
      }

      .cls-1, .cls-2 {
        fill: none;
        stroke: #000;
        stroke-width: 2px;
      }

      .cls-2 {
        stroke-miterlimit: 10;
      }
    </style>
  </defs>
  <circle class="cls-2" cx="238.62" cy="104.6" r="2.43"/>
  <circle class="cls-2" cx="232.98" cy="104.6" r="2.43"/>
  <line class="cls-2" x1="232.98" y1="102.17" x2="238.62" y2="102.17"/>
  <line class="cls-2" x1="232.98" y1="107.03" x2="238.62" y2="107.03"/>
  <circle class="cls-2" cx="225.61" cy="104.6" r="2.43"/>
  <circle class="cls-2" cx="219.96" cy="104.6" r="2.43"/>
  <line class="cls-2" x1="219.96" y1="102.17" x2="225.61" y2="102.17"/>
  <line class="cls-2" x1="219.96" y1="107.03" x2="225.61" y2="107.03"/>
  <circle class="cls-2" cx="212.45" cy="104.6" r="2.43"/>
  <circle class="cls-2" cx="206.8" cy="104.6" r="2.43"/>
  <line class="cls-2" x1="206.8" y1="102.17" x2="212.45" y2="102.17"/>
  <line class="cls-2" x1="206.8" y1="107.03" x2="212.45" y2="107.03"/>
  <g>
    <path class="cls-1" d="m46.5,86.93v35.34l-9.36.02v-35.38c3.12,0,6.24.01,9.36.02Z"/>
    <path class="cls-1" d="m262.86,86.88l-2.3-2.44-211.78.06-2.28,2.43-9.36-.02,2.29-2.44,211.96-.06,2.3,2.44,9.18.02Z"/>
    <path class="cls-1" d="m260.57,124.77l2.3-2.44-9.18.02-2.3,2.44-211.96-.06-2.29-2.44,9.36-.02,2.28,2.43c61.82.02,123.64.03,185.46.05h26.33Z"/>
    <path class="cls-1" d="m262.86,122.33v-35.45l-9.18-.02v35.48l9.18-.02Z"/>
    <polygon class="cls-1" points="253.69 122.34 253.69 86.86 251.39 84.42 39.42 84.48 37.14 86.91 37.14 122.29 39.42 124.73 251.39 124.79 253.69 122.34 253.69 122.34"/>
    <polygon class="cls-1" points="262.86 86.88 262.86 122.33 260.57 124.77 48.78 124.71 46.5 122.27 46.5 86.93 48.78 84.5 260.57 84.44 262.86 86.88 262.86 86.88"/>
  </g>
  <circle class="cls-2" cx="238.62" cy="150" r="2.43"/>
  <circle class="cls-2" cx="232.98" cy="150" r="2.43"/>
  <line class="cls-2" x1="232.98" y1="147.57" x2="238.62" y2="147.57"/>
  <line class="cls-2" x1="232.98" y1="152.43" x2="238.62" y2="152.43"/>
  <circle class="cls-2" cx="225.61" cy="150" r="2.43"/>
  <circle class="cls-2" cx="219.96" cy="150" r="2.43"/>
  <line class="cls-2" x1="219.96" y1="147.57" x2="225.61" y2="147.57"/>
  <line class="cls-2" x1="219.96" y1="152.43" x2="225.61" y2="152.43"/>
  <circle class="cls-2" cx="212.45" cy="150" r="2.43"/>
  <circle class="cls-2" cx="206.8" cy="150" r="2.43"/>
  <line class="cls-2" x1="206.8" y1="147.57" x2="212.45" y2="147.57"/>
  <line class="cls-2" x1="206.8" y1="152.43" x2="212.45" y2="152.43"/>
  <g>
    <path class="cls-1" d="m46.5,132.33v35.34l-9.36.02v-35.38l9.36.02Z"/>
    <path class="cls-1" d="m262.86,132.28l-2.3-2.44-211.78.06-2.28,2.43-9.36-.02,2.29-2.44,211.96-.06,2.3,2.44,9.18.02Z"/>
    <path class="cls-1" d="m260.57,170.17l2.3-2.44-9.18.02-2.3,2.44-211.96-.06-2.29-2.44,9.36-.02,2.28,2.43c61.82.02,123.64.03,185.46.05,8.78,0,17.55,0,26.33,0Z"/>
    <path class="cls-1" d="m262.86,167.72v-35.45l-9.18-.02v35.48l9.18-.02Z"/>
    <polygon class="cls-1" points="253.69 167.74 253.69 132.26 251.39 129.81 39.42 129.87 37.14 132.31 37.14 167.69 39.42 170.13 251.39 170.19 253.69 167.74 253.69 167.74"/>
    <polygon class="cls-1" points="262.86 132.28 262.86 167.72 260.57 170.17 48.78 170.11 46.5 167.67 46.5 132.33 48.78 129.89 260.57 129.83 262.86 132.28 262.86 132.28"/>
  </g>
  <circle class="cls-2" cx="238.62" cy="195.4" r="2.43"/>
  <circle class="cls-2" cx="232.98" cy="195.4" r="2.43"/>
  <line class="cls-2" x1="232.98" y1="192.97" x2="238.62" y2="192.97"/>
  <line class="cls-2" x1="232.98" y1="197.83" x2="238.62" y2="197.83"/>
  <circle class="cls-2" cx="225.61" cy="195.4" r="2.43"/>
  <circle class="cls-2" cx="219.96" cy="195.4" r="2.43"/>
  <line class="cls-2" x1="219.96" y1="192.97" x2="225.61" y2="192.97"/>
  <line class="cls-2" x1="219.96" y1="197.83" x2="225.61" y2="197.83"/>
  <circle class="cls-2" cx="212.45" cy="195.4" r="2.43"/>
  <circle class="cls-2" cx="206.8" cy="195.4" r="2.43"/>
  <line class="cls-2" x1="206.8" y1="192.97" x2="212.45" y2="192.97"/>
  <line class="cls-2" x1="206.8" y1="197.83" x2="212.45" y2="197.83"/>
  <g>
    <path class="cls-1" d="m46.5,177.73v35.34l-9.36.02v-35.38c3.12,0,6.24.01,9.36.02Z"/>
    <path class="cls-1" d="m262.86,177.67l-2.3-2.44-211.78.06-2.28,2.43-9.36-.02,2.29-2.44,211.96-.06,2.3,2.44,9.18.02Z"/>
    <path class="cls-1" d="m260.57,215.56l2.3-2.44-9.18.02-2.3,2.44-211.96-.06-2.29-2.44,9.36-.02,2.28,2.43,185.46.05h26.33Z"/>
    <path class="cls-1" d="m262.86,213.12v-35.45l-9.18-.02v35.48l9.18-.02Z"/>
    <polygon class="cls-1" points="253.69 213.14 253.69 177.66 251.39 175.21 39.42 175.27 37.14 177.71 37.14 213.09 39.42 215.52 251.39 215.58 253.69 213.14 253.69 213.14"/>
    <polygon class="cls-1" points="262.86 177.67 262.86 213.12 260.57 215.56 48.78 215.5 46.5 213.07 46.5 177.73 48.78 175.29 260.57 175.23 262.86 177.67 262.86 177.67"/>
  </g>
</svg>