<?xml version="1.0" encoding="UTF-8"?>
<svg id="Layer_1" data-name="Layer 1" xmlns="http://www.w3.org/2000/svg" viewBox="0 0 300 300">
  <defs>
    <style>
      .cls-1 {
        fill: none;
        stroke: #000;
        stroke-linejoin: bevel;
        stroke-width: 2px;
      }
    </style>
  </defs>
  <path class="cls-1" d="m53.19,78.13v148.61l-22.56.17V77.96c7.52.06,15.04.11,22.56.17Z"/>
  <path class="cls-1" d="m269.37,77.91c-79.57.08-159.16.64-238.74.05,79.57-.08,159.16-.65,238.74-.05Z"/>
  <path class="cls-1" d="m53.19,226.73l216.18.21c-79.57.6-159.16.03-238.74-.05,7.52-.06,15.04-.11,22.56-.17Z"/>
  <path class="cls-1" d="m269.37,226.95V77.91l-22.14-.17v149.37c7.38-.06,14.76-.11,22.14-.17Z"/>
  <path class="cls-1" d="m62.98,92.78l98.14,65.82h-22.35S40.44,92.65,40.44,92.65l22.54.13Z"/>
  <path class="cls-1" d="m62.98,216.31v-123.53l-22.54-.13v123.81c7.51-.05,15.03-.1,22.54-.14Z"/>
  <path class="cls-1" d="m259.53,216.48c-73.03-.06-146.06-.49-219.09-.02,73.03.06,146.06.5,219.09.02Z"/>
  <path class="cls-1" d="m161.12,158.6l98.4-65.98-22.16-.13-98.59,66.12c7.45,0,14.9,0,22.35-.01Z"/>
  <path class="cls-1" d="m259.53,92.63v123.85l-22.16.14v-124.13l22.16.13Z"/>
  <path class="cls-1" d="m247.41,88.39l-86.29,57.87h-22.35s86.46-58.01,86.46-58.01c7.39.05,14.79.1,22.18.14Z"/>
  <path class="cls-1" d="m161.12,146.26l-86.09-57.72-22.52-.14,86.26,57.85h22.35Z"/>
  <path class="cls-1" d="m75.03,88.54l172.38-.15c-64.96-.42-129.93-.05-194.89,0,7.51.05,15.01.1,22.52.14Z"/>
  <path class="cls-1" d="m247.23,227.12V77.75l-216.6.21v148.94c72.2.07,144.4.14,216.6.21Z"/>
  <path class="cls-1" d="m269.37,77.91v149.03l-216.18-.21V78.13c72.06-.07,144.12-.14,216.18-.21Z"/>
  <polygon class="cls-1" points="237.37 92.49 237.37 216.62 40.44 216.46 40.44 92.65 138.77 158.62 237.37 92.49 237.37 92.49"/>
  <path class="cls-1" d="m259.53,216.48v-123.85l-98.4,65.98L62.98,92.78v123.53c65.52.06,131.03.11,196.55.17Z"/>
  <polygon class="cls-1" points="52.52 88.39 225.23 88.25 138.77 146.24 52.52 88.39 52.52 88.39"/>
  <polygon class="cls-1" points="247.41 88.39 75.03 88.54 161.12 146.26 247.41 88.39 247.41 88.39"/>
</svg>