<?xml version="1.0" encoding="UTF-8"?>
<svg id="Layer_1" data-name="Layer 1" xmlns="http://www.w3.org/2000/svg" viewBox="0 0 300 300">
  <defs>
    <style>
      .cls-1 {
        fill: none;
        stroke: #000;
        stroke-linejoin: bevel;
        stroke-width: 2px;
      }
    </style>
  </defs>
  <path class="cls-1" d="m187.74,149.46l31.09-33.07-17.05-.06-31.14,33.14h17.1Z"/>
  <path class="cls-1" d="m218.83,182.53l-31.08-33.07h-17.1l31.14,33.13,17.05-.06Z"/>
  <path class="cls-1" d="m198.64,203.99c-8.23,24.21,11.27,52.95,38.12,47.54,26.84-5.4,35.57-40.48,18.05-60-9-10.02-23.32-13.85-35.98-9.01l-17.05.06c25.7-9.83,49.37,15.35,44.78,40.66s-36.97,39.02-56.55,19.15c-9.8-9.94-12.93-25.16-8.46-38.31,5.7-.04,11.39-.07,17.09-.11Z"/>
  <path class="cls-1" d="m167.57,170.92l31.07,33.07-17.09.11-31.12-33.13c5.71-.01,11.43-.03,17.14-.04Z"/>
  <path class="cls-1" d="m136.53,203.94l31.04-33.02-17.14.04-31.09,33.08c5.73-.04,11.46-.07,17.19-.11Z"/>
  <path class="cls-1" d="m97.35,251.06c27.19,6.5,47.52-22.45,39.18-47.12l-17.19.11c8.35,24.71-12,53.73-39.25,47.21,5.75-.07,11.5-.13,17.26-.2Z"/>
  <path class="cls-1" d="m123.18,213.43v10.16s-25.83,27.47-25.83,27.47l-17.26.2,25.87-27.52v-10.18c5.74-.04,11.48-.08,17.22-.12Z"/>
  <path class="cls-1" d="m107.46,196.68l15.72,16.75-17.21.12-15.74-16.78,17.24-.09Z"/>
  <path class="cls-1" d="m72.12,224.15l25.81-27.47h9.53c-8.93.05-17.86.09-26.79.09l-25.85,27.52c5.77-.05,11.53-.1,17.3-.15Z"/>
  <path class="cls-1" d="m116.38,182.48c-26.16-10.01-49.65,16.19-44.26,41.67l-17.3.15c-5.39-25.5,18.12-51.82,44.34-41.75l17.22-.06Z"/>
  <path class="cls-1" d="m147.41,149.46l-31.02,33.02-17.22.06,31.08-33.08h17.17Z"/>
  <path class="cls-1" d="m116.38,116.44l31.02,33.02h-17.17l-31.08-33.08,17.22.06Z"/>
  <path class="cls-1" d="m72.12,74.77c-5.38,25.45,18.09,51.72,44.26,41.67l-17.22-.06c-26.22,10.03-49.73-16.23-44.34-41.75,5.77.05,11.53.1,17.3.15Z"/>
  <path class="cls-1" d="m107.46,102.24h-9.53s-25.81-27.47-25.81-27.47l-17.3-.15,25.85,27.52c8.93,0,17.86.04,26.79.09Z"/>
  <path class="cls-1" d="m123.18,85.49l-15.72,16.75-17.24-.09,15.74-16.78c5.74.04,11.48.08,17.21.13Z"/>
  <path class="cls-1" d="m97.35,47.87l25.83,27.47v10.16s-17.21-.13-17.21-.13v-10.18s-25.88-27.52-25.88-27.52c5.75.07,11.5.13,17.26.2Z"/>
  <path class="cls-1" d="m136.53,94.98c4.44-13.12,1.36-28.31-8.47-38.21-13.2-13.3-31.09-8.91-47.97-9.1,27.24-6.52,47.6,22.5,39.25,47.21,5.73.04,11.46.07,17.19.11Z"/>
  <path class="cls-1" d="m167.57,128l-31.04-33.02-17.19-.11,31.09,33.08c5.71.01,11.43.03,17.14.04Z"/>
  <path class="cls-1" d="m198.64,94.93l-31.07,33.07-17.14-.04,31.12-33.14c5.7.04,11.39.07,17.09.11Z"/>
  <path class="cls-1" d="m237.94,47.65c-27.23-6.41-47.68,22.53-39.3,47.28l-17.09-.11c-4.46-13.17-1.35-28.41,8.5-38.35,13.27-13.4,30.91-9.03,47.89-8.83Z"/>
  <path class="cls-1" d="m212.02,85.41v-10.17s25.92-27.59,25.92-27.59l-17.02-.2-25.96,27.64v10.19c5.68.04,11.37.08,17.06.13Z"/>
  <path class="cls-1" d="m227.79,102.16l-15.77-16.75-17.06-.13,15.79,16.78c5.68.03,11.36.06,17.04.09Z"/>
  <path class="cls-1" d="m263.29,74.56l-25.94,27.59c-8.87.01-17.74-.03-26.61-.08h9.59s25.98-27.65,25.98-27.65c5.66.05,11.32.1,16.98.15Z"/>
  <path class="cls-1" d="m264.11,84.34c.14-3.28-.14-6.57-.82-9.78l-16.98-.15c5.43,25.6-18.24,51.97-44.53,41.92l17.05.06c22.14,8.43,44.17-9.52,45.27-32.06h0Z"/>
  <path class="cls-1" d="m214.07,211.62l11.93-12.67-17.04.1-11.95,12.7c5.69-.04,11.37-.08,17.06-.12Z"/>
  <path class="cls-1" d="m218.43,228.95l-4.37-17.33-17.06.12,4.37,17.36,17.05-.16Z"/>
  <path class="cls-1" d="m234.73,233.61l-16.3-4.66-17.05.16,16.32,4.67,17.02-.16Z"/>
  <path class="cls-1" d="m246.67,220.94l-11.94,12.67-17.02.16,11.96-12.7c5.67-.05,11.34-.09,17-.14Z"/>
  <path class="cls-1" d="m226,198.95l16.3,4.66-17.01.11-16.33-4.66,17.04-.1Z"/>
  <path class="cls-1" d="m242.3,203.6l4.37,17.33-17,.14-4.38-17.37,17.01-.11Z"/>
  <path class="cls-1" d="m247.13,84.21c.14-3.28-.14-6.58-.82-9.8l-25.98,27.64h-9.59s-15.79-16.77-15.79-16.77v-10.19s25.97-27.64,25.97-27.64c-27.28-6.43-47.76,22.58-39.37,47.37l-31.12,33.14-31.09-33.08c8.35-24.71-12-53.73-39.25-47.21l25.87,27.52v10.18s-15.74,16.78-15.74,16.78h-9.55s-25.85-27.52-25.85-27.52c-5.39,25.5,18.12,51.82,44.34,41.75l31.08,33.08-31.08,33.08c-26.22-10.03-49.73,16.23-44.34,41.75l25.85-27.52h9.55s15.74,16.78,15.74,16.78v10.18s-25.88,27.52-25.88,27.52c27.24,6.52,47.6-22.5,39.25-47.21l31.09-33.08,31.12,33.13c-8.24,24.25,11.28,53.05,38.18,47.64,26.89-5.41,35.63-40.57,18.09-60.11-9.01-10.04-23.36-13.88-36.04-9.02l-31.14-33.13,31.14-33.14c22.18,8.45,44.25-9.54,45.35-32.12h0Z"/>
  <path class="cls-1" d="m264.15,82.61c-.1,23.18-22.47,42.48-45.31,33.78l-31.09,33.07,31.08,33.07c25.65-9.81,49.28,15.31,44.71,40.58s-36.91,38.94-56.45,19.11c-9.79-9.92-12.91-25.11-8.45-38.23l-31.07-33.07-31.04,33.02c8.34,24.67-11.99,53.62-39.18,47.12l25.83-27.47v-10.16s-15.71-16.75-15.71-16.75h-9.53s-25.81,27.47-25.81,27.47c-5.38-25.45,18.09-51.72,44.26-41.67l31.02-33.02-31.02-33.02c-26.16,10.01-49.65-16.19-44.26-41.67l25.81,27.47h9.53s15.72-16.75,15.72-16.75v-10.16s-25.83-27.47-25.83-27.47c27.19-6.5,47.52,22.45,39.18,47.12l31.04,33.02,31.07-33.07c-8.38-24.75,12.07-53.7,39.3-47.28l-25.92,27.59v10.17s15.76,16.75,15.76,16.75h9.57s25.94-27.6,25.94-27.6c.56,2.64.85,5.35.86,8.06h0Z"/>
  <polygon class="cls-1" points="225.29 203.71 229.66 221.08 217.71 233.77 201.38 229.1 197.01 211.74 208.96 199.04 225.29 203.71 225.29 203.71"/>
  <polygon class="cls-1" points="246.67 220.94 242.3 203.6 226 198.95 214.07 211.62 218.43 228.95 234.73 233.61 246.67 220.94 246.67 220.94"/>
</svg>