<?xml version="1.0" encoding="UTF-8"?>
<svg id="Layer_1" data-name="Layer 1" xmlns="http://www.w3.org/2000/svg" viewBox="0 0 300 300">
  <defs>
    <style>
      .cls-1 {
        fill: none;
        stroke: #000;
        stroke-linejoin: bevel;
        stroke-width: 2px;
      }
    </style>
  </defs>
  <path class="cls-1" d="m159.73,164.52l79.15,84.24-17.11.2-79.28-84.4c5.75-.01,11.5-.03,17.24-.04Z"/>
  <path class="cls-1" d="m174.45,148.86c31.79-46.39-.67-120.2-61.05-113.95-64.32,6.65-81.24,96.01-30.66,131.57,23.22,16.33,54.64,15.37,76.99-1.96l-17.24.04c-48.38,37.53-112.31-7.97-107.18-65.04,5.72-63.67,88.52-89.6,123.8-32.83,15.47,24.9,14.67,58.03-1.87,82.18h17.22Z"/>
  <path class="cls-1" d="m238.88,248.76l14.76-15.66-17.09.17-14.78,15.69c5.7-.07,11.41-.14,17.11-.2Z"/>
  <path class="cls-1" d="m253.64,233.1l-79.19-84.24h-17.22s79.32,84.41,79.32,84.41c5.7-.06,11.39-.12,17.09-.17Z"/>
  <path class="cls-1" d="m157.68,109.17c2.17-51.08-60.63-83.85-96.04-42.07-32.04,37.8-4.05,105.49,48.84,97.39,26.97-4.13,45.95-28.75,47.2-55.32h0Z"/>
  <path class="cls-1" d="m174.96,106.42c-.12,51.35-64.54,80.39-97.77,37.01-30.02-39.19.81-105.24,53.19-94.53,26.7,5.46,44.52,30.94,44.58,57.51h0Z"/>
  <path class="cls-1" d="m236.55,233.27l-79.32-84.4c31.84-46.47-.65-120.42-61.15-114.17-64.43,6.67-81.37,96.19-30.71,131.82,23.26,16.36,54.73,15.4,77.11-1.96l79.28,84.4,14.78-15.69h0Z"/>
  <path class="cls-1" d="m174.45,148.86l79.19,84.24-14.76,15.66-79.15-84.24c-48.29,37.45-112.12-7.94-107-64.92,5.71-63.56,88.38-89.43,123.59-32.76,15.44,24.85,14.65,57.92-1.87,82.02h0Z"/>
  <path class="cls-1" d="m157.74,106.35c-.12,51.43-64.64,80.55-97.93,37.08-30.06-39.26.8-105.45,53.28-94.71,26.75,5.48,44.59,31,44.65,57.62h0Z"/>
  <path class="cls-1" d="m174.9,109.23c2.17-50.99-60.53-83.69-95.88-41.99-31.99,37.74-4.03,105.29,48.76,97.21,26.92-4.12,45.88-28.69,47.12-55.21h0Z"/>
</svg>