<?xml version="1.0" encoding="UTF-8"?>
<svg id="Layer_1" data-name="Layer 1" xmlns="http://www.w3.org/2000/svg" viewBox="0 0 300 300">
  <defs>
    <style>
      .cls-1 {
        fill: #f5f5f5;
      }

      .cls-1, .cls-2 {
        stroke-width: 0px;
      }

      .cls-3 {
        fill: none;
        stroke: #000;
        stroke-linejoin: bevel;
        stroke-width: 2px;
      }

      .cls-2 {
        fill: #191919;
      }
    </style>
  </defs>
  <g>
    <path class="cls-2" d="m217.48,198.84c2.05,18.5-18.08,28.28-30.77,37.16-11.34,7.93-22.6,16.04-33.94,23.95-5.94,4.14-12.49,8.48-19.98,8.6s-14.11-4.18-20.11-8.36c-11.09-7.73-21.98-15.85-33.01-23.69-13.06-9.28-31.14-18.01-31.41-36.24-.29-19.85,11.33-44.15,16.77-62.69,7.77-26.46,15.1-53.11,23.27-79.45,4.92-15.88,14-15.66,29.1-15.69,13.28-.03,26.67-.56,39.94-.18,7.1.2,12.39.99,16.34,7.35,3.07,4.95,4.1,11.99,5.74,17.51,5.17,17.3,10.34,34.59,15.51,51.89,7.51,25.13,20.43,53.38,22.55,79.84h0Z"/>
    <path class="cls-2" d="m234.7,201.61c-.77-20.78-10.94-43.31-16.81-62.94-7.99-26.71-15.7-53.53-23.94-80.17-4.97-16.07-13.85-15.92-29.21-15.89-13.24.03-26.62-.51-39.84-.03-7.13.26-12.34,1.04-16.28,7.43-2.46,3.98-3.25,9.18-4.52,13.64-4.03,14.17-8.3,28.28-12.45,42.42-7.58,25.81-15.33,51.6-22.95,77.39-5.65,19.15-2.08,31.54,14.33,43.19,17.86,12.67,36.23,29.86,56.24,38.97,18.17,8.27,34.07-8.48,48.03-18.25,15.48-10.82,45.65-23.96,47.41-45.76h0Z"/>
    <path class="cls-2" d="m127.52,171.92c-12.96,2.43-25.44,6.94-37,13.29l-17.34.07c17.66-9.71,34.34-13.32,54.33-13.36Z"/>
    <path class="cls-2" d="m172.39,171.96c-4.31-15.51-8.62-31.02-12.92-46.53-.88-3.18-4.51-27.86-9.64-27.64-5.39.23-8.22,22.82-9.2,26.36-4.37,15.92-8.74,31.85-13.11,47.77l-17.26.04c4.26-15.53,8.53-31.07,12.79-46.6.87-3.19,4.43-27.9,9.56-27.69,5.4.22,8.32,22.88,9.3,26.43,4.43,15.97,8.87,31.93,13.3,47.9,5.73-.01,11.45-.02,17.18-.04Z"/>
    <path class="cls-2" d="m209.32,185.25c-17.61-9.66-34.18-13.3-54.11-13.25,12.96,2.45,25.44,6.97,37,13.32,5.7-.02,11.4-.04,17.11-.07Z"/>
    <path class="cls-2" d="m178.43,77.37l30.89,107.88-17.11.07c-7.49-26.17-14.98-52.33-22.47-78.5-2.73-9.52-4.87-33.42-13.77-40.72-4.52-3.71-11.33-2.64-16.77-2.57-7.25.09-19.26-2.24-26.48.78-9.66,4.03-11.42,22.99-13.83,31.38-8.57,29.87-17.14,59.73-25.71,89.6l17.34-.07c10.15-35.35,20.32-70.7,30.44-106.06,1.57-5.49,2.61-11.62,8.26-14.39,8.63-4.24,25.3-1.72,34.25-1.18s13.22,5.01,14.95,13.78h0Z"/>
    <path class="cls-2" d="m121.48,187.05c9.65,17.38,43.62,12.46,56.52,3.35l-17.17.08c-12.91,9.13-46.96,14.05-56.63-3.36,5.76-.02,11.52-.05,17.28-.07Z"/>
    <path class="cls-2" d="m127.92,219.87c-7.66-8.97-9.56-21.61-6.44-32.81l-17.28.07c-3.13,11.24-1.22,23.89,6.45,32.89,5.75-.05,11.51-.1,17.26-.14Z"/>
    <path class="cls-2" d="m155.8,244.07c-10.98-4.96-10.55-14.06-12.27-24.09-1.74-10.15-15.45-12.09-15.62-.12l-17.26.14c.21-12.01,13.91-10.06,15.65.12,1.72,10.03,1.29,19.19,12.29,24.14,5.74-.07,11.47-.13,17.21-.2Z"/>
    <path class="cls-2" d="m179.04,197.56c-.07,20.25-32.63,25.62-23.24,46.51l-17.21.2c-3.87-8.6-.69-16.07,6.34-21.48,10.78-8.31,20.23-17.42,15.9-32.3l17.17-.08c.68,2.32,1.03,4.73,1.04,7.15h0Z"/>
    <path class="cls-2" d="m217.64,201.72c-.78-20.82-10.96-43.4-16.84-63.08-8-26.77-15.73-53.65-23.99-80.35-4.98-16.1-13.88-15.95-29.27-15.92-13.27.03-26.67-.52-39.92-.03-7.15.26-12.37,1.05-16.31,7.44-2.46,3.99-3.26,9.2-4.53,13.67-4.04,14.2-8.32,28.34-12.48,42.51-7.59,25.87-15.36,51.71-22.99,77.56-5.66,19.19-2.09,31.61,14.36,43.28,17.89,12.7,36.29,29.93,56.35,39.05,18.21,8.28,34.13-8.5,48.13-18.29,15.51-10.85,45.74-24.01,47.5-45.87h0Z"/>
    <path class="cls-2" d="m234.54,198.74c2.04,18.46-18.05,28.22-30.71,37.07-11.32,7.92-22.55,16-33.88,23.9-5.93,4.14-12.47,8.46-19.94,8.58s-14.08-4.17-20.07-8.34c-11.07-7.71-21.94-15.81-32.95-23.64-13.03-9.26-31.08-17.97-31.35-36.16-.29-19.81,11.31-44.05,16.74-62.55,7.75-26.41,15.07-52.99,23.22-79.27,4.91-15.85,13.98-15.62,29.05-15.65,13.26-.03,26.62-.56,39.86-.18,7.09.2,12.37.99,16.31,7.33,3.06,4.94,4.09,11.96,5.73,17.47,5.16,17.26,10.32,34.52,15.48,51.78,7.5,25.07,20.39,53.26,22.51,79.66h0Z"/>
    <path class="cls-2" d="m161.26,77.19l30.95,108.12c-11.56-6.35-24.04-10.87-37-13.32-4.32-15.54-8.63-31.09-12.95-46.63-.88-3.18-4.52-27.93-9.66-27.71-5.4.23-8.24,22.87-9.22,26.42-4.38,15.96-8.76,31.92-13.14,47.87-12.99,2.43-25.49,6.95-37.07,13.32,10.17-35.43,20.36-70.85,30.5-106.29,1.58-5.5,2.61-11.64,8.28-14.43,8.65-4.25,25.35-1.72,34.32-1.18,9.09.55,13.24,5.03,14.97,13.81h0Z"/>
    <path class="cls-2" d="m209.32,185.25c-7.48-26.11-14.95-52.22-22.43-78.33-2.72-9.5-4.86-33.35-13.74-40.63-4.52-3.7-11.31-2.63-16.74-2.57-7.23.09-19.22-2.23-26.42.78-9.64,4.03-11.39,22.94-13.8,31.32-8.55,29.8-17.11,59.6-25.66,89.4,11.55-6.35,24.03-10.86,37-13.29,4.25-15.5,8.51-31,12.76-46.5.87-3.18,4.42-27.84,9.55-27.63,5.39.22,8.3,22.83,9.29,26.37,4.43,15.93,8.85,31.86,13.28,47.8,12.94,2.45,25.39,6.95,36.93,13.29h0Z"/>
    <path class="cls-2" d="m161.88,197.65c-.07,20.29-32.69,25.68-23.29,46.61-10.98-4.95-10.61-14.1-12.29-24.14-1.71-10.21-15.48-12.08-15.65-.12-7.68-8.99-9.57-21.66-6.45-32.89,9.67,17.42,43.72,12.48,56.63,3.36.68,2.33,1.03,4.74,1.04,7.17h0Z"/>
    <path class="cls-2" d="m179,199.02c.15-2.9-.18-5.82-1-8.61-12.9,9.11-46.87,14.02-56.52-3.35-3.12,11.21-1.21,23.83,6.44,32.81.21-11.98,13.88-10.04,15.62.12,1.72,10.04,1.3,19.11,12.27,24.09-9.24-20.55,22.02-25.86,23.2-45.05h0Z"/>
  </g>
  <g>
    <path class="cls-1" d="m230.25,190.12c2.05,18.5-18.08,28.28-30.77,37.16-11.34,7.93-22.6,16.04-33.94,23.95-5.94,4.14-12.49,8.48-19.98,8.6s-14.11-4.18-20.11-8.36c-11.09-7.73-21.98-15.85-33.01-23.69-13.06-9.28-31.14-18.01-31.41-36.24-.29-19.85,11.33-44.15,16.77-62.69,7.77-26.46,15.1-53.11,23.27-79.45,4.92-15.88,14-15.66,29.1-15.69,13.28-.03,26.67-.56,39.94-.18,7.1.2,12.39.99,16.34,7.35,3.07,4.95,4.1,11.99,5.74,17.51,5.17,17.3,10.34,34.59,15.51,51.89,7.51,25.13,20.43,53.38,22.55,79.84h0Z"/>
    <path class="cls-1" d="m247.47,192.9c-.77-20.78-10.94-43.31-16.81-62.94-7.99-26.71-15.7-53.53-23.94-80.17-4.97-16.07-13.85-15.92-29.21-15.89-13.24.03-26.62-.51-39.84-.03-7.13.26-12.34,1.04-16.28,7.43-2.46,3.98-3.25,9.18-4.52,13.64-4.03,14.17-8.3,28.28-12.45,42.42-7.58,25.81-15.33,51.6-22.95,77.39-5.65,19.15-2.08,31.54,14.33,43.19,17.86,12.67,36.23,29.86,56.24,38.97,18.17,8.27,34.07-8.48,48.03-18.25,15.48-10.82,45.65-23.96,47.41-45.76h0Z"/>
    <path class="cls-1" d="m140.29,163.2c-12.96,2.43-25.44,6.94-37,13.29l-17.34.07c17.66-9.71,34.34-13.32,54.33-13.36Z"/>
    <path class="cls-1" d="m185.16,163.24c-4.31-15.51-8.62-31.02-12.92-46.53-.88-3.18-4.51-27.86-9.64-27.64-5.39.23-8.22,22.82-9.2,26.36-4.37,15.92-8.74,31.85-13.11,47.77l-17.26.04c4.26-15.53,8.53-31.07,12.79-46.6.87-3.19,4.43-27.9,9.56-27.69,5.4.22,8.32,22.88,9.3,26.43,4.43,15.97,8.87,31.93,13.3,47.9,5.73-.01,11.45-.02,17.18-.04Z"/>
    <path class="cls-1" d="m222.09,176.53c-17.61-9.66-34.18-13.3-54.11-13.25,12.96,2.45,25.44,6.97,37,13.32,5.7-.02,11.4-.04,17.11-.07Z"/>
    <path class="cls-1" d="m191.2,68.65l30.89,107.88-17.11.07c-7.49-26.17-14.98-52.33-22.47-78.5-2.73-9.52-4.87-33.42-13.77-40.72-4.52-3.71-11.33-2.64-16.77-2.57-7.25.09-19.26-2.24-26.48.78-9.66,4.03-11.42,22.99-13.83,31.38-8.57,29.87-17.14,59.73-25.71,89.6l17.34-.07c10.15-35.35,20.32-70.7,30.44-106.06,1.57-5.49,2.61-11.62,8.26-14.39,8.63-4.24,25.3-1.72,34.25-1.18s13.22,5.01,14.95,13.78h0Z"/>
    <path class="cls-1" d="m134.25,178.33c9.65,17.38,43.62,12.46,56.52,3.35l-17.17.08c-12.91,9.13-46.96,14.05-56.63-3.36,5.76-.02,11.52-.05,17.28-.07Z"/>
    <path class="cls-1" d="m140.69,211.15c-7.66-8.97-9.56-21.61-6.44-32.81l-17.28.07c-3.13,11.24-1.22,23.89,6.45,32.89,5.75-.05,11.51-.1,17.26-.14Z"/>
    <path class="cls-1" d="m168.57,235.35c-10.98-4.96-10.55-14.06-12.27-24.09-1.74-10.15-15.45-12.09-15.62-.12l-17.26.14c.21-12.01,13.91-10.06,15.65.12,1.72,10.03,1.29,19.19,12.29,24.14,5.74-.07,11.47-.13,17.21-.2Z"/>
    <path class="cls-1" d="m191.81,188.84c-.07,20.25-32.63,25.62-23.24,46.51l-17.21.2c-3.87-8.6-.69-16.07,6.34-21.48,10.78-8.31,20.23-17.42,15.9-32.3l17.17-.08c.68,2.32,1.03,4.73,1.04,7.15h0Z"/>
    <path class="cls-1" d="m230.41,193c-.78-20.82-10.96-43.4-16.84-63.08-8-26.77-15.73-53.65-23.99-80.35-4.98-16.1-13.88-15.95-29.27-15.92-13.27.03-26.67-.52-39.92-.03-7.15.26-12.37,1.05-16.31,7.44-2.46,3.99-3.26,9.2-4.53,13.67-4.04,14.2-8.32,28.34-12.48,42.51-7.59,25.87-15.36,51.71-22.99,77.56-5.66,19.19-2.09,31.61,14.36,43.28,17.89,12.7,36.29,29.93,56.35,39.05,18.21,8.28,34.13-8.5,48.13-18.29,15.51-10.85,45.74-24.01,47.5-45.87h0Z"/>
    <path class="cls-1" d="m247.31,190.02c2.04,18.46-18.05,28.22-30.71,37.07-11.32,7.92-22.55,16-33.88,23.9-5.93,4.14-12.47,8.46-19.94,8.58s-14.08-4.17-20.07-8.34c-11.07-7.71-21.94-15.81-32.95-23.64-13.03-9.26-31.08-17.97-31.35-36.16-.29-19.81,11.31-44.05,16.74-62.55,7.75-26.41,15.07-52.99,23.22-79.27,4.91-15.85,13.98-15.62,29.05-15.65,13.26-.03,26.62-.56,39.86-.18,7.09.2,12.37.99,16.31,7.33,3.06,4.94,4.09,11.96,5.73,17.47,5.16,17.26,10.32,34.52,15.48,51.78,7.5,25.07,20.39,53.26,22.51,79.66h0Z"/>
    <path class="cls-1" d="m174.03,68.48l30.95,108.12c-11.56-6.35-24.04-10.87-37-13.32-4.32-15.54-8.63-31.09-12.95-46.63-.88-3.18-4.52-27.93-9.66-27.71-5.4.23-8.24,22.87-9.22,26.42-4.38,15.96-8.76,31.92-13.14,47.87-12.99,2.43-25.49,6.95-37.07,13.32,10.17-35.43,20.36-70.85,30.5-106.29,1.58-5.5,2.61-11.64,8.28-14.43,8.65-4.25,25.35-1.72,34.32-1.18,9.09.55,13.24,5.03,14.97,13.81h0Z"/>
    <path class="cls-1" d="m222.09,176.53c-7.48-26.11-14.95-52.22-22.43-78.33-2.72-9.5-4.86-33.35-13.74-40.63-4.52-3.7-11.31-2.63-16.74-2.57-7.23.09-19.22-2.23-26.42.78-9.64,4.03-11.39,22.94-13.8,31.32-8.55,29.8-17.11,59.6-25.66,89.4,11.55-6.35,24.03-10.86,37-13.29,4.25-15.5,8.51-31,12.76-46.5.87-3.18,4.42-27.84,9.55-27.63,5.39.22,8.3,22.83,9.29,26.37,4.43,15.93,8.85,31.86,13.28,47.8,12.94,2.45,25.39,6.95,36.93,13.29h0Z"/>
    <path class="cls-1" d="m174.65,188.93c-.07,20.29-32.69,25.68-23.29,46.61-10.98-4.95-10.61-14.1-12.29-24.14-1.71-10.21-15.48-12.08-15.65-.12-7.68-8.99-9.57-21.66-6.45-32.89,9.67,17.42,43.72,12.48,56.63,3.36.68,2.33,1.03,4.74,1.04,7.17h0Z"/>
    <path class="cls-1" d="m191.77,190.3c.15-2.9-.18-5.82-1-8.61-12.9,9.11-46.87,14.02-56.52-3.35-3.12,11.21-1.21,23.83,6.44,32.81.21-11.98,13.88-10.04,15.62.12,1.72,10.04,1.3,19.11,12.27,24.09-9.24-20.55,22.02-25.86,23.2-45.05h0Z"/>
  </g>
  <g>
    <path class="cls-3" d="m230.63,190.12c2.05,18.5-18.08,28.28-30.77,37.16-11.34,7.93-22.6,16.04-33.94,23.95-5.94,4.14-12.49,8.48-19.98,8.6s-14.11-4.18-20.11-8.36c-11.09-7.73-21.98-15.85-33.01-23.69-13.06-9.28-31.14-18.01-31.41-36.24-.29-19.85,11.33-44.15,16.77-62.69,7.77-26.46,15.1-53.11,23.27-79.45,4.92-15.88,14-15.66,29.1-15.69,13.28-.03,26.67-.56,39.94-.18,7.1.2,12.39.99,16.34,7.35,3.07,4.95,4.1,11.99,5.74,17.51,5.17,17.3,10.34,34.59,15.51,51.89,7.51,25.13,20.43,53.38,22.55,79.84h0Z"/>
    <path class="cls-3" d="m247.85,192.9c-.77-20.78-10.94-43.31-16.81-62.94-7.99-26.71-15.7-53.53-23.94-80.17-4.97-16.07-13.85-15.92-29.21-15.89-13.24.03-26.62-.51-39.84-.03-7.13.26-12.34,1.04-16.28,7.43-2.46,3.98-3.25,9.18-4.52,13.64-4.03,14.17-8.3,28.28-12.45,42.42-7.58,25.81-15.33,51.6-22.95,77.39-5.65,19.15-2.08,31.54,14.33,43.19,17.86,12.67,36.23,29.86,56.24,38.97,18.17,8.27,34.07-8.48,48.03-18.25,15.48-10.82,45.65-23.96,47.41-45.76h0Z"/>
    <path class="cls-3" d="m140.67,163.2c-12.96,2.43-25.44,6.94-37,13.29l-17.34.07c17.66-9.71,34.34-13.32,54.33-13.36Z"/>
    <path class="cls-3" d="m185.54,163.24c-4.31-15.51-8.62-31.02-12.92-46.53-.88-3.18-4.51-27.86-9.64-27.64-5.39.23-8.22,22.82-9.2,26.36-4.37,15.92-8.74,31.85-13.11,47.77l-17.26.04c4.26-15.53,8.53-31.07,12.79-46.6.87-3.19,4.43-27.9,9.56-27.69,5.4.22,8.32,22.88,9.3,26.43,4.43,15.97,8.87,31.93,13.3,47.9,5.73-.01,11.45-.02,17.18-.04Z"/>
    <path class="cls-3" d="m222.47,176.53c-17.61-9.66-34.18-13.3-54.11-13.25,12.96,2.45,25.44,6.97,37,13.32,5.7-.02,11.4-.04,17.11-.07Z"/>
    <path class="cls-3" d="m191.57,68.65l30.89,107.88-17.11.07c-7.49-26.17-14.98-52.33-22.47-78.5-2.73-9.52-4.87-33.42-13.77-40.72-4.52-3.71-11.33-2.64-16.77-2.57-7.25.09-19.26-2.24-26.48.78-9.66,4.03-11.42,22.99-13.83,31.38-8.57,29.87-17.14,59.73-25.71,89.6l17.34-.07c10.15-35.35,20.32-70.7,30.44-106.06,1.57-5.49,2.61-11.62,8.26-14.39,8.63-4.24,25.3-1.72,34.25-1.18s13.22,5.01,14.95,13.78h0Z"/>
    <path class="cls-3" d="m134.63,178.33c9.65,17.38,43.62,12.46,56.52,3.35l-17.17.08c-12.91,9.13-46.96,14.05-56.63-3.36,5.76-.02,11.52-.05,17.28-.07Z"/>
    <path class="cls-3" d="m141.06,211.15c-7.66-8.97-9.56-21.61-6.44-32.81l-17.28.07c-3.13,11.24-1.22,23.89,6.45,32.89,5.75-.05,11.51-.1,17.26-.14Z"/>
    <path class="cls-3" d="m168.95,235.35c-10.98-4.96-10.55-14.06-12.27-24.09-1.74-10.15-15.45-12.09-15.62-.12l-17.26.14c.21-12.01,13.91-10.06,15.65.12,1.72,10.03,1.29,19.19,12.29,24.14,5.74-.07,11.47-.13,17.21-.2Z"/>
    <path class="cls-3" d="m192.19,188.84c-.07,20.25-32.63,25.62-23.24,46.51l-17.21.2c-3.87-8.6-.69-16.07,6.34-21.48,10.78-8.31,20.23-17.42,15.9-32.3l17.17-.08c.68,2.32,1.03,4.73,1.04,7.15h0Z"/>
    <path class="cls-3" d="m230.79,193c-.78-20.82-10.96-43.4-16.84-63.08-8-26.77-15.73-53.65-23.99-80.35-4.98-16.1-13.88-15.95-29.27-15.92-13.27.03-26.67-.52-39.92-.03-7.15.26-12.37,1.05-16.31,7.44-2.46,3.99-3.26,9.2-4.53,13.67-4.04,14.2-8.32,28.34-12.48,42.51-7.59,25.87-15.36,51.71-22.99,77.56-5.66,19.19-2.09,31.61,14.36,43.28,17.89,12.7,36.29,29.93,56.35,39.05,18.21,8.28,34.13-8.5,48.13-18.29,15.51-10.85,45.74-24.01,47.5-45.87h0Z"/>
    <path class="cls-3" d="m247.68,190.02c2.04,18.46-18.05,28.22-30.71,37.07-11.32,7.92-22.55,16-33.88,23.9-5.93,4.14-12.47,8.46-19.94,8.58s-14.08-4.17-20.07-8.34c-11.07-7.71-21.94-15.81-32.95-23.64-13.03-9.26-31.08-17.97-31.35-36.16-.29-19.81,11.31-44.05,16.74-62.55,7.75-26.41,15.07-52.99,23.22-79.27,4.91-15.85,13.98-15.62,29.05-15.65,13.26-.03,26.62-.56,39.86-.18,7.09.2,12.37.99,16.31,7.33,3.06,4.94,4.09,11.96,5.73,17.47,5.16,17.26,10.32,34.52,15.48,51.78,7.5,25.07,20.39,53.26,22.51,79.66h0Z"/>
    <path class="cls-3" d="m174.41,68.48l30.95,108.12c-11.56-6.35-24.04-10.87-37-13.32-4.32-15.54-8.63-31.09-12.95-46.63-.88-3.18-4.52-27.93-9.66-27.71-5.4.23-8.24,22.87-9.22,26.42-4.38,15.96-8.76,31.92-13.14,47.87-12.99,2.43-25.49,6.95-37.07,13.32,10.17-35.43,20.36-70.85,30.5-106.29,1.58-5.5,2.61-11.64,8.28-14.43,8.65-4.25,25.35-1.72,34.32-1.18,9.09.55,13.24,5.03,14.97,13.81h0Z"/>
    <path class="cls-3" d="m222.47,176.53c-7.48-26.11-14.95-52.22-22.43-78.33-2.72-9.5-4.86-33.35-13.74-40.63-4.52-3.7-11.31-2.63-16.74-2.57-7.23.09-19.22-2.23-26.42.78-9.64,4.03-11.39,22.94-13.8,31.32-8.55,29.8-17.11,59.6-25.66,89.4,11.55-6.35,24.03-10.86,37-13.29,4.25-15.5,8.51-31,12.76-46.5.87-3.18,4.42-27.84,9.55-27.63,5.39.22,8.3,22.83,9.29,26.37,4.43,15.93,8.85,31.86,13.28,47.8,12.94,2.45,25.39,6.95,36.93,13.29h0Z"/>
    <path class="cls-3" d="m175.02,188.93c-.07,20.29-32.69,25.68-23.29,46.61-10.98-4.95-10.61-14.1-12.29-24.14-1.71-10.21-15.48-12.08-15.65-.12-7.68-8.99-9.57-21.66-6.45-32.89,9.67,17.42,43.72,12.48,56.63,3.36.68,2.33,1.03,4.74,1.04,7.17h0Z"/>
    <path class="cls-3" d="m192.15,190.3c.15-2.9-.18-5.82-1-8.61-12.9,9.11-46.87,14.02-56.52-3.35-3.12,11.21-1.21,23.83,6.44,32.81.21-11.98,13.88-10.04,15.62.12,1.72,10.04,1.3,19.11,12.27,24.09-9.24-20.55,22.02-25.86,23.2-45.05h0Z"/>
  </g>
</svg>