<?xml version="1.0" encoding="UTF-8"?>
<svg id="Layer_1" data-name="Layer 1" xmlns="http://www.w3.org/2000/svg" viewBox="0 0 300 300">
  <defs>
    <style>
      .cls-1 {
        fill: #f5f5f5;
      }

      .cls-1, .cls-2 {
        stroke-width: 0px;
      }

      .cls-3 {
        fill: none;
        stroke: #000;
        stroke-linejoin: bevel;
        stroke-width: 2px;
      }

      .cls-2 {
        fill: #191919;
      }
    </style>
  </defs>
  <g id="c133de6af664cd4f011a55de6b001b19">
    <path class="cls-2" d="m73.95,63.95l15.44,178.2-16.03.17-15.47-178.58,16.06.21Z"/>
    <path class="cls-2" d="m239.08,63.67c-60.39.1-120.81.86-181.19.08,60.39-.1,120.81-.88,181.19-.08Z"/>
    <polygon class="cls-2" points="156.4 261.47 223.55 242.35 207.76 242.51 140.48 261.68 73.36 242.33 89.39 242.16 156.4 261.47 156.4 261.47"/>
    <path class="cls-2" d="m223.55,242.35l15.52-178.68-15.76-.21-15.55,179.05,15.79-.17Z"/>
    <path class="cls-2" d="m106.55,121.68l-2.5-21.53-16.01-.13,2.5,21.57c5.33.03,10.67.06,16,.09Z"/>
    <path class="cls-2" d="m159.13,121.64c-22.86.02-45.73.07-68.59-.05,22.86-.02,45.73-.08,68.59.05Z"/>
    <path class="cls-2" d="m108.36,144.18c16.92-7.51,33.85-15.03,50.77-22.53l-15.91-.09c-16.96,7.52-33.91,15.05-50.86,22.58,5.33.01,10.67.03,16,.04Z"/>
    <path class="cls-2" d="m109.95,165.22l-1.59-21.05-16-.04,1.59,21.09h16Z"/>
    <path class="cls-2" d="m181.23,165.47c-29.09-.1-58.18-.25-87.27-.24,29.09.1,58.18.25,87.27.24Z"/>
    <path class="cls-2" d="m179.63,193.56l1.59-28.1h-15.87s-1.6,28.16-1.6,28.16c5.29-.02,10.58-.04,15.87-.07Z"/>
    <path class="cls-2" d="m133.66,194.51l22.48,6.05c7.83-2.33,15.66-4.67,23.49-7l-15.87.07c-7.84,2.34-15.69,4.68-23.53,7.01l-22.52-6.07,15.95-.07Z"/>
    <path class="cls-2" d="m132.3,177.08l1.36,17.43-15.95.07-1.37-17.46,15.96-.03Z"/>
    <path class="cls-2" d="m111.32,177.08h20.98c-12.33.03-24.65.03-36.98.03,5.33-.01,10.66-.02,15.99-.03Z"/>
    <path class="cls-2" d="m114.04,210.71l-2.73-33.63-15.99.03,2.73,33.7c5.33-.03,10.66-.07,15.99-.1Z"/>
    <path class="cls-2" d="m198.54,211.02l-42.13,13.04-42.37-13.35-15.99.1,42.45,13.38,42.2-13.07,15.84-.1Z"/>
    <path class="cls-2" d="m204.01,144.14l-5.47,66.88-15.84.1,5.48-67.02,15.83.04Z"/>
    <path class="cls-2" d="m156.34,144.11l47.67.04c-21.2-.05-42.39-.06-63.59-.08l15.91.04Z"/>
    <path class="cls-2" d="m205.76,121.61l-49.42,22.5-15.91-.04,49.51-22.55,15.82.09Z"/>
    <path class="cls-2" d="m104.05,100.15l103.76-.11c-39.92-.33-79.85-.06-119.77-.02l16.01.13Z"/>
    <path class="cls-2" d="m207.81,100.04l-2.05,21.57-15.82-.09,2.05-21.61,15.82.13Z"/>
    <polygon class="cls-2" points="207.76 242.51 223.32 63.46 57.89 63.75 73.36 242.33 140.48 261.68 207.76 242.51 207.76 242.51"/>
    <path class="cls-2" d="m239.08,63.67l-15.52,178.68-67.16,19.12-67-19.31-15.44-178.2c55.04-.1,110.08-.19,165.12-.29Z"/>
    <path class="cls-2" d="m191.99,99.91l-2.05,21.61-49.51,22.55,47.76.04-5.48,67.02-42.2,13.07-42.45-13.38-2.73-33.7h21.02s1.37,17.47,1.37,17.47l22.52,6.07c7.84-2.34,15.69-4.67,23.53-7.01l1.6-28.16c-23.8-.08-47.6-.16-71.4-.25l-1.59-21.09c16.95-7.53,33.91-15.06,50.86-22.58l-52.68.04-2.5-21.57c34.65-.04,69.3-.08,103.95-.11Z"/>
    <path class="cls-2" d="m205.76,121.61l2.05-21.57-103.76.11,2.5,21.53,52.59-.04c-16.93,7.51-33.85,15.02-50.77,22.53l1.59,21.05c23.76.08,47.51.17,71.27.25l-1.59,28.1c-7.83,2.33-15.66,4.67-23.49,7l-22.48-6.05-1.36-17.43h-20.98s2.73,33.63,2.73,33.63l42.37,13.35,42.13-13.04,5.47-66.88-47.67-.04,49.42-22.5h0Z"/>
  </g>
  <g id="c133de6af664cd4f011a55de6b001b19-2" data-name="c133de6af664cd4f011a55de6b001b19">
    <path class="cls-1" d="m83.72,54.5l15.44,178.2-16.03.17-15.47-178.58,16.06.21Z"/>
    <path class="cls-1" d="m248.85,54.22c-60.39.1-120.81.86-181.19.08,60.39-.1,120.81-.88,181.19-.08Z"/>
    <polygon class="cls-1" points="166.17 252.02 233.32 232.89 217.54 233.06 150.25 252.23 83.13 232.87 99.16 232.71 166.17 252.02 166.17 252.02"/>
    <path class="cls-1" d="m233.32,232.89l15.52-178.68-15.76-.21-15.55,179.05c5.26-.06,10.53-.11,15.79-.17Z"/>
    <path class="cls-1" d="m116.32,112.23l-2.5-21.53-16.01-.13,2.5,21.57c5.33.03,10.67.06,16,.09Z"/>
    <path class="cls-1" d="m168.9,112.19c-22.86.02-45.73.07-68.59-.05,22.86-.02,45.73-.08,68.59.05Z"/>
    <path class="cls-1" d="m118.13,134.72c16.92-7.51,33.85-15.03,50.77-22.53l-15.91-.09c-16.96,7.52-33.91,15.05-50.86,22.58l16,.04Z"/>
    <path class="cls-1" d="m119.72,155.77l-1.59-21.05-16-.04,1.59,21.09h16Z"/>
    <path class="cls-1" d="m191,156.01c-29.09-.1-58.18-.25-87.27-.24,29.09.1,58.18.25,87.27.24Z"/>
    <path class="cls-1" d="m189.4,184.11l1.59-28.1h-15.87s-1.6,28.16-1.6,28.16c5.29-.02,10.58-.04,15.87-.07Z"/>
    <path class="cls-1" d="m143.43,185.05l22.48,6.05c7.83-2.33,15.66-4.67,23.49-7l-15.87.07c-7.84,2.34-15.69,4.68-23.53,7.01l-22.52-6.07,15.95-.07Z"/>
    <path class="cls-1" d="m142.07,167.63l1.36,17.43-15.95.07-1.37-17.46,15.96-.03Z"/>
    <path class="cls-1" d="m121.09,167.62h20.98c-12.33.03-24.65.03-36.98.03,5.33-.01,10.66-.02,15.99-.03Z"/>
    <path class="cls-1" d="m123.81,201.25l-2.73-33.63-15.99.03,2.73,33.7,15.99-.1Z"/>
    <path class="cls-1" d="m208.31,201.57l-42.13,13.04-42.37-13.35-15.99.1,42.45,13.38,42.2-13.07c5.28-.03,10.56-.07,15.84-.1Z"/>
    <path class="cls-1" d="m213.78,134.69l-5.47,66.88-15.84.1,5.48-67.02,15.83.04Z"/>
    <path class="cls-1" d="m166.11,134.65l47.67.04c-21.2-.05-42.39-.06-63.59-.08l15.91.04Z"/>
    <path class="cls-1" d="m215.53,112.15l-49.42,22.5-15.91-.04,49.51-22.55c5.27.03,10.55.06,15.82.09Z"/>
    <path class="cls-1" d="m113.82,90.7l103.76-.11c-39.92-.33-79.85-.06-119.77-.02l16.01.13Z"/>
    <path class="cls-1" d="m217.58,90.59l-2.05,21.57-15.82-.09,2.05-21.61,15.82.13Z"/>
    <polygon class="cls-1" points="217.54 233.06 233.09 54.01 67.66 54.29 83.13 232.87 150.25 252.23 217.54 233.06 217.54 233.06"/>
    <path class="cls-1" d="m248.85,54.22l-15.52,178.68-67.16,19.12-67-19.31-15.44-178.2c55.04-.1,110.08-.19,165.12-.29Z"/>
    <path class="cls-1" d="m201.76,90.45l-2.05,21.61-49.51,22.55,47.76.04-5.48,67.02-42.2,13.07-42.45-13.38-2.73-33.7h21.02s1.37,17.47,1.37,17.47l22.52,6.07c7.84-2.34,15.69-4.67,23.53-7.01l1.6-28.16c-23.8-.08-47.6-.16-71.4-.25l-1.59-21.09c16.95-7.53,33.91-15.06,50.86-22.58l-52.68.04-2.5-21.57c34.65-.04,69.3-.08,103.95-.11Z"/>
    <path class="cls-1" d="m215.53,112.15l2.05-21.57-103.76.11,2.5,21.53,52.59-.04c-16.93,7.51-33.85,15.02-50.77,22.53l1.59,21.05c23.76.08,47.51.17,71.27.25l-1.59,28.1c-7.83,2.33-15.66,4.67-23.49,7l-22.48-6.05-1.36-17.43h-20.98s2.73,33.63,2.73,33.63l42.37,13.35,42.13-13.04,5.47-66.88-47.67-.04,49.42-22.5h0Z"/>
  </g>
  <g id="c133de6af664cd4f011a55de6b001b19-3" data-name="c133de6af664cd4f011a55de6b001b19">
    <path class="cls-3" d="m84.85,55.39l15.44,178.2-16.03.17-15.47-178.58,16.06.21Z"/>
    <path class="cls-3" d="m249.97,55.11c-60.39.1-120.81.86-181.19.08,60.39-.1,120.81-.88,181.19-.08Z"/>
    <polygon class="cls-3" points="167.29 252.91 234.45 233.78 218.66 233.95 151.38 253.12 84.25 233.77 100.29 233.6 167.29 252.91 167.29 252.91"/>
    <path class="cls-3" d="m234.45,233.78l15.52-178.68-15.76-.21-15.55,179.05c5.26-.06,10.53-.11,15.79-.17Z"/>
    <path class="cls-3" d="m117.44,113.12l-2.5-21.53-16.01-.13,2.5,21.57,16,.09Z"/>
    <path class="cls-3" d="m170.03,113.08c-22.86.02-45.73.07-68.59-.05,22.86-.02,45.73-.08,68.59.05Z"/>
    <path class="cls-3" d="m119.26,135.61c16.92-7.51,33.85-15.03,50.77-22.53l-15.91-.09c-16.96,7.52-33.91,15.05-50.86,22.58l16,.04Z"/>
    <path class="cls-3" d="m120.85,156.66l-1.59-21.05-16-.04,1.59,21.09h16Z"/>
    <path class="cls-3" d="m192.12,156.91c-29.09-.1-58.18-.25-87.27-.24,29.09.1,58.18.25,87.27.24Z"/>
    <path class="cls-3" d="m190.52,185l1.59-28.1h-15.87s-1.6,28.16-1.6,28.16l15.87-.07Z"/>
    <path class="cls-3" d="m144.56,185.95l22.48,6.05c7.83-2.33,15.66-4.67,23.49-7l-15.87.07c-7.84,2.34-15.69,4.68-23.53,7.01l-22.52-6.07,15.95-.07Z"/>
    <path class="cls-3" d="m143.19,168.52l1.36,17.43-15.95.07-1.37-17.46,15.96-.03Z"/>
    <path class="cls-3" d="m122.21,168.52h20.98c-12.33.03-24.65.03-36.98.03l15.99-.03Z"/>
    <path class="cls-3" d="m124.94,202.15l-2.73-33.63-15.99.03,2.73,33.7,15.99-.1Z"/>
    <path class="cls-3" d="m209.43,202.46l-42.13,13.04-42.37-13.35-15.99.1,42.45,13.38,42.2-13.07c5.28-.03,10.56-.07,15.84-.1Z"/>
    <path class="cls-3" d="m214.9,135.58l-5.47,66.88-15.84.1,5.48-67.02c5.28.01,10.55.03,15.83.04Z"/>
    <path class="cls-3" d="m167.23,135.54l47.67.04c-21.2-.05-42.39-.06-63.59-.08l15.91.04Z"/>
    <path class="cls-3" d="m216.65,113.05l-49.42,22.5-15.91-.04,49.51-22.55,15.82.09Z"/>
    <path class="cls-3" d="m114.94,91.59l103.76-.11c-39.92-.33-79.85-.06-119.77-.02l16.01.13Z"/>
    <path class="cls-3" d="m218.7,91.48l-2.05,21.57-15.82-.09,2.05-21.61,15.82.13Z"/>
    <polygon class="cls-3" points="218.66 233.95 234.21 54.9 68.78 55.19 84.25 233.77 151.38 253.12 218.66 233.95 218.66 233.95"/>
    <path class="cls-3" d="m249.97,55.11l-15.52,178.68-67.16,19.12-67-19.31-15.44-178.2c55.04-.1,110.08-.19,165.12-.29Z"/>
    <path class="cls-3" d="m202.88,91.35l-2.05,21.61-49.51,22.55,47.76.04-5.48,67.02-42.2,13.07-42.45-13.38-2.73-33.7h21.02s1.37,17.47,1.37,17.47l22.52,6.07c7.84-2.34,15.69-4.67,23.53-7.01l1.6-28.16c-23.8-.08-47.6-.16-71.4-.25l-1.59-21.09c16.95-7.53,33.91-15.06,50.86-22.58l-52.68.04-2.5-21.57c34.65-.04,69.3-.08,103.95-.11Z"/>
    <path class="cls-3" d="m216.65,113.05l2.05-21.57-103.76.11,2.5,21.53,52.59-.04c-16.93,7.51-33.85,15.02-50.77,22.53l1.59,21.05c23.76.08,47.51.17,71.27.25l-1.59,28.1c-7.83,2.33-15.66,4.67-23.49,7l-22.48-6.05-1.36-17.43h-20.98s2.73,33.63,2.73,33.63l42.37,13.35,42.13-13.04,5.47-66.88-47.67-.04,49.42-22.5h0Z"/>
  </g>
</svg>