<?xml version="1.0" encoding="UTF-8"?>
<svg id="Layer_1" data-name="Layer 1" xmlns="http://www.w3.org/2000/svg" viewBox="0 0 300 300">
  <defs>
    <style>
      .cls-1 {
        fill: #f5f5f5;
      }

      .cls-1, .cls-2 {
        stroke-width: 0px;
      }

      .cls-3 {
        fill: none;
        stroke: #000;
        stroke-linejoin: bevel;
        stroke-width: 2px;
      }

      .cls-2 {
        fill: #191919;
      }
    </style>
  </defs>
  <g id="Page-1">
    <path class="cls-2" d="m61.9,63.97l15.53,183.26-17.28.18-15.56-183.66c5.77.07,11.54.15,17.31.22Z"/>
    <path class="cls-2" d="m232.96,63.68c-62.78.11-125.59.87-188.36.07,62.78-.11,125.59-.89,188.36-.07Z"/>
    <path class="cls-2" d="m147.2,266.06l70.13-19.01c-29.88.32-58.53,11.43-87.27,19.23l-69.91-18.87,17.28-.18,69.78,18.82h0Z"/>
    <path class="cls-2" d="m217.33,247.05l15.63-183.37-16.98-.22-15.66,183.77c5.67-.06,11.34-.12,17.01-.18Z"/>
    <path class="cls-2" d="m171.15,196.3l2.45-31.36h-17.09l-2.46,31.43c5.7-.02,11.4-.05,17.1-.07Z"/>
    <path class="cls-2" d="m123.37,195.9l23.87,9.49,23.91-9.09-17.1.07-23.96,9.11-23.92-9.51,17.19-.07Z"/>
    <path class="cls-2" d="m121.85,175.05l1.52,20.85-17.19.07-1.52-20.9,17.19-.02Z"/>
    <path class="cls-2" d="m100.37,175.05h21.47c-12.9.02-25.8.02-38.71.02,5.74,0,11.49-.01,17.23-.02Z"/>
    <path class="cls-2" d="m103.37,213.8l-3-38.76-17.23.02,3.01,38.84c5.74-.04,11.48-.07,17.23-.11Z"/>
    <path class="cls-2" d="m191.16,217.08l-43.87,13.09-43.93-16.37-17.23.11,44.01,16.4,43.95-13.12c5.69-.04,11.37-.08,17.06-.11Z"/>
    <path class="cls-2" d="m197.05,144.7c-1.59,24.16-4.07,48.24-5.88,72.38l-17.06.11c1.82-24.19,4.3-48.33,5.89-72.54,5.68.01,11.37.03,17.05.04Z"/>
    <path class="cls-2" d="m118.98,144.73l78.07-.03c-31.76-.08-63.51-.03-95.27-.02l17.2.04Z"/>
    <path class="cls-2" d="m117.02,124.52l1.96,20.21-17.2-.04-1.96-20.26c5.73.03,11.47.06,17.2.09Z"/>
    <path class="cls-2" d="m199,124.46c-33.06.02-66.12.14-99.18-.03,33.06-.02,66.12-.14,99.18.03Z"/>
    <path class="cls-2" d="m200.92,104.22c-.61,6.75-1.22,13.5-1.92,20.24l-17.05-.09c.7-6.76,1.32-13.52,1.93-20.29,5.68.04,11.36.09,17.04.13Z"/>
    <path class="cls-2" d="m93.69,104.55l-.04-.22-17.25-.13c2.92,20.07,4,40.54,5.78,60.75h17.23c-1.77-20.1-2.98-40.4-5.73-60.39h0Z"/>
    <path class="cls-2" d="m93.65,104.33l107.28-.11c-41.5-.32-83.02-.07-124.52-.02,5.75.04,11.5.09,17.25.13Z"/>
    <polygon class="cls-2" points="200.32 247.23 215.97 63.46 44.59 63.75 60.15 247.41 130.06 266.28 200.32 247.23 200.32 247.23"/>
    <path class="cls-2" d="m232.96,63.68l-15.63,183.37-70.13,19.01-69.78-18.82-15.53-183.26c57.02-.1,114.04-.19,171.06-.29Z"/>
    <path class="cls-2" d="m76.4,104.19l107.48-.11c-.61,6.77-1.22,13.53-1.93,20.29l-82.13.06,1.96,20.26,78.22-.03c-1.59,24.21-4.08,48.35-5.89,72.54l-43.95,13.12-44.01-16.4-3.01-38.84h21.51s1.52,20.9,1.52,20.9l23.92,9.51,23.96-9.11,2.46-31.43h-74.34c-1.78-20.2-2.86-40.67-5.78-60.75h0Z"/>
    <path class="cls-2" d="m200.92,104.22l-107.28.11c2.91,20.03,3.99,40.46,5.77,60.61h74.19l-2.45,31.36-23.91,9.09-23.87-9.49-1.52-20.85h-21.47s3,38.76,3,38.76l43.93,16.37,43.87-13.09c1.81-24.14,4.3-48.23,5.88-72.38l-78.07.03-1.96-20.21,81.98-.06c.7-6.74,1.32-13.49,1.92-20.24h0Z"/>
  </g>
  <g id="Page-1-2" data-name="Page-1">
    <path class="cls-1" d="m73.66,54.53l15.53,183.26-17.28.18-15.56-183.66c5.77.07,11.54.15,17.31.22Z"/>
    <path class="cls-1" d="m244.72,54.24c-62.78.11-125.59.87-188.36.07,62.78-.11,125.59-.89,188.36-.07Z"/>
    <path class="cls-1" d="m158.96,256.62l70.13-19.01c-29.88.32-58.53,11.43-87.27,19.23l-69.91-18.87,17.28-.18,69.78,18.82h0Z"/>
    <path class="cls-1" d="m229.09,237.61l15.63-183.37-16.98-.22-15.66,183.77c5.67-.06,11.34-.12,17.01-.18Z"/>
    <path class="cls-1" d="m182.91,186.86l2.45-31.36h-17.09l-2.46,31.43c5.7-.02,11.4-.05,17.1-.07Z"/>
    <path class="cls-1" d="m135.13,186.46l23.87,9.49,23.91-9.09-17.1.07-23.96,9.11-23.92-9.51c5.73-.02,11.46-.05,17.19-.07Z"/>
    <path class="cls-1" d="m133.6,165.61l1.52,20.85-17.19.07-1.52-20.9,17.19-.02Z"/>
    <path class="cls-1" d="m112.13,165.6h21.47c-12.9.02-25.8.02-38.71.02,5.74,0,11.49-.01,17.23-.02Z"/>
    <path class="cls-1" d="m115.13,204.36l-3-38.76-17.23.02,3.01,38.84c5.74-.04,11.48-.07,17.23-.11Z"/>
    <path class="cls-1" d="m202.92,207.64l-43.87,13.09-43.93-16.37-17.23.11,44.01,16.4,43.95-13.12c5.69-.04,11.37-.08,17.06-.11Z"/>
    <path class="cls-1" d="m208.81,135.26c-1.59,24.16-4.07,48.24-5.88,72.38l-17.06.11c1.82-24.19,4.3-48.33,5.89-72.54,5.68.01,11.37.03,17.05.04Z"/>
    <path class="cls-1" d="m130.74,135.29l78.07-.03c-31.76-.08-63.51-.03-95.27-.02,5.73.01,11.47.03,17.2.04Z"/>
    <path class="cls-1" d="m128.78,115.07l1.96,20.21-17.2-.04-1.96-20.26c5.73.03,11.47.06,17.2.09Z"/>
    <path class="cls-1" d="m210.76,115.02c-33.06.02-66.12.14-99.18-.03,33.06-.02,66.12-.14,99.18.03Z"/>
    <path class="cls-1" d="m212.68,94.78c-.61,6.75-1.22,13.5-1.92,20.24l-17.05-.09c.7-6.76,1.32-13.52,1.93-20.29,5.68.04,11.36.09,17.04.13Z"/>
    <path class="cls-1" d="m105.45,95.11l-.04-.22-17.25-.13c2.92,20.07,4,40.54,5.78,60.75h17.23c-1.77-20.1-2.98-40.4-5.73-60.39h0Z"/>
    <path class="cls-1" d="m105.41,94.88l107.28-.11c-41.5-.32-83.02-.07-124.52-.02,5.75.04,11.5.09,17.25.13Z"/>
    <polygon class="cls-1" points="212.08 237.79 227.73 54.02 56.35 54.31 71.91 237.97 141.82 256.84 212.08 237.79 212.08 237.79"/>
    <path class="cls-1" d="m244.72,54.24l-15.63,183.37-70.13,19.01-69.78-18.82-15.53-183.26c57.02-.1,114.04-.19,171.06-.29Z"/>
    <path class="cls-1" d="m88.16,94.75l107.48-.11c-.61,6.77-1.22,13.53-1.93,20.29l-82.13.06,1.96,20.26,78.22-.03c-1.59,24.21-4.08,48.35-5.89,72.54l-43.95,13.12-44.01-16.4-3.01-38.84h21.51s1.52,20.9,1.52,20.9l23.92,9.51,23.96-9.11,2.46-31.43h-74.34c-1.78-20.2-2.86-40.67-5.78-60.75h0Z"/>
    <path class="cls-1" d="m212.68,94.78l-107.28.11c2.91,20.03,3.99,40.46,5.77,60.61h74.19l-2.45,31.36-23.91,9.09-23.87-9.49-1.52-20.85h-21.47s3,38.76,3,38.76l43.93,16.37,43.87-13.09c1.81-24.14,4.3-48.23,5.88-72.38l-78.07.03-1.96-20.21,81.98-.06c.7-6.74,1.32-13.49,1.92-20.24h0Z"/>
  </g>
  <g id="Page-1-3" data-name="Page-1">
    <path class="cls-3" d="m73.66,54.38l15.53,183.26-17.28.18-15.56-183.66,17.31.22Z"/>
    <path class="cls-3" d="m244.72,54.09c-62.78.11-125.59.87-188.36.07,62.78-.11,125.59-.89,188.36-.07Z"/>
    <path class="cls-3" d="m158.96,256.47l70.13-19.01c-29.88.32-58.53,11.43-87.27,19.23l-69.91-18.87,17.28-.18,69.78,18.82h0Z"/>
    <path class="cls-3" d="m229.09,237.46l15.63-183.37-16.98-.22-15.66,183.77c5.67-.06,11.34-.12,17.01-.18Z"/>
    <path class="cls-3" d="m185.37,155.35h-91.43,91.43Z"/>
    <path class="cls-3" d="m182.91,186.71l2.45-31.36h-17.09l-2.46,31.43,17.1-.07Z"/>
    <path class="cls-3" d="m135.13,186.31l23.87,9.49,23.91-9.09-17.1.07-23.96,9.11-23.92-9.51,17.19-.07Z"/>
    <path class="cls-3" d="m133.6,165.46l1.52,20.85-17.19.07-1.52-20.9,17.19-.02Z"/>
    <path class="cls-3" d="m112.13,165.46h21.47c-12.9.02-25.8.02-38.71.02l17.23-.02Z"/>
    <path class="cls-3" d="m115.13,204.22l-3-38.76-17.23.02,3.01,38.84,17.23-.11Z"/>
    <path class="cls-3" d="m202.92,207.49l-43.87,13.09-43.93-16.37-17.23.11,44.01,16.4,43.95-13.12,17.06-.11Z"/>
    <path class="cls-3" d="m208.81,135.11c-1.59,24.16-4.07,48.24-5.88,72.38l-17.06.11c1.82-24.19,4.3-48.33,5.89-72.54l17.05.04Z"/>
    <path class="cls-3" d="m130.74,135.14l78.07-.03c-31.76-.08-63.51-.03-95.27-.02l17.2.04Z"/>
    <path class="cls-3" d="m128.78,114.93l1.96,20.21-17.2-.04-1.96-20.26c5.73.03,11.47.06,17.2.09Z"/>
    <path class="cls-3" d="m210.76,114.87c-33.06.02-66.12.14-99.18-.03,33.06-.02,66.12-.14,99.18.03Z"/>
    <path class="cls-3" d="m212.68,94.63c-.61,6.75-1.22,13.5-1.92,20.24l-17.05-.09c.7-6.76,1.32-13.52,1.93-20.29l17.04.13Z"/>
    <path class="cls-3" d="m105.45,94.96l-.04-.22-17.25-.13c2.92,20.07,4,40.54,5.78,60.75h17.23c-1.77-20.1-2.98-40.4-5.73-60.39h0Z"/>
    <path class="cls-3" d="m105.41,94.74l107.28-.11c-41.5-.32-83.02-.07-124.52-.02l17.25.13Z"/>
    <polygon class="cls-3" points="212.08 237.64 227.73 53.87 56.35 54.16 71.91 237.82 141.82 256.69 212.08 237.64 212.08 237.64"/>
    <path class="cls-3" d="m244.72,54.09l-15.63,183.37-70.13,19.01-69.78-18.82-15.53-183.26c57.02-.1,114.04-.19,171.06-.29Z"/>
    <path class="cls-3" d="m88.16,94.61l107.48-.11c-.61,6.77-1.22,13.53-1.93,20.29l-82.13.06,1.96,20.26,78.22-.03c-1.59,24.21-4.08,48.35-5.89,72.54l-43.95,13.12-44.01-16.4-3.01-38.84h21.51s1.52,20.9,1.52,20.9l23.92,9.51,23.96-9.11,2.46-31.43h-74.34c-1.78-20.2-2.86-40.67-5.78-60.75h0Z"/>
    <path class="cls-3" d="m212.68,94.63l-107.28.11c2.91,20.03,3.99,40.46,5.77,60.61h74.19l-2.45,31.36-23.91,9.09-23.87-9.49-1.52-20.85h-21.47s3,38.76,3,38.76l43.93,16.37,43.87-13.09c1.81-24.14,4.3-48.23,5.88-72.38l-78.07.03-1.96-20.21,81.98-.06c.7-6.74,1.32-13.49,1.92-20.24h0Z"/>
  </g>
</svg>