<?xml version="1.0" encoding="UTF-8"?>
<svg id="Layer_1" data-name="Layer 1" xmlns="http://www.w3.org/2000/svg" viewBox="0 0 300 300">
  <defs>
    <style>
      .cls-1 {
        fill: #f5f5f5;
      }

      .cls-1, .cls-2 {
        stroke-width: 0px;
      }

      .cls-3 {
        fill: none;
        stroke: #000;
        stroke-linejoin: bevel;
        stroke-width: 2px;
      }

      .cls-2 {
        fill: #191919;
      }
    </style>
  </defs>
  <g id="_5151e0c8492e5103c096af88a51e7e7e" data-name="5151e0c8492e5103c096af88a51e7e7e">
    <g>
      <path class="cls-2" d="m170.32,182.63c-7.01,4.56-14.41,8.51-21.21,13.41l-19.23.09c6.8-4.91,14.22-8.87,21.25-13.44,6.4-.02,12.79-.04,19.19-.06Z"/>
      <path class="cls-2" d="m233.48,106.33c-17.87-31.72-72.86-29.48-76.32,11.48-1.61,19.03,7.9,33.25,24.35,42.34,10.07,5.57,40.15,13.01,32.45,30.48-8.99,20.37-36.51,3.91-43.64-8l-19.19.06c7.33,12.25,27.2,24.79,40.4,12.36,16.35-15.4-11.93-26.44-22.12-31.34-16.88-8.12-30.48-19.27-31.54-39.07-1.07-19.77,10.78-36.33,30.55-39.99,19.36-3.58,36.45,4.62,46,21.57l19.06.11Z"/>
      <path class="cls-2" d="m212.77,120.63c7.1-4.48,14.17-9.04,20.71-14.3l-19.06-.11c-6.56,5.28-13.64,9.85-20.75,14.34,6.37.03,12.74.05,19.11.08Z"/>
      <path class="cls-2" d="m241.41,184.76c.03-20.5-13.22-32.94-30.72-41.51-7.41-3.63-18.35-6.38-23.92-12.88-5.66-6.59-4.63-17.19,4.03-20.77,8.45-3.49,19.17,2.82,21.98,11.03l-19.11-.08c-5.02-14.68-32.65-16.67-29.59,2.67,2.3,14.51,28.53,19.38,38.87,26.26,34.41,22.91,19.77,73.01-21.25,75.21-22.11,1.19-41.33-8.95-51.81-28.57l19.23-.09c14.88,27.86,59.66,41.54,83.15,15.35,6.58-7.33,9.15-16.93,9.14-26.63h0Z"/>
      <path class="cls-2" d="m222.36,184.83c.03-20.54-13.25-33.01-30.78-41.61-7.44-3.65-18.37-6.38-23.97-12.91-5.66-6.6-4.67-17.24,4.04-20.82,8.47-3.48,19.21,2.81,22.02,11.06,7.11-4.49,14.2-9.06,20.75-14.34-17.9-31.79-73-29.54-76.47,11.5-1.61,19.07,7.91,33.32,24.39,42.44,10.1,5.58,40.23,13.04,32.51,30.55-9,20.42-36.58,3.92-43.72-8.02-7.03,4.57-14.44,8.53-21.25,13.44,14.91,27.92,59.77,41.63,83.32,15.38,6.59-7.35,9.17-16.97,9.16-26.69h0Z"/>
      <path class="cls-2" d="m241.39,183.43c.89,39.09-46.24,52.14-75.1,32.44-7.33-5-13.02-12.05-17.18-19.83,6.79-4.9,14.19-8.85,21.21-13.41,7.32,12.23,27.15,24.74,40.32,12.33,16.32-15.36-11.91-26.38-22.08-31.27-16.84-8.1-30.42-19.22-31.48-38.98-1.06-19.73,10.76-36.25,30.49-39.9s36.38,4.6,45.91,21.52c-6.54,5.27-13.61,9.83-20.71,14.3-6.44-18.81-38.52-11.77-27.99,7.19,3.9,7.02,14.1,9.94,20.89,13.09,9.89,4.58,20.31,9.49,27.32,18.16,5.62,6.96,8.21,15.5,8.4,24.35h0Z"/>
    </g>
    <g>
      <path class="cls-2" d="m77.28,184.87c-7.33,4.48-14.57,9.13-21.68,13.96l-19.41.1c7.13-4.83,14.37-9.49,21.72-13.99,6.46-.02,12.91-.05,19.37-.07Z"/>
      <path class="cls-2" d="m134.63,85.85l-26.01.03-.14.06-.08.12c-.63,32.44,4.12,67-.36,99.21-2.8,20.13-24.95,16.41-30.75-.4l-19.37.07c5.81,16.85,28,20.57,30.81.4,4.49-32.29-.27-66.92.36-99.43l.08-.12.14-.06c15.11-.02,30.21,0,45.32.13Z"/>
      <path class="cls-2" d="m134.71,172.8c.06-28.98-.08-57.97-.08-86.95l-19.26-.15c0,34.91,4.69,73.22-1.19,107.71-4.29,25.19-28.88,37.07-52.99,29.1-11.58-3.83-19.72-12.85-25-23.58l19.41-.1c14.87,30.23,66.49,37.93,76.75-.2,2.24-8.33,2.34-17.26,2.36-25.83h0Z"/>
      <path class="cls-2" d="m115.45,172.84c.06-29.05-.08-58.1-.08-87.15l-26.06.03-.14.06-.08.12c-.63,32.51,4.13,67.15-.36,99.43-2.81,20.17-25,16.45-30.81-.4-7.35,4.49-14.59,9.15-21.72,13.99,14.9,30.29,66.62,38.01,76.89-.2,2.25-8.35,2.35-17.3,2.37-25.89h0Z"/>
      <path class="cls-2" d="m134.71,171.13c.02,13.82.24,30.53-9.39,41.61-12.3,14.14-37.34,15.38-52.77,5.94-7.6-4.65-13.06-11.95-16.94-19.85,7.11-4.82,14.35-9.47,21.68-13.96,5.8,16.81,27.95,20.53,30.75.4,4.48-32.21-.27-66.77.36-99.21l.08-.12.14-.06,26.01-.03c0,28.43.02,56.86.08,85.29h0Z"/>
    </g>
  </g>
  <g id="_5151e0c8492e5103c096af88a51e7e7e-2" data-name="5151e0c8492e5103c096af88a51e7e7e">
    <g>
      <path class="cls-1" d="m181.52,177.95c-7.01,4.56-14.41,8.51-21.21,13.41l-19.23.09c6.8-4.91,14.22-8.87,21.25-13.44l19.19-.06Z"/>
      <path class="cls-1" d="m244.68,101.65c-17.87-31.72-72.86-29.48-76.32,11.48-1.61,19.03,7.9,33.25,24.35,42.34,10.07,5.57,40.15,13.01,32.45,30.48-8.99,20.37-36.51,3.91-43.64-8l-19.19.06c7.33,12.25,27.2,24.79,40.4,12.36,16.35-15.4-11.93-26.44-22.12-31.34-16.88-8.12-30.48-19.27-31.54-39.07-1.07-19.77,10.78-36.33,30.55-39.99s36.45,4.62,46,21.57c6.35.04,12.71.07,19.06.11Z"/>
      <path class="cls-1" d="m223.97,115.95c7.1-4.48,14.17-9.04,20.71-14.3l-19.06-.11c-6.56,5.28-13.64,9.85-20.75,14.34,6.37.03,12.74.05,19.11.08Z"/>
      <path class="cls-1" d="m252.61,180.08c.03-20.5-13.22-32.94-30.72-41.51-7.41-3.63-18.35-6.38-23.92-12.88-5.66-6.59-4.63-17.19,4.03-20.77,8.45-3.49,19.17,2.82,21.98,11.03l-19.11-.08c-5.02-14.68-32.65-16.67-29.59,2.67,2.3,14.51,28.53,19.38,38.87,26.26,34.41,22.91,19.77,73.01-21.25,75.21-22.11,1.19-41.33-8.95-51.81-28.57l19.23-.09c14.88,27.86,59.66,41.54,83.15,15.35,6.58-7.33,9.15-16.93,9.14-26.63h0Z"/>
      <path class="cls-1" d="m233.56,180.15c.03-20.54-13.25-33.01-30.78-41.61-7.44-3.65-18.37-6.38-23.97-12.91-5.66-6.6-4.67-17.24,4.04-20.82s19.21,2.81,22.02,11.06c7.11-4.49,14.2-9.06,20.75-14.34-17.9-31.79-73-29.54-76.47,11.5-1.61,19.07,7.91,33.32,24.39,42.44,10.1,5.58,40.23,13.04,32.51,30.55-9,20.42-36.58,3.92-43.72-8.02-7.03,4.57-14.44,8.53-21.25,13.44,14.91,27.92,59.77,41.63,83.32,15.38,6.59-7.35,9.17-16.97,9.16-26.69h0Z"/>
      <path class="cls-1" d="m252.59,178.74c.89,39.09-46.24,52.14-75.1,32.44-7.33-5-13.02-12.05-17.18-19.83,6.79-4.9,14.19-8.85,21.21-13.41,7.32,12.23,27.15,24.74,40.32,12.33,16.32-15.36-11.91-26.38-22.08-31.27-16.84-8.1-30.42-19.22-31.48-38.98-1.06-19.73,10.76-36.25,30.49-39.9,19.32-3.57,36.38,4.6,45.91,21.52-6.54,5.27-13.61,9.83-20.71,14.3-6.44-18.81-38.52-11.77-27.99,7.19,3.9,7.02,14.1,9.94,20.89,13.09,9.89,4.58,20.31,9.49,27.32,18.16,5.62,6.96,8.21,15.5,8.4,24.35h0Z"/>
    </g>
    <g>
      <path class="cls-1" d="m88.48,180.19c-7.33,4.48-14.57,9.13-21.68,13.96l-19.41.1c7.13-4.83,14.37-9.49,21.72-13.99,6.46-.02,12.91-.05,19.37-.07Z"/>
      <path class="cls-1" d="m145.83,81.17l-26.01.03-.14.06-.08.12c-.63,32.44,4.12,67-.36,99.21-2.8,20.13-24.95,16.41-30.75-.4l-19.37.07c5.81,16.85,28,20.57,30.81.4,4.49-32.29-.27-66.92.36-99.43l.08-.12.14-.06c15.11-.02,30.21,0,45.32.13Z"/>
      <path class="cls-1" d="m145.91,168.12c.06-28.98-.08-57.97-.08-86.95l-19.26-.15c0,34.91,4.69,73.22-1.19,107.71-4.29,25.19-28.88,37.07-52.99,29.1-11.58-3.83-19.72-12.85-25-23.58l19.41-.1c14.87,30.23,66.49,37.93,76.75-.2,2.24-8.33,2.34-17.26,2.36-25.83h0Z"/>
      <path class="cls-1" d="m126.65,168.16c.06-29.05-.08-58.1-.08-87.15l-26.06.03-.14.06-.08.12c-.63,32.51,4.13,67.15-.36,99.43-2.81,20.17-25,16.45-30.81-.4-7.35,4.49-14.59,9.15-21.72,13.99,14.9,30.29,66.62,38.01,76.89-.2,2.25-8.35,2.35-17.3,2.37-25.89h0Z"/>
      <path class="cls-1" d="m145.91,166.45c.02,13.82.24,30.53-9.39,41.61-12.3,14.14-37.34,15.38-52.77,5.94-7.6-4.65-13.06-11.95-16.94-19.85,7.11-4.82,14.35-9.47,21.68-13.96,5.8,16.81,27.95,20.53,30.75.4,4.48-32.21-.27-66.77.36-99.21l.08-.12.14-.06,26.01-.03c0,28.43.02,56.86.08,85.29h0Z"/>
    </g>
  </g>
  <g id="_5151e0c8492e5103c096af88a51e7e7e-3" data-name="5151e0c8492e5103c096af88a51e7e7e">
    <g>
      <path class="cls-3" d="m181.52,177.95c-7.01,4.56-14.41,8.51-21.21,13.41l-19.23.09c6.8-4.91,14.22-8.87,21.25-13.44l19.19-.06Z"/>
      <path class="cls-3" d="m244.68,101.65c-17.87-31.72-72.86-29.48-76.32,11.48-1.61,19.03,7.9,33.25,24.35,42.34,10.07,5.57,40.15,13.01,32.45,30.48-8.99,20.37-36.51,3.91-43.64-8l-19.19.06c7.33,12.25,27.2,24.79,40.4,12.36,16.35-15.4-11.93-26.44-22.12-31.34-16.88-8.12-30.48-19.27-31.54-39.07-1.07-19.77,10.78-36.33,30.55-39.99s36.45,4.62,46,21.57c6.35.04,12.71.07,19.06.11Z"/>
      <path class="cls-3" d="m223.97,115.95c7.1-4.48,14.17-9.04,20.71-14.3l-19.06-.11c-6.56,5.28-13.64,9.85-20.75,14.34,6.37.03,12.74.05,19.11.08Z"/>
      <path class="cls-3" d="m252.61,180.08c.03-20.5-13.22-32.94-30.72-41.51-7.41-3.63-18.35-6.38-23.92-12.88-5.66-6.59-4.63-17.19,4.03-20.77,8.45-3.49,19.17,2.82,21.98,11.03l-19.11-.08c-5.02-14.68-32.65-16.67-29.59,2.67,2.3,14.51,28.53,19.38,38.87,26.26,34.41,22.91,19.77,73.01-21.25,75.21-22.11,1.19-41.33-8.95-51.81-28.57l19.23-.09c14.88,27.86,59.66,41.54,83.15,15.35,6.58-7.33,9.15-16.93,9.14-26.63h0Z"/>
      <path class="cls-3" d="m233.56,180.15c.03-20.54-13.25-33.01-30.78-41.61-7.44-3.65-18.37-6.38-23.97-12.91-5.66-6.6-4.67-17.24,4.04-20.82s19.21,2.81,22.02,11.06c7.11-4.49,14.2-9.06,20.75-14.34-17.9-31.79-73-29.54-76.47,11.5-1.61,19.07,7.91,33.32,24.39,42.44,10.1,5.58,40.23,13.04,32.51,30.55-9,20.42-36.58,3.92-43.72-8.02-7.03,4.57-14.44,8.53-21.25,13.44,14.91,27.92,59.77,41.63,83.32,15.38,6.59-7.35,9.17-16.97,9.16-26.69h0Z"/>
      <path class="cls-3" d="m252.59,178.74c.89,39.09-46.24,52.14-75.1,32.44-7.33-5-13.02-12.05-17.18-19.83,6.79-4.9,14.19-8.85,21.21-13.41,7.32,12.23,27.15,24.74,40.32,12.33,16.32-15.36-11.91-26.38-22.08-31.27-16.84-8.1-30.42-19.22-31.48-38.98-1.06-19.73,10.76-36.25,30.49-39.9,19.32-3.57,36.38,4.6,45.91,21.52-6.54,5.27-13.61,9.83-20.71,14.3-6.44-18.81-38.52-11.77-27.99,7.19,3.9,7.02,14.1,9.94,20.89,13.09,9.89,4.58,20.31,9.49,27.32,18.16,5.62,6.96,8.21,15.5,8.4,24.35h0Z"/>
    </g>
    <g>
      <path class="cls-3" d="m88.48,180.19c-7.33,4.48-14.57,9.13-21.68,13.96l-19.41.1c7.13-4.83,14.37-9.49,21.72-13.99,6.46-.02,12.91-.05,19.37-.07Z"/>
      <path class="cls-3" d="m145.83,81.17l-26.01.03-.14.06-.08.12c-.63,32.44,4.12,67-.36,99.21-2.8,20.13-24.95,16.41-30.75-.4l-19.37.07c5.81,16.85,28,20.57,30.81.4,4.49-32.29-.27-66.92.36-99.43l.08-.12.14-.06c15.11-.02,30.21,0,45.32.13Z"/>
      <path class="cls-3" d="m145.91,168.12c.06-28.98-.08-57.97-.08-86.95l-19.26-.15c0,34.91,4.69,73.22-1.19,107.71-4.29,25.19-28.88,37.07-52.99,29.1-11.58-3.83-19.72-12.85-25-23.58l19.41-.1c14.87,30.23,66.49,37.93,76.75-.2,2.24-8.33,2.34-17.26,2.36-25.83h0Z"/>
      <path class="cls-3" d="m126.65,168.16c.06-29.05-.08-58.1-.08-87.15l-26.06.03-.14.06-.08.12c-.63,32.51,4.13,67.15-.36,99.43-2.81,20.17-25,16.45-30.81-.4-7.35,4.49-14.59,9.15-21.72,13.99,14.9,30.29,66.62,38.01,76.89-.2,2.25-8.35,2.35-17.3,2.37-25.89h0Z"/>
      <path class="cls-3" d="m145.91,166.45c.02,13.82.24,30.53-9.39,41.61-12.3,14.14-37.34,15.38-52.77,5.94-7.6-4.65-13.06-11.95-16.94-19.85,7.11-4.82,14.35-9.47,21.68-13.96,5.8,16.81,27.95,20.53,30.75.4,4.48-32.21-.27-66.77.36-99.21l.08-.12.14-.06,26.01-.03c0,28.43.02,56.86.08,85.29h0Z"/>
    </g>
  </g>
</svg>