<?xml version="1.0" encoding="UTF-8"?>
<svg id="Layer_1" data-name="Layer 1" xmlns="http://www.w3.org/2000/svg" viewBox="0 0 300 300">
  <defs>
    <style>
      .cls-1 {
        fill: #f5f5f5;
        stroke-width: 0px;
      }

      .cls-2 {
        fill: none;
        stroke: #000;
      }

      .cls-2, .cls-3 {
        stroke-linejoin: bevel;
        stroke-width: 2px;
      }

      .cls-3 {
        fill: #191919;
        stroke: #191919;
      }
    </style>
  </defs>
  <g>
    <g>
      <path class="cls-3" d="m224.07,205.83l-72.9,45.14-17.17.18,73.02-45.23,17.04-.09Z"/>
      <path class="cls-3" d="m224.07,115.15v90.68l-17.04.09v-90.86c5.68.03,11.36.06,17.04.09Z"/>
      <path class="cls-3" d="m151.17,70.01l72.9,45.14-17.04-.09-73.02-45.23,17.17.18Z"/>
      <path class="cls-3" d="m78.44,115.25l72.73-45.25-17.17-.18-72.86,45.34c5.76.03,11.53.06,17.29.09Z"/>
      <path class="cls-3" d="m78.44,205.73v-90.47l-17.29-.09v90.66c5.76-.03,11.53-.06,17.29-.09Z"/>
      <path class="cls-3" d="m244.11,211.96v-90.79c0-4.35.97-9.95-.2-14.25-2.57-9.46-16.49-14.35-23.89-18.93-19.93-12.34-39.64-25.18-59.85-37.04-7.05-4.14-10.35-4.45-17.47-.29-20.03,11.72-39.48,24.57-59.18,36.84-7.39,4.6-21.98,9.81-24.74,19.24-1.15,3.93-.27,9.12-.27,13.1v36.45c0,17.75-2.79,37.95,0,55.52,1.77,11.15,16.41,17.58,25.6,22.03,14.38,6.97,33.22,4.33,42.98-8.87,12.74-17.24,7.92-45.35,7.92-64.86,0-6.14,7.75-56.02-13.19-48.66-23.58,8.29,15.19,116.19-26.39,104.13-6.11-1.77-11.6-6.52-16.97-9.86l-17.29.09c7.97,4.96,21.46,16.35,31.44,7.83,6.46-5.52,5.21-17.02,5.21-24.56v-46.64c0-7.03-1.84-16.76.33-23.66,1.93-6.16,8.28-10.18,14.44-6.72,9.54,5.35,5.24,24.91,5.24,32.96,0,20,2.36,41.46-.73,61.35-3.18,20.49-18.72,34.28-40.08,30.74-8-1.32-13.7-5.32-20.52-9.56-5.57-3.47-12.81-6.14-14.95-12.87-1.76-5.53-.34-13.19-.34-18.84v-48.98c0-11.57-5.44-36.67,3.86-46.2,5.39-5.53,14.72-9.27,21.19-13.3,13.52-8.42,27.04-16.84,40.56-25.25,9.64-6,21.57-18.6,33.32-13.17,24.73,11.44,47.99,29.71,71.17,44.06,11.4,7.06,15.83,9.4,15.83,23.06v87.32c0,13.69-2.63,16.45-14.23,23.63-23.66,14.65-46.96,31.77-71.74,44.41-4,2.04-6.38,3.3-10.97,1.91-6.62-2.01-18.69-9.41-23.31-14.59-5.75-6.45-3.89-18.71,6.44-18.8,7.19-.07,15.07,7.71,20.72,11.22l17.17-.18c-6.96-4.33-19.65-16.86-27.9-7.93-6.3,6.81-1.23,13.81,4.62,18.06,8.93,6.5,18.84,15.68,29.67,10.54,19.87-9.42,38.56-23.86,57.25-35.43,7.77-4.81,29.23-12.41,29.3-24.25h0Z"/>
      <path class="cls-3" d="m227.11,212.07v-91.87c0-4.06.9-9.36-.2-13.37-2.58-9.48-16.49-14.37-23.94-18.97-19.97-12.36-39.7-25.25-59.96-37.12-7.07-4.14-10.36-4.47-17.5-.29-20.07,11.74-39.55,24.62-59.28,36.91-7.42,4.62-22.04,9.83-24.78,19.28-1.19,4.1-.27,9.51-.27,13.67v34.68c0,18.23-2.78,38.83,0,56.88,1.72,11.21,16.15,17.37,25.34,21.94,14.32,7.12,33.22,4.7,43.16-8.43,12.81-16.93,8.13-44.57,8.13-63.87,0-6.25,8.03-57.05-12.98-50.24-24.27,7.86,15.2,116.58-26.67,104.43-6.11-1.77-11.63-6.53-17-9.88v-90.66l72.86-45.34,73.02,45.23v90.86l-73.02,45.23c-6.97-4.34-19.69-16.89-27.95-7.95-6.25,6.77-1.31,13.91,4.62,18.1,9.09,6.41,18.79,15.75,29.72,10.56,19.9-9.44,38.63-23.91,57.35-35.5,7.78-4.82,29.28-12.44,29.35-24.3h0Z"/>
      <path class="cls-3" d="m244.11,109.02v86.86c0,17.26.56,21.85-14.21,30.99s-29.97,18.55-44.95,27.82c-9.04,5.59-18.8,13.96-28.74,17.79-6.03,2.32-8.79.66-14.17-2.57-6.25-3.75-18.53-8.28-21.04-16.17-1.6-5.04.74-11.09,5.74-13.19,8.26-3.47,18.29,6.6,24.44,10.43l72.9-45.14v-90.68l-72.9-45.14-72.73,45.25v90.47c11.57,7.2,31.67,19.81,35.99-2.09,5.25-26.63-3.51-55.4.6-82.12,1.44-9.39,12.86-15.57,18.64-5.3,4.55,8.08,1.33,22.9,1.33,31.48,0,16.93.72,34.02-.05,50.93-.58,12.76-4.31,26.23-15.51,33.69-18.1,12.05-39.85,1.22-54.84-10.63-6.1-4.82-6.08-9.04-6.09-16.5-.02-22.15,0-44.31,0-66.46,0-9.39-3.34-25.33,1.02-34.25,4.11-8.42,18.74-13.71,26.06-18.27,18.28-11.38,36.56-22.76,54.84-34.14,5.92-3.69,9.33-6.18,16.13-3.36,16.3,6.75,31.99,19.8,46.97,29.07,11.13,6.89,27.84,13.45,36.96,23.05,2.21,2.33,3.6,4.88,3.62,8.18h0Z"/>
    </g>
    <g>
      <path class="cls-3" d="m190.99,180.04c-.1,17.5-14.34,30.21-31.47,30.19-10.03,0-40.13-14.85-21.59-26.34,9.25-5.73,16.16,8.75,26.88,4.28,7.89-3.29,7.74-12.96,0-16.29-6.95-2.99-14.29-1.48-21.07-6.23s-10.88-11.93-12.17-19.78c-2.83-17.12,9.35-32.79,26.44-34.88,10.78-1.32,39.49,6.65,29.43,22.72-7.32,11.69-16.99-2.61-26.44-1.61-7.97.84-14.09,9.79-6.19,15.79,4.69,3.56,12.68,2.15,18.11,4.44,7.63,3.21,13.38,9.51,16.18,17.27,1.2,3.34,1.85,6.88,1.87,10.43h0Z"/>
      <path class="cls-3" d="m208.05,180.51c.25-19.23-13.63-27.05-29.92-30.71-7.24-1.63-14.65-9.14-6.28-15.68,10.15-7.92,16.45,5.3,25.21,4.45,6.47-.63,10.29-7.52,8.7-13.53-2.18-8.23-12.94-12.69-20.47-13.82-38.49-5.77-51.82,50.81-13.02,59.19,6.32,1.37,22.92,4.26,13.66,15.13-7.48,8.77-15.45-.22-22.3-2.56-6.18-2.11-12.38,1.99-13.31,8.41-1.16,8.03,6.77,13.73,13.32,16.38,16.02,6.49,35.91-.13,42.3-16.75,1.29-3.35,2.01-6.93,2.1-10.52h0Z"/>
      <path class="cls-3" d="m190.98,180.55c.25-19.26-13.65-27.1-29.97-30.77-7.26-1.63-14.68-9.16-6.29-15.71,10.16-7.94,16.48,5.31,25.26,4.46,6.49-.63,10.31-7.53,8.72-13.55-2.18-8.24-12.97-12.71-20.51-13.84-38.56-5.78-51.91,50.92-13.04,59.31,6.34,1.37,22.96,4.27,13.68,15.16-7.5,8.79-15.48-.22-22.34-2.56-6.19-2.11-12.4,2-13.33,8.43-1.16,8.04,6.78,13.76,13.35,16.41,16.05,6.5,35.98-.14,42.38-16.79,1.29-3.36,2.01-6.95,2.1-10.55h0Z"/>
      <path class="cls-3" d="m208.05,180c-.1,17.47-14.32,30.15-31.41,30.13-10.01,0-40.06-14.82-21.55-26.28,9.24-5.72,16.14,8.73,26.84,4.27,7.87-3.28,7.73-12.93,0-16.26-6.93-2.98-14.26-1.47-21.03-6.21-6.53-4.58-10.86-11.91-12.15-19.74-2.82-17.08,9.34-32.72,26.4-34.8,10.76-1.31,39.42,6.64,29.38,22.68-7.31,11.66-16.97-2.6-26.39-1.61-7.96.84-14.07,9.77-6.17,15.76,4.68,3.55,12.65,2.15,18.08,4.43,7.61,3.2,13.36,9.49,16.15,17.24,1.2,3.33,1.85,6.87,1.87,10.4h0Z"/>
    </g>
  </g>
  <g>
    <g>
      <path class="cls-1" d="m239.3,200.97l-72.9,45.14-17.17.18,73.02-45.23,17.04-.09Z"/>
      <path class="cls-1" d="m239.3,110.29v90.68l-17.04.09v-90.86c5.68.03,11.36.06,17.04.09Z"/>
      <path class="cls-1" d="m166.41,65.15l72.9,45.14-17.04-.09-73.02-45.23c5.72.06,11.44.12,17.17.18Z"/>
      <path class="cls-1" d="m93.68,110.39l72.73-45.25-17.17-.18-72.86,45.34c5.76.03,11.53.06,17.29.09Z"/>
      <path class="cls-1" d="m93.68,200.87v-90.47l-17.29-.09v90.66c5.76-.03,11.53-.06,17.29-.09Z"/>
      <path class="cls-1" d="m259.34,207.1v-90.79c0-4.35.97-9.95-.2-14.25-2.57-9.46-16.49-14.35-23.89-18.93-19.93-12.34-39.64-25.18-59.85-37.04-7.05-4.14-10.35-4.45-17.47-.29-20.03,11.72-39.48,24.57-59.18,36.84-7.39,4.6-21.98,9.81-24.74,19.24-1.15,3.93-.27,9.12-.27,13.1v36.45c0,17.75-2.79,37.95,0,55.52,1.77,11.15,16.41,17.58,25.6,22.03,14.38,6.97,33.22,4.33,42.98-8.87,12.74-17.24,7.92-45.35,7.92-64.86,0-6.14,7.75-56.02-13.19-48.66-23.58,8.29,15.19,116.19-26.39,104.13-6.11-1.77-11.6-6.52-16.97-9.86l-17.29.09c7.97,4.96,21.46,16.35,31.44,7.83,6.46-5.52,5.21-17.02,5.21-24.56v-46.64c0-7.03-1.84-16.76.33-23.66,1.93-6.16,8.28-10.18,14.44-6.72,9.54,5.35,5.24,24.91,5.24,32.96,0,20,2.36,41.46-.73,61.35-3.18,20.49-18.72,34.28-40.08,30.74-8-1.32-13.7-5.32-20.52-9.56-5.57-3.47-12.81-6.14-14.95-12.87-1.76-5.53-.34-13.19-.34-18.84v-48.98c0-11.57-5.44-36.67,3.86-46.2,5.39-5.53,14.72-9.27,21.19-13.3,13.52-8.42,27.04-16.84,40.56-25.25,9.64-6,21.57-18.6,33.32-13.17,24.73,11.44,47.99,29.71,71.17,44.06,11.4,7.06,15.83,9.4,15.83,23.06v87.32c0,13.69-2.63,16.45-14.23,23.63-23.66,14.65-46.96,31.77-71.74,44.41-4,2.04-6.38,3.3-10.97,1.91-6.62-2.01-18.69-9.41-23.31-14.59-5.75-6.45-3.89-18.71,6.44-18.8,7.19-.07,15.07,7.71,20.72,11.22l17.17-.18c-6.96-4.33-19.65-16.86-27.9-7.93-6.3,6.81-1.23,13.81,4.62,18.06,8.93,6.5,18.84,15.68,29.67,10.54,19.87-9.42,38.56-23.86,57.25-35.43,7.77-4.81,29.23-12.41,29.3-24.25h0Z"/>
      <path class="cls-1" d="m242.34,207.2v-91.87c0-4.06.9-9.36-.2-13.37-2.58-9.48-16.49-14.37-23.94-18.97-19.97-12.36-39.7-25.25-59.96-37.12-7.07-4.14-10.36-4.47-17.5-.29-20.07,11.74-39.55,24.62-59.28,36.91-7.42,4.62-22.04,9.83-24.78,19.28-1.19,4.1-.27,9.51-.27,13.67v34.68c0,18.23-2.78,38.83,0,56.88,1.72,11.21,16.15,17.37,25.34,21.94,14.32,7.12,33.22,4.7,43.16-8.43,12.81-16.93,8.13-44.57,8.13-63.87,0-6.25,8.03-57.05-12.98-50.24-24.27,7.86,15.2,116.58-26.67,104.43-6.11-1.77-11.63-6.53-17-9.88v-90.66l72.86-45.34,73.02,45.23v90.86l-73.02,45.23c-6.97-4.34-19.69-16.89-27.95-7.95-6.25,6.77-1.31,13.91,4.62,18.1,9.09,6.41,18.79,15.75,29.72,10.56,19.9-9.44,38.63-23.91,57.35-35.5,7.78-4.82,29.28-12.44,29.35-24.3h0Z"/>
      <path class="cls-1" d="m259.34,104.16v86.86c0,17.26.56,21.85-14.21,30.99s-29.97,18.55-44.95,27.82c-9.04,5.59-18.8,13.96-28.74,17.79-6.03,2.32-8.79.66-14.17-2.57-6.25-3.75-18.53-8.28-21.04-16.17-1.6-5.04.74-11.09,5.74-13.19,8.26-3.47,18.29,6.6,24.44,10.43l72.9-45.14v-90.68l-72.9-45.14-72.73,45.25v90.47c11.57,7.2,31.67,19.81,35.99-2.09,5.25-26.63-3.51-55.4.6-82.12,1.44-9.39,12.86-15.57,18.64-5.3,4.55,8.08,1.33,22.9,1.33,31.48,0,16.93.72,34.02-.05,50.93-.58,12.76-4.31,26.23-15.51,33.69-18.1,12.05-39.85,1.22-54.84-10.63-6.1-4.82-6.08-9.04-6.09-16.5-.02-22.15,0-44.31,0-66.46,0-9.39-3.34-25.33,1.02-34.25,4.11-8.42,18.74-13.71,26.06-18.27,18.28-11.38,36.56-22.76,54.84-34.14,5.92-3.69,9.33-6.18,16.13-3.36,16.3,6.75,31.99,19.8,46.97,29.07,11.13,6.89,27.84,13.45,36.96,23.05,2.21,2.33,3.6,4.88,3.62,8.18h0Z"/>
    </g>
    <g>
      <path class="cls-1" d="m206.22,175.18c-.1,17.5-14.34,30.21-31.47,30.19-10.03,0-40.13-14.85-21.59-26.34,9.25-5.73,16.16,8.75,26.88,4.28,7.89-3.29,7.74-12.96,0-16.29-6.95-2.99-14.29-1.48-21.07-6.23-6.55-4.59-10.88-11.93-12.17-19.78-2.83-17.12,9.35-32.79,26.44-34.88,10.78-1.32,39.49,6.65,29.43,22.72-7.32,11.69-16.99-2.61-26.44-1.61-7.97.84-14.09,9.79-6.19,15.79,4.69,3.56,12.68,2.15,18.11,4.44,7.63,3.21,13.38,9.51,16.18,17.27,1.2,3.34,1.85,6.88,1.87,10.43h0Z"/>
      <path class="cls-1" d="m223.28,175.65c.25-19.23-13.63-27.05-29.92-30.71-7.24-1.63-14.65-9.14-6.28-15.68,10.15-7.92,16.45,5.3,25.21,4.45,6.47-.63,10.29-7.52,8.7-13.53-2.18-8.23-12.94-12.69-20.47-13.82-38.49-5.77-51.82,50.81-13.02,59.19,6.32,1.37,22.92,4.26,13.66,15.13-7.48,8.77-15.45-.22-22.3-2.56-6.18-2.11-12.38,1.99-13.31,8.41-1.16,8.03,6.77,13.73,13.32,16.38,16.02,6.49,35.91-.13,42.3-16.75,1.29-3.35,2.01-6.93,2.1-10.52h0Z"/>
      <path class="cls-1" d="m206.22,175.69c.25-19.26-13.65-27.1-29.97-30.77-7.26-1.63-14.68-9.16-6.29-15.71,10.16-7.94,16.48,5.31,25.26,4.46,6.49-.63,10.31-7.53,8.72-13.55-2.18-8.24-12.97-12.71-20.51-13.84-38.56-5.78-51.91,50.92-13.04,59.31,6.34,1.37,22.96,4.27,13.68,15.16-7.5,8.79-15.48-.22-22.34-2.56-6.19-2.11-12.4,2-13.33,8.43-1.16,8.04,6.78,13.76,13.35,16.41,16.05,6.5,35.98-.14,42.38-16.79,1.29-3.36,2.01-6.95,2.1-10.55h0Z"/>
      <path class="cls-1" d="m223.29,175.14c-.1,17.47-14.32,30.15-31.41,30.13-10.01,0-40.06-14.82-21.55-26.28,9.24-5.72,16.14,8.73,26.84,4.27,7.87-3.28,7.73-12.93,0-16.26-6.93-2.98-14.26-1.47-21.03-6.21-6.53-4.58-10.86-11.91-12.15-19.74-2.82-17.08,9.34-32.72,26.4-34.8,10.76-1.31,39.42,6.64,29.38,22.68-7.31,11.66-16.97-2.6-26.39-1.61-7.96.84-14.07,9.77-6.17,15.76,4.68,3.55,12.65,2.15,18.08,4.43,7.61,3.2,13.36,9.49,16.15,17.24,1.2,3.33,1.85,6.87,1.87,10.4h0Z"/>
    </g>
  </g>
  <g>
    <g>
      <path class="cls-2" d="m239.3,201.24l-72.9,45.14-17.17.18,73.02-45.23,17.04-.09Z"/>
      <path class="cls-2" d="m239.3,110.55v90.68l-17.04.09v-90.86c5.68.03,11.36.06,17.04.09Z"/>
      <path class="cls-2" d="m166.41,65.41l72.9,45.14-17.04-.09-73.02-45.23c5.72.06,11.44.12,17.17.18Z"/>
      <path class="cls-2" d="m93.68,110.66l72.73-45.25-17.17-.18-72.86,45.34c5.76.03,11.53.06,17.29.09Z"/>
      <path class="cls-2" d="m93.68,201.13v-90.47l-17.29-.09v90.66c5.76-.03,11.53-.06,17.29-.09Z"/>
      <path class="cls-2" d="m259.34,207.37v-90.79c0-4.35.97-9.95-.2-14.25-2.57-9.46-16.49-14.35-23.89-18.93-19.93-12.34-39.64-25.18-59.85-37.04-7.05-4.14-10.35-4.45-17.47-.29-20.03,11.72-39.48,24.57-59.18,36.84-7.39,4.6-21.98,9.81-24.74,19.24-1.15,3.93-.27,9.12-.27,13.1v36.45c0,17.75-2.79,37.95,0,55.52,1.77,11.15,16.41,17.58,25.6,22.03,14.38,6.97,33.22,4.33,42.98-8.87,12.74-17.24,7.92-45.35,7.92-64.86,0-6.14,7.75-56.02-13.19-48.66-23.58,8.29,15.19,116.19-26.39,104.13-6.11-1.77-11.6-6.52-16.97-9.86l-17.29.09c7.97,4.96,21.46,16.35,31.44,7.83,6.46-5.52,5.21-17.02,5.21-24.56v-46.64c0-7.03-1.84-16.76.33-23.66,1.93-6.16,8.28-10.18,14.44-6.72,9.54,5.35,5.24,24.91,5.24,32.96,0,20,2.36,41.46-.73,61.35-3.18,20.49-18.72,34.28-40.08,30.74-8-1.32-13.7-5.32-20.52-9.56-5.57-3.47-12.81-6.14-14.95-12.87-1.76-5.53-.34-13.19-.34-18.84v-48.98c0-11.57-5.44-36.67,3.86-46.2,5.39-5.53,14.72-9.27,21.19-13.3,13.52-8.42,27.04-16.84,40.56-25.25,9.64-6,21.57-18.6,33.32-13.17,24.73,11.44,47.99,29.71,71.17,44.06,11.4,7.06,15.83,9.4,15.83,23.06v87.32c0,13.69-2.63,16.45-14.23,23.63-23.66,14.65-46.96,31.77-71.74,44.41-4,2.04-6.38,3.3-10.97,1.91-6.62-2.01-18.69-9.41-23.31-14.59-5.75-6.45-3.89-18.71,6.44-18.8,7.19-.07,15.07,7.71,20.72,11.22l17.17-.18c-6.96-4.33-19.65-16.86-27.9-7.93-6.3,6.81-1.23,13.81,4.62,18.06,8.93,6.5,18.84,15.68,29.67,10.54,19.87-9.42,38.56-23.86,57.25-35.43,7.77-4.81,29.23-12.41,29.3-24.25h0Z"/>
      <path class="cls-2" d="m242.34,207.47v-91.87c0-4.06.9-9.36-.2-13.37-2.58-9.48-16.49-14.37-23.94-18.97-19.97-12.36-39.7-25.25-59.96-37.12-7.07-4.14-10.36-4.47-17.5-.29-20.07,11.74-39.55,24.62-59.28,36.91-7.42,4.62-22.04,9.83-24.78,19.28-1.19,4.1-.27,9.51-.27,13.67v34.68c0,18.23-2.78,38.83,0,56.88,1.72,11.21,16.15,17.37,25.34,21.94,14.32,7.12,33.22,4.7,43.16-8.43,12.81-16.93,8.13-44.57,8.13-63.87,0-6.25,8.03-57.05-12.98-50.24-24.27,7.86,15.2,116.58-26.67,104.43-6.11-1.77-11.63-6.53-17-9.88v-90.66l72.86-45.34,73.02,45.23v90.86l-73.02,45.23c-6.97-4.34-19.69-16.89-27.95-7.95-6.25,6.77-1.31,13.91,4.62,18.1,9.09,6.41,18.79,15.75,29.72,10.56,19.9-9.44,38.63-23.91,57.35-35.5,7.78-4.82,29.28-12.44,29.35-24.3h0Z"/>
      <path class="cls-2" d="m259.34,104.42v86.86c0,17.26.56,21.85-14.21,30.99s-29.97,18.55-44.95,27.82c-9.04,5.59-18.8,13.96-28.74,17.79-6.03,2.32-8.79.66-14.17-2.57-6.25-3.75-18.53-8.28-21.04-16.17-1.6-5.04.74-11.09,5.74-13.19,8.26-3.47,18.29,6.6,24.44,10.43l72.9-45.14v-90.68l-72.9-45.14-72.73,45.25v90.47c11.57,7.2,31.67,19.81,35.99-2.09,5.25-26.63-3.51-55.4.6-82.12,1.44-9.39,12.86-15.57,18.64-5.3,4.55,8.08,1.33,22.9,1.33,31.48,0,16.93.72,34.02-.05,50.93-.58,12.76-4.31,26.23-15.51,33.69-18.1,12.05-39.85,1.22-54.84-10.63-6.1-4.82-6.08-9.04-6.09-16.5-.02-22.15,0-44.31,0-66.46,0-9.39-3.34-25.33,1.02-34.25,4.11-8.42,18.74-13.71,26.06-18.27,18.28-11.38,36.56-22.76,54.84-34.14,5.92-3.69,9.33-6.18,16.13-3.36,16.3,6.75,31.99,19.8,46.97,29.07,11.13,6.89,27.84,13.45,36.96,23.05,2.21,2.33,3.6,4.88,3.62,8.18h0Z"/>
    </g>
    <g>
      <path class="cls-2" d="m206.22,175.45c-.1,17.5-14.34,30.21-31.47,30.19-10.03,0-40.13-14.85-21.59-26.34,9.25-5.73,16.16,8.75,26.88,4.28,7.89-3.29,7.74-12.96,0-16.29-6.95-2.99-14.29-1.48-21.07-6.23-6.55-4.59-10.88-11.93-12.17-19.78-2.83-17.12,9.35-32.79,26.44-34.88,10.78-1.32,39.49,6.65,29.43,22.72-7.32,11.69-16.99-2.61-26.44-1.61-7.97.84-14.09,9.79-6.19,15.79,4.69,3.56,12.68,2.15,18.11,4.44,7.63,3.21,13.38,9.51,16.18,17.27,1.2,3.34,1.85,6.88,1.87,10.43h0Z"/>
      <path class="cls-2" d="m223.28,175.91c.25-19.23-13.63-27.05-29.92-30.71-7.24-1.63-14.65-9.14-6.28-15.68,10.15-7.92,16.45,5.3,25.21,4.45,6.47-.63,10.29-7.52,8.7-13.53-2.18-8.23-12.94-12.69-20.47-13.82-38.49-5.77-51.82,50.81-13.02,59.19,6.32,1.37,22.92,4.26,13.66,15.13-7.48,8.77-15.45-.22-22.3-2.56-6.18-2.11-12.38,1.99-13.31,8.41-1.16,8.03,6.77,13.73,13.32,16.38,16.02,6.49,35.91-.13,42.3-16.75,1.29-3.35,2.01-6.93,2.1-10.52h0Z"/>
      <path class="cls-2" d="m206.22,175.95c.25-19.26-13.65-27.1-29.97-30.77-7.26-1.63-14.68-9.16-6.29-15.71,10.16-7.94,16.48,5.31,25.26,4.46,6.49-.63,10.31-7.53,8.72-13.55-2.18-8.24-12.97-12.71-20.51-13.84-38.56-5.78-51.91,50.92-13.04,59.31,6.34,1.37,22.96,4.27,13.68,15.16-7.5,8.79-15.48-.22-22.34-2.56-6.19-2.11-12.4,2-13.33,8.43-1.16,8.04,6.78,13.76,13.35,16.41,16.05,6.5,35.98-.14,42.38-16.79,1.29-3.36,2.01-6.95,2.1-10.55h0Z"/>
      <path class="cls-2" d="m223.29,175.41c-.1,17.47-14.32,30.15-31.41,30.13-10.01,0-40.06-14.82-21.55-26.28,9.24-5.72,16.14,8.73,26.84,4.27,7.87-3.28,7.73-12.93,0-16.26-6.93-2.98-14.26-1.47-21.03-6.21-6.53-4.58-10.86-11.91-12.15-19.74-2.82-17.08,9.34-32.72,26.4-34.8,10.76-1.31,39.42,6.64,29.38,22.68-7.31,11.66-16.97-2.6-26.39-1.61-7.96.84-14.07,9.77-6.17,15.76,4.68,3.55,12.65,2.15,18.08,4.43,7.61,3.2,13.36,9.49,16.15,17.24,1.2,3.33,1.85,6.87,1.87,10.4h0Z"/>
    </g>
  </g>
</svg>