<?xml version="1.0" encoding="UTF-8"?>
<svg id="Layer_1" data-name="Layer 1" xmlns="http://www.w3.org/2000/svg" viewBox="0 0 300 300">
  <defs>
    <style>
      .cls-1 {
        isolation: isolate;
      }

      .cls-2 {
        fill: #f5f5f5;
      }

      .cls-2, .cls-3 {
        stroke-width: 0px;
      }

      .cls-4 {
        fill: none;
        stroke: #000;
        stroke-linejoin: bevel;
        stroke-width: 2px;
      }

      .cls-3 {
        fill: #191919;
      }
    </style>
  </defs>
  <g>
    <path class="cls-3" d="m162.14,204.76c0,16.61,0,33.23,0,49.84,0,4.88-2.82,15.26,3.46,14.68,2.3-.21,8.09-8.49,9.61-10.08,7.05-7.39,14.1-14.78,21.15-22.17,10.25-10.75,20.51-21.5,30.76-32.25l-16.99.07-30.82,32.31-21.19,22.21c-1.59,1.67-7.26,9.88-9.63,10.1-6.29.57-3.46-9.84-3.46-14.71,0-16.65,0-33.29,0-49.94l17.1-.07Z"/>
    <path class="cls-3" d="m95.26,134.52c0,14.14,0,28.28,0,42.43,0,5.28-3.22,21.71.92,26.21,3.93,4.26,16.23,1.58,21.08,1.58l44.87.02c-13.44.06-26.88.07-40.33.06l-30.9-.02c-2.48,0-8.09,1.2-10.39-.35-5.34-3.58-2.48-15.96-2.48-21.1,0-16.3,0-32.6,0-48.9l17.22.07Z"/>
    <path class="cls-3" d="m95.26,66.68c-9.84,10.36-19.69,20.72-29.53,31.09-6.81,7.17-13.63,14.34-20.44,21.52-2.11,2.22-10.38,8.38-10.92,11.49-1.02,5.94,5.73,3.77,10.64,3.77l50.24-.03c-11.76-.04-77.8,4.19-78.89-2.2-.37-2.2,5.15-6.32,6.24-7.47,7.03-7.4,14.06-14.8,21.09-22.21,11.45-12.05,22.9-24.11,34.34-36.16l17.22.2Z"/>
    <path class="cls-3" d="m95.26,66.44v.25l-17.22-.2v-.25c5.74.07,11.48.13,17.22.2Z"/>
    <path class="cls-3" d="m227.12,70.56c-.43-5.1-5.07-4.17-8.82-4.31-16.88-.65-33.94.05-50.83.08-29.81.05-59.62.26-89.43-.09,40.97-.06,82.93-2.95,123.79-.19,7.15.48,7.79,1.16,8.3,8.31,1.57,22.23,0,45.13,0,67.41,0,21.04,0,42.07,0,63.11l16.99-.07V70.56h0Z"/>
    <path class="cls-3" d="m210.13,70.37c-.85-9.94-40.28-4.27-46.22-4.27-28.62.04-57.24.09-85.86.13v.25c-9.86,10.38-19.72,20.76-29.58,31.15-6.83,7.19-13.65,14.37-20.48,21.56-2.12,2.23-10.4,8.39-10.93,11.51-1.02,5.95,5.74,3.78,10.66,3.78l50.33-.03c0,14.17,0,28.34,0,42.51,0,5.29-3.23,21.75.93,26.26,3.94,4.27,16.26,1.58,21.12,1.58l44.95.02v49.94c0,4.89-2.82,15.29,3.46,14.71,2.31-.21,8.11-8.5,9.63-10.1l21.19-22.21,30.82-32.31V70.37h0Z"/>
    <path class="cls-3" d="m227.1,70.13c.48,44.88.02,89.79.02,134.67-10.25,10.75-20.51,21.5-30.76,32.25-7.05,7.39-14.1,14.78-21.15,22.17-1.59,1.66-7.25,9.86-9.61,10.08-6.28.57-3.46-9.82-3.46-14.68,0-16.61,0-33.23,0-49.84-14.53,0-29.06-.02-43.58-.02-4.91,0-18.44,2.88-22.37-1.58s-.92-19.68-.92-24.89v-43.75c-16.38,0-32.77.02-49.15.02-5.31,0-12.47,2.4-11.73-3.77.32-2.64,8.47-8.91,10.18-10.72,6.74-7.1,13.48-14.19,20.22-21.29,10.16-10.7,20.32-21.39,30.48-32.09v-.25c28.14-.04,56.27-.09,84.41-.13,13.04-.02,27.23-1.64,40.18-.06,3.33.41,6.46-.43,7.25,3.88h0Z"/>
  </g>
  <g>
    <path class="cls-2" d="m179.33,195.52c0,16.61,0,33.23,0,49.84,0,4.88-2.82,15.26,3.46,14.68,2.3-.21,8.09-8.49,9.61-10.08,7.05-7.39,14.1-14.78,21.15-22.17,10.25-10.75,20.51-21.5,30.76-32.25l-16.99.07-30.82,32.31-21.19,22.21c-1.59,1.67-7.26,9.88-9.63,10.1-6.29.57-3.46-9.84-3.46-14.71,0-16.65,0-33.29,0-49.94l17.1-.07Z"/>
    <path class="cls-2" d="m112.45,125.28c0,14.14,0,28.28,0,42.43,0,5.28-3.22,21.71.92,26.21,3.93,4.26,16.23,1.58,21.08,1.58l44.87.02c-13.44.06-26.88.07-40.33.06l-30.9-.02c-2.48,0-8.09,1.2-10.39-.35-5.34-3.58-2.48-15.96-2.48-21.1,0-16.3,0-32.6,0-48.9l17.22.07Z"/>
    <path class="cls-2" d="m112.45,57.44c-9.84,10.36-19.69,20.72-29.53,31.09-6.81,7.17-13.63,14.34-20.44,21.52-2.11,2.22-10.38,8.38-10.92,11.49-1.02,5.94,5.73,3.77,10.64,3.77l50.24-.03c-11.76-.04-77.8,4.19-78.89-2.2-.37-2.2,5.15-6.32,6.24-7.47,7.03-7.4,14.06-14.8,21.09-22.21,11.45-12.05,22.9-24.11,34.34-36.16l17.22.2Z"/>
    <path class="cls-2" d="m112.45,57.19v.25l-17.22-.2v-.25c5.74.07,11.48.13,17.22.2Z"/>
    <path class="cls-2" d="m244.31,61.32c-.43-5.1-5.07-4.17-8.82-4.31-16.88-.65-33.94.05-50.83.08-29.81.05-59.62.26-89.43-.09,40.97-.06,82.93-2.95,123.79-.19,7.15.48,7.79,1.16,8.3,8.31,1.57,22.23,0,45.13,0,67.41,0,21.04,0,42.07,0,63.11l16.99-.07V61.32h0Z"/>
    <path class="cls-2" d="m227.32,61.13c-.85-9.94-40.28-4.27-46.22-4.27-28.62.04-57.24.09-85.86.13v.25c-9.86,10.38-19.72,20.76-29.58,31.15-6.83,7.19-13.65,14.37-20.48,21.56-2.12,2.23-10.4,8.39-10.93,11.51-1.02,5.95,5.74,3.78,10.66,3.78l50.33-.03c0,14.17,0,28.34,0,42.51,0,5.29-3.23,21.75.93,26.26,3.94,4.27,16.26,1.58,21.12,1.58l44.95.02v49.94c0,4.89-2.82,15.29,3.46,14.71,2.31-.21,8.11-8.5,9.63-10.1l21.19-22.21,30.82-32.31V61.13h0Z"/>
    <path class="cls-2" d="m244.29,60.89c.48,44.88.02,89.79.02,134.67-10.25,10.75-20.51,21.5-30.76,32.25-7.05,7.39-14.1,14.78-21.15,22.17-1.59,1.66-7.25,9.86-9.61,10.08-6.28.57-3.46-9.82-3.46-14.68,0-16.61,0-33.23,0-49.84-14.53,0-29.06-.02-43.58-.02-4.91,0-18.44,2.88-22.37-1.58s-.92-19.68-.92-24.89v-43.75c-16.38,0-32.77.02-49.15.02-5.31,0-12.47,2.4-11.73-3.77.32-2.64,8.47-8.91,10.18-10.72,6.74-7.1,13.48-14.19,20.22-21.29,10.16-10.7,20.32-21.39,30.48-32.09v-.25c28.14-.04,56.27-.09,84.41-.13,13.04-.02,27.23-1.64,40.18-.06,3.33.41,6.46-.43,7.25,3.88h0Z"/>
  </g>
  <g class="cls-1">
    <path class="cls-4" d="m179.33,195.52c0,16.61,0,33.23,0,49.84,0,4.88-2.82,15.26,3.46,14.68,2.3-.21,8.09-8.49,9.61-10.08,7.05-7.39,14.1-14.78,21.15-22.17,10.25-10.75,20.51-21.5,30.76-32.25l-16.99.07-30.82,32.31-21.19,22.21c-1.59,1.67-7.26,9.88-9.63,10.1-6.29.57-3.46-9.84-3.46-14.71,0-16.65,0-33.29,0-49.94l17.1-.07Z"/>
    <path class="cls-4" d="m112.45,125.28c0,14.14,0,28.28,0,42.43,0,5.28-3.22,21.71.92,26.21,3.93,4.26,16.23,1.58,21.08,1.58l44.87.02c-13.44.06-26.88.07-40.33.06l-30.9-.02c-2.48,0-8.09,1.2-10.39-.35-5.34-3.58-2.48-15.96-2.48-21.1,0-16.3,0-32.6,0-48.9l17.22.07Z"/>
    <path class="cls-4" d="m112.45,57.44c-9.84,10.36-19.69,20.72-29.53,31.09-6.81,7.17-13.63,14.34-20.44,21.52-2.11,2.22-10.38,8.38-10.92,11.49-1.02,5.94,5.73,3.77,10.64,3.77l50.24-.03c-11.76-.04-77.8,4.19-78.89-2.2-.37-2.2,5.15-6.32,6.24-7.47,7.03-7.4,14.06-14.8,21.09-22.21,11.45-12.05,22.9-24.11,34.34-36.16l17.22.2Z"/>
    <path class="cls-4" d="m112.45,57.19v.25l-17.22-.2v-.25c5.74.07,11.48.13,17.22.2Z"/>
    <path class="cls-4" d="m244.31,61.32c-.43-5.1-5.07-4.17-8.82-4.31-16.88-.65-33.94.05-50.83.08-29.81.05-59.62.26-89.43-.09,40.97-.06,82.93-2.95,123.79-.19,7.15.48,7.79,1.16,8.3,8.31,1.57,22.23,0,45.13,0,67.41,0,21.04,0,42.07,0,63.11l16.99-.07V61.32h0Z"/>
    <path class="cls-4" d="m227.32,61.13c-.85-9.94-40.28-4.27-46.22-4.27-28.62.04-57.24.09-85.86.13v.25c-9.86,10.38-19.72,20.76-29.58,31.15-6.83,7.19-13.65,14.37-20.48,21.56-2.12,2.23-10.4,8.39-10.93,11.51-1.02,5.95,5.74,3.78,10.66,3.78l50.33-.03c0,14.17,0,28.34,0,42.51,0,5.29-3.23,21.75.93,26.26,3.94,4.27,16.26,1.58,21.12,1.58l44.95.02v49.94c0,4.89-2.82,15.29,3.46,14.71,2.31-.21,8.11-8.5,9.63-10.1l21.19-22.21,30.82-32.31V61.13h0Z"/>
    <path class="cls-4" d="m244.29,60.89c.48,44.88.02,89.79.02,134.67-10.25,10.75-20.51,21.5-30.76,32.25-7.05,7.39-14.1,14.78-21.15,22.17-1.59,1.66-7.25,9.86-9.61,10.08-6.28.57-3.46-9.82-3.46-14.68,0-16.61,0-33.23,0-49.84-14.53,0-29.06-.02-43.58-.02-4.91,0-18.44,2.88-22.37-1.58s-.92-19.68-.92-24.89v-43.75c-16.38,0-32.77.02-49.15.02-5.31,0-12.47,2.4-11.73-3.77.32-2.64,8.47-8.91,10.18-10.72,6.74-7.1,13.48-14.19,20.22-21.29,10.16-10.7,20.32-21.39,30.48-32.09v-.25c28.14-.04,56.27-.09,84.41-.13,13.04-.02,27.23-1.64,40.18-.06,3.33.41,6.46-.43,7.25,3.88h0Z"/>
  </g>
</svg>