<?xml version="1.0" encoding="UTF-8"?>
<svg id="Layer_1" data-name="Layer 1" xmlns="http://www.w3.org/2000/svg" viewBox="0 0 300 300">
  <defs>
    <style>
      .cls-1 {
        fill: #f5f5f5;
        stroke-width: 0px;
      }

      .cls-2 {
        fill: none;
        stroke: #000;
      }

      .cls-2, .cls-3 {
        stroke-linejoin: bevel;
        stroke-width: 2px;
      }

      .cls-3 {
        fill: #191919;
        stroke: #191919;
      }
    </style>
  </defs>
  <g>
    <path class="cls-3" d="m141.74,124.25l-.3-48.78c-.04-6.69,2.51-18.76-1.82-24.81-10.63-14.84-26.85,16.66-30.83,22.01-20.35,27.31-43.22,53.93-61.57,82.63-6.9,10.79-5.43,26.67,8.69,30.94,9.62,2.91,21.97.66,31.79.66,18.12,0,36.25.02,54.37.02-31.88.11-63.95,1.14-95.8.02-13.34-.47-24.54-10.7-19.88-25.17,2.3-7.15,8.83-13.59,13.17-19.43l36.67-49.23c10.03-13.47,19.4-28.05,30.38-40.77,2.86-3.32,5.2-6.54,10.21-5.61,9.14,1.7,7.37,12.76,7.41,19.38.12,19.36.24,38.72.36,58.08l17.14.06Z"/>
    <path class="cls-3" d="m241.89,143.35c-.06-16.81-14.29-19.14-27.43-19.14-29.95.01-59.91.08-89.86-.03l45.27-.02c12.27,0,25.87-1.71,38.04,0,13.94,1.96,20.87,16.42,14.43,28.84-4.52,8.71-12.19,16.6-18.02,24.41-12.27,16.43-24.55,32.86-36.82,49.29-7.99,10.7-15.57,24.43-25.21,33.74-3.16,3.05-5.95,5.38-10.66,3.5-7.94-3.17-5.81-14.47-5.9-21.02-.26-18.66-.53-37.31-.79-55.97l17.14-.06c.3,21.09.27,42.22.89,63.31.2,6.77,2.05,16.76,11.67,13.78,8.36-2.59,15.67-18.33,20.31-24.55,16.14-21.6,32.28-43.2,48.42-64.8,6.38-8.54,18.49-19.61,18.53-31.31h0Z"/>
    <path class="cls-3" d="m224.91,143.33c-.03-12.24-9.21-18.67-20.33-19.18-26.55-1.2-53.41.02-79.99.04l-.3-48.88c-.04-6.7,2.52-18.8-1.82-24.85-10.64-14.87-26.89,16.69-30.88,22.05-20.38,27.36-43.29,54.03-61.67,82.78-6.91,10.81-5.44,26.72,8.71,31,9.64,2.91,22.01.66,31.84.66,18.15,0,36.31.02,54.46.03.3,21.13.27,42.3.89,63.43.2,6.78,2.05,16.79,11.68,13.81,8.37-2.59,15.69-18.37,20.34-24.59,16.17-21.64,32.33-43.28,48.5-64.92,6.4-8.56,18.52-19.65,18.56-31.37h0Z"/>
    <path class="cls-3" d="m241.87,142.43c.38,9.65-7.07,16.92-12.45,24.12l-47.96,64.18c-3.36,4.49-33.35,53.97-38.44,23.93-3.63-21.46-.65-45.92-.95-67.74-15.42,0-30.84-.01-46.26-.02-11.85,0-24.92,1.67-36.65-.08-14.21-2.12-20.04-17.32-13.45-29.39,4.58-8.39,11.83-15.99,17.53-23.63,12.47-16.74,24.95-33.48,37.42-50.22,7.73-10.38,14.97-23.57,24.31-32.62,3.12-3.02,5.98-5.37,10.64-3.52,7.99,3.17,5.75,14.42,5.79,20.96.11,18.62.23,37.24.34,55.86,26.39-.01,52.99-1.06,79.36-.04,10.95.42,20.18,6.06,20.76,18.22h0Z"/>
  </g>
  <g>
    <path class="cls-1" d="m157.94,112.55l-.3-48.78c-.04-6.69,2.51-18.76-1.82-24.81-10.63-14.84-26.85,16.66-30.83,22.01-20.35,27.31-43.22,53.93-61.57,82.63-6.9,10.79-5.43,26.67,8.69,30.94,9.62,2.91,21.97.66,31.79.66,18.12,0,36.25.02,54.37.02-31.88.11-63.95,1.14-95.8.02-13.34-.47-24.54-10.7-19.88-25.17,2.3-7.15,8.83-13.59,13.17-19.43l36.67-49.23c10.03-13.47,19.4-28.05,30.38-40.77,2.86-3.32,5.2-6.54,10.21-5.61,9.14,1.7,7.37,12.76,7.41,19.38.12,19.36.24,38.72.36,58.08l17.14.06Z"/>
    <path class="cls-1" d="m258.09,131.65c-.06-16.81-14.29-19.14-27.43-19.14-29.95.01-59.91.08-89.86-.03l45.27-.02c12.27,0,25.87-1.71,38.04,0,13.94,1.96,20.87,16.42,14.43,28.84-4.52,8.71-12.19,16.6-18.02,24.41-12.27,16.43-24.55,32.86-36.82,49.29-7.99,10.7-15.57,24.43-25.21,33.74-3.16,3.05-5.95,5.38-10.66,3.5-7.94-3.17-5.81-14.47-5.9-21.02-.26-18.66-.53-37.31-.79-55.97l17.14-.06c.3,21.09.27,42.22.89,63.31.2,6.77,2.05,16.76,11.67,13.78,8.36-2.59,15.67-18.33,20.31-24.55,16.14-21.6,32.28-43.2,48.42-64.8,6.38-8.54,18.49-19.61,18.53-31.31h0Z"/>
    <path class="cls-1" d="m241.12,131.63c-.03-12.24-9.21-18.67-20.33-19.18-26.55-1.2-53.41.02-79.99.04l-.3-48.88c-.04-6.7,2.52-18.8-1.82-24.85-10.64-14.87-26.89,16.69-30.88,22.05-20.38,27.36-43.29,54.03-61.67,82.78-6.91,10.81-5.44,26.72,8.71,31,9.64,2.91,22.01.66,31.84.66,18.15,0,36.31.02,54.46.03.3,21.13.27,42.3.89,63.43.2,6.78,2.05,16.79,11.68,13.81,8.37-2.59,15.69-18.37,20.34-24.59,16.17-21.64,32.33-43.28,48.5-64.92,6.4-8.56,18.52-19.65,18.56-31.37h0Z"/>
    <path class="cls-1" d="m258.07,130.73c.38,9.65-7.07,16.92-12.45,24.12l-47.96,64.18c-3.36,4.49-33.35,53.97-38.44,23.93-3.63-21.46-.65-45.92-.95-67.74-15.42,0-30.84-.01-46.26-.02-11.85,0-24.92,1.67-36.65-.08-14.21-2.12-20.04-17.32-13.45-29.39,4.58-8.39,11.83-15.99,17.53-23.63,12.47-16.74,24.95-33.48,37.42-50.22,7.73-10.38,14.97-23.57,24.31-32.62,3.12-3.02,5.98-5.37,10.64-3.52,7.99,3.17,5.75,14.42,5.79,20.96.11,18.62.23,37.24.34,55.86,26.39-.01,52.99-1.06,79.36-.04,10.95.42,20.18,6.06,20.76,18.22h0Z"/>
  </g>
  <g>
    <path class="cls-2" d="m158.14,113.14l-.3-48.78c-.04-6.69,2.51-18.76-1.82-24.81-10.63-14.84-26.85,16.66-30.83,22.01-20.35,27.31-43.22,53.93-61.57,82.63-6.9,10.79-5.43,26.67,8.69,30.94,9.62,2.91,21.97.66,31.79.66,18.12,0,36.25.02,54.37.02-31.88.11-63.95,1.14-95.8.02-13.34-.47-24.54-10.7-19.88-25.17,2.3-7.15,8.83-13.59,13.17-19.43l36.67-49.23c10.03-13.47,19.4-28.05,30.38-40.77,2.86-3.32,5.2-6.54,10.21-5.61,9.14,1.7,7.37,12.76,7.41,19.38.12,19.36.24,38.72.36,58.08l17.14.06Z"/>
    <path class="cls-2" d="m258.29,132.24c-.06-16.81-14.29-19.14-27.43-19.14-29.95.01-59.91.08-89.86-.03l45.27-.02c12.27,0,25.87-1.71,38.04,0,13.94,1.96,20.87,16.42,14.43,28.84-4.52,8.71-12.19,16.6-18.02,24.41-12.27,16.43-24.55,32.86-36.82,49.29-7.99,10.7-15.57,24.43-25.21,33.74-3.16,3.05-5.95,5.38-10.66,3.5-7.94-3.17-5.81-14.47-5.9-21.02-.26-18.66-.53-37.31-.79-55.97l17.14-.06c.3,21.09.27,42.22.89,63.31.2,6.77,2.05,16.76,11.67,13.78,8.36-2.59,15.67-18.33,20.31-24.55,16.14-21.6,32.28-43.2,48.42-64.8,6.38-8.54,18.49-19.61,18.53-31.31h0Z"/>
    <path class="cls-2" d="m241.31,132.22c-.03-12.24-9.21-18.67-20.33-19.18-26.55-1.2-53.41.02-79.99.04l-.3-48.88c-.04-6.7,2.52-18.8-1.82-24.85-10.64-14.87-26.89,16.69-30.88,22.05-20.38,27.36-43.29,54.03-61.67,82.78-6.91,10.81-5.44,26.72,8.71,31,9.64,2.91,22.01.66,31.84.66,18.15,0,36.31.02,54.46.03.3,21.13.27,42.3.89,63.43.2,6.78,2.05,16.79,11.68,13.81,8.37-2.59,15.69-18.37,20.34-24.59,16.17-21.64,32.33-43.28,48.5-64.92,6.4-8.56,18.52-19.65,18.56-31.37h0Z"/>
    <path class="cls-2" d="m258.26,131.32c.38,9.65-7.07,16.92-12.45,24.12l-47.96,64.18c-3.36,4.49-33.35,53.97-38.44,23.93-3.63-21.46-.65-45.92-.95-67.74-15.42,0-30.84-.01-46.26-.02-11.85,0-24.92,1.67-36.65-.08-14.21-2.12-20.04-17.32-13.45-29.39,4.58-8.39,11.83-15.99,17.53-23.63,12.47-16.74,24.95-33.48,37.42-50.22,7.73-10.38,14.97-23.57,24.31-32.62,3.12-3.02,5.98-5.37,10.64-3.52,7.99,3.17,5.75,14.42,5.79,20.96.11,18.62.23,37.24.34,55.86,26.39-.01,52.99-1.06,79.36-.04,10.95.42,20.18,6.06,20.76,18.22h0Z"/>
  </g>
</svg>