<?xml version="1.0" encoding="UTF-8"?>
<svg id="Layer_1" data-name="Layer 1" xmlns="http://www.w3.org/2000/svg" viewBox="0 0 300 300">
  <defs>
    <style>
      .cls-1 {
        fill: #f5f5f5;
        stroke-width: 0px;
      }

      .cls-2 {
        fill: none;
        stroke: #000;
      }

      .cls-2, .cls-3 {
        stroke-linejoin: bevel;
        stroke-width: 2px;
      }

      .cls-3 {
        fill: #191919;
        stroke: #191919;
      }
    </style>
  </defs>
  <g>
    <g>
      <path class="cls-3" d="m177.58,169.78c-2.33,31.92-35.2,51.77-64.47,39.83-14.96-6.1-29.89-37.41-47.72-27.43-5.13,2.87-13.78,19.51-19.33,8.86-5.28-10.13,10.77-31.24,18.21-36.89,21.77-16.56,49.63-7.51,66.25,10.91,7.09,7.86,14.66,17.86,26.5,11.87,4.11-2.08,19.07-22.35,20.57-7.16h0Z"/>
      <path class="cls-3" d="m194.79,170.18c-.39-13.62-12.49.09-15.88,3.2-9.59,8.78-18.95,5.07-26.81-3.41-16.33-17.6-35.13-30.97-60.59-21.27-14.53,5.54-24.38,19.8-27.52,34.74-.8,3.82-2.12,8.79,2.65,10.66,5.22,2.04,7.3-3.65,10.12-6.72,18.83-20.48,31.59,8.66,46.15,18.16,30.29,19.75,67.24-1.1,71.86-35.36h0Z"/>
      <path class="cls-3" d="m177.59,170.22c-.39-13.63-12.5.09-15.91,3.21-9.32,8.54-18.63,5.34-26.43-2.93-16.67-17.68-35.13-31.72-61.13-21.8-14.56,5.55-24.43,19.84-27.57,34.82-.82,3.88-2.1,9.13,2.94,10.8s7.21-4.02,10.02-7.05c18.67-20.06,31.27,8.39,45.48,17.98,30.29,20.46,67.92-.44,72.59-35.03h0Z"/>
      <path class="cls-3" d="m194.77,169.74c-2.32,31.86-35.14,51.65-64.35,39.74-14.96-6.1-29.86-37.29-47.63-27.37-5.13,2.86-13.75,19.47-19.29,8.84-5.2-9.96,10.53-30.84,17.78-36.5,21.68-16.92,49.82-7.91,66.52,10.58,7.28,8.07,15.14,18.14,27.11,11.47,3.95-2.2,18.38-21.82,19.87-6.76h0Z"/>
    </g>
    <g>
      <path class="cls-3" d="m217.89,114.67c-2.33,31.96-35.25,51.83-64.56,39.92-14.99-6.09-29.94-37.41-47.79-27.4-5.13,2.88-13.79,19.53-19.35,8.89-5.29-10.14,10.8-31.27,18.23-36.93,21.79-16.58,49.68-7.58,66.34,10.86,7.11,7.87,14.68,17.85,26.53,11.85,4.11-2.08,19.09-22.38,20.6-7.18h0Z"/>
      <path class="cls-3" d="m235.02,115.2c-.39-13.63-12.51.11-15.9,3.22-9.32,8.54-18.61,5.35-26.41-2.9-16.51-17.45-34.35-31.23-60.17-22.06-14.97,5.32-24.28,19.04-28.17,33.96-1.02,3.91-2.79,9.51,2.06,11.72,5.29,2.41,7.57-3.51,10.42-6.62,18.73-20.44,31.47,8.37,45.92,17.93,30.31,20.05,67.6-.81,72.26-35.25h0Z"/>
      <path class="cls-3" d="m217.9,115.12c-.39-13.64-12.52.1-15.93,3.22-9.33,8.55-18.65,5.37-26.46-2.91-16.71-17.69-35.19-31.7-61.21-21.76-14.58,5.57-24.46,19.87-27.61,34.87-.82,3.89-2.1,9.13,2.95,10.8,5.19,1.71,7.22-4.03,10.04-7.06,18.69-20.08,31.3,8.35,45.54,17.95,30.33,20.45,68.01-.5,72.69-35.12h0Z"/>
      <path class="cls-3" d="m235.01,114.75c-2.32,31.89-35.19,51.72-64.44,39.83-14.99-6.09-29.9-37.28-47.7-27.34-5.13,2.87-13.77,19.49-19.32,8.87-5.36-10.26,11.01-31.54,18.59-37.16,21.94-16.25,49.45-7.01,66.02,11.36,7.14,7.91,14.82,17.71,26.62,11.42,4.01-2.14,18.73-22.09,20.23-6.98h0Z"/>
    </g>
  </g>
  <g>
    <g>
      <path class="cls-1" d="m186.02,160.7c-2.33,31.92-35.2,51.77-64.47,39.83-14.96-6.1-29.89-37.41-47.72-27.43-5.13,2.87-13.78,19.51-19.33,8.86-5.28-10.13,10.77-31.24,18.21-36.89,21.77-16.56,49.63-7.51,66.25,10.91,7.09,7.86,14.66,17.86,26.5,11.87,4.11-2.08,19.07-22.35,20.57-7.16h0Z"/>
      <path class="cls-1" d="m203.23,161.1c-.39-13.62-12.49.09-15.88,3.2-9.59,8.78-18.95,5.07-26.81-3.41-16.33-17.6-35.13-30.97-60.59-21.27-14.53,5.54-24.38,19.8-27.52,34.74-.8,3.82-2.12,8.79,2.65,10.66,5.22,2.04,7.3-3.65,10.12-6.72,18.83-20.48,31.59,8.66,46.15,18.16,30.29,19.75,67.24-1.1,71.86-35.36h0Z"/>
      <path class="cls-1" d="m186.04,161.14c-.39-13.63-12.5.09-15.91,3.21-9.32,8.54-18.63,5.34-26.43-2.93-16.67-17.68-35.13-31.72-61.13-21.8-14.56,5.55-24.43,19.84-27.57,34.82-.82,3.88-2.1,9.13,2.94,10.8s7.21-4.02,10.02-7.05c18.67-20.06,31.27,8.39,45.48,17.98,30.29,20.46,67.92-.44,72.59-35.03h0Z"/>
      <path class="cls-1" d="m203.22,160.66c-2.32,31.86-35.14,51.65-64.35,39.74-14.96-6.1-29.86-37.29-47.63-27.37-5.13,2.86-13.75,19.47-19.29,8.84-5.2-9.96,10.53-30.84,17.78-36.5,21.68-16.92,49.82-7.91,66.52,10.58,7.28,8.07,15.14,18.14,27.11,11.47,3.95-2.2,18.38-21.82,19.87-6.76h0Z"/>
    </g>
    <g>
      <path class="cls-1" d="m226.33,105.59c-2.33,31.96-35.25,51.83-64.56,39.92-14.99-6.09-29.94-37.41-47.79-27.4-5.13,2.88-13.79,19.53-19.35,8.89-5.29-10.14,10.8-31.27,18.23-36.93,21.79-16.58,49.68-7.58,66.34,10.86,7.11,7.87,14.68,17.85,26.53,11.85,4.11-2.08,19.09-22.38,20.6-7.18h0Z"/>
      <path class="cls-1" d="m243.46,106.12c-.39-13.63-12.51.11-15.9,3.22-9.32,8.54-18.61,5.35-26.41-2.9-16.51-17.45-34.35-31.23-60.17-22.06-14.97,5.32-24.28,19.04-28.17,33.96-1.02,3.91-2.79,9.51,2.06,11.72,5.29,2.41,7.57-3.51,10.42-6.62,18.73-20.44,31.47,8.37,45.92,17.93,30.31,20.05,67.6-.81,72.26-35.25h0Z"/>
      <path class="cls-1" d="m226.35,106.04c-.39-13.64-12.52.1-15.93,3.22-9.33,8.55-18.65,5.37-26.46-2.91-16.71-17.69-35.19-31.7-61.21-21.76-14.58,5.57-24.46,19.87-27.61,34.87-.82,3.89-2.1,9.13,2.95,10.8,5.19,1.71,7.22-4.03,10.04-7.06,18.69-20.08,31.3,8.35,45.54,17.95,30.33,20.45,68.01-.5,72.69-35.12h0Z"/>
      <path class="cls-1" d="m243.45,105.68c-2.32,31.89-35.19,51.72-64.44,39.83-14.99-6.09-29.9-37.28-47.7-27.34-5.13,2.87-13.77,19.49-19.32,8.87-5.36-10.26,11.01-31.54,18.59-37.16,21.94-16.25,49.45-7.01,66.02,11.36,7.14,7.91,14.82,17.71,26.62,11.42,4.01-2.14,18.73-22.09,20.23-6.98h0Z"/>
    </g>
  </g>
  <g>
    <g>
      <path class="cls-2" d="m186.32,160.7c-2.33,31.92-35.2,51.77-64.47,39.83-14.96-6.1-29.89-37.41-47.72-27.43-5.13,2.87-13.78,19.51-19.33,8.86-5.28-10.13,10.77-31.24,18.21-36.89,21.77-16.56,49.63-7.51,66.25,10.91,7.09,7.86,14.66,17.86,26.5,11.87,4.11-2.08,19.07-22.35,20.57-7.16h0Z"/>
      <path class="cls-2" d="m203.53,161.1c-.39-13.62-12.49.09-15.88,3.2-9.59,8.78-18.95,5.07-26.81-3.41-16.33-17.6-35.13-30.97-60.59-21.27-14.53,5.54-24.38,19.8-27.52,34.74-.8,3.82-2.12,8.79,2.65,10.66,5.22,2.04,7.3-3.65,10.12-6.72,18.83-20.48,31.59,8.66,46.15,18.16,30.29,19.75,67.24-1.1,71.86-35.36h0Z"/>
      <path class="cls-2" d="m186.34,161.14c-.39-13.63-12.5.09-15.91,3.21-9.32,8.54-18.63,5.34-26.43-2.93-16.67-17.68-35.13-31.72-61.13-21.8-14.56,5.55-24.43,19.84-27.57,34.82-.82,3.88-2.1,9.13,2.94,10.8s7.21-4.02,10.02-7.05c18.67-20.06,31.27,8.39,45.48,17.98,30.29,20.46,67.92-.44,72.59-35.03h0Z"/>
      <path class="cls-2" d="m203.52,160.66c-2.32,31.86-35.14,51.65-64.35,39.74-14.96-6.1-29.86-37.29-47.63-27.37-5.13,2.86-13.75,19.47-19.29,8.84-5.2-9.96,10.53-30.84,17.78-36.5,21.68-16.92,49.82-7.91,66.52,10.58,7.28,8.07,15.14,18.14,27.11,11.47,3.95-2.2,18.38-21.82,19.87-6.76h0Z"/>
    </g>
    <g>
      <path class="cls-2" d="m226.63,105.59c-2.33,31.96-35.25,51.83-64.56,39.92-14.99-6.09-29.94-37.41-47.79-27.4-5.13,2.88-13.79,19.53-19.35,8.89-5.29-10.14,10.8-31.27,18.23-36.93,21.79-16.58,49.68-7.58,66.34,10.86,7.11,7.87,14.68,17.85,26.53,11.85,4.11-2.08,19.09-22.38,20.6-7.18h0Z"/>
      <path class="cls-2" d="m243.76,106.12c-.39-13.63-12.51.11-15.9,3.22-9.32,8.54-18.61,5.35-26.41-2.9-16.51-17.45-34.35-31.23-60.17-22.06-14.97,5.32-24.28,19.04-28.17,33.96-1.02,3.91-2.79,9.51,2.06,11.72,5.29,2.41,7.57-3.51,10.42-6.62,18.73-20.44,31.47,8.37,45.92,17.93,30.31,20.05,67.6-.81,72.26-35.25h0Z"/>
      <path class="cls-2" d="m226.65,106.04c-.39-13.64-12.52.1-15.93,3.22-9.33,8.55-18.65,5.37-26.46-2.91-16.71-17.69-35.19-31.7-61.21-21.76-14.58,5.57-24.46,19.87-27.61,34.87-.82,3.89-2.1,9.13,2.95,10.8,5.19,1.71,7.22-4.03,10.04-7.06,18.69-20.08,31.3,8.35,45.54,17.95,30.33,20.45,68.01-.5,72.69-35.12h0Z"/>
      <path class="cls-2" d="m243.75,105.68c-2.32,31.89-35.19,51.72-64.44,39.83-14.99-6.09-29.9-37.28-47.7-27.34-5.13,2.87-13.77,19.49-19.32,8.87-5.36-10.26,11.01-31.54,18.59-37.16,21.94-16.25,49.45-7.01,66.02,11.36,7.14,7.91,14.82,17.71,26.62,11.42,4.01-2.14,18.73-22.09,20.23-6.98h0Z"/>
    </g>
  </g>
</svg>