<?xml version="1.0" encoding="UTF-8"?>
<svg id="Layer_1" data-name="Layer 1" xmlns="http://www.w3.org/2000/svg" viewBox="0 0 300 300">
  <defs>
    <style>
      .cls-1 {
        fill: #f5f5f5;
        stroke-width: 0px;
      }

      .cls-2 {
        fill: none;
        stroke: #000;
        stroke-miterlimit: 10;
      }

      .cls-2, .cls-3 {
        stroke-width: 2px;
      }

      .cls-3 {
        fill: #191919;
        stroke: #191919;
        stroke-linejoin: bevel;
      }
    </style>
  </defs>
  <g>
    <path class="cls-3" d="m139.4,37.52c-32.9,60.93-65.81,121.87-98.71,182.8-5.53,10.24-11.06,20.48-16.59,30.72l-17.34.18c32.93-61,65.86-122,98.8-183,5.56-10.29,11.11-20.58,16.67-30.87,5.72.06,11.45.12,17.17.18Z"/>
    <path class="cls-3" d="m24.1,251.05l230.94.32c-71.73.75-143.5,0-215.23-.09-11.02-.02-22.03-.03-33.05-.05,5.78-.06,11.56-.12,17.34-.18Z"/>
    <path class="cls-3" d="m255.04,251.36c-32.99-61.01-65.98-122.01-98.97-183.02-5.56-10.27-11.11-20.55-16.67-30.82l-17.17-.18c33.04,61.11,66.08,122.22,99.12,183.33,5.56,10.29,11.13,20.58,16.69,30.87,5.67-.06,11.34-.12,17-.18Z"/>
    <path class="cls-3" d="m226.04,233.5c-63.46-.07-126.93-.59-190.38-.05,63.46.07,126.93.6,190.38.05Z"/>
    <path class="cls-3" d="m52.95,233.3l86.45-160.05-17.17-.12L35.66,233.45c5.76-.05,11.53-.1,17.29-.15Z"/>
    <path class="cls-3" d="m139.4,73.25l86.64,160.25-17.05.15L122.23,73.13l17.17.12Z"/>
    <path class="cls-3" d="m238.04,251.54c-33.04-61.11-66.08-122.22-99.12-183.32-5.56-10.29-11.13-20.58-16.69-30.87-32.95,61.04-65.9,122.07-98.85,183.11-5.54,10.26-11.07,20.51-16.61,30.77,77.09.11,154.18.21,231.27.32Z"/>
    <path class="cls-3" d="m245.39,233.52l9.65,17.84-230.94-.32c32.89-60.9,65.77-121.8,98.66-182.7,5.55-10.27,11.1-20.55,16.64-30.82,35.33,65.33,70.66,130.66,105.99,196h0Z"/>
    <polygon class="cls-3" points="122.23 73.13 208.99 233.65 35.66 233.45 122.23 73.13 122.23 73.13"/>
    <path class="cls-3" d="m226.04,233.5l-86.64-160.25L52.95,233.3c57.7.07,115.39.13,173.09.2Z"/>
  </g>
  <g>
    <path class="cls-1" d="m158.44,26.48c-32.9,60.93-65.81,121.87-98.71,182.8-5.53,10.24-11.06,20.48-16.59,30.72l-17.34.18c32.93-61,65.86-122,98.8-183,5.56-10.29,11.11-20.58,16.67-30.87,5.72.06,11.45.12,17.17.18Z"/>
    <path class="cls-1" d="m43.14,240.01l230.94.32c-71.73.75-143.5,0-215.23-.09-11.02-.02-22.03-.03-33.05-.05,5.78-.06,11.56-.12,17.34-.18Z"/>
    <path class="cls-1" d="m274.08,240.32c-32.99-61.01-65.98-122.01-98.97-183.02-5.56-10.27-11.11-20.55-16.67-30.82l-17.17-.18c33.04,61.11,66.08,122.22,99.12,183.33,5.56,10.29,11.13,20.58,16.69,30.87,5.67-.06,11.34-.12,17-.18Z"/>
    <path class="cls-1" d="m245.08,222.46c-63.46-.07-126.93-.59-190.38-.05,63.46.07,126.93.6,190.38.05Z"/>
    <path class="cls-1" d="m71.99,222.26L158.44,62.21l-17.17-.12L54.7,222.41c5.76-.05,11.53-.1,17.29-.15Z"/>
    <path class="cls-1" d="m158.44,62.21l86.64,160.25-17.05.15L141.27,62.09l17.17.12Z"/>
    <path class="cls-1" d="m257.08,240.5c-33.04-61.11-66.08-122.22-99.12-183.32-5.56-10.29-11.13-20.58-16.69-30.87-32.95,61.04-65.9,122.07-98.85,183.11-5.54,10.26-11.07,20.51-16.61,30.77,77.09.11,154.18.21,231.27.32Z"/>
    <path class="cls-1" d="m264.43,222.48l9.65,17.84-230.94-.32c32.89-60.9,65.77-121.8,98.66-182.7,5.55-10.27,11.1-20.55,16.64-30.82,35.33,65.33,70.66,130.66,105.99,196h0Z"/>
    <polygon class="cls-1" points="141.27 62.09 228.04 222.6 54.7 222.41 141.27 62.09 141.27 62.09"/>
    <path class="cls-1" d="m245.08,222.46L158.44,62.21l-86.45,160.05c57.7.07,115.39.13,173.09.2Z"/>
  </g>
  <g>
    <path class="cls-2" d="m158.5,27.04c-32.9,60.93-65.81,121.87-98.71,182.8-5.53,10.24-11.06,20.48-16.59,30.72l-17.34.18c32.93-61,65.86-122,98.8-183,5.56-10.29,11.11-20.58,16.67-30.87,5.72.06,11.45.12,17.17.18Z"/>
    <path class="cls-2" d="m43.2,240.56l230.94.32c-71.73.75-143.5,0-215.23-.09-11.02-.02-22.03-.03-33.05-.05,5.78-.06,11.56-.12,17.34-.18Z"/>
    <path class="cls-2" d="m274.14,240.88c-32.99-61.01-65.98-122.01-98.97-183.02-5.56-10.27-11.11-20.55-16.67-30.82l-17.17-.18c33.04,61.11,66.08,122.22,99.12,183.33,5.56,10.29,11.13,20.58,16.69,30.87,5.67-.06,11.34-.12,17-.18Z"/>
    <path class="cls-2" d="m245.14,223.01c-63.46-.07-126.93-.59-190.38-.05,63.46.07,126.93.6,190.38.05Z"/>
    <path class="cls-2" d="m72.05,222.81L158.5,62.76l-17.17-.12L54.76,222.96c5.76-.05,11.53-.1,17.29-.15Z"/>
    <path class="cls-2" d="m158.5,62.76l86.64,160.25-17.05.15L141.33,62.64l17.17.12Z"/>
    <path class="cls-2" d="m257.13,241.06c-33.04-61.11-66.08-122.22-99.12-183.32-5.56-10.29-11.13-20.58-16.69-30.87-32.95,61.04-65.9,122.07-98.85,183.11-5.54,10.26-11.07,20.51-16.61,30.77,77.09.11,154.18.21,231.27.32Z"/>
    <path class="cls-2" d="m264.49,223.03l9.65,17.84-230.94-.32c32.89-60.9,65.77-121.8,98.66-182.7,5.55-10.27,11.1-20.55,16.64-30.82,35.33,65.33,70.66,130.66,105.99,196h0Z"/>
    <polygon class="cls-2" points="141.33 62.64 228.09 223.16 54.76 222.96 141.33 62.64 141.33 62.64"/>
    <path class="cls-2" d="m245.14,223.01L158.5,62.76l-86.45,160.05c57.7.07,115.39.13,173.09.2Z"/>
  </g>
</svg>