<?xml version="1.0" encoding="UTF-8"?>
<svg id="Layer_1" data-name="Layer 1" xmlns="http://www.w3.org/2000/svg" viewBox="0 0 300 300">
  <defs>
    <style>
      .cls-1 {
        fill: #f5f5f5;
        stroke-width: 0px;
      }

      .cls-2 {
        fill: none;
        stroke: #000;
      }

      .cls-2, .cls-3 {
        stroke-linejoin: bevel;
        stroke-width: 2px;
      }

      .cls-3 {
        fill: #191919;
        stroke: #191919;
      }
    </style>
  </defs>
  <g id="Page-1">
    <g>
      <path class="cls-3" d="m159.03,116.07l29.15,92.21-17.08.12-29.2-92.42c5.71.03,11.43.06,17.14.09Z"/>
      <path class="cls-3" d="m132.98,116.09c-3.07-.2-13.94.37-11.12-5.88,1.99-4.41,15.54-1.12,19.66-1.01,7.55.19,15.23-1.06,22.72-.73,4.47.2,10.67,2.23,4.56,6.67-5.18,3.76-22.42.87-26.92.84,2.37-.14,9.64.43,11.33-1.85,5.21-7.01-7.07-5.68-10.1-5.49-5.89.38-39.29-2.53-38.79,3.26.63,7.4,25.56,4.16,28.66,4.18Z"/>
      <path class="cls-3" d="m127.91,208.94l17.62-56.26-12.55-36.59-17.19-.09,12.57,36.67-17.66,56.39c5.73-.04,11.47-.08,17.2-.12Z"/>
      <path class="cls-3" d="m98.6,116.12l29.31,92.81-17.2.12-29.37-93.03c5.75.03,11.51.06,17.26.09Z"/>
      <path class="cls-3" d="m80.68,109.24c5.31.18,29.98-3.71,30.12,2.36.18,7.83-27.97,4.44-29.47,4.43,3.21-.19,15.01.35,11.84-6.12-2.09-4.27-24.48-.59-29.79-.78,5.77.04,11.53.07,17.3.11Z"/>
      <path class="cls-3" d="m202.39,92.99c-36.35-35.24-95.14-26.43-121.71,16.25l-17.3-.11c26.61-42.78,85.52-51.61,121.95-16.29l17.05.15Z"/>
      <path class="cls-3" d="m202.37,152.35c.11-13.74-7.38-22.46-12.28-34.43-3.98-9.72-1.7-26.19,12.3-24.93-11.56-.1-27.89-3.56-31.28,11.43-2.06,9.07,3.88,16.79,7.83,24.34,8.77,16.78,6.05,30.71,1.17,48-2.98,10.55-6.04,21.08-9.01,31.63l17.08-.12c4.92-17.48,13.96-37.59,14.2-55.93h0Z"/>
      <path class="cls-3" d="m185.31,152.34c.11-13.77-7.39-22.51-12.31-34.51-3.99-9.74-1.71-26.25,12.33-24.99-36.43-35.33-95.34-26.49-121.95,16.29,5.38.19,27.6-3.53,29.79.78,3.28,6.44-8.72,5.94-11.84,6.12l29.37,93.03,17.66-56.39-12.57-36.67c-3.2-.2-12.86.59-11.35-5.25,1.35-5.22,13.46-1.89,17.41-1.74,4.97.19,36.18-3.62,31.82,4.51-1.57,2.92-9.1,2.31-11.78,2.46l29.2,92.42c4.93-17.52,13.98-37.68,14.22-56.06h0Z"/>
      <path class="cls-3" d="m202.37,151.95c-.04,18.42-9.26,38.79-14.2,56.33l-29.15-92.21c2.22-.13,9.08.44,10.84-1.43,5.3-5.65-3.23-6.14-6.74-6.09-6.02.08-38.17-2.79-40.85.94-4.67,6.5,7.84,6.41,10.71,6.6l12.55,36.59-17.62,56.26-29.31-92.81c3.2-.19,14.98.35,11.82-6.11-2.09-4.26-24.44-.59-29.73-.78,26.56-42.68,85.35-51.5,121.71-16.25-13.8-1.21-16.31,14.9-12.43,24.62,4.79,11.99,12.39,20.64,12.42,34.34h0Z"/>
    </g>
    <g>
      <path class="cls-3" d="m218.72,115.09c3.3,26.32-9.9,53.12-17.91,77.56-4.13,12.59-8.25,25.19-12.35,37.79l-17.08.17c6.43-19.76,12.94-39.49,19.37-59.25,4.14-12.73,9.51-25.83,11.1-39.2.68-5.66.55-11.53-.15-17.17,5.67.03,11.35.06,17.02.1Z"/>
      <path class="cls-3" d="m228.61,156.28c-.01-14.28-3.35-28.49-9.9-41.19l-17.02-.1c15.92,30.87,12.37,70.01-9.48,97.14-5.85,7.27-12.9,13.56-20.84,18.48l17.08-.17c25.35-15.71,40.13-44.59,40.16-74.16h0Z"/>
      <path class="cls-3" d="m211.61,156.28c-.01-14.31-3.35-28.55-9.92-41.28,3.31,26.38-9.92,53.24-17.94,77.74-4.14,12.62-8.27,25.24-12.38,37.87,25.41-15.75,40.21-44.7,40.24-74.33h0Z"/>
      <path class="cls-3" d="m228.6,154.88c.33,23.51-8.52,46.84-25.14,63.6-4.52,4.55-9.55,8.58-15,11.96,6.42-19.71,12.92-39.4,19.33-59.11,4.13-12.7,9.49-25.77,11.08-39.11.67-5.64.55-11.5-.15-17.13,6.34,12.28,9.67,25.98,9.89,39.79h0Z"/>
    </g>
    <g>
      <path class="cls-3" d="m149.34,163.78l-24.17,74.71-17.21.19,24.22-74.88,17.16-.02Z"/>
      <path class="cls-3" d="m173.07,237.79l1.62-.58-17.11.19c-15.9,5.89-33.44,6.37-49.62,1.29l17.21-.19c15.59,4.89,32.45,4.63,47.9-.7h0Z"/>
      <path class="cls-3" d="m174.69,237.2c-10.36-23.44-17.03-49.16-25.35-73.42l-17.16.02c8.33,24.3,14.98,50.13,25.4,73.59,5.7-.06,11.41-.12,17.11-.19Z"/>
      <path class="cls-3" d="m157.58,237.39c-10.43-23.45-17.07-49.29-25.4-73.59l-24.22,74.88c16.18,5.08,33.72,4.6,49.62-1.29h0Z"/>
      <path class="cls-3" d="m174.39,236.63l.31.57c-15.87,5.88-33.37,6.35-49.53,1.29l24.17-74.71c8.33,24.27,16.1,48.8,25.05,72.85h0Z"/>
    </g>
    <g>
      <path class="cls-3" d="m111.53,232.73l1.25.66-17.23.18c-27.51-14.31-44.45-43.81-45.37-74.52-.38-12.89,1.96-25.8,6.93-37.7l17.31.08c-13.44,32.22-6.95,71.06,17.43,96.28,5.76,5.96,12.4,11.05,19.68,15.01h0Z"/>
      <path class="cls-3" d="m112.78,233.39l-38.36-111.96-17.31-.08,38.44,112.22c5.74-.06,11.49-.12,17.23-.18Z"/>
      <path class="cls-3" d="m95.55,233.57l-38.44-112.22c-13.6,32.65-6.81,72.01,18.21,97.27,5.93,5.98,12.76,11.05,20.23,14.94h0Z"/>
      <path class="cls-3" d="m74.42,121.43l38.36,111.96c-27.46-14.28-44.36-43.71-45.28-74.34-.38-12.86,1.96-25.74,6.91-37.61h0Z"/>
    </g>
  </g>
  <g id="Page-1-2" data-name="Page-1">
    <g>
      <path class="cls-1" d="m169.75,109.51l29.15,92.21-17.08.12-29.2-92.42c5.71.03,11.43.06,17.14.09Z"/>
      <path class="cls-1" d="m143.71,109.53c-3.07-.2-13.94.37-11.12-5.88,1.99-4.41,15.54-1.12,19.66-1.01,7.55.19,15.23-1.06,22.72-.73,4.47.2,10.67,2.23,4.56,6.67-5.18,3.76-22.42.87-26.92.84,2.37-.14,9.64.43,11.33-1.85,5.21-7.01-7.07-5.68-10.1-5.49-5.89.38-39.29-2.53-38.79,3.26.63,7.4,25.56,4.16,28.66,4.18Z"/>
      <path class="cls-1" d="m138.63,202.38l17.62-56.26-12.55-36.59-17.19-.09,12.57,36.67-17.66,56.39c5.73-.04,11.47-.08,17.2-.12Z"/>
      <path class="cls-1" d="m109.32,109.56l29.31,92.81-17.2.12-29.37-93.03c5.75.03,11.51.06,17.26.09Z"/>
      <path class="cls-1" d="m91.41,102.68c5.31.18,29.98-3.71,30.12,2.36.18,7.83-27.97,4.44-29.47,4.43,3.21-.19,15.01.35,11.84-6.12-2.09-4.27-24.48-.59-29.79-.78,5.77.04,11.53.07,17.3.11Z"/>
      <path class="cls-1" d="m213.11,86.43c-36.35-35.24-95.14-26.43-121.71,16.25l-17.3-.11c26.61-42.78,85.52-51.61,121.95-16.29l17.05.15Z"/>
      <path class="cls-1" d="m213.1,145.79c.11-13.74-7.38-22.46-12.28-34.43-3.98-9.72-1.7-26.19,12.3-24.93-11.56-.1-27.89-3.56-31.28,11.43-2.06,9.07,3.88,16.79,7.83,24.34,8.77,16.78,6.05,30.71,1.17,48-2.98,10.55-6.04,21.08-9.01,31.63l17.08-.12c4.92-17.48,13.96-37.59,14.2-55.93h0Z"/>
      <path class="cls-1" d="m196.04,145.78c.11-13.77-7.39-22.51-12.31-34.51-3.99-9.74-1.71-26.25,12.33-24.99-36.43-35.33-95.34-26.49-121.95,16.29,5.38.19,27.6-3.53,29.79.78,3.28,6.44-8.72,5.94-11.84,6.12l29.37,93.03,17.66-56.39-12.57-36.67c-3.2-.2-12.86.59-11.35-5.25,1.35-5.22,13.46-1.89,17.41-1.74,4.97.19,36.18-3.62,31.82,4.51-1.57,2.92-9.1,2.31-11.78,2.46l29.2,92.42c4.93-17.52,13.98-37.68,14.22-56.06h0Z"/>
      <path class="cls-1" d="m213.1,145.39c-.04,18.42-9.26,38.79-14.2,56.33l-29.15-92.21c2.22-.13,9.08.44,10.84-1.43,5.3-5.65-3.23-6.14-6.74-6.09-6.02.08-38.17-2.79-40.85.94-4.67,6.5,7.84,6.41,10.71,6.6l12.55,36.59-17.62,56.26-29.31-92.81c3.2-.19,14.98.35,11.82-6.11-2.09-4.26-24.44-.59-29.73-.78,26.56-42.68,85.35-51.5,121.71-16.25-13.8-1.21-16.31,14.9-12.43,24.62,4.79,11.99,12.39,20.64,12.42,34.34h0Z"/>
    </g>
    <g>
      <path class="cls-1" d="m229.44,108.53c3.3,26.32-9.9,53.12-17.91,77.56-4.13,12.59-8.25,25.19-12.35,37.79l-17.08.17c6.43-19.76,12.94-39.49,19.37-59.25,4.14-12.73,9.51-25.83,11.1-39.2.68-5.66.55-11.53-.15-17.17,5.67.03,11.35.06,17.02.1Z"/>
      <path class="cls-1" d="m239.34,149.72c-.01-14.28-3.35-28.49-9.9-41.19l-17.02-.1c15.92,30.87,12.37,70.01-9.48,97.14-5.85,7.27-12.9,13.56-20.84,18.48l17.08-.17c25.35-15.71,40.13-44.59,40.16-74.16h0Z"/>
      <path class="cls-1" d="m222.34,149.72c-.01-14.31-3.35-28.55-9.92-41.28,3.31,26.38-9.92,53.24-17.94,77.74-4.14,12.62-8.27,25.24-12.38,37.87,25.41-15.75,40.21-44.7,40.24-74.33h0Z"/>
      <path class="cls-1" d="m239.33,148.32c.33,23.51-8.52,46.84-25.14,63.6-4.52,4.55-9.55,8.58-15,11.96,6.42-19.71,12.92-39.4,19.33-59.11,4.13-12.7,9.49-25.77,11.08-39.11.67-5.64.55-11.5-.15-17.13,6.34,12.28,9.67,25.98,9.89,39.79h0Z"/>
    </g>
    <g>
      <path class="cls-1" d="m160.07,157.22l-24.17,74.71-17.21.19,24.22-74.88,17.16-.02Z"/>
      <path class="cls-1" d="m183.8,231.23l1.62-.58-17.11.19c-15.9,5.89-33.44,6.37-49.62,1.29l17.21-.19c15.59,4.89,32.45,4.63,47.9-.7h0Z"/>
      <path class="cls-1" d="m185.42,230.64c-10.36-23.44-17.03-49.16-25.35-73.42l-17.16.02c8.33,24.3,14.98,50.13,25.4,73.59,5.7-.06,11.41-.12,17.11-.19Z"/>
      <path class="cls-1" d="m168.31,230.83c-10.43-23.45-17.07-49.29-25.4-73.59l-24.22,74.88c16.18,5.08,33.72,4.6,49.62-1.29h0Z"/>
      <path class="cls-1" d="m185.11,230.07l.31.57c-15.87,5.88-33.37,6.35-49.53,1.29l24.17-74.71c8.33,24.27,16.1,48.8,25.05,72.85h0Z"/>
    </g>
    <g>
      <path class="cls-1" d="m122.26,226.17l1.25.66-17.23.18c-27.51-14.31-44.45-43.81-45.37-74.52-.38-12.89,1.96-25.8,6.93-37.7l17.31.08c-13.44,32.22-6.95,71.06,17.43,96.28,5.76,5.96,12.4,11.05,19.68,15.01h0Z"/>
      <path class="cls-1" d="m123.51,226.83l-38.36-111.96-17.31-.08,38.44,112.22c5.74-.06,11.49-.12,17.23-.18Z"/>
      <path class="cls-1" d="m106.27,227.01l-38.44-112.22c-13.6,32.65-6.81,72.01,18.21,97.27,5.93,5.98,12.76,11.05,20.23,14.94h0Z"/>
      <path class="cls-1" d="m85.15,114.87l38.36,111.96c-27.46-14.28-44.36-43.71-45.28-74.34-.38-12.86,1.96-25.74,6.91-37.61h0Z"/>
    </g>
  </g>
  <g id="Page-1-3" data-name="Page-1">
    <g>
      <path class="cls-2" d="m169.18,110.1l29.15,92.21-17.08.12-29.2-92.42c5.71.03,11.43.06,17.14.09Z"/>
      <path class="cls-2" d="m143.13,110.12c-3.07-.2-13.94.37-11.12-5.88,1.99-4.41,15.54-1.12,19.66-1.01,7.55.19,15.23-1.06,22.72-.73,4.47.2,10.67,2.23,4.56,6.67-5.18,3.76-22.42.87-26.92.84,2.37-.14,9.64.43,11.33-1.85,5.21-7.01-7.07-5.68-10.1-5.49-5.89.38-39.29-2.53-38.79,3.26.63,7.4,25.56,4.16,28.66,4.18Z"/>
      <path class="cls-2" d="m138.06,202.97l17.62-56.26-12.55-36.59-17.19-.09,12.57,36.67-17.66,56.39c5.73-.04,11.47-.08,17.2-.12Z"/>
      <path class="cls-2" d="m108.75,110.16l29.31,92.81-17.2.12-29.37-93.03c5.75.03,11.51.06,17.26.09Z"/>
      <path class="cls-2" d="m90.83,103.27c5.31.18,29.98-3.71,30.12,2.36.18,7.83-27.97,4.44-29.47,4.43,3.21-.19,15.01.35,11.84-6.12-2.09-4.27-24.48-.59-29.79-.78,5.77.04,11.53.07,17.3.11Z"/>
      <path class="cls-2" d="m212.54,87.02c-36.35-35.24-95.14-26.43-121.71,16.25l-17.3-.11c26.61-42.78,85.52-51.61,121.95-16.29l17.05.15Z"/>
      <path class="cls-2" d="m212.52,146.38c.11-13.74-7.38-22.46-12.28-34.43-3.98-9.72-1.7-26.19,12.3-24.93-11.56-.1-27.89-3.56-31.28,11.43-2.06,9.07,3.88,16.79,7.83,24.34,8.77,16.78,6.05,30.71,1.17,48-2.98,10.55-6.04,21.08-9.01,31.63l17.08-.12c4.92-17.48,13.96-37.59,14.2-55.93h0Z"/>
      <path class="cls-2" d="m195.47,146.37c.11-13.77-7.39-22.51-12.31-34.51-3.99-9.74-1.71-26.25,12.33-24.99-36.43-35.33-95.34-26.49-121.95,16.29,5.38.19,27.6-3.53,29.79.78,3.28,6.44-8.72,5.94-11.84,6.12l29.37,93.03,17.66-56.39-12.57-36.67c-3.2-.2-12.86.59-11.35-5.25,1.35-5.22,13.46-1.89,17.41-1.74,4.97.19,36.18-3.62,31.82,4.51-1.57,2.92-9.1,2.31-11.78,2.46l29.2,92.42c4.93-17.52,13.98-37.68,14.22-56.06h0Z"/>
      <path class="cls-2" d="m212.52,145.98c-.04,18.42-9.26,38.79-14.2,56.33l-29.15-92.21c2.22-.13,9.08.44,10.84-1.43,5.3-5.65-3.23-6.14-6.74-6.09-6.02.08-38.17-2.79-40.85.94-4.67,6.5,7.84,6.41,10.71,6.6l12.55,36.59-17.62,56.26-29.31-92.81c3.2-.19,14.98.35,11.82-6.11-2.09-4.26-24.44-.59-29.73-.78,26.56-42.68,85.35-51.5,121.71-16.25-13.8-1.21-16.31,14.9-12.43,24.62,4.79,11.99,12.39,20.64,12.42,34.34h0Z"/>
    </g>
    <g>
      <path class="cls-2" d="m228.87,109.13c3.3,26.32-9.9,53.12-17.91,77.56-4.13,12.59-8.25,25.19-12.35,37.79l-17.08.17c6.43-19.76,12.94-39.49,19.37-59.25,4.14-12.73,9.51-25.83,11.1-39.2.68-5.66.55-11.53-.15-17.17,5.67.03,11.35.06,17.02.1Z"/>
      <path class="cls-2" d="m238.77,150.31c-.01-14.28-3.35-28.49-9.9-41.19l-17.02-.1c15.92,30.87,12.37,70.01-9.48,97.14-5.85,7.27-12.9,13.56-20.84,18.48l17.08-.17c25.35-15.71,40.13-44.59,40.16-74.16h0Z"/>
      <path class="cls-2" d="m221.76,150.31c-.01-14.31-3.35-28.55-9.92-41.28,3.31,26.38-9.92,53.24-17.94,77.74-4.14,12.62-8.27,25.24-12.38,37.87,25.41-15.75,40.21-44.7,40.24-74.33h0Z"/>
      <path class="cls-2" d="m238.75,148.92c.33,23.51-8.52,46.84-25.14,63.6-4.52,4.55-9.55,8.58-15,11.96,6.42-19.71,12.92-39.4,19.33-59.11,4.13-12.7,9.49-25.77,11.08-39.11.67-5.64.55-11.5-.15-17.13,6.34,12.28,9.67,25.98,9.89,39.79h0Z"/>
    </g>
    <g>
      <path class="cls-2" d="m159.49,157.81l-24.17,74.71-17.21.19,24.22-74.88,17.16-.02Z"/>
      <path class="cls-2" d="m183.22,231.82l1.62-.58-17.11.19c-15.9,5.89-33.44,6.37-49.62,1.29l17.21-.19c15.59,4.89,32.45,4.63,47.9-.7h0Z"/>
      <path class="cls-2" d="m184.85,231.23c-10.36-23.44-17.03-49.16-25.35-73.42l-17.16.02c8.33,24.3,14.98,50.13,25.4,73.59,5.7-.06,11.41-.12,17.11-.19Z"/>
      <path class="cls-2" d="m167.74,231.42c-10.43-23.45-17.07-49.29-25.4-73.59l-24.22,74.88c16.18,5.08,33.72,4.6,49.62-1.29h0Z"/>
      <path class="cls-2" d="m184.54,230.66l.31.57c-15.87,5.88-33.37,6.35-49.53,1.29l24.17-74.71c8.33,24.27,16.1,48.8,25.05,72.85h0Z"/>
    </g>
    <g>
      <path class="cls-2" d="m121.68,226.76l1.25.66-17.23.18c-27.51-14.31-44.45-43.81-45.37-74.52-.38-12.89,1.96-25.8,6.93-37.7l17.31.08c-13.44,32.22-6.95,71.06,17.43,96.28,5.76,5.96,12.4,11.05,19.68,15.01h0Z"/>
      <path class="cls-2" d="m122.93,227.42l-38.36-111.96-17.31-.08,38.44,112.22c5.74-.06,11.49-.12,17.23-.18Z"/>
      <path class="cls-2" d="m105.7,227.6l-38.44-112.22c-13.6,32.65-6.81,72.01,18.21,97.27,5.93,5.98,12.76,11.05,20.23,14.94h0Z"/>
      <path class="cls-2" d="m84.57,115.47l38.36,111.96c-27.46-14.28-44.36-43.71-45.28-74.34-.38-12.86,1.96-25.74,6.91-37.61h0Z"/>
    </g>
  </g>
</svg>