<?xml version="1.0" encoding="UTF-8"?>
<svg id="Layer_2" data-name="Layer 2" xmlns="http://www.w3.org/2000/svg" viewBox="0 0 462.03 351.35">
  <defs>
    <style>
      .cls-1 {
        fill: #f5f5f5;
      }

      .cls-1, .cls-2 {
        stroke-width: 0px;
      }

      .cls-2 {
        fill: #191919;
      }
    </style>
  </defs>
  <g id="Layer_1-2" data-name="Layer 1">
    <path class="cls-2" d="m452.66,270.16l-13.9,7.78-7.89-17.34,8.61-31.02-35.41-30.2,1.19-8.49h-8.16l6.12-1.67-10.05-38.1-21.05-12.46-12.73,58.66-4.52,1.11-36.58-21.98-5.81-17.27-25.28-34.85-33.44-50.71-21.51-16.48-8.77-4.64-13.85,62.55,1.68,3.69-8.22,4.55c-2.95-4.55-6.27-8.95-9.95-13.2-2.98-3.43-6.13-6.68-9.45-9.79l12.93-8.62-1.87-6.45,1.87-2.34-4.54-6.89-4.67-16.14-15.07-13.82-5.65-8.58-4.08-.35-3.5-3.21-42.44-8.37-35.38,3.77-1.37.82-9.72-.82,2.62,5.08-5.13,3.08,11.36,27.64-31.86-.92L13.65,0,0,62.8l79.01,173.46,18.51,40.63,49.25,1.43,13.63-62.8-42.82-1.24-6.21-13.66-16.61-36.43-8.96-19.71-19.68-43.19,46.75,1.37c4.17.12,8.11.49,11.82,1.09,5.04.89,10.73,2.37,16.21,4.81,2.33,1.08,4.53,2.31,6.59,3.68,2.49,1.68,4.77,3.49,6.89,5.4l-10.4,47.89,16.63,36.51c4.86.32,9.3.32,13.36.08,1.52-.07,3.02-.16,4.46-.3,6.19-.6,11.65-1.84,16.37-3.73,7.71-3.07,13.49-7.45,17.41-13.19,1.26-1.82,2.28-3.79,3.11-5.87.16-.37.3-.71.42-1.04,0-.01,0-.02.01-.03.72-1.9.92-3.1.92-3.1l.31-1.46c.05-.24.11-.47.15-.71l6.02-27.98,31.69,69.49s.93,2.35,2.86,6.07c3.86,7.96,8.7,15.21,14.56,21.7.77.86,1.56,1.7,2.35,2.53,4.46,4.83,9.72,9.56,15.82,13.64.28.2.55.39.83.58l-5.2,23.91h0s0,0,0,0h0s2.23,5.7,7.32,13.78c8.76,14.29,20.08,26.11,33.97,35.45,4.02,2.7,8.23,5.1,12.62,7.23,0,0,33.17,11.64,53.22,12.21,4.4.13,8.58,0,12.55-.38,6.03-.58,11.56-1.77,16.59-3.55,4.39-1.55,8.22-3.52,11.54-5.87.1-.09.19-.18.29-.27,2.84-2.05,5.29-4.39,7.34-7.04,2.9-3.8,4.88-8.22,5.94-13.26.03-.11.06-.22.08-.33l13.24-61-8.11,10.55Zm-90.07,5.89c3.91-.86,7.41-2.13,10.49-3.81,6.81-3.73,10.24-9.1,10.31-16.09l11.77,25.8c.32.7.61,1.38.88,2.07l-33.46-7.96Z"/>
    <path class="cls-2" d="m13.65,0l103.76,3c11.57.33,22.77,2.43,33.6,6.23,10.83,3.82,20.99,9,30.5,15.51,9.47,6.55,17.92,14.04,25.27,22.53,7.37,8.49,13.25,17.56,17.65,27.23,4.41,9.69,6.74,18.62,6.96,26.77.24,8.17-1.61,15.14-5.52,20.83-3.92,5.74-9.72,10.12-17.41,13.19-4.73,1.89-10.18,3.13-16.38,3.73-3.89.38-8.06.5-12.53.37l-5.31-.15-16.63-36.51c2.59.01,4.99-.09,7.2-.3,8.63-.83,14.3-3.38,16.96-7.67,3.58-5.75,3.19-13.33-1.13-22.79-4.11-9.04-10.61-16.54-19.49-22.51-8.91-5.99-20.46-9.18-34.59-9.59l-46.77-1.37,19.68,43.17,8.96,19.71,16.61,36.43,8.57,18.83,26.81,58.87-49.22-1.43-18.51-40.63L13.65,0"/>
    <path class="cls-1" d="m113.78,210.16L19.96,4.18l97.34,2.82c11.04.32,21.94,2.34,32.39,6,10.39,3.66,20.34,8.72,29.56,15.04,9.24,6.4,17.49,13.75,24.5,21.84,7.07,8.14,12.8,16.98,17.04,26.27,4.18,9.17,6.4,17.66,6.6,25.22.22,7.28-1.41,13.49-4.82,18.46-3.49,5.1-8.59,8.94-15.6,11.74-4.35,1.73-9.49,2.9-15.28,3.46-2.76.27-5.72.4-8.8.4-1.06,0-2.13-.02-3.23-.05l-2.82-.08-13.11-28.78c.49-.04.98-.08,1.45-.12,9.92-.96,16.64-4.17,19.97-9.54,4.3-6.91,4-15.84-.89-26.56-4.4-9.67-11.43-17.81-20.9-24.17-9.51-6.39-21.86-9.84-36.71-10.27l-53.19-1.55,22.34,49.02,8.96,19.71,16.61,36.43,8.56,18.83,24.15,53.03-40.32-1.17Z"/>
    <path class="cls-2" d="m223.48,52.48l46.05,1.33,44.05,96.71c9,19.79,23.3,29.95,42.92,30.53,2.22.06,4.3,0,6.23-.19,7.29-.71,12.49-3.19,15.62-7.45,3.96-5.4,3.96-12.4.04-21.01l-6.28-13.76,46.07,1.33,36.37,79.87c5.1,11.16,7.57,21.1,7.47,29.8-.13,8.7-2.43,15.94-6.88,21.75-4.46,5.81-10.86,10.19-19.19,13.13-5.03,1.79-10.56,2.97-16.59,3.55-3.97.38-8.15.51-12.55.38-25.74-.73-47.67-7.21-65.8-19.4-18.13-12.2-31.91-28.61-41.3-49.23l42.86,1.23c4.3,9.47,10.68,16.96,19.15,22.52,8.46,5.52,18.71,8.5,30.77,8.83,1.31.04,2.57,0,3.77-.12,2.67-.26,5.06-.9,7.16-1.94,3.06-1.51,5.38-3.68,7.01-6.48,1.64-2.81,2.36-6.35,2.17-10.6-.19-4.23-1.47-8.95-3.81-14.1l-11.77-25.8c-.07,7.01-3.5,12.35-10.29,16.11-4.73,2.57-10.42,4.18-17.06,4.82-2.96.29-6.11.38-9.45.28-9.24-.28-18.33-1.86-27.34-4.76-9.01-2.91-17.5-6.97-25.49-12.2-7.96-5.21-15.13-11.36-21.51-18.43-6.36-7.09-11.54-15.02-15.56-23.85l-46.86-102.84"/>
    <path class="cls-1" d="m410.18,284.5c-1.07,0-2.15-.02-3.24-.05-24.84-.71-46.26-7-63.69-18.72-15.69-10.56-28.13-24.58-37.04-41.73l33.82.97c4.56,9.05,11.12,16.42,19.51,21.94,9.12,5.95,20.17,9.14,32.86,9.48.36.01.72.02,1.08.02,1.09,0,2.16-.05,3.18-.15,3.16-.31,6.04-1.09,8.55-2.34,3.74-1.85,6.66-4.56,8.69-8.06,2.02-3.45,2.93-7.75,2.71-12.79-.21-4.69-1.61-9.93-4.16-15.57l-16.34-30.75h0c-.05,5.56-5.74,16.14-11.3,19.21-4.21,2.29-9.44,3.75-15.51,4.34-2.07.2-4.27.3-6.55.3-.79,0-1.58-.01-2.39-.04-8.83-.27-17.66-1.81-26.23-4.57-8.61-2.78-16.87-6.73-24.52-11.74-7.61-4.98-14.59-10.95-20.73-17.76-6.06-6.76-11.07-14.44-14.89-22.83l-44.2-97,37.14,1.07,43.02,94.44c9.64,21.19,25.27,32.25,46.44,32.87.6.02,1.18.03,1.75.03,1.73,0,3.41-.08,4.98-.23,8.44-.82,14.65-3.87,18.46-9.07,4.85-6.62,5.01-15.04.45-25.03l-3.61-7.91,37.16,1.07,35.34,77.6c4.81,10.54,7.2,20,7.11,28.09-.11,7.74-2.15,14.27-6.05,19.37-3.95,5.15-9.79,9.12-17.34,11.78-4.7,1.67-9.96,2.79-15.65,3.34-2.8.27-5.76.41-8.8.41Z"/>
  </g>
</svg>