<?xml version="1.0" encoding="UTF-8"?>
<svg id="Layer_1" data-name="Layer 1" xmlns="http://www.w3.org/2000/svg" viewBox="0 0 20 20">
  <defs>
    <style>
      .cls-1 {
        fill: #f5f5f5;
      }

      .cls-1, .cls-2 {
        stroke-width: 0px;
      }

      .cls-2 {
        fill: #191919;
      }
    </style>
  </defs>
  <g>
    <path class="cls-1" d="m12.46,18.55c-.31,0-.6-.14-.79-.39l-1.86-2.39-1.87,2.39c-.19.25-.48.39-.79.39-.28,0-.54-.11-.74-.31-.19-.2-.29-.46-.28-.74l.11-3.02-2.97.63c-.07.01-.15.02-.22.02-.39,0-.75-.24-.92-.6-.16-.37-.1-.78.17-1.08l2.03-2.24-2.67-1.43c-.39-.21-.6-.63-.52-1.07.08-.44.41-.76.86-.82l3-.41-1.13-2.81c-.13-.32-.09-.66.09-.94.19-.28.5-.45.84-.45.19,0,.37.05.54.16l2.56,1.61.94-2.88c.14-.42.51-.7.96-.7s.82.27.96.7l.93,2.88,2.57-1.6c.16-.1.35-.16.54-.16.34,0,.65.17.84.45.19.28.22.62.09.94l-1.14,2.8,3,.43c.44.06.78.38.86.82.08.44-.13.86-.52,1.07l-2.67,1.41,2.03,2.26c.27.3.34.71.17,1.08-.16.37-.52.6-.92.6-.07,0-.15,0-.22-.02l-2.96-.63.1,3.03c0,.28-.09.54-.28.74-.19.2-.46.31-.74.31Z"/>
    <path class="cls-2" d="m9.81,1.95c.2,0,.41.12.48.35l.93,2.88c.07.22.27.35.49.35.09,0,.18-.02.27-.08l2.56-1.61c.09-.06.18-.08.27-.08.33,0,.62.34.47.7l-1.14,2.8c-.12.31.07.65.4.7l3,.41c.49.07.61.72.17.95l-2.67,1.41c-.29.16-.36.55-.14.79l2.03,2.24c.3.34.05.85-.37.85-.04,0-.07,0-.11-.01l-2.96-.64s-.07-.01-.11-.01c-.28,0-.52.23-.51.53l.11,3.02c.01.32-.25.53-.51.53-.14,0-.29-.06-.4-.2l-1.86-2.39c-.1-.13-.25-.2-.4-.2s-.3.07-.4.2l-1.86,2.39c-.11.14-.25.2-.4.2-.27,0-.53-.21-.51-.53l.11-3.02c.01-.29-.23-.53-.51-.53-.04,0-.07,0-.11.01l-2.96.64s-.08.01-.11.01c-.42,0-.68-.51-.37-.85l2.03-2.24c.22-.25.15-.64-.14-.79l-2.67-1.41c-.44-.23-.32-.89.17-.95l3-.41c.33-.05.53-.39.4-.7l-1.14-2.8c-.15-.36.14-.7.47-.7.09,0,.18.02.27.08l2.56,1.61c.08.05.18.08.27.08.21,0,.41-.13.49-.35l.93-2.88c.08-.24.28-.35.48-.35m0-1c-.66,0-1.23.42-1.44,1.05l-.73,2.28-2.03-1.27c-.24-.15-.52-.23-.8-.23-.5,0-.97.25-1.26.67-.28.41-.33.94-.14,1.41l.9,2.22-2.37.33c-.65.09-1.17.59-1.28,1.23-.11.65.2,1.29.78,1.6l2.12,1.12-1.6,1.77c-.41.45-.51,1.07-.26,1.62.24.55.78.9,1.37.9.11,0,.22-.01.32-.03l2.34-.5-.09,2.39c-.02.41.13.81.42,1.1.28.3.68.47,1.1.47.47,0,.9-.21,1.19-.58l1.47-1.89,1.47,1.89c.29.37.72.58,1.19.58.41,0,.81-.17,1.1-.47.28-.29.43-.69.42-1.1l-.09-2.39,2.34.5c.11.02.22.03.32.03.59,0,1.13-.35,1.37-.9.24-.55.14-1.17-.26-1.62l-1.6-1.77,2.12-1.12c.58-.31.89-.95.78-1.6-.11-.65-.63-1.14-1.28-1.23l-2.37-.33.9-2.22c.19-.47.14-.99-.14-1.41-.28-.42-.75-.67-1.26-.67-.28,0-.56.08-.8.23l-2.03,1.27-.73-2.28c-.2-.63-.78-1.05-1.44-1.05h0Z"/>
  </g>
  <g>
    <path class="cls-1" d="m12.99,17.74c-.31,0-.6-.14-.79-.39l-1.86-2.39-1.87,2.39c-.19.25-.48.39-.79.39-.28,0-.54-.11-.74-.31-.19-.2-.29-.46-.28-.74l.11-3.02-2.97.63c-.07.01-.15.02-.22.02-.39,0-.75-.24-.92-.6-.16-.37-.1-.78.17-1.08l2.03-2.24-2.67-1.43c-.39-.21-.6-.63-.52-1.07.08-.44.41-.76.86-.82l3-.41-1.13-2.81c-.13-.32-.09-.66.09-.94.19-.28.5-.45.84-.45.19,0,.37.05.54.16l2.56,1.61.94-2.88c.14-.42.51-.7.96-.7s.82.27.96.7l.93,2.88,2.57-1.6c.16-.1.35-.16.54-.16.34,0,.65.17.84.45.19.28.22.62.09.94l-1.14,2.8,3,.43c.44.06.78.38.86.82.08.44-.13.86-.52,1.07l-2.67,1.41,2.03,2.26c.27.3.34.71.17,1.08-.16.37-.52.6-.92.6-.07,0-.15,0-.22-.02l-2.96-.63.1,3.03c0,.28-.09.54-.28.74-.19.2-.46.31-.74.31Z"/>
    <path class="cls-2" d="m10.33,1.13c.2,0,.41.12.48.35l.93,2.88c.07.22.27.35.49.35.09,0,.18-.02.27-.08l2.56-1.61c.09-.06.18-.08.27-.08.33,0,.62.34.47.7l-1.14,2.8c-.12.31.07.65.4.7l3,.41c.49.07.61.72.17.95l-2.67,1.41c-.29.16-.36.55-.14.79l2.03,2.24c.3.34.05.85-.37.85-.04,0-.07,0-.11-.01l-2.96-.64s-.07-.01-.11-.01c-.28,0-.52.23-.51.53l.11,3.02c.01.32-.25.53-.51.53-.14,0-.29-.06-.4-.2l-1.86-2.39c-.1-.13-.25-.2-.4-.2s-.3.07-.4.2l-1.86,2.39c-.11.14-.25.2-.4.2-.27,0-.53-.21-.51-.53l.11-3.02c.01-.29-.23-.53-.51-.53-.04,0-.07,0-.11.01l-2.96.64s-.08.01-.11.01c-.42,0-.68-.51-.37-.85l2.03-2.24c.22-.25.15-.64-.14-.79l-2.67-1.41c-.44-.23-.32-.89.17-.95l3-.41c.33-.05.53-.39.4-.7l-1.14-2.8c-.15-.36.14-.7.47-.7.09,0,.18.02.27.08l2.56,1.61c.08.05.18.08.27.08.21,0,.41-.13.49-.35l.93-2.88c.08-.24.28-.35.48-.35m0-1c-.66,0-1.23.42-1.44,1.05l-.73,2.28-2.03-1.27c-.24-.15-.52-.23-.8-.23-.5,0-.97.25-1.26.67-.28.41-.33.94-.14,1.41l.9,2.22-2.37.33c-.65.09-1.17.59-1.28,1.23-.11.65.2,1.29.78,1.6l2.12,1.12-1.6,1.77c-.41.45-.51,1.07-.26,1.62.24.55.78.9,1.37.9.11,0,.22-.01.32-.03l2.34-.5-.09,2.39c-.02.41.13.81.42,1.1.28.3.68.47,1.1.47.47,0,.9-.21,1.19-.58l1.47-1.89,1.47,1.89c.29.37.72.58,1.19.58.41,0,.81-.17,1.1-.47.28-.29.43-.69.42-1.1l-.09-2.39,2.34.5c.11.02.22.03.32.03.59,0,1.13-.35,1.37-.9.24-.55.14-1.17-.26-1.62l-1.6-1.77,2.12-1.12c.58-.31.89-.95.78-1.6-.11-.65-.63-1.14-1.28-1.23l-2.37-.33.9-2.22c.19-.47.14-.99-.14-1.41-.28-.42-.75-.67-1.26-.67-.28,0-.56.08-.8.23l-2.03,1.27-.73-2.28c-.2-.63-.78-1.05-1.44-1.05h0Z"/>
  </g>
</svg>